<svg width="833" height="700" viewBox="0 0 833 700" fill="none" xmlns="http://www.w3.org/2000/svg">
<path fill-rule="evenodd" clip-rule="evenodd" d="M416.22 0C448.477 0 480.013 9.54287 506.857 27.4284L824.112 238.272C827.397 240.452 829.891 243.632 831.227 247.342C832.562 251.051 832.668 255.092 831.527 258.866C830.387 262.639 828.061 265.946 824.895 268.295C821.728 270.644 817.889 271.91 813.947 271.906H700.715V580.489C700.715 597.682 693.885 614.17 681.728 626.327C669.571 638.484 653.083 645.314 635.89 645.314H425.407V580.177C448.866 575.338 473.01 566.094 497.987 552.272C604.485 493.337 584.115 353.265 584.115 353.265L610.747 323.297L569.629 317.596C569.629 317.596 544.008 247.2 466.674 239.559C389.339 231.918 328.894 302.627 331.488 351.729C331.655 354.883 331.821 357.917 331.982 360.843C334.324 403.467 335.399 423.027 316.337 453.034C280.849 502.637 212.433 492.836 212.433 492.836C274.115 558.991 337.595 590.64 406.879 583.101V700H196.396C187.884 700 179.456 698.324 171.592 695.065C163.729 691.807 156.584 687.032 150.567 681.012C144.549 674.992 139.777 667.846 136.522 659.981C133.267 652.116 131.593 643.687 131.597 635.175V271.906H18.3648C14.4223 271.91 10.5836 270.644 7.41723 268.295C4.25083 265.946 1.92512 262.639 0.784593 258.866C-0.355935 255.092 -0.250624 251.051 1.08491 247.342C2.42045 243.632 4.9152 240.452 8.19964 238.272L325.583 27.4284C352.428 9.54287 383.963 0 416.22 0Z" fill="#00D4CD"/>
<path d="M504.504 371.761C519.17 371.761 531.059 359.872 531.059 345.207C531.059 330.541 519.17 318.652 504.504 318.652C489.839 318.652 477.95 330.541 477.95 345.207C477.95 359.872 489.839 371.761 504.504 371.761Z" fill="#00D4CD"/>
</svg>
