<?xml version="1.0" encoding="utf-8" ?>
<svg xmlns="http://www.w3.org/2000/svg" xmlns:ev="http://www.w3.org/2001/xml-events" xmlns:xlink="http://www.w3.org/1999/xlink" baseProfile="full" height="560px" version="1.1" viewBox="0 0 560 560" width="560px">
  <defs/>
  <g id="x000000_r0_g0_b0_a1.0">
    <path d="M 239,523 238,523 238,526 237,526 237,533 236,533 236,538 235,538 235,541 234,541 234,550 233,550 233,555 232,555 232,560 227,560 227,552 228,552 228,549 228,547 229,547 229,544 229,539 230,539 230,536 230,535 231,535 231,534 231,531 232,531 232,528 232,524 233,524 233,521 234,521 234,515 235,515 235,512 236,512 236,508 236,507 237,507 237,506 237,504 238,504 238,502 238,501 239,501 239,500 239,496 240,496 240,493 241,493 241,489 242,489 242,486 243,486 243,483 244,483 244,479 245,479 245,477 246,477 246,473 247,473 247,471 248,471 248,468 249,468 249,465 250,465 250,463 251,463 251,459 252,459 252,457 253,457 253,454 254,454 254,453 255,453 255,450 256,450 256,448 257,448 257,445 258,445 258,443 259,443 259,441 260,441 260,438 261,438 261,437 262,437 262,434 263,434 263,431 264,431 264,429 265,429 265,426 266,426 266,423 267,423 267,418 268,418 268,415 269,415 269,412 270,412 270,409 271,409 271,407 272,407 272,402 273,402 273,400 274,400 274,397 275,397 275,394 276,394 276,390 277,390 277,386 278,386 278,382 279,382 279,372 279,369 280,369 280,368 281,368 281,366 280,366 280,364 279,364 279,362 277,362 277,361 275,361 275,360 273,360 273,359 272,359 272,357 271,357 271,356 269,356 269,355 265,355 265,354 261,354 261,353 260,353 260,352 259,352 259,351 258,351 257,351 257,350 256,350 256,349 254,349 250,349 250,350 247,350 247,351 240,351 240,350 239,350 239,349 235,349 233,349 233,350 231,350 231,351 229,351 229,352 228,352 228,353 227,353 227,354 226,354 226,355 225,355 225,357 224,357 224,359 223,359 223,361 223,362 222,362 222,363 222,364 223,364 223,365 223,367 222,367 222,368 221,368 221,369 222,369 222,372 221,372 221,374 220,374 220,375 219,375 217,375 217,374 215,374 215,371 214,371 214,372 213,372 213,375 212,375 212,376 211,376 211,377 211,380 210,380 210,384 210,395 211,395 211,412 210,412 210,413 212,413 212,414 211,414 211,416 211,418 210,418 210,420 210,421 209,421 209,422 209,425 208,425 208,428 207,428 207,433 206,433 206,438 206,440 205,440 205,442 205,443 204,443 204,444 204,449 203,449 203,451 202,451 202,457 201,457 201,462 200,462 200,466 199,466 199,473 199,474 198,474 198,475 198,478 197,478 197,483 196,483 196,486 195,486 195,490 194,490 194,493 193,493 193,496 192,496 192,500 191,500 191,503 190,503 190,507 189,507 189,510 188,510 188,515 187,515 187,517 186,517 186,520 185,520 185,526 184,526 184,528 183,528 183,531 183,533 182,533 182,536 181,536 181,540 180,540 180,542 179,542 179,545 178,545 178,548 177,548 177,550 176,550 176,552 176,553 175,553 175,554 175,555 174,555 174,556 174,559 173,559 173,560 167,560 167,559 168,559 168,556 169,556 169,552 170,552 170,551 171,551 171,547 172,547 172,546 173,546 173,542 174,542 174,540 175,540 175,537 176,537 176,534 177,534 177,531 178,531 178,526 179,526 179,523 180,523 180,518 181,518 181,515 182,515 182,512 183,512 183,507 184,507 184,504 185,504 185,500 186,500 186,498 187,498 187,495 187,493 188,493 188,491 189,491 189,488 190,488 190,484 191,484 191,481 192,481 192,476 193,476 193,472 194,472 194,466 194,464 195,464 195,462 195,459 196,459 196,456 196,455 197,455 197,454 197,449 198,449 198,446 199,446 199,441 200,441 200,437 201,437 201,432 201,430 202,430 202,427 202,426 201,426 201,427 197,427 197,428 194,428 194,429 188,429 188,430 183,430 183,431 180,431 171,431 171,432 169,432 163,432 163,433 159,433 158,433 158,434 157,434 154,434 154,435 152,435 152,436 150,436 150,437 147,437 147,438 144,438 144,439 142,439 142,440 140,440 140,441 138,441 138,442 137,442 137,443 136,443 136,444 134,444 134,445 133,445 133,446 132,446 132,447 131,447 131,449 130,449 130,450 129,450 129,452 128,452 128,453 127,453 127,455 127,458 126,458 126,463 125,463 125,466 124,466 124,474 123,474 123,480 122,480 122,486 121,486 121,489 120,489 120,494 119,494 119,498 118,498 118,504 117,504 117,510 116,510 116,513 115,513 115,520 114,520 114,525 113,525 113,532 112,532 112,536 111,536 111,543 110,543 110,554 109,554 109,558 110,558 110,560 104,560 104,552 105,552 105,540 106,540 106,534 107,534 107,530 108,530 108,522 109,522 109,518 110,518 110,511 111,511 111,508 112,508 112,502 113,502 113,496 114,496 114,492 115,492 115,486 116,486 116,483 117,483 117,477 118,477 118,472 119,472 119,464 120,464 120,460 121,460 121,456 122,456 122,451 123,451 123,449 124,449 124,448 125,448 125,447 126,447 126,445 127,445 127,444 128,444 128,443 129,443 129,442 130,442 130,441 131,441 131,440 132,440 132,439 133,439 133,438 134,438 134,437 135,437 135,436 138,436 138,435 140,435 140,434 141,434 141,433 145,433 145,432 147,432 147,431 150,431 150,430 152,430 152,429 156,429 156,428 161,428 161,427 166,427 169,427 169,426 171,426 180,426 180,425 186,425 186,424 191,424 191,423 194,423 194,422 198,422 198,421 201,421 201,420 202,420 202,419 203,419 203,418 205,418 205,415 206,415 206,398 205,398 205,378 206,378 206,373 207,373 207,372 208,372 208,370 209,370 209,369 210,369 210,367 211,367 211,365 208,365 208,364 206,364 206,363 204,363 204,362 202,362 202,361 198,361 198,360 196,360 196,359 193,359 193,358 192,358 192,361 193,361 193,364 194,364 194,366 195,366 195,368 196,368 196,369 197,369 197,372 196,372 196,373 191,373 191,372 186,372 186,371 185,371 185,370 182,370 182,369 181,369 181,368 180,368 180,367 179,367 179,366 177,366 177,365 176,365 176,364 175,364 175,363 174,363 174,362 173,362 173,361 172,361 172,360 171,360 171,358 170,358 170,357 169,357 169,363 170,363 170,365 171,365 171,366 172,366 172,368 173,368 173,369 174,369 174,370 175,370 175,371 176,371 176,372 177,372 177,373 178,373 178,376 177,376 177,377 166,377 166,376 164,376 164,375 161,375 161,374 159,374 159,373 157,373 157,372 156,372 156,371 155,371 155,370 153,370 153,369 151,369 151,368 150,368 150,367 149,367 149,366 148,366 148,365 147,365 147,364 146,364 146,363 144,363 144,362 143,362 143,361 142,361 142,359 141,359 141,358 140,358 140,357 139,357 139,355 138,355 138,352 137,352 137,351 136,351 136,340 135,340 135,339 134,339 134,338 133,338 133,337 132,337 132,336 130,336 130,335 129,335 129,334 128,334 128,333 127,333 127,332 126,332 126,331 125,331 125,330 124,330 124,329 123,329 123,328 122,328 122,327 121,327 121,326 120,326 120,324 119,324 119,323 118,323 118,321 117,321 117,320 116,320 116,318 115,318 115,315 114,315 114,313 113,313 113,310 112,310 112,307 111,307 111,300 110,300 110,301 107,301 107,302 102,302 102,303 87,303 87,302 76,302 76,301 75,301 75,298 76,298 76,297 79,297 79,296 81,296 81,295 83,295 83,294 84,294 84,293 87,293 87,292 88,292 88,291 90,291 90,290 92,290 92,289 94,289 94,288 96,288 96,287 97,287 97,286 99,286 99,285 100,285 100,284 101,284 101,283 102,283 102,281 103,281 103,280 105,280 105,278 106,278 106,276 107,276 107,275 108,275 108,273 109,273 109,272 110,272 110,257 111,257 111,242 112,242 112,225 113,225 113,217 114,217 114,208 115,208 115,201 116,201 116,196 117,196 117,191 118,191 118,187 118,186 119,186 119,185 119,184 120,184 120,183 120,180 121,180 121,178 122,178 122,175 123,175 123,172 124,172 124,169 125,169 125,166 126,166 126,163 127,163 127,161 128,161 128,159 129,159 129,155 130,155 130,153 131,153 131,152 132,152 132,150 132,149 133,149 133,148 133,147 134,147 134,146 134,145 135,145 135,144 135,143 136,143 136,142 136,140 137,140 137,139 138,139 138,138 139,138 139,136 140,136 140,135 141,135 141,133 142,133 142,132 143,132 143,131 145,131 145,130 146,130 146,129 147,129 147,127 148,127 148,126 149,126 149,125 150,125 150,124 151,124 151,123 152,123 152,122 153,122 153,121 154,121 154,120 155,120 155,119 157,119 157,118 158,118 158,117 159,117 159,116 160,116 160,115 162,115 162,114 163,114 163,113 165,113 165,112 166,112 166,111 167,111 167,110 169,110 169,109 170,109 170,108 172,108 172,107 173,107 173,106 175,106 175,105 177,105 177,104 178,104 178,103 180,103 180,102 182,102 182,101 184,101 184,100 187,100 187,99 189,99 189,98 192,98 192,96 193,96 193,95 195,95 195,94 197,94 197,93 200,93 200,92 202,92 202,91 205,91 206,91 206,90 207,90 209,90 209,89 211,89 215,89 215,88 217,88 218,88 218,87 219,87 225,87 225,86 235,86 235,85 246,85 246,83 245,83 245,82 244,82 244,81 243,81 243,79 242,79 242,77 241,77 241,75 240,75 240,74 239,74 239,71 238,71 238,51 239,51 239,49 240,49 240,47 241,47 241,45 242,45 242,43 243,43 243,42 244,42 244,41 245,41 245,39 246,39 246,38 247,38 247,37 248,37 248,36 249,36 249,35 250,35 250,34 251,34 251,33 252,33 252,32 254,32 254,31 256,31 256,30 257,30 257,29 259,29 259,28 260,28 260,27 262,27 262,26 264,26 264,25 267,25 267,24 270,24 270,23 280,23 291,23 291,24 296,24 296,25 300,25 300,26 303,26 303,28 304,28 304,29 305,29 305,30 306,30 306,34 305,34 305,35 295,35 295,36 290,36 290,37 287,37 287,38 284,38 284,39 282,39 282,40 280,40 280,41 279,41 279,42 277,42 277,43 275,43 275,44 274,44 274,45 273,45 273,47 272,47 272,48 271,48 271,50 270,50 270,62 271,62 271,64 272,64 272,68 273,68 273,69 274,69 274,71 275,71 275,73 276,73 276,75 277,75 277,76 278,76 278,77 279,77 279,78 280,78 280,79 281,79 281,80 282,80 282,79 283,79 283,78 301,78 301,79 304,79 304,80 310,80 310,81 315,81 315,82 325,82 325,83 329,83 329,84 337,84 337,85 339,85 339,86 342,86 342,87 345,87 345,88 347,88 347,89 349,89 349,90 350,90 350,91 353,91 353,92 354,92 354,93 356,93 356,94 357,94 357,95 358,95 358,96 360,96 360,97 362,97 362,98 364,98 364,99 366,99 366,100 368,100 368,101 371,101 371,102 372,102 372,103 374,103 374,104 376,104 376,105 377,105 377,106 379,106 379,107 381,107 381,108 382,108 382,109 383,109 383,110 384,110 384,111 385,111 385,112 386,112 386,113 388,113 388,114 389,114 389,115 390,115 390,116 391,116 391,117 392,117 392,118 393,118 393,119 394,119 394,120 395,120 395,121 396,121 396,122 397,122 397,123 398,123 398,124 399,124 399,126 400,126 400,127 401,127 401,128 402,128 402,129 403,129 403,130 404,130 404,131 405,131 405,132 406,132 406,134 407,134 407,135 408,135 408,136 409,136 409,137 410,137 410,139 411,139 411,140 412,140 412,141 413,141 413,142 414,142 414,144 415,144 415,145 416,145 416,146 417,146 417,148 418,148 418,149 419,149 419,150 420,150 420,151 421,151 421,153 422,153 422,155 423,155 423,156 424,156 424,158 425,158 425,160 426,160 426,162 427,162 427,163 428,163 428,166 429,166 429,168 430,168 430,170 431,170 431,173 432,173 432,175 433,175 433,177 434,177 434,180 435,180 435,182 436,182 436,185 437,185 437,189 438,189 438,198 439,198 439,202 440,202 440,207 441,207 441,217 442,217 442,219 441,219 441,221 442,221 442,225 443,225 443,230 444,230 444,233 445,233 445,237 446,237 446,240 447,240 447,242 448,242 448,246 449,246 449,248 450,248 450,251 451,251 451,253 452,253 452,255 453,255 453,256 454,256 454,258 455,258 455,261 456,261 456,263 457,263 457,265 458,265 458,268 459,268 459,270 460,270 460,273 461,273 461,275 462,275 462,277 463,277 463,279 464,279 464,281 465,281 465,283 466,283 466,284 467,284 467,285 468,285 468,286 469,286 469,288 470,288 470,289 471,289 471,290 472,290 472,292 473,292 473,293 474,293 474,294 475,294 475,296 476,296 476,297 477,297 477,298 478,298 478,299 479,299 479,301 480,301 480,303 481,303 481,304 482,304 482,305 483,305 483,306 484,306 484,307 485,307 485,308 486,308 486,309 487,309 487,311 488,311 488,312 489,312 489,313 490,313 490,314 491,314 491,315 492,315 492,316 494,316 494,317 495,317 495,318 496,318 496,319 497,319 497,320 498,320 498,324 497,324 497,325 494,325 494,324 493,324 493,323 492,323 492,322 490,322 490,321 486,321 486,320 484,320 484,319 480,319 480,318 477,318 477,317 476,317 476,316 472,316 472,315 469,315 469,314 465,314 465,313 464,313 464,312 461,312 461,311 458,311 458,310 457,310 457,309 454,309 454,308 453,308 453,311 454,311 454,317 455,317 455,334 454,334 454,336 453,336 453,339 452,339 452,342 451,342 451,344 450,344 450,345 449,345 449,346 448,346 448,347 447,347 447,349 446,349 446,350 445,350 445,351 444,351 444,352 443,352 443,353 442,353 442,355 441,355 441,356 437,356 437,355 436,355 436,351 437,351 437,350 438,350 438,349 439,349 439,348 440,348 440,343 441,343 441,334 440,334 440,325 439,325 439,323 438,323 438,318 437,318 437,316 436,316 436,313 435,313 435,311 434,311 434,308 433,308 433,306 432,306 432,304 431,304 431,302 430,302 430,301 429,301 429,300 428,300 428,298 427,298 427,297 426,297 426,296 425,296 425,295 424,295 424,294 423,294 423,293 421,293 421,294 419,294 419,296 418,296 418,306 417,306 417,313 416,313 416,315 415,315 415,318 414,318 414,320 413,320 413,321 412,321 412,323 411,323 411,324 410,324 410,325 409,325 409,326 408,326 408,327 407,327 407,328 406,328 406,329 405,329 405,330 404,330 404,331 402,331 402,332 400,332 400,333 399,333 399,334 398,334 398,335 396,335 396,336 394,336 394,337 393,337 393,338 391,338 391,339 389,339 389,340 387,340 387,341 374,341 374,340 361,340 361,341 360,341 360,342 359,342 359,343 358,343 358,344 357,344 357,345 355,345 355,347 354,347 354,348 352,348 352,349 351,349 351,350 350,350 350,351 348,351 348,352 347,352 347,353 345,353 345,354 343,354 343,355 342,355 342,356 339,356 339,357 338,357 338,366 337,366 337,370 335,370 335,374 334,374 334,376 333,376 333,378 334,378 334,377 335,377 335,376 336,376 336,375 338,375 338,374 339,374 339,373 341,373 341,372 342,372 342,371 343,371 343,370 344,370 344,369 345,369 345,368 346,368 346,367 347,367 347,366 348,366 348,365 349,365 349,364 350,364 350,363 351,363 351,362 352,362 352,361 354,361 354,360 355,360 355,359 356,359 356,358 358,358 358,357 359,357 359,356 361,356 361,355 363,355 363,354 368,354 368,353 371,353 371,354 372,354 372,357 371,357 371,362 370,362 370,364 369,364 369,366 368,366 368,367 367,367 367,368 366,368 366,369 365,369 365,370 364,370 364,371 363,371 363,372 367,372 367,371 369,371 369,370 373,370 373,369 375,369 375,368 379,368 379,367 382,367 382,366 385,366 385,365 388,365 388,364 390,364 390,363 392,363 392,362 393,362 393,361 395,361 395,360 397,360 397,359 402,359 402,360 403,360 403,364 402,364 402,365 401,365 401,367 400,367 400,369 399,369 399,370 400,370 400,369 402,369 402,368 404,368 404,367 406,367 406,366 408,366 408,365 409,365 409,364 411,364 411,363 412,363 412,362 413,362 413,361 415,361 415,360 416,360 416,359 417,359 417,358 418,358 418,357 419,357 419,356 420,356 420,355 421,355 421,354 423,354 423,353 424,353 424,352 425,352 425,351 426,351 426,350 427,350 427,349 428,349 428,348 429,348 429,347 430,347 430,346 431,346 431,345 434,345 434,346 435,346 435,350 434,350 434,351 433,351 433,352 432,352 432,353 431,353 431,354 430,354 430,355 429,355 429,356 428,356 428,357 427,357 427,358 426,358 426,359 424,359 424,360 423,360 423,361 422,361 422,362 421,362 421,363 419,363 419,364 418,364 418,365 417,365 417,366 416,366 416,367 414,367 414,368 413,368 413,369 412,369 412,370 410,370 410,371 409,371 409,372 407,372 407,373 404,373 404,374 402,374 402,375 399,375 399,376 395,376 395,377 390,377 390,376 389,376 389,374 388,374 388,371 389,371 389,370 387,370 387,371 384,371 384,372 381,372 381,373 378,373 378,374 375,374 375,375 372,375 372,376 369,376 369,377 353,377 353,376 352,376 352,373 353,373 353,372 355,372 355,371 356,371 356,370 357,370 357,369 358,369 358,368 359,368 359,367 360,367 360,366 361,366 361,365 362,365 362,364 363,364 363,363 364,363 364,362 365,362 365,360 363,360 363,361 362,361 362,362 360,362 360,363 359,363 359,364 357,364 357,365 356,365 356,366 355,366 355,367 354,367 354,368 353,368 353,369 352,369 352,370 351,370 351,371 350,371 350,372 349,372 349,373 348,373 348,374 347,374 347,375 346,375 346,376 345,376 345,377 344,377 344,378 342,378 342,379 341,379 341,380 339,380 339,381 338,381 338,382 336,382 336,383 335,383 335,384 333,384 333,386 332,386 332,387 329,387 329,386 328,386 328,387 325,387 325,386 324,386 324,383 325,383 325,382 326,382 326,379 327,379 327,378 328,378 328,373 329,373 329,371 330,371 330,368 331,368 331,363 329,363 329,364 327,364 327,365 325,365 325,366 322,366 322,367 320,367 320,368 322,368 322,369 323,369 323,372 322,372 322,400 323,400 323,404 324,404 324,409 325,409 325,411 326,411 326,412 327,412 327,413 330,413 330,414 332,414 332,415 338,415 338,416 342,416 342,417 348,417 348,418 351,418 351,419 357,419 357,420 359,420 359,421 363,421 363,422 370,422 370,423 375,423 375,424 382,424 382,425 388,425 388,426 395,426 395,427 397,427 397,428 400,428 400,429 402,429 402,430 403,430 403,431 405,431 405,432 407,432 407,433 409,433 409,434 411,434 411,435 412,435 412,436 415,436 415,437 417,437 417,438 420,438 420,439 421,439 421,440 423,440 423,441 424,441 424,442 425,442 425,444 426,444 426,445 427,445 427,447 428,447 428,448 429,448 429,452 430,452 430,456 431,456 431,462 432,462 432,464 433,464 433,466 434,466 434,472 435,472 435,476 436,476 436,485 437,485 437,491 438,491 438,504 439,504 439,509 440,509 440,513 441,513 441,519 442,519 442,523 443,523 443,530 444,530 444,535 445,535 445,541 446,541 446,545 447,545 447,548 448,548 448,552 449,552 449,554 450,554 450,557 451,557 451,560 445,560 445,557 444,557 444,554 443,554 443,550 442,550 442,547 441,547 441,543 440,543 440,538 439,538 439,533 438,533 438,525 437,525 437,521 436,521 436,515 435,515 435,512 434,512 434,507 433,507 433,494 432,494 432,487 431,487 431,479 430,479 430,474 429,474 429,468 428,468 428,467 427,467 427,464 426,464 426,459 425,459 425,455 424,455 424,451 423,451 423,449 422,449 422,447 421,447 421,446 420,446 420,445 418,445 418,444 417,444 417,443 415,443 415,442 412,442 412,441 410,441 410,440 408,440 408,439 407,439 407,438 404,438 404,437 403,437 403,436 401,436 401,435 399,435 399,434 397,434 397,433 395,433 395,432 393,432 393,431 386,431 386,430 380,430 380,429 372,429 372,428 367,428 367,427 360,427 360,426 357,426 357,425 354,425 354,424 348,424 348,423 346,423 346,422 340,422 340,421 336,421 336,420 330,420 330,419 327,419 327,418 323,418 323,417 321,417 321,418 319,418 319,419 317,419 317,420 313,420 313,421 311,421 311,422 306,422 306,423 303,423 303,424 299,424 299,425 296,425 296,429 297,429 297,431 298,431 298,433 299,433 299,435 300,435 300,438 301,438 301,441 302,441 302,445 303,445 303,447 304,447 304,450 305,450 305,453 306,453 306,455 307,455 307,457 308,457 308,459 309,459 309,462 310,462 310,464 311,464 311,466 312,466 312,468 313,468 313,470 314,470 314,473 315,473 315,475 316,475 316,476 317,476 317,478 318,478 318,480 319,480 319,482 320,482 320,483 321,483 321,485 322,485 322,486 323,486 323,488 324,488 324,489 325,489 325,491 326,491 326,493 327,493 327,494 328,494 328,496 329,496 329,498 330,498 330,499 331,499 331,501 332,501 332,503 333,503 333,504 334,504 334,505 335,505 335,506 336,506 336,508 337,508 337,509 338,509 338,511 339,511 339,512 340,512 340,513 341,513 341,514 342,514 342,516 343,516 343,517 344,517 344,518 345,518 345,520 346,520 346,521 347,521 347,522 348,522 348,523 349,523 349,524 350,524 350,525 351,525 351,526 352,526 352,528 353,528 353,529 354,529 354,530 355,530 355,531 356,531 356,532 357,532 357,533 358,533 358,534 359,534 359,535 360,535 360,536 361,536 361,537 362,537 362,538 363,538 363,539 364,539 364,540 365,540 365,542 366,542 366,543 368,543 368,544 369,544 369,545 370,545 370,546 371,546 371,547 372,547 372,548 373,548 373,549 374,549 374,550 375,550 375,551 376,551 376,554 375,554 375,555 372,555 372,554 370,554 370,553 369,553 369,552 368,552 368,551 367,551 367,550 366,550 366,549 365,549 365,548 364,548 364,547 363,547 363,546 362,546 362,545 361,545 361,544 360,544 360,543 359,543 359,542 358,542 358,541 357,541 357,540 356,540 356,539 355,539 355,538 354,538 354,537 353,537 353,535 352,535 352,534 351,534 351,533 349,533 349,532 348,532 348,530 347,530 347,529 346,529 346,528 345,528 345,527 344,527 344,526 343,526 343,525 342,525 342,524 341,524 341,522 340,522 340,520 339,520 339,519 338,519 338,518 337,518 337,517 336,517 336,516 335,516 335,515 334,515 334,513 333,513 333,512 332,512 332,510 331,510 331,509 330,509 330,508 329,508 329,507 328,507 328,506 327,506 327,504 326,504 326,502 325,502 325,500 324,500 324,498 323,498 323,497 322,497 322,495 321,495 321,494 320,494 320,492 319,492 319,490 318,490 318,488 317,488 317,487 316,487 316,486 315,486 315,484 314,484 314,482 313,482 313,481 312,481 312,479 311,479 311,477 310,477 310,475 309,475 309,473 308,473 308,471 307,471 307,468 306,468 306,467 305,467 305,465 304,465 304,462 303,462 303,460 302,460 302,458 301,458 301,455 300,455 300,452 299,452 299,450 298,450 298,447 297,447 297,444 296,444 296,440 295,440 295,437 294,437 294,435 293,435 293,433 292,433 292,432 291,432 291,430 290,430 290,427 284,427 284,426 283,426 283,423 282,423 282,422 281,422 281,421 280,421 280,410 281,410 281,408 277,408 277,409 276,409 276,412 275,412 275,414 274,414 274,418 273,418 273,421 272,421 272,426 271,426 271,428 270,428 270,432 269,432 269,434 268,434 268,436 267,436 267,439 266,439 266,441 265,441 265,444 264,444 264,446 263,446 263,448 262,448 262,451 261,451 261,453 260,453 260,455 259,455 259,457 258,457 258,459 257,459 257,462 256,462 256,465 255,465 255,467 254,467 254,470 253,470 253,474 252,474 252,476 251,476 251,479 250,479 250,481 249,481 249,486 248,486 248,488 247,488 247,492 246,492 246,496 245,496 245,499 244,499 244,503 243,503 243,507 242,507 242,509 241,509 241,514 240,514 240,518 239,518 z M 234,127 235,127 235,125 236,125 236,123 237,123 237,121 238,121 238,120 239,120 239,119 240,119 240,118 243,118 243,119 244,119 244,122 243,122 243,123 242,123 242,125 242,126 241,126 241,127 240,127 240,130 239,130 239,134 238,134 238,136 237,136 237,142 236,142 236,146 236,147 235,147 235,148 235,151 234,151 234,153 234,161 233,161 233,176 233,180 232,180 232,183 232,187 233,187 233,193 234,193 234,200 235,200 235,205 236,205 236,208 237,208 237,214 238,214 238,217 239,217 239,219 239,221 240,221 240,223 240,224 241,224 241,225 241,227 242,227 242,229 243,229 243,231 244,231 244,234 245,234 245,237 246,237 246,241 247,241 247,242 248,242 248,243 249,243 249,248 250,248 250,249 252,249 252,250 255,250 255,251 261,251 270,251 270,249 271,249 271,248 272,248 272,245 273,245 273,244 274,244 274,242 275,242 275,240 276,240 276,238 277,238 277,236 278,236 278,234 279,234 279,232 280,232 280,230 281,230 281,228 282,228 282,226 283,226 283,224 284,224 284,222 285,222 285,220 286,220 286,217 287,217 287,215 288,215 288,212 289,212 289,209 290,209 290,205 291,205 291,202 292,202 292,199 293,199 293,191 294,191 294,188 295,188 295,172 296,172 296,157 296,149 295,149 295,144 295,142 294,142 294,139 293,139 293,134 292,134 292,132 291,132 291,130 291,128 290,128 290,125 289,125 289,123 288,123 288,119 287,119 287,115 288,115 288,114 289,114 291,114 291,115 292,115 292,116 293,116 293,118 293,120 294,120 294,123 295,123 295,126 296,126 296,129 297,129 297,132 298,132 298,137 299,137 299,139 300,139 300,141 300,147 301,147 301,150 301,175 300,175 300,191 299,191 299,194 298,194 298,201 297,201 297,205 296,205 296,208 295,208 295,211 294,211 294,214 293,214 293,217 292,217 292,219 291,219 291,222 290,222 290,224 289,224 289,227 288,227 288,229 287,229 287,231 286,231 286,233 285,233 285,235 284,235 284,236 283,236 283,238 282,238 282,241 281,241 281,242 280,242 280,245 279,245 279,246 284,246 284,245 290,245 290,244 293,244 293,243 291,243 291,242 290,242 290,237 291,237 291,236 293,236 293,234 294,234 294,233 295,233 295,231 296,231 296,229 297,229 297,227 298,227 298,225 299,225 299,223 300,223 300,220 301,220 301,218 302,218 302,214 303,214 303,212 304,212 304,193 303,193 303,189 302,189 302,179 303,179 303,178 306,178 306,179 307,179 307,187 308,187 308,191 309,191 309,214 308,214 308,217 307,217 307,221 306,221 306,223 305,223 305,226 304,226 304,228 303,228 303,229 302,229 302,232 301,232 301,234 300,234 300,235 299,235 299,237 298,237 298,238 299,238 299,237 300,237 300,236 301,236 301,235 303,235 303,234 304,234 304,233 305,233 305,232 306,232 306,231 307,231 307,230 308,230 308,229 309,229 309,228 310,228 310,226 311,226 311,225 312,225 312,224 313,224 313,222 314,222 314,221 315,221 315,219 316,219 316,218 317,218 317,216 318,216 318,214 319,214 319,212 320,212 320,211 321,211 321,207 322,207 322,203 323,203 323,188 324,188 324,187 327,187 327,188 328,188 328,189 330,189 330,190 331,190 331,192 332,192 332,193 333,193 333,196 334,196 334,198 335,198 335,200 336,200 336,202 337,202 337,204 338,204 338,208 339,208 339,226 338,226 338,229 337,229 337,230 338,230 338,229 339,229 339,228 340,228 340,227 342,227 342,226 343,226 343,225 344,225 344,224 345,224 345,223 346,223 346,221 347,221 347,219 348,219 348,218 350,218 350,209 349,209 349,202 348,202 348,198 347,198 347,194 346,194 346,191 345,191 345,188 344,188 344,186 343,186 343,184 342,184 342,181 341,181 341,179 340,179 340,176 339,176 339,174 338,174 338,173 337,173 337,170 336,170 336,168 335,168 335,166 334,166 334,161 335,161 335,160 338,160 338,161 339,161 339,163 340,163 340,166 341,166 341,168 342,168 342,170 343,170 343,172 344,172 344,174 345,174 345,177 346,177 346,179 347,179 347,181 348,181 348,183 349,183 349,185 350,185 350,188 351,188 351,191 352,191 352,196 353,196 353,200 354,200 354,206 355,206 355,218 356,218 356,244 355,244 355,245 354,245 354,246 361,246 361,247 364,247 364,248 367,248 367,249 368,249 368,252 367,252 367,253 363,253 363,256 362,256 362,258 361,258 361,261 360,261 360,264 359,264 359,269 358,269 358,273 357,273 357,279 356,279 356,291 355,291 355,295 354,295 354,298 353,298 353,299 352,299 352,301 351,301 351,302 350,302 350,303 348,303 348,304 344,304 344,305 342,305 342,308 341,308 341,310 340,310 340,312 339,312 339,314 338,314 338,315 337,315 337,317 336,317 336,318 335,318 335,320 334,320 334,321 332,321 332,322 331,322 331,324 330,324 330,325 328,325 328,327 327,327 327,328 325,328 325,329 324,329 324,330 323,330 323,331 322,331 322,332 325,332 325,331 329,331 329,330 335,330 335,329 336,329 336,328 341,328 341,327 342,327 342,326 345,326 345,327 346,327 346,332 345,332 345,335 344,335 344,336 343,336 343,338 342,338 342,339 341,339 341,341 340,341 340,342 339,342 339,343 338,343 338,345 337,345 337,346 336,346 336,348 335,348 335,349 334,349 334,350 333,350 333,351 332,351 332,352 331,352 331,354 330,354 330,355 329,355 329,356 328,356 328,357 330,357 330,356 331,356 331,355 332,355 332,354 334,354 334,353 336,353 336,352 337,352 337,351 339,351 339,350 341,350 341,349 342,349 342,348 344,348 344,347 346,347 346,346 347,346 347,345 348,345 348,344 350,344 350,343 351,343 351,342 352,342 352,341 353,341 353,340 354,340 354,339 355,339 355,338 356,338 356,337 357,337 357,336 358,336 358,335 359,335 359,334 361,334 361,333 362,333 362,332 363,332 363,331 364,331 364,330 365,330 365,329 366,329 366,328 368,328 368,327 369,327 369,326 370,326 370,325 371,325 371,324 372,324 372,323 373,323 373,322 374,322 374,320 375,320 375,319 376,319 376,318 377,318 377,317 378,317 378,315 379,315 379,312 380,312 380,311 381,311 381,310 382,310 382,307 383,307 383,306 384,306 384,303 385,303 385,300 386,300 386,296 387,296 387,294 388,294 388,291 389,291 389,288 390,288 390,287 391,287 391,282 392,282 392,277 393,277 393,269 394,269 394,264 395,264 395,245 394,245 394,233 393,233 393,223 392,223 392,212 391,212 391,207 390,207 390,204 389,204 389,200 388,200 388,198 387,198 387,195 386,195 386,191 385,191 385,189 384,189 384,186 383,186 383,184 382,184 382,181 381,181 381,179 380,179 380,178 379,178 379,176 378,176 378,174 377,174 377,172 376,172 376,170 375,170 375,168 374,168 374,166 373,166 373,164 372,164 372,161 371,161 371,159 370,159 370,156 369,156 369,155 368,155 368,152 367,152 367,151 366,151 366,149 365,149 365,146 366,146 366,145 370,145 370,146 371,146 371,148 372,148 372,150 373,150 373,152 374,152 374,154 375,154 375,157 376,157 376,158 377,158 377,162 378,162 378,163 379,163 379,165 380,165 380,168 381,168 381,169 382,169 382,171 383,171 383,173 384,173 384,176 385,176 385,177 386,177 386,179 387,179 387,182 388,182 388,184 389,184 389,187 390,187 390,189 391,189 391,192 392,192 392,195 393,195 393,198 394,198 394,202 395,202 395,204 396,204 396,207 397,207 397,215 398,215 398,217 397,217 397,220 398,220 398,231 399,231 399,242 400,242 400,267 399,267 399,272 398,272 398,276 400,276 400,277 402,277 402,278 404,278 404,279 406,279 406,280 408,280 408,281 410,281 410,282 412,282 412,283 414,283 414,284 416,284 416,285 417,285 417,286 418,286 418,287 425,287 425,288 426,288 426,289 427,289 427,290 428,290 428,291 429,291 429,292 430,292 430,293 431,293 431,294 432,294 432,295 433,295 433,297 434,297 434,298 435,298 435,300 436,300 436,301 437,301 437,303 438,303 438,306 439,306 439,308 440,308 440,310 441,310 441,313 442,313 442,316 443,316 443,320 444,320 444,322 445,322 445,331 446,331 446,339 447,339 447,336 448,336 448,334 449,334 449,331 450,331 450,319 449,319 449,314 448,314 448,311 447,311 447,308 446,308 446,306 445,306 445,304 444,304 444,303 443,303 443,302 442,302 442,301 441,301 441,300 439,300 439,299 438,299 438,296 439,296 439,295 444,295 444,296 446,296 446,297 448,297 448,298 449,298 449,299 450,299 450,300 451,300 451,301 453,301 453,302 455,302 455,303 457,303 457,304 459,304 459,305 461,305 461,306 464,306 464,307 467,307 467,308 468,308 468,309 472,309 472,310 474,310 474,311 478,311 478,312 480,312 480,313 482,313 482,314 483,314 483,313 482,313 482,312 481,312 481,311 480,311 480,310 479,310 479,309 478,309 478,308 477,308 477,306 476,306 476,305 475,305 475,303 474,303 474,302 473,302 473,301 472,301 472,300 471,300 471,298 470,298 470,297 469,297 469,296 468,296 468,295 467,295 467,293 466,293 466,292 465,292 465,291 464,291 464,290 463,290 463,289 462,289 462,287 461,287 461,286 460,286 460,285 459,285 459,281 458,281 458,280 457,280 457,277 456,277 456,275 455,275 455,273 454,273 454,270 453,270 453,268 452,268 452,265 451,265 451,263 450,263 450,260 449,260 449,259 448,259 448,257 447,257 447,256 446,256 446,254 445,254 445,250 444,250 444,248 443,248 443,245 442,245 442,242 441,242 441,240 440,240 440,235 439,235 439,233 438,233 438,227 437,227 437,224 436,224 436,210 435,210 435,205 434,205 434,201 433,201 433,192 432,192 432,189 431,189 431,185 430,185 430,183 429,183 429,180 428,180 428,177 427,177 427,175 426,175 426,173 425,173 425,170 424,170 424,168 423,168 423,166 422,166 422,164 421,164 421,162 420,162 420,161 419,161 419,159 418,159 418,158 417,158 417,156 416,156 416,154 415,154 415,152 414,152 414,151 413,151 413,150 412,150 412,149 411,149 411,148 410,148 410,146 409,146 409,145 408,145 408,144 407,144 407,142 406,142 406,141 405,141 405,140 404,140 404,139 403,139 403,138 402,138 402,137 401,137 401,135 400,135 400,134 399,134 399,133 398,133 398,131 397,131 397,130 396,130 396,129 395,129 395,128 394,128 394,127 393,127 393,126 392,126 392,125 391,125 391,124 390,124 390,123 389,123 389,122 388,122 388,121 387,121 387,120 386,120 386,118 384,118 384,117 383,117 383,116 382,116 382,115 381,115 381,114 380,114 380,113 378,113 378,112 376,112 376,111 375,111 375,110 374,110 374,109 372,109 372,108 370,108 370,107 368,107 368,106 366,106 366,105 363,105 363,104 361,104 361,103 359,103 359,102 358,102 358,101 356,101 356,100 355,100 355,99 353,99 353,98 351,98 351,97 350,97 350,96 348,96 348,95 347,95 347,94 345,94 345,93 343,93 343,92 340,92 340,91 337,91 337,90 334,90 334,89 327,89 327,88 322,88 322,87 312,87 312,86 308,86 308,85 302,85 302,84 298,84 298,83 285,83 285,84 286,84 286,85 288,85 288,86 290,86 290,87 291,87 291,88 293,88 293,89 296,89 296,90 298,90 298,91 299,91 299,94 298,94 298,95 294,95 294,94 291,94 291,93 289,93 289,92 287,92 287,91 285,91 285,90 284,90 284,89 283,89 283,88 282,88 282,87 280,87 280,86 279,86 279,85 278,85 278,84 277,84 277,83 276,83 276,82 275,82 275,80 274,80 274,79 273,79 273,78 272,78 272,77 271,77 271,76 270,76 270,74 269,74 269,72 268,72 268,70 267,70 267,67 266,67 266,64 265,64 265,47 266,47 266,45 267,45 267,44 268,44 268,43 269,43 269,41 270,41 270,40 272,40 272,39 273,39 273,38 274,38 274,37 276,37 276,36 277,36 277,35 279,35 279,34 282,34 282,33 284,33 284,32 287,32 287,31 292,31 292,30 291,30 291,29 288,29 288,28 272,28 272,29 269,29 269,30 266,30 266,31 264,31 264,32 262,32 262,33 261,33 261,34 259,34 259,35 258,35 258,36 257,36 257,37 255,37 255,38 254,38 254,39 253,39 253,40 252,40 252,41 251,41 251,42 250,42 250,43 249,43 249,44 248,44 248,46 247,46 247,47 246,47 246,50 245,50 245,51 244,51 244,53 243,53 243,69 244,69 244,71 245,71 245,73 246,73 246,75 247,75 247,77 248,77 248,78 249,78 249,79 250,79 250,81 251,81 251,82 252,82 252,83 253,83 253,84 254,84 254,85 255,85 255,87 256,87 256,89 257,89 257,91 259,91 259,92 261,92 261,93 262,93 262,94 264,94 264,95 266,95 266,96 267,96 267,100 266,100 266,101 263,101 263,100 261,100 261,99 260,99 260,98 258,98 258,97 256,97 256,96 254,96 254,95 253,95 253,93 252,93 252,92 251,92 251,89 250,89 250,88 249,88 249,89 248,89 248,90 238,90 238,91 228,91 228,92 221,92 221,93 217,93 217,94 212,94 212,95 209,95 209,96 204,96 204,97 202,97 202,98 201,98 201,99 200,99 200,100 198,100 198,101 196,101 196,102 194,102 194,103 192,103 192,104 189,104 189,105 187,105 187,106 184,106 184,107 182,107 182,108 180,108 180,109 179,109 179,110 178,110 178,111 176,111 176,112 175,112 175,113 173,113 173,114 171,114 171,115 170,115 170,116 169,116 169,117 167,117 167,118 166,118 166,119 164,119 164,120 163,120 163,121 162,121 162,122 161,122 161,123 160,123 160,124 158,124 158,125 157,125 157,126 156,126 156,127 155,127 155,128 154,128 154,129 153,129 153,130 152,130 152,132 151,132 151,133 150,133 150,134 149,134 149,135 148,135 148,136 147,136 147,137 146,137 146,139 144,139 144,140 143,140 143,142 142,142 142,143 141,143 141,145 140,145 140,148 139,148 139,150 138,150 138,152 137,152 137,154 136,154 136,156 135,156 135,158 134,158 134,161 133,161 133,163 132,163 132,165 131,165 131,169 130,169 130,171 129,171 129,175 128,175 128,177 127,177 127,182 126,182 126,184 125,184 125,186 124,186 124,188 123,188 123,194 122,194 122,198 121,198 121,204 120,204 120,210 119,210 119,219 118,219 118,227 117,227 117,245 116,245 116,260 115,260 115,273 114,273 114,275 113,275 113,277 112,277 112,279 111,279 111,281 110,281 110,282 109,282 109,283 108,283 108,284 107,284 107,285 106,285 106,286 105,286 105,287 104,287 104,288 103,288 103,289 102,289 102,290 101,290 101,291 99,291 99,292 98,292 98,293 96,293 96,294 95,294 95,295 93,295 93,296 91,296 91,297 90,297 90,298 100,298 100,297 105,297 105,296 107,296 107,295 109,295 109,294 110,294 110,293 111,293 111,292 112,292 112,289 113,289 113,288 116,288 116,289 117,289 117,296 116,296 116,304 117,304 117,308 118,308 118,310 119,310 119,312 120,312 120,315 121,315 121,317 122,317 122,319 123,319 123,320 124,320 124,322 125,322 125,323 126,323 126,324 127,324 127,325 128,325 128,326 129,326 129,327 130,327 130,328 131,328 131,329 132,329 132,330 133,330 133,305 134,305 134,300 135,300 135,296 136,296 136,291 137,291 137,288 138,288 138,286 137,286 137,280 136,280 136,225 137,225 137,218 138,218 138,211 139,211 139,208 140,208 140,207 141,207 141,206 144,206 144,207 145,207 145,210 144,210 144,213 143,213 143,221 142,221 142,228 141,228 141,235 141,277 142,277 142,283 143,283 143,291 144,291 144,292 145,292 145,294 146,294 146,295 147,295 147,297 148,297 148,298 149,298 149,299 150,299 150,300 151,300 151,301 152,301 152,302 153,302 153,303 154,303 154,304 156,304 156,305 157,305 157,306 158,306 158,307 160,307 160,308 161,308 161,309 163,309 163,310 164,310 164,311 166,311 166,312 167,312 167,313 169,313 169,314 171,314 171,303 172,303 172,302 171,302 171,301 170,301 170,300 169,300 169,298 168,298 168,297 167,297 167,295 166,295 166,294 165,294 165,292 164,292 164,290 163,290 163,287 162,287 162,282 161,282 161,278 160,278 160,271 159,271 159,252 158,252 158,250 157,250 157,249 155,249 155,248 154,248 154,245 155,245 155,244 204,244 204,245 229,245 229,246 240,246 240,247 243,247 243,245 242,245 242,243 241,243 241,239 240,239 240,237 239,237 239,233 238,233 238,231 237,231 237,229 236,229 236,226 235,226 235,224 234,224 234,219 233,219 233,216 232,216 232,211 231,211 231,207 230,207 230,203 229,203 229,195 228,195 228,189 227,189 227,184 226,184 226,187 225,187 225,191 224,191 224,195 223,195 223,208 222,208 222,216 221,216 221,239 220,239 220,240 216,240 216,239 215,239 215,238 214,238 214,236 213,236 213,234 212,234 212,233 211,233 211,232 210,232 210,231 209,231 209,229 208,229 208,228 207,228 207,226 206,226 206,225 205,225 205,223 204,223 204,221 203,221 203,219 202,219 202,217 201,217 201,214 200,214 200,211 199,211 199,194 198,194 198,196 197,196 197,198 196,198 196,200 195,200 195,202 194,202 194,204 193,204 193,206 192,206 192,209 191,209 191,211 190,211 190,214 189,214 189,217 188,217 188,224 187,224 187,229 186,229 186,240 185,240 185,241 182,241 182,240 181,240 181,227 182,227 182,221 183,221 183,215 184,215 184,211 185,211 185,208 186,208 186,206 187,206 187,203 188,203 188,201 189,201 189,199 190,199 190,197 191,197 191,195 192,195 192,193 193,193 193,191 194,191 194,190 195,190 195,188 196,188 196,186 197,186 197,185 199,185 199,184 200,184 200,183 203,183 203,184 204,184 204,209 205,209 205,211 206,211 206,215 207,215 207,217 208,217 208,219 209,219 209,220 210,220 210,222 211,222 211,223 212,223 212,225 213,225 213,226 214,226 214,228 215,228 215,229 216,229 216,214 217,214 217,206 218,206 218,193 219,193 219,188 220,188 220,184 221,184 221,182 222,182 222,177 223,177 223,174 224,174 224,171 225,171 225,170 228,170 228,158 229,158 229,148 230,148 230,144 231,144 231,140 232,140 232,134 233,134 233,132 234,132 z M 333,237 333,238 332,238 332,239 328,239 328,238 327,238 327,235 328,235 328,233 329,233 329,232 330,232 330,230 331,230 331,228 332,228 332,226 333,226 333,223 334,223 334,217 334,211 333,211 333,206 332,206 332,205 331,205 331,202 330,202 330,200 329,200 329,198 328,198 328,206 327,206 327,209 326,209 326,211 326,213 325,213 325,215 324,215 324,217 323,217 323,219 322,219 322,220 321,220 321,222 320,222 320,224 319,224 319,225 318,225 318,226 317,226 317,227 316,227 316,229 315,229 315,230 314,230 314,232 313,232 313,233 312,233 312,234 311,234 311,235 310,235 310,236 309,236 309,237 308,237 308,238 307,238 307,239 306,239 306,240 304,240 304,241 302,241 302,242 301,242 301,243 303,243 306,243 306,242 315,242 329,242 329,243 335,243 335,244 347,244 347,245 352,245 352,244 351,244 351,235 351,226 350,226 350,227 349,227 349,228 348,228 348,229 347,229 347,230 346,230 346,231 345,231 345,232 343,232 343,233 341,233 341,234 340,234 340,235 338,235 338,236 337,236 337,237 z M 286,370 290,370 290,371 295,371 295,370 300,370 300,369 303,369 303,368 306,368 307,368 307,367 308,367 309,367 309,366 310,366 311,366 311,365 312,365 312,364 313,364 313,363 314,363 314,362 315,362 315,361 317,361 317,360 318,360 318,359 319,359 319,358 320,358 320,356 321,356 321,355 322,355 322,354 324,354 324,353 325,353 325,351 326,351 326,350 327,350 327,349 328,349 328,347 329,347 329,346 330,346 330,345 331,345 331,344 332,344 332,342 333,342 333,341 334,341 334,339 335,339 335,338 336,338 336,336 337,336 337,335 332,335 332,336 328,336 328,337 323,337 323,338 315,338 311,338 311,337 310,337 310,334 311,334 311,333 312,333 312,332 313,332 313,331 314,331 315,331 315,330 316,330 316,329 317,329 317,328 318,328 318,327 319,327 320,327 320,326 321,326 321,325 322,325 322,324 323,324 323,323 324,323 324,322 325,322 325,321 326,321 326,320 327,320 327,319 328,319 328,318 329,318 329,317 330,317 330,315 331,315 331,314 332,314 332,313 333,313 333,311 334,311 334,310 335,310 335,307 336,307 336,306 334,306 334,307 315,307 301,307 301,306 294,306 294,305 288,305 288,304 287,304 287,305 284,305 284,304 283,304 283,303 281,303 281,302 280,302 280,300 279,300 279,299 278,299 278,297 277,297 277,295 276,295 276,293 275,293 275,290 274,290 274,286 273,286 273,282 272,282 272,269 271,269 271,266 270,266 270,265 267,265 267,264 264,264 264,263 257,263 257,264 255,264 255,265 253,265 253,271 252,271 252,274 251,274 251,277 250,277 250,279 249,279 249,282 248,282 248,284 247,284 247,286 246,286 246,289 245,289 245,291 244,291 244,294 243,294 243,295 242,295 242,297 241,297 241,299 240,299 240,300 239,300 239,302 238,302 238,303 237,303 237,306 236,306 236,307 228,307 203,307 203,306 191,306 191,305 179,305 177,305 177,304 176,304 176,314 177,314 177,316 178,316 178,317 179,317 179,320 178,320 178,321 179,321 179,325 180,325 180,329 181,329 181,334 182,334 182,336 183,336 183,339 184,339 184,340 185,340 185,342 186,342 186,344 187,344 187,345 188,345 188,347 189,347 189,348 190,348 190,349 191,349 191,350 192,350 192,351 193,351 193,352 195,352 195,353 196,353 196,354 199,354 199,355 201,355 201,356 204,356 204,357 207,357 207,358 209,358 209,359 211,359 211,360 213,360 213,361 217,361 217,359 218,359 218,356 219,356 219,355 220,355 220,352 221,352 221,351 222,351 222,350 223,350 223,349 224,349 224,348 225,348 225,347 227,347 227,346 228,346 228,345 230,345 230,344 241,344 241,345 243,345 243,346 245,346 245,345 247,345 247,344 258,344 258,345 260,345 260,346 262,346 262,347 263,347 263,348 264,348 264,349 267,349 267,350 271,350 271,351 273,351 273,352 275,352 275,353 276,353 276,355 278,355 278,356 280,356 280,357 282,357 282,358 283,358 283,359 284,359 284,362 285,362 285,364 286,364 z M 177,253 177,254 174,254 174,255 172,255 172,256 170,256 170,257 168,257 168,259 167,259 167,260 165,260 165,264 164,264 164,268 165,268 165,274 165,275 165,276 166,276 166,277 166,280 167,280 167,282 167,284 168,284 168,286 168,287 169,287 169,288 169,290 170,290 170,291 171,291 171,292 171,293 172,293 172,294 173,294 173,296 174,296 174,297 178,297 178,298 181,298 181,299 183,299 184,299 184,300 185,300 190,300 193,300 193,301 196,301 206,301 206,302 213,302 232,302 232,301 233,301 233,299 234,299 234,298 235,298 235,296 236,296 236,294 237,294 237,292 238,292 238,291 239,291 239,288 240,288 240,287 241,287 241,284 242,284 242,282 243,282 243,279 244,279 244,276 245,276 245,274 246,274 246,271 247,271 247,269 248,269 248,258 245,258 245,257 243,257 243,256 240,256 240,255 235,255 235,254 230,254 230,255 233,255 233,256 236,256 236,257 238,257 238,258 240,258 240,259 242,259 242,260 243,260 243,263 242,263 242,264 238,264 238,263 235,263 235,262 233,262 233,261 231,261 231,260 227,260 227,259 223,259 223,258 209,258 200,258 200,259 194,259 194,260 187,260 187,261 185,261 185,262 182,262 182,263 179,263 179,264 176,264 176,263 175,263 175,260 176,260 176,259 177,259 177,258 179,258 179,257 182,257 182,256 185,256 185,255 191,255 191,254 198,254 198,253 187,253 z M 372,331 371,331 371,332 370,332 370,333 369,333 369,334 368,334 368,335 369,335 377,335 377,336 382,336 384,336 384,335 387,335 387,334 388,334 388,333 390,333 390,332 392,332 392,331 393,331 393,330 395,330 395,329 397,329 397,328 398,328 398,327 400,327 400,326 401,326 401,325 402,325 402,324 403,324 403,323 404,323 404,322 405,322 405,321 406,321 406,320 407,320 407,319 408,319 408,317 409,317 409,316 410,316 410,313 411,313 411,310 412,310 412,304 413,304 413,293 414,293 414,290 413,290 413,289 412,289 412,288 409,288 409,287 408,287 408,286 406,286 406,285 404,285 404,284 402,284 402,283 400,283 400,282 398,282 398,281 397,281 397,282 397,284 396,284 396,288 396,290 395,290 395,292 395,293 394,293 394,294 394,296 393,296 393,297 392,297 392,299 391,299 391,303 390,303 390,305 389,305 389,308 388,308 388,310 387,310 387,312 386,312 386,313 385,313 385,315 384,315 384,317 383,317 383,319 382,319 382,321 381,321 381,322 380,322 380,323 379,323 379,324 378,324 378,325 377,325 377,327 376,327 376,328 374,328 374,329 373,329 373,330 372,330 z M 279,288 280,288 280,290 281,290 281,293 282,293 282,294 283,294 283,296 284,296 284,297 285,297 285,298 287,298 287,299 290,299 290,300 293,300 296,300 296,301 299,301 301,301 303,301 303,302 306,302 332,302 332,301 335,301 335,300 342,300 342,299 346,299 346,298 347,298 347,292 348,292 348,290 349,290 349,287 349,285 350,285 350,283 350,282 351,282 351,281 351,276 352,276 352,273 352,260 351,260 351,256 350,256 350,255 349,255 349,254 345,254 345,253 338,253 338,252 334,252 334,251 319,251 319,252 326,252 326,253 334,253 334,254 338,254 338,255 340,255 340,256 342,256 342,257 344,257 344,258 346,258 346,259 347,259 347,260 348,260 348,261 349,261 349,264 348,264 348,265 345,265 345,264 343,264 343,263 341,263 341,262 339,262 339,261 338,261 338,260 335,260 335,259 332,259 332,258 324,258 324,257 316,257 316,256 297,256 297,257 292,257 292,258 288,258 288,259 287,259 287,260 285,260 285,261 282,261 282,260 281,260 281,256 282,256 282,255 279,255 279,256 277,256 277,257 276,257 276,259 275,259 275,264 276,264 276,267 277,267 277,280 278,280 278,284 279,284 z M 176,331 175,331 175,327 174,327 174,324 173,324 173,321 171,321 171,320 169,320 169,319 167,319 167,318 165,318 165,317 163,317 163,316 162,316 162,315 160,315 160,314 158,314 158,313 157,313 157,312 155,312 155,311 154,311 154,310 153,310 153,309 151,309 151,308 150,308 150,307 149,307 149,306 148,306 148,304 147,304 147,303 146,303 146,302 144,302 144,301 143,301 143,299 142,299 142,298 140,298 140,299 140,303 139,303 139,307 138,307 138,333 139,333 139,335 141,335 141,336 142,336 142,343 141,343 141,348 142,348 142,350 143,350 143,352 144,352 144,354 145,354 145,356 146,356 146,357 147,357 147,358 148,358 148,359 149,359 149,360 151,360 151,361 152,361 152,362 153,362 153,363 154,363 154,364 156,364 156,365 157,365 157,366 158,366 158,367 160,367 160,368 162,368 162,369 164,369 164,370 166,370 166,371 168,371 168,370 167,370 167,369 166,369 166,367 165,367 165,366 164,366 164,353 165,353 165,350 166,350 166,348 167,348 167,347 170,347 170,348 171,348 171,349 172,349 172,351 173,351 173,353 174,353 174,354 175,354 175,356 176,356 176,357 177,357 177,358 178,358 178,359 179,359 179,360 180,360 180,361 181,361 181,362 182,362 182,363 183,363 183,364 185,364 185,365 187,365 187,366 188,366 188,364 187,364 187,358 187,356 188,356 188,354 187,354 187,352 186,352 185,352 185,351 184,351 184,350 183,350 183,349 183,348 182,348 182,347 181,347 181,345 180,345 180,343 179,343 179,341 178,341 178,338 177,338 177,336 176,336 z M 318,402 317,402 317,403 314,403 314,404 311,404 311,405 308,405 308,406 302,406 302,407 297,407 297,408 288,408 288,409 287,409 287,410 286,410 286,412 285,412 285,418 286,418 286,419 287,419 287,420 288,420 288,421 293,421 293,420 296,420 297,420 297,419 298,419 301,419 301,418 303,418 303,417 308,417 308,416 311,416 311,415 315,415 315,414 316,414 316,413 319,413 319,407 318,407 z M 287,376 287,375 284,375 284,384 283,384 283,388 282,388 282,392 281,392 281,396 280,396 280,399 279,399 279,402 278,402 278,403 294,403 294,402 299,402 299,401 305,401 305,400 308,400 308,399 311,399 311,398 314,398 314,397 317,397 317,389 317,369 318,369 318,368 316,368 316,369 315,369 315,370 314,370 314,371 312,371 312,372 310,372 310,373 306,373 306,374 302,374 302,375 297,375 297,376 z M 391,370 391,369 390,369 390,370 z M 327,358 328,358 328,357 327,357 z M 294,242 294,243 295,243 295,242 z M 216,371 216,370 215,370 215,371 z M 284,254 283,254 283,255 284,255 z" fill="#000000" fill-opacity="1.0" id="x000000_r0_g0_b0_a1.0_shape1"/>
    <path d="M 308,488 309,488 309,490 310,490 310,491 311,491 311,493 312,493 312,495 313,495 313,496 314,496 314,499 315,499 315,500 316,500 316,502 317,502 317,504 318,504 318,506 319,506 319,507 320,507 320,508 321,508 321,510 322,510 322,512 323,512 323,513 324,513 324,515 325,515 325,516 326,516 326,517 327,517 327,519 328,519 328,520 329,520 329,521 330,521 330,522 330,523 331,523 331,524 332,524 332,525 333,525 333,526 334,526 334,527 335,527 335,529 336,529 336,530 337,530 337,531 338,531 338,533 339,533 339,534 340,534 340,535 341,535 341,536 342,536 342,537 343,537 343,538 344,538 344,540 345,540 345,541 346,541 346,542 347,542 347,546 346,546 346,547 343,547 343,546 342,546 342,545 341,545 341,544 340,544 340,542 339,542 339,541 338,541 338,540 337,540 337,539 336,539 336,538 335,538 335,536 334,536 334,535 333,535 333,534 332,534 332,533 331,533 331,532 330,532 330,530 329,530 329,529 328,529 328,528 327,528 327,527 326,527 326,525 325,525 325,524 324,524 324,522 323,522 323,521 322,521 322,520 321,520 321,519 320,519 320,517 319,517 319,515 318,515 318,514 317,514 317,513 316,513 316,511 315,511 315,510 314,510 314,508 313,508 313,507 312,507 312,505 311,505 311,503 310,503 310,501 309,501 309,499 308,499 308,498 307,498 307,496 306,496 306,494 305,494 305,492 304,492 304,491 303,491 303,489 302,489 302,487 301,487 301,486 300,486 300,484 299,484 299,481 298,481 298,479 297,479 297,477 296,477 296,476 295,476 295,474 294,474 294,472 293,472 293,470 292,470 292,468 291,468 291,467 290,467 290,461 291,461 291,460 294,460 294,461 295,461 295,464 296,464 296,465 297,465 297,467 298,467 298,470 299,470 299,471 300,471 300,474 301,474 301,475 302,475 302,477 303,477 303,479 304,479 304,481 305,481 305,483 306,483 306,484 307,484 307,486 308,486 z" fill="#000000" fill-opacity="1.0" id="x000000_r0_g0_b0_a1.0_shape2"/>
    <path d="M 305,300 305,299 304,299 304,298 301,298 301,297 299,297 299,296 298,296 298,295 296,295 296,294 294,294 294,293 293,293 293,292 292,292 292,291 291,291 291,290 290,290 290,289 289,289 289,287 288,287 288,284 287,284 287,275 288,275 288,274 289,274 291,274 291,275 292,275 292,282 293,282 293,284 294,284 294,286 295,286 295,288 297,288 297,289 298,289 298,290 300,290 300,291 302,291 302,292 303,292 303,293 306,293 306,294 308,294 308,295 318,295 318,294 320,294 320,293 322,293 322,292 323,292 323,291 324,291 324,290 325,290 325,288 326,288 326,285 327,285 327,282 328,282 328,276 327,276 327,275 326,275 326,274 325,274 325,273 324,273 324,272 323,272 323,271 322,271 322,270 320,270 320,269 316,269 316,268 313,268 313,267 308,267 308,266 305,266 305,265 304,265 304,262 305,262 305,261 310,261 310,262 315,262 315,263 319,263 319,264 322,264 322,265 324,265 324,266 326,266 326,267 327,267 327,268 328,268 328,269 329,269 329,270 330,270 330,271 331,271 331,273 332,273 332,274 333,274 333,285 332,285 332,288 331,288 331,291 330,291 330,292 329,292 329,294 328,294 328,295 327,295 327,296 326,296 326,297 324,297 324,298 322,298 322,299 321,299 321,300 z" fill="#000000" fill-opacity="1.0" id="x000000_r0_g0_b0_a1.0_shape3"/>
    <path d="M 227,278 226,278 226,277 225,277 225,275 224,275 224,274 223,274 223,273 222,273 222,272 221,272 221,271 220,271 220,270 218,270 218,269 217,269 217,268 214,268 214,267 211,267 210,267 210,266 209,266 206,266 206,265 204,265 203,265 203,264 202,264 202,261 203,261 203,260 209,260 209,261 213,261 213,262 217,262 217,263 219,263 219,264 220,264 220,265 223,265 223,266 224,266 224,267 225,267 225,268 226,268 226,269 227,269 227,270 228,270 228,271 229,271 229,272 230,272 230,274 231,274 231,275 232,275 232,286 232,290 231,290 231,291 230,291 230,292 229,292 229,293 228,293 227,293 227,294 226,294 226,295 224,295 224,296 223,296 223,297 222,297 203,297 203,296 201,296 201,295 198,295 198,294 197,294 197,293 195,293 195,292 194,292 194,291 193,291 193,290 191,290 191,289 190,289 190,288 189,288 189,286 188,286 188,283 187,283 187,275 188,275 188,274 191,274 191,275 192,275 192,281 193,281 193,283 194,283 194,285 195,285 195,286 197,286 197,287 198,287 198,288 199,288 199,289 201,289 201,290 203,290 203,291 206,291 206,292 219,292 220,292 220,291 221,291 221,290 224,290 224,289 225,289 225,288 226,288 226,287 227,287 227,285 z" fill="#000000" fill-opacity="1.0" id="x000000_r0_g0_b0_a1.0_shape4"/>
    <path d="M 455,149 455,148 462,148 462,147 466,147 466,148 468,148 468,149 470,149 470,150 471,150 471,151 472,151 472,152 473,152 473,153 474,153 474,154 475,154 475,155 476,155 476,156 477,156 477,157 478,157 478,170 477,170 477,172 476,172 476,175 475,175 475,177 474,177 474,178 473,178 473,180 472,180 472,182 471,182 471,183 470,183 470,184 469,184 469,185 468,185 468,186 467,186 467,187 466,187 466,188 465,188 465,189 462,189 462,188 461,188 461,184 462,184 462,183 464,183 464,181 465,181 465,180 466,180 466,179 467,179 467,177 468,177 468,176 469,176 469,174 470,174 470,172 471,172 471,169 472,169 472,168 473,168 473,161 473,160 472,160 472,159 471,159 471,157 470,157 470,156 468,156 468,155 467,155 467,154 465,154 465,153 458,153 458,154 454,154 454,155 452,155 452,156 451,156 451,157 450,157 450,158 449,158 449,159 448,159 448,160 447,160 447,162 446,162 446,164 445,164 445,165 444,165 444,166 441,166 441,165 440,165 440,163 440,161 441,161 441,159 442,159 442,157 443,157 443,156 444,156 444,155 445,155 445,154 446,154 446,153 447,153 447,152 448,152 448,151 449,151 449,150 452,150 452,149 z" fill="#000000" fill-opacity="1.0" id="x000000_r0_g0_b0_a1.0_shape5"/>
    <path d="M 478,242 478,239 479,239 479,238 480,238 480,237 481,237 481,236 482,236 482,235 484,235 484,234 485,234 485,233 486,233 486,232 488,232 488,231 489,231 489,230 490,230 490,229 491,229 491,228 492,228 492,226 493,226 493,225 494,225 494,223 495,223 495,221 496,221 496,216 495,216 495,213 494,213 494,210 493,210 493,209 492,209 492,207 491,207 491,206 486,206 486,207 483,207 483,208 480,208 479,208 479,209 478,209 476,209 476,210 474,210 474,211 473,211 473,212 473,213 472,213 472,214 472,215 471,215 471,216 468,216 468,215 467,215 467,211 468,211 468,209 469,209 469,208 470,208 470,206 471,206 471,205 473,205 473,204 476,204 476,203 480,203 480,202 484,202 484,201 490,201 494,201 494,202 495,202 495,203 496,203 496,204 497,204 497,206 498,206 498,207 499,207 499,211 500,211 500,214 501,214 501,224 500,224 500,226 499,226 499,228 498,228 498,229 497,229 497,230 496,230 496,232 495,232 495,233 494,233 494,234 492,234 492,235 491,235 491,236 490,236 490,237 489,237 489,238 488,238 488,239 487,239 487,240 485,240 485,241 484,241 484,242 483,242 483,243 479,243 479,242 z" fill="#000000" fill-opacity="1.0" id="x000000_r0_g0_b0_a1.0_shape6"/>
    <path d="M 497,120 496,120 496,119 495,119 495,118 493,118 493,117 487,117 487,118 484,118 484,119 482,119 482,120 481,120 481,121 479,121 479,122 478,122 478,124 477,124 477,125 476,125 476,127 475,127 475,130 474,130 474,131 473,131 473,133 472,133 472,134 469,134 469,133 468,133 468,129 469,129 469,127 470,127 470,125 471,125 471,123 472,123 472,121 473,121 473,120 474,120 474,119 475,119 475,117 476,117 476,116 478,116 478,115 479,115 479,114 481,114 481,113 485,113 485,112 496,112 496,113 498,113 498,114 499,114 499,115 500,115 500,116 501,116 501,118 502,118 502,119 503,119 503,121 504,121 504,124 505,124 505,134 504,134 504,136 503,136 503,138 502,138 502,140 501,140 501,141 500,141 500,142 499,142 499,144 498,144 498,145 496,145 496,147 495,147 495,148 492,148 492,147 491,147 491,143 492,143 492,142 493,142 493,141 494,141 494,140 495,140 495,138 496,138 496,137 497,137 497,135 498,135 498,134 499,134 499,132 500,132 500,127 499,127 499,123 498,123 498,122 497,122 z" fill="#000000" fill-opacity="1.0" id="x000000_r0_g0_b0_a1.0_shape7"/>
    <path d="M 508,185 509,185 509,184 510,184 510,183 511,183 511,181 512,181 512,180 513,180 513,179 514,179 514,177 515,177 515,175 516,175 516,172 517,172 517,170 517,165 516,165 516,162 515,162 515,161 514,161 514,159 512,159 512,158 511,158 511,157 509,157 502,157 502,158 500,158 500,159 499,159 499,163 498,163 498,164 496,164 495,164 495,163 494,163 494,157 495,157 495,156 496,156 496,155 497,155 497,154 498,154 498,153 500,153 500,152 507,152 513,152 513,153 515,153 515,154 516,154 516,155 517,155 517,156 518,156 518,157 519,157 519,158 520,158 520,160 521,160 521,163 522,163 522,175 521,175 521,178 520,178 520,180 519,180 519,182 518,182 518,183 517,183 517,184 516,184 516,185 515,185 515,186 514,186 514,187 513,187 513,189 512,189 512,190 511,190 511,191 509,191 509,192 508,192 508,193 507,193 507,194 506,194 506,195 502,195 502,194 501,194 501,191 502,191 502,190 503,190 503,189 505,189 505,188 506,188 506,187 507,187 507,186 508,186 z" fill="#000000" fill-opacity="1.0" id="x000000_r0_g0_b0_a1.0_shape8"/>
    <path d="M 380,491 381,491 381,495 382,495 382,502 383,502 383,506 384,506 384,516 384,522 385,522 385,528 385,531 386,531 386,533 386,540 387,540 387,549 387,551 388,551 388,552 389,552 389,560 384,560 384,555 383,555 383,554 382,554 382,543 381,543 381,533 380,533 380,527 380,524 379,524 379,519 379,509 378,509 378,505 377,505 377,498 376,498 376,491 377,491 377,490 380,490 z" fill="#000000" fill-opacity="1.0" id="x000000_r0_g0_b0_a1.0_shape9"/>
    <path d="M 279,485 279,482 278,482 278,479 277,479 277,477 276,477 276,474 275,474 275,471 274,471 274,466 273,466 273,463 272,463 272,460 272,452 271,452 271,445 271,439 272,439 272,438 275,438 275,439 276,439 276,450 277,450 277,455 277,461 278,461 278,464 279,464 279,469 280,469 280,472 281,472 281,475 282,475 282,477 283,477 283,480 284,480 284,482 285,482 285,484 286,484 286,485 287,485 287,486 288,486 288,488 289,488 289,489 290,489 290,493 289,493 289,494 286,494 286,493 285,493 285,492 284,492 284,491 283,491 283,489 282,489 282,487 281,487 281,486 280,486 280,485 z" fill="#000000" fill-opacity="1.0" id="x000000_r0_g0_b0_a1.0_shape10"/>
    <path d="M 397,311 398,311 398,308 399,308 399,306 400,306 400,305 401,305 401,303 402,303 402,300 401,300 401,295 400,295 400,291 401,291 401,290 404,290 404,291 405,291 405,292 406,292 406,297 407,297 407,305 407,306 406,306 406,307 405,307 405,309 404,309 404,311 403,311 403,313 402,313 402,315 401,315 401,316 398,316 398,315 397,315 z" fill="#000000" fill-opacity="1.0" id="x000000_r0_g0_b0_a1.0_shape11"/>
    <path d="M 204,311 205,311 205,310 206,310 206,309 209,309 209,310 210,310 210,313 209,313 209,321 208,321 208,323 207,323 207,324 204,324 204,323 203,323 203,319 204,319 z" fill="#000000" fill-opacity="1.0" id="x000000_r0_g0_b0_a1.0_shape12"/>
    <path d="M 313,312 314,312 314,320 315,320 315,325 314,325 314,326 311,326 311,325 310,325 310,323 309,323 309,315 309,312 310,312 310,311 313,311 z" fill="#000000" fill-opacity="1.0" id="x000000_r0_g0_b0_a1.0_shape13"/>
    <path d="M 302,325 301,325 301,326 298,326 298,325 297,325 297,323 297,316 296,316 296,312 297,312 297,311 300,311 300,312 301,312 301,314 302,314 302,318 z" fill="#000000" fill-opacity="1.0" id="x000000_r0_g0_b0_a1.0_shape14"/>
    <path d="M 190,320 189,320 189,321 186,321 186,320 185,320 185,310 186,310 186,309 188,309 189,309 189,310 190,310 z" fill="#000000" fill-opacity="1.0" id="x000000_r0_g0_b0_a1.0_shape15"/>
  </g>
</svg>
