<?xml version="1.0" encoding="utf-8" ?>
<svg xmlns="http://www.w3.org/2000/svg" xmlns:ev="http://www.w3.org/2001/xml-events" xmlns:xlink="http://www.w3.org/1999/xlink" baseProfile="full" height="1131px" version="1.1" viewBox="0 0 1000 1131" width="1000px">
  <defs/>
  <g id="x000000_r0_g0_b0_a1.0">
    <path d="M 608,845 607,845 607,836 606,836 606,838 605,838 605,840 604,840 604,842 603,842 603,844 602,844 602,847 601,847 601,849 600,849 600,853 599,853 599,856 598,856 598,857 597,857 597,859 596,859 596,860 595,860 595,862 594,862 594,863 593,863 593,864 592,864 592,865 591,865 591,867 590,867 590,868 589,868 589,869 588,869 588,870 587,870 587,871 586,871 586,872 585,872 585,873 584,873 584,874 583,874 583,875 582,875 582,876 581,876 581,877 580,877 580,878 578,878 578,879 577,879 577,880 574,880 574,881 572,881 572,882 569,882 569,883 565,883 565,884 562,884 562,885 559,885 559,886 558,886 558,887 555,887 555,888 554,888 554,889 552,889 552,890 549,890 549,891 546,891 546,892 543,892 543,893 541,893 541,894 539,894 539,895 537,895 537,896 536,896 536,897 532,897 532,898 529,898 529,899 527,899 527,900 525,900 525,901 524,901 524,902 521,902 521,901 520,901 520,906 519,906 519,907 518,907 518,908 517,908 517,909 516,909 516,910 514,910 514,911 504,911 504,910 501,910 501,909 499,909 499,908 498,908 498,906 497,906 497,902 497,901 495,901 495,900 493,900 493,899 492,899 492,897 492,893 491,893 489,893 489,892 487,892 487,891 486,891 486,889 485,889 485,884 486,884 486,881 485,881 485,880 484,880 484,879 483,879 483,878 482,878 482,876 482,871 482,867 483,867 483,866 484,866 484,864 485,864 485,863 487,863 487,857 487,854 488,854 488,852 488,850 489,850 489,849 490,849 490,848 491,848 491,847 492,847 492,846 494,846 494,845 496,845 496,844 500,844 500,843 509,843 509,840 510,840 510,839 511,839 511,838 512,838 512,837 513,837 513,836 515,836 515,835 517,835 517,834 519,834 519,833 520,833 520,832 522,832 522,831 523,831 523,825 524,825 524,823 525,823 525,820 526,820 526,818 527,818 527,817 528,817 528,814 529,814 529,813 530,813 530,812 531,812 531,811 533,811 533,810 534,810 534,809 536,809 536,808 538,808 538,807 540,807 540,806 542,806 542,805 543,805 543,804 544,804 544,803 545,803 545,802 547,802 547,801 548,801 548,800 549,800 549,799 551,799 551,798 552,798 552,797 553,797 553,796 554,796 554,795 556,795 556,794 557,794 557,793 558,793 558,792 560,792 560,791 561,791 561,790 563,790 563,789 565,789 565,788 567,788 567,787 570,787 570,786 571,786 571,785 572,785 572,784 573,784 573,782 574,782 574,781 572,781 572,782 570,782 570,783 568,783 568,784 565,784 565,785 564,785 564,786 561,786 561,787 559,787 559,788 556,788 556,789 553,789 553,790 551,790 551,791 549,791 549,792 547,792 547,793 545,793 545,794 542,794 542,795 540,795 540,796 537,796 537,797 534,797 534,798 527,798 524,798 524,797 521,797 520,797 520,796 519,796 517,796 517,795 515,795 514,795 514,794 513,794 512,794 512,793 511,793 511,792 510,792 510,791 509,791 509,790 508,790 507,790 507,789 506,789 506,788 504,788 504,787 490,787 468,787 468,786 462,786 462,785 459,785 459,784 450,784 450,783 442,783 442,782 440,782 440,781 439,781 439,780 438,780 438,779 437,779 437,778 436,778 436,776 435,776 435,773 433,773 433,772 431,772 431,771 430,771 430,769 429,769 429,762 428,762 428,760 427,760 427,759 426,759 426,758 425,758 425,756 424,756 424,755 423,755 423,752 423,751 422,751 422,750 422,745 419,745 419,744 417,744 417,743 415,743 415,742 414,742 414,741 413,741 413,740 412,740 412,738 411,738 411,731 411,723 412,723 412,718 413,718 413,717 415,717 415,716 416,716 416,715 417,715 417,714 419,714 419,713 420,713 420,712 424,712 424,711 427,711 430,711 430,712 431,712 431,713 434,713 434,712 435,712 435,711 436,711 437,711 437,710 438,710 439,710 439,709 440,709 443,709 443,708 447,708 450,708 450,707 456,707 457,707 457,708 458,708 460,708 460,709 462,709 463,709 463,710 464,710 465,710 465,711 466,711 467,711 467,712 468,712 469,712 469,713 470,713 473,713 473,714 475,714 475,713 477,713 477,712 479,712 479,711 481,711 481,710 485,710 485,709 490,709 490,708 494,708 494,707 496,707 496,706 498,706 498,705 500,705 500,704 501,704 501,703 503,703 503,702 506,702 506,701 509,701 509,700 512,700 512,699 513,699 513,698 512,698 512,696 511,696 511,695 507,695 507,694 505,694 505,693 504,693 504,692 503,692 503,691 502,691 502,689 501,689 501,687 500,687 500,685 499,685 499,682 498,682 498,679 497,679 497,675 496,675 496,673 495,673 495,674 494,674 494,675 492,675 492,676 491,676 491,677 489,677 489,678 487,678 487,679 485,679 485,680 483,680 483,681 480,681 480,682 477,682 477,683 472,683 472,684 468,684 468,685 460,685 460,684 448,684 448,683 442,683 442,682 439,682 439,681 436,681 436,680 434,680 434,679 432,679 432,678 430,678 430,677 428,677 428,676 427,676 427,675 425,675 425,674 423,674 423,673 422,673 422,672 421,672 421,671 420,671 420,670 419,670 419,669 418,669 418,668 417,668 417,666 416,666 416,665 414,665 414,664 413,664 413,663 411,663 411,662 409,662 409,661 404,661 404,660 403,660 403,661 401,661 401,662 400,662 400,663 399,663 399,665 398,665 398,666 397,666 397,668 396,668 396,669 395,669 395,671 394,671 394,673 393,673 393,675 392,675 392,678 391,678 391,686 392,686 392,691 391,691 391,692 383,692 383,691 381,691 381,690 379,690 379,689 378,689 378,688 377,688 377,687 376,687 376,686 375,686 375,685 374,685 374,684 373,684 373,682 372,682 372,679 371,679 371,675 370,675 370,672 369,672 369,667 368,667 368,654 369,654 369,646 370,646 370,643 371,643 371,639 372,639 372,635 373,635 373,632 374,632 374,630 375,630 375,628 376,628 376,626 377,626 377,624 375,624 375,625 374,625 374,626 373,626 373,627 372,627 372,628 371,628 371,629 370,629 370,631 369,631 369,632 368,632 368,633 367,633 367,635 366,635 366,636 365,636 365,638 364,638 364,640 363,640 363,642 362,642 362,652 361,652 361,653 360,653 358,653 358,652 357,652 357,642 356,642 356,623 357,623 357,617 358,617 358,615 359,615 359,613 360,613 360,611 361,611 361,610 362,610 362,608 363,608 363,607 364,607 364,606 365,606 365,605 366,605 366,604 367,604 367,603 368,603 368,601 369,601 369,600 370,600 370,599 371,599 371,598 372,598 372,597 373,597 373,596 375,596 375,595 376,595 376,594 377,594 377,593 379,593 379,592 382,592 382,591 387,591 387,590 404,590 404,591 410,591 410,592 433,592 433,591 437,591 437,587 437,583 438,583 438,576 439,576 439,571 440,571 440,566 441,566 441,561 442,561 442,558 443,558 443,555 444,555 444,553 445,553 445,551 446,551 446,548 447,548 447,546 448,546 448,544 449,544 449,542 450,542 450,539 449,539 449,533 448,533 448,530 447,530 447,525 446,525 446,521 445,521 445,516 444,516 444,503 444,495 445,495 445,492 444,492 444,494 443,494 443,498 442,498 442,502 441,502 441,507 440,507 440,518 439,518 439,527 438,527 438,544 439,544 439,548 438,548 438,549 435,549 435,548 434,548 434,547 433,547 433,542 432,542 432,540 431,540 431,538 430,538 430,536 429,536 429,532 428,532 428,528 427,528 427,513 427,488 428,488 428,482 429,482 429,477 430,477 430,469 431,469 431,464 432,464 432,459 433,459 433,452 434,452 434,450 435,450 435,445 436,445 436,442 437,442 437,439 438,439 438,436 439,436 439,433 440,433 440,430 441,430 441,427 442,427 442,424 443,424 443,422 444,422 444,420 445,420 445,418 446,418 446,416 447,416 447,412 448,412 448,411 449,411 449,408 450,408 450,405 451,405 451,404 452,404 452,401 453,401 453,399 454,399 454,397 455,397 455,396 451,396 451,397 446,397 446,398 440,398 440,399 431,399 431,400 420,400 420,401 407,401 407,402 389,402 389,401 368,401 368,400 364,400 364,399 359,399 359,398 355,398 355,397 352,397 352,396 349,396 349,395 346,395 346,394 345,394 345,393 342,393 342,392 341,392 341,391 339,391 339,390 338,390 338,389 337,389 337,388 335,388 335,387 334,387 334,386 332,386 332,385 331,385 331,384 329,384 329,383 328,383 328,382 326,382 326,381 325,381 325,377 326,377 326,376 327,376 327,375 328,375 328,374 331,374 331,373 335,373 335,372 341,372 341,371 354,371 354,370 367,370 367,369 366,369 366,368 363,368 363,367 362,367 362,366 361,366 361,365 360,365 360,363 359,363 359,362 358,362 358,360 357,360 357,358 356,358 356,356 355,356 355,354 354,354 354,350 355,350 355,349 357,349 357,348 360,348 360,349 363,349 363,350 365,350 365,351 368,351 368,352 373,352 373,353 379,353 379,354 388,354 388,355 394,355 394,356 421,356 421,355 424,355 424,354 418,354 418,353 416,353 416,352 414,352 414,351 413,351 413,350 411,350 411,349 409,349 409,348 408,348 408,347 407,347 407,346 406,346 406,345 405,345 405,344 404,344 404,343 403,343 403,341 402,341 402,340 401,340 401,338 400,338 400,337 399,337 399,335 398,335 398,333 397,333 397,330 396,330 396,327 397,327 397,326 401,326 401,327 403,327 403,328 404,328 404,329 406,329 406,330 409,330 409,331 410,331 410,332 411,332 411,333 413,333 413,334 416,334 416,335 422,335 422,336 434,336 434,335 433,335 433,334 432,334 432,333 431,333 431,332 430,332 430,331 429,331 429,330 428,330 428,329 427,329 427,327 426,327 426,326 425,326 425,324 424,324 424,323 423,323 423,322 422,322 422,320 421,320 421,319 420,319 420,317 419,317 419,312 420,312 420,311 425,311 425,312 427,312 427,313 431,313 431,314 434,314 434,315 437,315 437,316 439,316 439,317 443,317 443,318 450,318 450,319 459,319 459,320 462,320 462,319 460,319 460,318 459,318 459,317 458,317 458,316 457,316 457,315 456,315 456,313 455,313 455,312 454,312 454,311 453,311 453,309 452,309 452,307 451,307 451,303 450,303 450,300 451,300 451,298 452,298 452,297 458,297 458,298 460,298 460,299 461,299 461,300 462,300 462,301 464,301 464,302 467,302 467,303 469,303 469,304 471,304 471,305 475,305 475,306 479,306 479,307 482,307 482,308 486,308 486,309 488,309 488,310 492,310 492,311 496,311 496,312 500,312 500,313 505,313 505,314 519,314 519,313 520,313 520,312 521,312 521,311 522,311 522,310 523,310 523,309 524,309 524,308 526,308 526,307 527,307 527,306 528,306 528,305 530,305 530,304 531,304 531,303 533,303 533,302 535,302 535,301 536,301 536,300 538,300 538,299 539,299 539,298 540,298 540,297 541,297 541,296 543,296 543,295 544,295 544,294 546,294 546,293 548,293 548,292 550,292 550,291 552,291 552,290 554,290 554,289 556,289 556,288 558,288 558,287 560,287 560,286 562,286 562,285 564,285 564,284 566,284 566,283 568,283 568,282 570,282 570,281 571,281 571,280 573,280 573,279 575,279 575,278 577,278 577,277 580,277 580,276 582,276 582,275 583,275 583,274 584,274 584,273 586,273 586,272 588,272 588,271 590,271 590,270 592,270 592,269 595,269 595,268 597,268 597,267 599,267 599,266 601,266 601,265 603,265 603,264 605,264 605,263 607,263 607,262 609,262 609,261 612,261 612,260 613,260 613,259 615,259 615,258 618,258 618,257 621,257 621,256 624,256 624,255 629,255 629,254 632,254 632,253 639,253 639,252 644,252 644,251 648,251 648,250 653,250 653,249 657,249 657,248 665,248 665,247 676,247 676,246 683,246 683,245 686,245 686,243 685,243 685,241 684,241 684,239 683,239 683,238 682,238 682,237 681,237 681,235 680,235 680,231 679,231 679,229 678,229 678,227 677,227 677,225 676,225 676,222 675,222 675,221 674,221 674,217 673,217 673,213 672,213 672,212 671,212 671,208 670,208 670,204 669,204 669,201 668,201 668,199 667,199 667,192 666,192 666,179 663,179 663,178 655,178 655,177 653,177 653,174 652,174 652,172 651,172 651,171 650,171 650,170 649,170 649,169 618,169 618,170 617,170 617,172 603,172 600,172 600,171 597,171 594,171 594,170 591,170 591,169 590,169 590,168 589,168 589,167 588,167 588,166 587,166 587,164 587,158 588,158 588,157 590,157 590,156 592,156 592,155 598,155 598,154 602,154 602,153 606,153 606,152 611,152 611,151 614,151 614,150 615,150 615,149 619,149 619,148 621,148 621,147 622,147 622,146 624,146 624,145 626,145 626,144 627,144 627,143 629,143 629,142 630,142 630,141 631,141 631,140 633,140 633,139 634,139 634,138 636,138 636,137 637,137 637,136 638,136 638,135 639,135 639,134 640,134 640,133 641,133 641,132 642,132 642,131 643,131 643,130 644,130 644,129 645,129 645,128 646,128 646,127 647,127 647,126 648,126 648,125 650,125 650,124 651,124 651,123 652,123 652,121 653,121 653,120 654,120 654,119 655,119 655,118 656,118 656,117 657,117 657,116 658,116 658,115 659,115 659,114 660,114 660,112 662,112 662,110 663,110 663,109 664,109 664,108 665,108 665,107 666,107 666,106 668,106 668,105 670,105 670,104 672,104 672,103 674,103 674,104 677,104 677,105 680,105 680,106 682,106 682,108 683,108 683,110 684,110 684,111 685,111 685,113 686,113 686,117 687,117 687,123 688,123 688,124 691,124 691,123 692,123 692,122 695,122 695,121 696,121 696,120 697,120 697,119 698,119 698,118 700,118 700,117 702,117 702,116 704,116 704,115 706,115 706,114 708,114 708,113 711,113 711,112 713,112 713,111 716,111 716,110 721,110 721,109 723,109 723,108 728,108 728,107 735,107 735,106 743,106 743,105 773,105 773,106 778,106 778,107 783,107 783,108 786,108 786,109 790,109 790,110 794,110 794,111 798,111 798,112 801,112 801,113 804,113 804,114 807,114 807,115 811,115 811,116 815,116 815,117 816,117 816,118 819,118 819,119 822,119 822,120 825,120 825,121 827,121 827,122 831,122 831,123 833,123 833,120 832,120 832,118 831,118 831,117 830,117 830,115 829,115 829,114 828,114 828,112 827,112 827,111 826,111 826,110 825,110 825,104 826,104 826,103 832,103 832,104 837,104 837,105 840,105 840,106 842,106 842,107 844,107 844,108 845,108 845,109 847,109 847,110 849,110 849,111 851,111 851,112 853,112 853,113 855,113 855,114 856,114 856,115 857,115 857,116 858,116 858,117 859,117 859,118 861,118 861,119 863,119 863,120 866,120 866,121 867,121 867,122 869,122 869,123 871,123 871,124 874,124 874,125 876,125 876,126 877,126 877,127 879,127 879,128 881,128 881,129 883,129 883,130 885,130 885,131 886,131 886,132 889,132 889,133 891,133 891,134 896,134 896,135 898,135 898,136 900,136 900,137 902,137 902,138 904,138 904,139 906,139 906,140 908,140 908,141 911,141 911,142 914,142 914,143 916,143 916,144 919,144 919,145 921,145 921,146 924,146 924,147 927,147 927,148 931,148 931,149 935,149 935,150 940,150 940,151 944,151 944,152 952,152 952,153 957,153 957,154 962,154 962,155 965,155 965,156 968,156 968,157 970,157 970,158 972,158 972,159 973,159 973,166 972,166 972,167 971,167 971,168 968,168 968,169 954,169 954,170 923,170 919,170 919,171 920,171 920,172 921,172 921,174 922,174 922,175 923,175 923,178 922,178 922,179 915,179 915,181 916,181 916,184 917,184 917,185 918,185 918,186 919,186 919,187 920,187 920,188 921,188 921,189 922,189 922,190 923,190 923,191 924,191 924,192 925,192 925,193 926,193 926,194 927,194 927,195 928,195 928,196 929,196 929,197 930,197 930,199 931,199 931,200 932,200 932,202 933,202 933,203 934,203 934,205 935,205 935,206 936,206 936,207 937,207 937,209 938,209 938,210 939,210 939,212 940,212 940,214 941,214 941,216 942,216 942,218 943,218 943,219 944,219 944,221 945,221 945,223 946,223 946,224 947,224 947,226 948,226 948,228 949,228 949,231 950,231 950,232 951,232 951,233 952,233 952,236 953,236 953,240 954,240 954,241 955,241 955,243 956,243 956,247 957,247 957,250 958,250 958,255 959,255 959,258 960,258 960,260 961,260 961,263 962,263 962,266 963,266 963,297 962,297 962,301 961,301 961,305 961,306 960,306 960,307 960,312 961,312 961,313 962,313 962,314 964,314 964,315 967,315 967,316 968,316 968,317 970,317 970,318 975,318 975,319 977,319 977,320 979,320 979,321 982,321 982,322 983,322 983,323 985,323 985,324 986,324 986,325 987,325 987,326 988,326 988,327 990,327 990,328 991,328 991,329 992,329 992,330 993,330 993,331 994,331 994,332 995,332 995,333 996,333 996,334 997,334 997,336 998,336 998,338 999,338 999,345 999,347 998,347 998,348 997,348 997,349 993,349 988,349 988,348 984,348 984,347 983,347 983,346 981,346 981,345 980,345 980,344 979,344 979,345 977,345 977,344 972,344 972,345 970,345 970,346 967,346 967,347 960,347 960,346 958,346 958,345 956,345 956,344 954,344 954,343 953,343 953,342 952,342 952,341 950,341 950,340 949,340 949,339 948,339 948,338 946,338 946,337 945,337 945,336 944,336 944,335 941,335 941,336 940,336 940,337 939,337 939,339 938,339 938,340 937,340 937,341 936,341 936,342 934,342 934,343 932,343 932,344 930,344 930,345 928,345 928,346 925,346 925,347 923,347 923,348 921,348 920,348 920,349 919,349 917,349 917,350 914,350 914,351 912,351 912,352 910,352 910,353 908,353 906,353 906,354 901,354 901,355 896,355 896,356 886,356 886,358 887,358 887,360 888,360 888,362 889,362 889,363 890,363 890,365 891,365 891,367 892,367 892,369 893,369 893,371 894,371 894,373 895,373 895,374 896,374 896,377 897,377 897,380 898,380 898,382 899,382 899,384 900,384 900,387 901,387 901,390 902,390 902,393 903,393 903,396 904,396 904,399 905,399 905,401 906,401 906,404 907,404 907,407 908,407 908,412 909,412 909,417 910,417 910,421 911,421 911,426 912,426 912,431 913,431 913,436 914,436 914,448 915,448 915,459 916,459 916,473 917,473 917,495 916,495 916,502 915,502 915,509 914,509 914,515 913,515 913,518 912,518 912,522 911,522 911,525 910,525 910,528 909,528 909,530 908,530 908,531 909,531 909,532 910,532 910,533 911,533 911,534 912,534 912,535 913,535 913,537 914,537 914,538 915,538 915,539 916,539 916,540 917,540 917,541 918,541 918,543 919,543 919,544 920,544 920,546 921,546 921,548 922,548 922,553 921,553 921,554 908,554 908,555 900,555 900,556 899,556 899,557 898,557 898,559 897,559 897,560 896,560 896,563 895,563 895,564 894,564 894,566 893,566 893,568 895,568 895,569 896,569 896,571 897,571 897,572 898,572 898,573 899,573 899,574 900,574 900,576 901,576 901,578 902,578 902,580 903,580 903,583 904,583 904,585 905,585 905,589 906,589 906,593 907,593 907,618 907,620 906,620 906,623 906,625 905,625 905,630 904,630 904,636 903,636 903,642 902,642 902,648 901,648 901,653 900,653 900,658 899,658 899,662 898,662 898,678 899,678 899,684 900,684 900,685 901,685 901,686 902,686 902,687 903,687 903,688 904,688 904,689 905,689 905,690 906,690 906,691 907,691 907,692 908,692 908,693 909,693 909,694 910,694 910,695 912,695 912,696 913,696 913,697 914,697 914,698 915,698 915,699 916,699 916,700 917,700 917,701 918,701 918,702 919,702 919,703 921,703 921,704 922,704 922,705 923,705 923,706 924,706 924,707 925,707 925,708 926,708 926,710 927,710 927,711 929,711 929,712 930,712 930,713 931,713 931,715 932,715 932,716 933,716 933,717 934,717 934,719 935,719 935,720 936,720 936,723 937,723 937,725 938,725 938,728 939,728 939,730 940,730 940,734 941,734 941,760 940,760 940,763 939,763 939,766 938,766 938,768 937,768 937,770 936,770 936,772 935,772 935,773 934,773 934,775 933,775 933,776 932,776 932,777 931,777 931,778 930,778 930,780 929,780 929,781 928,781 928,782 927,782 927,783 926,783 926,784 925,784 925,785 924,785 924,786 922,786 922,787 920,787 920,788 918,788 918,789 916,789 916,790 913,790 913,791 911,791 911,792 909,792 909,793 901,793 901,792 900,792 900,789 901,789 901,788 902,788 902,786 903,786 903,785 905,785 905,784 907,784 907,783 908,783 908,782 909,782 909,781 910,781 910,780 911,780 911,779 912,779 912,777 913,777 913,775 914,775 914,772 915,772 915,771 914,771 914,772 913,772 913,773 912,773 912,774 911,774 911,775 909,775 909,776 908,776 908,777 906,777 906,778 905,778 905,779 904,779 904,780 902,780 902,781 900,781 900,782 898,782 898,783 897,783 897,784 894,784 894,785 892,785 892,786 890,786 890,787 887,787 887,788 883,788 883,789 878,789 878,790 875,790 875,789 871,789 871,790 866,790 866,789 865,789 865,786 866,786 866,785 868,785 868,784 872,784 872,783 875,783 875,782 876,782 876,780 877,780 877,779 878,779 878,776 879,776 879,768 878,768 878,765 877,765 877,763 876,763 876,762 875,762 875,761 873,761 873,760 868,760 868,759 860,759 860,758 854,758 854,757 850,757 850,756 848,756 848,755 846,755 846,754 844,754 844,753 842,753 842,752 841,752 841,751 839,751 839,750 838,750 838,749 836,749 836,748 835,748 835,747 834,747 834,746 833,746 833,745 831,745 831,744 830,744 830,743 829,743 829,742 828,742 828,741 827,741 827,739 826,739 826,738 825,738 825,737 824,737 824,735 823,735 823,734 822,734 822,731 821,731 821,729 820,729 820,727 819,727 819,725 818,725 818,723 817,723 817,720 816,720 816,717 815,717 815,715 814,715 814,738 815,738 815,743 816,743 816,747 817,747 817,749 818,749 818,752 819,752 819,753 820,753 820,754 821,754 821,755 822,755 822,756 823,756 823,757 825,757 825,758 827,758 827,759 830,759 830,760 832,760 832,761 836,761 836,762 837,762 837,766 836,766 836,767 835,767 835,768 822,768 822,767 816,767 816,766 814,766 814,765 812,765 812,764 810,764 810,763 809,763 809,762 808,762 808,761 807,761 807,760 806,760 806,759 805,759 805,758 804,758 804,756 803,756 803,755 802,755 802,752 801,752 801,750 800,750 800,747 799,747 799,723 800,723 800,717 801,717 801,712 802,712 802,708 803,708 803,704 804,704 804,701 805,701 805,699 806,699 806,698 807,698 807,696 808,696 808,694 806,694 806,695 802,695 802,696 782,696 782,695 779,695 779,694 776,694 776,693 775,693 775,692 773,692 773,691 772,691 772,690 771,690 771,689 768,689 768,688 767,688 767,687 766,687 766,686 765,686 765,687 764,687 764,689 763,689 763,692 762,692 762,694 761,694 761,697 760,697 760,700 759,700 759,704 758,704 758,710 757,710 757,717 756,717 756,727 757,727 757,732 758,732 758,735 759,735 759,737 760,737 760,739 761,739 761,740 762,740 762,741 763,741 763,742 764,742 764,745 763,745 763,746 759,746 759,745 758,745 758,744 757,744 757,743 755,743 755,742 753,742 753,741 751,741 751,740 750,740 750,738 749,738 749,737 748,737 748,735 747,735 747,732 746,732 746,730 745,730 745,724 744,724 744,699 745,699 745,695 746,695 746,691 744,691 744,692 742,692 742,693 740,693 740,694 737,694 737,695 735,695 735,696 732,696 732,697 729,697 729,698 725,698 725,699 722,699 722,700 718,700 718,701 715,701 715,702 712,702 712,703 709,703 709,704 706,704 706,705 702,705 702,706 699,706 699,707 696,707 696,708 692,708 692,709 686,709 686,710 681,710 681,711 674,711 674,712 675,712 675,713 676,713 676,714 677,714 677,715 678,715 678,716 679,716 679,717 680,717 680,718 681,718 681,719 682,719 682,721 683,721 683,723 684,723 684,725 685,725 685,728 686,728 686,731 687,731 687,734 688,734 688,738 689,738 689,740 690,740 690,744 691,744 691,747 692,747 692,750 693,750 693,751 694,751 694,753 695,753 695,756 696,756 696,760 695,760 695,761 694,761 694,762 692,762 692,763 690,763 690,764 691,764 691,765 692,765 692,768 693,768 693,770 694,770 694,773 695,773 695,775 696,775 696,778 697,778 697,780 698,780 698,782 699,782 699,784 700,784 700,786 701,786 701,787 702,787 702,788 703,788 703,790 708,790 708,791 712,791 712,792 717,792 717,793 720,793 720,792 726,792 726,791 733,791 733,792 735,792 735,793 736,793 736,794 737,794 737,795 739,795 739,796 740,796 740,797 741,797 741,798 742,798 742,799 744,799 744,800 745,800 745,801 746,801 746,802 747,802 747,803 748,803 748,804 750,804 750,805 751,805 751,806 752,806 752,807 753,807 753,808 755,808 755,809 756,809 756,810 757,810 757,811 759,811 759,812 760,812 760,813 761,813 761,814 762,814 762,815 764,815 764,816 765,816 765,817 766,817 766,818 767,818 767,819 768,819 768,820 769,820 769,821 770,821 770,822 771,822 771,824 772,824 772,826 773,826 773,827 774,827 774,829 775,829 775,831 776,831 776,835 776,836 775,836 775,837 765,837 765,836 763,836 763,835 762,835 762,838 763,838 763,839 764,839 764,840 765,840 765,841 766,841 766,843 768,843 768,844 769,844 769,846 770,846 770,847 771,847 771,848 772,848 772,850 773,850 773,851 774,851 774,852 775,852 775,856 774,856 774,857 771,857 771,858 770,858 770,859 769,859 769,860 767,860 767,861 768,861 768,862 769,862 769,863 770,863 770,864 771,864 771,866 772,866 772,867 773,867 773,868 774,868 774,869 775,869 775,874 774,874 774,875 764,875 764,874 761,874 761,875 762,875 762,876 763,876 763,877 764,877 764,878 765,878 765,879 766,879 766,880 767,880 767,881 768,881 768,882 769,882 769,883 770,883 770,884 771,884 771,885 772,885 772,887 773,887 773,888 774,888 774,890 775,890 775,891 776,891 776,893 777,893 777,894 778,894 778,895 779,895 779,897 780,897 780,898 781,898 781,899 781,900 782,900 782,901 783,901 783,900 784,900 784,899 785,899 785,898 785,896 786,896 786,894 786,893 787,893 787,892 787,891 788,891 788,890 788,889 789,889 789,888 790,888 790,887 791,887 791,886 792,886 792,885 794,885 794,884 795,884 795,883 797,883 797,882 798,882 798,881 801,881 801,880 803,880 803,879 806,879 806,878 809,878 809,877 811,877 811,876 815,876 815,875 817,875 817,874 819,874 819,873 821,873 821,872 823,872 823,871 826,871 826,870 828,870 828,869 830,869 830,868 832,868 832,867 834,867 834,866 835,866 835,865 837,865 837,864 839,864 839,863 840,863 840,862 841,862 841,861 843,861 843,859 844,859 844,858 845,858 845,857 847,857 847,855 848,855 848,854 850,854 850,853 859,853 859,854 863,854 863,855 864,855 864,856 866,856 866,857 867,857 867,858 868,858 868,857 881,857 881,858 884,858 884,859 887,859 887,860 888,860 888,861 889,861 889,862 890,862 890,863 891,863 891,864 892,864 892,865 893,865 893,866 894,866 894,867 895,867 895,869 896,869 896,871 897,871 897,873 898,873 898,874 899,874 899,877 900,877 900,880 901,880 901,882 902,882 902,886 903,886 903,889 904,889 904,893 905,893 905,896 906,896 906,899 907,899 907,909 908,909 908,919 907,919 907,921 906,921 906,922 905,922 905,923 893,923 893,928 892,928 892,930 891,930 891,931 886,931 886,932 882,932 882,933 876,933 876,934 873,934 873,935 870,935 870,936 869,936 869,938 868,938 868,939 867,939 867,940 866,940 866,941 865,941 865,942 864,942 864,943 863,943 863,944 862,944 862,945 861,945 861,946 859,946 859,948 858,948 858,949 857,949 857,950 856,950 856,951 855,951 855,952 854,952 854,953 852,953 852,954 851,954 851,955 850,955 850,956 848,956 848,957 847,957 847,958 846,958 846,959 845,959 845,960 844,960 844,961 843,961 843,962 840,962 840,963 836,963 836,962 834,962 834,961 831,961 831,960 827,960 827,961 824,961 824,963 823,963 823,965 822,965 822,966 821,966 821,967 820,967 820,968 819,968 819,969 818,969 818,970 817,970 817,971 816,971 816,973 815,973 815,974 814,974 814,975 813,975 813,976 812,976 812,977 811,977 811,978 810,978 810,979 809,979 809,980 808,980 808,981 807,981 807,982 806,982 806,983 804,983 804,984 803,984 803,985 802,985 802,986 800,986 800,987 798,987 798,988 796,988 796,989 794,989 794,990 791,990 791,991 786,991 786,990 783,990 783,989 781,989 781,988 778,988 778,987 776,987 776,986 774,986 774,985 772,985 772,984 769,984 769,983 766,983 766,982 765,982 765,981 762,981 762,980 760,980 760,979 758,979 758,978 756,978 756,977 754,977 754,976 753,976 753,975 751,975 751,974 750,974 750,973 749,973 749,972 747,972 747,971 746,971 746,970 745,970 745,969 744,969 744,968 743,968 743,967 741,967 741,966 740,966 740,965 739,965 739,964 737,964 737,963 736,963 736,962 735,962 735,961 734,961 734,960 733,960 733,959 732,959 732,958 731,958 731,957 730,957 730,956 729,956 729,955 728,955 728,954 726,954 726,953 725,953 725,952 724,952 724,951 723,951 723,950 722,950 722,949 721,949 721,948 720,948 720,947 719,947 719,946 718,946 718,945 717,945 717,944 716,944 716,943 715,943 715,942 714,942 714,941 713,941 713,944 712,944 712,947 711,947 711,951 710,951 710,954 709,954 709,957 708,957 708,961 707,961 707,965 706,965 706,970 705,970 705,974 704,974 704,978 703,978 703,982 702,982 702,986 701,986 701,989 700,989 700,993 699,993 699,996 698,996 698,999 697,999 697,1003 696,1003 696,1006 695,1006 695,1010 694,1010 694,1013 693,1013 693,1016 692,1016 692,1019 691,1019 691,1022 690,1022 690,1024 689,1024 689,1027 688,1027 688,1029 687,1029 687,1030 686,1030 686,1033 685,1033 685,1035 684,1035 684,1041 685,1041 685,1044 686,1044 686,1055 685,1055 685,1057 684,1057 684,1059 683,1059 683,1061 682,1061 682,1062 681,1062 681,1063 680,1063 680,1064 679,1064 679,1065 678,1065 678,1066 677,1066 677,1068 676,1068 676,1069 675,1069 675,1070 674,1070 674,1071 673,1071 673,1073 672,1073 672,1074 671,1074 671,1076 670,1076 670,1078 669,1078 669,1080 668,1080 668,1082 667,1082 667,1090 666,1090 666,1095 665,1095 665,1098 664,1098 664,1103 663,1103 663,1107 662,1107 662,1112 661,1112 661,1115 660,1115 660,1116 658,1116 658,1117 655,1117 655,1118 652,1118 652,1119 645,1119 645,1120 643,1120 643,1121 642,1121 642,1124 641,1124 641,1125 640,1125 640,1126 639,1126 639,1127 637,1127 637,1128 636,1128 636,1129 634,1129 634,1130 632,1130 632,1131 619,1131 619,1130 614,1130 614,1129 611,1129 611,1128 608,1128 608,1127 604,1127 604,1126 602,1126 602,1125 600,1125 600,1124 598,1124 598,1123 595,1123 595,1122 593,1122 593,1121 591,1121 591,1120 589,1120 589,1119 587,1119 587,1118 586,1118 586,1117 584,1117 584,1116 583,1116 583,1115 582,1115 582,1114 581,1114 581,1113 579,1113 579,1112 578,1112 578,1111 577,1111 577,1110 576,1110 576,1109 575,1109 575,1107 574,1107 574,1106 573,1106 573,1096 574,1096 574,1095 575,1095 575,1094 576,1094 576,1093 577,1093 577,1092 579,1092 579,1091 581,1091 581,1090 583,1090 583,1088 582,1088 582,1085 581,1085 581,1079 581,1072 582,1072 582,1071 583,1071 583,1070 584,1070 584,1068 585,1068 585,1067 586,1067 586,1066 587,1066 587,1064 588,1064 588,1063 589,1063 589,1062 590,1062 590,1060 591,1060 591,1059 592,1059 592,1058 593,1058 593,1056 594,1056 594,1055 595,1055 595,1053 596,1053 596,1052 597,1052 597,1050 598,1050 598,1048 599,1048 599,1047 600,1047 600,1045 601,1045 601,1044 602,1044 602,1042 603,1042 603,1039 604,1039 604,1033 603,1033 603,1016 604,1016 604,1012 605,1012 605,1011 606,1011 606,1010 608,1010 608,1009 612,1009 612,1008 614,1008 614,1007 615,1007 615,1003 616,1003 616,999 617,999 617,995 618,995 618,990 619,990 619,985 620,985 620,978 621,978 621,973 622,973 622,968 623,968 623,963 624,963 624,959 625,959 625,956 626,956 626,952 627,952 627,949 628,949 628,944 629,944 629,938 630,938 630,934 631,934 631,933 629,933 629,934 627,934 627,935 624,935 624,936 620,936 620,935 619,935 619,926 620,926 620,920 621,920 621,915 622,915 622,913 623,913 623,910 624,910 624,907 625,907 625,905 626,905 626,902 627,902 627,900 628,900 628,896 629,896 629,892 627,892 627,891 626,891 626,890 625,890 625,889 624,889 624,888 622,888 622,887 621,887 621,886 619,886 619,885 618,885 618,884 617,884 617,883 616,883 616,882 615,882 615,881 613,881 613,880 611,880 611,879 610,879 610,878 609,878 609,860 608,860 z M 511,673 512,673 512,676 513,676 513,682 514,682 514,687 515,687 515,691 516,691 516,693 517,693 517,695 518,695 518,696 519,696 519,698 523,698 532,698 537,698 537,699 542,699 542,700 550,700 550,701 561,701 561,702 567,702 581,702 581,701 578,701 578,700 575,700 575,699 571,699 571,698 568,698 568,697 565,697 565,696 561,696 561,695 558,695 558,694 554,694 554,693 552,693 552,692 550,692 550,691 548,691 548,690 546,690 546,689 544,689 544,688 543,688 543,687 541,687 541,686 539,686 539,685 537,685 537,684 536,684 536,683 535,683 535,682 533,682 533,681 532,681 532,680 531,680 531,679 529,679 529,678 528,678 528,677 526,677 526,676 525,676 525,675 524,675 524,674 522,674 522,673 521,673 521,672 519,672 519,671 518,671 518,670 517,670 517,669 516,669 516,668 515,668 515,667 514,667 514,666 512,666 512,665 511,665 z" fill="#000000" fill-opacity="1.0" id="x000000_r0_g0_b0_a1.0_shape1"/>
  </g>
</svg>
