<?xml version="1.0" encoding="utf-8" ?>
<svg xmlns="http://www.w3.org/2000/svg" xmlns:ev="http://www.w3.org/2001/xml-events" xmlns:xlink="http://www.w3.org/1999/xlink" baseProfile="full" height="1000px" version="1.1" viewBox="0 0 1000 1000" width="1000px">
  <defs/>
  <g id="x000000_r0_g0_b0_a1.0">
    <path d="M 586,660 586,659 585,659 585,658 583,658 583,656 582,656 582,655 581,655 581,654 580,654 580,653 579,653 579,652 578,652 578,651 577,651 577,650 576,650 576,649 575,649 575,647 574,647 574,646 573,646 573,644 572,644 572,643 571,643 571,642 570,642 570,641 569,641 569,640 568,640 568,638 567,638 567,636 566,636 566,634 565,634 565,632 564,632 564,630 563,630 563,629 562,629 562,628 562,626 561,626 561,625 560,625 560,626 559,626 559,634 560,634 560,638 561,638 561,645 562,645 562,648 563,648 563,655 564,655 564,660 565,660 565,667 566,667 566,672 567,672 567,676 568,676 568,679 568,683 569,683 569,688 570,688 570,692 571,692 571,695 572,695 572,700 573,700 573,706 574,706 574,709 575,709 575,714 575,715 576,715 576,716 576,718 577,718 577,719 578,719 578,725 579,725 579,729 580,729 580,732 581,732 581,735 582,735 582,736 583,736 583,735 592,735 592,736 595,736 595,737 598,737 598,738 599,738 599,739 600,739 600,740 601,740 601,742 602,742 602,744 603,744 603,745 604,745 604,747 605,747 605,752 606,752 606,763 605,763 605,765 604,765 604,766 603,766 603,767 604,767 604,769 605,769 605,770 607,770 607,771 608,771 608,772 609,772 609,773 610,773 610,774 611,774 611,775 613,775 613,776 615,776 615,777 617,777 617,778 619,778 619,779 620,779 620,781 621,781 621,782 622,782 622,783 623,783 623,785 624,785 624,792 623,792 623,795 622,795 622,797 621,797 621,799 620,799 620,800 619,800 619,801 617,801 617,802 616,802 616,803 615,803 615,804 609,804 609,805 606,805 606,806 603,806 603,807 599,807 599,808 596,808 596,809 593,809 593,811 591,811 591,810 582,810 582,811 576,811 576,812 570,812 570,813 558,813 558,811 555,811 555,810 552,810 552,809 550,809 550,808 546,808 546,807 543,807 543,808 540,808 540,807 537,807 537,808 535,808 535,807 533,807 533,806 529,806 529,805 526,805 526,806 524,806 524,805 522,805 522,807 518,807 518,806 513,806 513,807 510,807 510,806 509,806 509,807 508,807 508,808 506,808 506,809 504,809 504,810 503,810 503,811 502,811 502,812 501,812 501,813 499,813 499,814 497,814 497,815 496,815 496,816 494,816 494,817 492,817 492,818 490,818 490,819 487,819 487,820 484,820 484,821 481,821 481,822 478,822 478,823 474,823 474,824 472,824 472,825 469,825 469,826 467,826 467,827 465,827 465,828 462,828 462,829 459,829 459,830 457,830 457,831 454,831 454,832 450,832 450,833 440,833 440,834 435,834 435,835 409,835 409,836 362,836 347,836 347,835 343,835 343,834 337,834 337,835 336,835 336,833 334,833 334,832 328,832 328,831 326,831 326,830 324,830 324,829 323,829 323,828 320,828 320,829 319,829 319,828 318,828 318,827 312,827 312,826 302,826 302,825 289,825 289,824 285,824 285,823 280,823 277,823 277,822 276,822 276,823 273,823 273,822 270,822 270,821 266,821 260,821 260,820 257,820 257,819 249,819 249,821 236,821 236,820 226,820 226,819 217,819 217,818 215,818 215,816 214,816 214,813 213,813 213,812 211,812 211,811 207,811 207,804 206,804 206,803 205,803 205,802 199,802 199,803 198,803 198,804 197,804 197,806 196,806 196,808 193,808 193,806 192,806 192,803 191,803 191,801 190,801 190,800 184,800 184,802 183,802 183,808 182,808 182,809 181,809 181,808 180,808 180,807 179,807 179,806 178,806 178,805 174,805 174,803 173,803 173,802 168,802 168,803 167,803 167,809 168,809 168,810 169,810 169,811 170,811 170,812 171,812 171,813 172,813 172,815 173,815 173,816 174,816 174,819 173,819 173,820 169,820 169,819 165,819 165,822 162,822 162,821 161,821 161,820 160,820 160,819 158,819 158,818 149,818 149,817 144,817 144,816 139,816 139,818 134,818 134,817 133,817 133,816 132,816 132,814 131,814 131,813 129,813 129,812 126,812 126,813 125,813 125,812 124,812 124,811 123,811 123,810 120,810 120,809 118,809 118,808 116,808 116,809 114,809 114,807 112,807 112,806 105,806 105,805 101,805 101,803 95,803 95,801 91,801 91,799 83,799 83,797 79,797 79,795 73,795 73,793 67,793 67,791 61,791 61,789 57,789 57,787 51,787 51,785 47,785 47,783 41,783 41,781 37,781 37,779 31,779 31,777 27,777 27,775 25,775 25,773 21,773 21,771 17,771 17,769 15,769 15,767 11,767 11,765 9,765 9,763 7,763 7,761 5,761 5,759 3,759 3,757 1,757 1,756 0,756 0,714 0,696 0,609 5,609 5,611 13,611 13,613 23,613 23,615 33,615 33,617 39,617 39,619 51,619 51,621 65,621 65,623 83,623 83,625 93,625 93,627 101,627 101,629 108,629 108,631 109,631 109,632 112,632 112,633 113,633 113,634 116,634 116,635 119,635 119,636 124,636 124,637 127,637 127,638 130,638 131,638 131,639 132,639 134,639 134,640 136,640 138,640 138,639 141,639 141,641 143,641 143,642 147,642 147,643 151,643 151,644 155,644 155,645 160,645 160,646 165,646 165,647 168,647 168,648 170,648 170,649 175,649 175,650 182,650 182,651 183,651 183,650 185,650 185,649 186,649 186,651 188,651 188,652 196,652 203,652 203,653 205,653 205,652 206,652 206,651 211,651 211,652 212,652 212,653 215,653 215,652 216,652 216,651 218,651 218,652 222,652 222,651 223,651 223,650 222,650 222,647 221,647 221,644 220,644 220,643 219,643 219,642 218,642 218,640 217,640 217,639 216,639 216,638 214,638 214,637 213,637 213,636 211,636 211,635 210,635 210,634 209,634 209,631 210,631 210,630 214,630 214,631 215,631 215,632 217,632 217,633 218,633 218,634 220,634 220,635 221,635 221,636 223,636 223,637 224,637 224,638 226,638 226,639 227,639 227,640 228,640 228,641 229,641 229,642 230,642 230,643 231,643 231,645 232,645 232,647 233,647 233,652 235,652 235,651 237,651 237,645 238,645 238,633 237,633 237,629 238,629 238,627 241,627 241,628 242,628 242,630 243,630 243,632 244,632 244,635 245,635 245,639 246,639 246,644 247,644 247,648 248,648 248,650 249,650 249,651 254,651 254,649 255,649 255,647 256,647 256,646 257,646 257,645 258,645 258,644 259,644 259,642 260,642 260,639 261,639 261,638 262,638 262,637 263,637 263,636 267,636 267,635 268,635 268,634 270,634 270,633 272,633 272,632 273,632 273,631 274,631 274,630 277,630 277,629 279,629 279,628 282,628 282,629 283,629 283,633 282,633 282,634 279,634 279,635 278,635 278,636 277,636 277,637 276,637 276,638 275,638 275,639 274,639 274,640 273,640 273,641 272,641 272,642 271,642 271,643 270,643 270,644 269,644 269,645 268,645 268,646 267,646 267,647 266,647 266,651 267,651 267,652 277,652 277,651 283,651 283,650 286,650 286,649 288,649 288,648 289,648 289,647 290,647 290,646 292,646 292,645 294,645 294,644 295,644 295,643 296,643 296,640 297,640 297,637 298,637 298,632 299,632 299,628 300,628 300,625 301,625 301,622 302,622 302,618 303,618 303,615 304,615 304,612 305,612 305,609 306,609 306,607 307,607 307,604 308,604 308,600 309,600 309,597 310,597 310,594 311,594 311,591 312,591 312,589 313,589 313,586 314,586 314,584 315,584 315,582 316,582 316,580 317,580 317,578 318,578 318,576 319,576 319,574 320,574 320,572 321,572 321,570 322,570 322,567 323,567 323,565 324,565 324,563 325,563 325,560 326,560 326,558 327,558 327,555 328,555 328,553 329,553 329,550 330,550 330,546 331,546 331,543 332,543 332,539 333,539 333,535 334,535 334,531 335,531 335,529 336,529 336,528 337,528 337,526 338,526 338,524 339,524 339,521 340,521 340,520 341,520 341,518 342,518 342,517 343,517 343,515 344,515 344,513 345,513 345,511 346,511 346,510 347,510 347,508 348,508 348,507 349,507 349,505 350,505 350,504 351,504 351,503 352,503 352,501 353,501 353,500 354,500 354,499 355,499 355,498 356,498 356,497 357,497 357,496 358,496 358,495 359,495 359,494 360,494 360,493 361,493 361,491 363,491 363,490 364,490 364,489 365,489 365,488 366,488 366,487 367,487 367,486 368,486 368,485 369,485 369,483 371,483 371,482 372,482 372,480 373,480 373,479 374,479 374,478 375,478 375,477 376,477 376,476 377,476 377,475 378,475 378,474 379,474 379,473 380,473 380,472 381,472 381,470 382,470 382,469 383,469 383,468 384,468 384,467 385,467 385,465 386,465 386,464 387,464 387,463 388,463 388,453 387,453 387,442 386,442 386,443 385,443 385,444 380,444 380,443 377,443 373,443 373,442 371,442 371,441 369,441 369,440 366,440 366,439 364,439 364,438 363,438 363,437 362,437 362,436 360,436 360,435 359,435 359,434 358,434 358,432 357,432 357,430 356,430 356,428 356,427 355,427 355,426 355,416 356,416 356,413 355,413 355,411 354,411 354,409 353,409 353,407 352,407 352,406 351,406 351,403 350,403 350,400 350,399 349,399 349,398 349,396 348,396 348,394 348,391 347,391 347,388 347,378 345,378 345,377 343,377 343,378 332,378 330,378 330,379 328,379 308,379 308,377 304,377 304,376 303,376 303,375 302,375 302,371 303,371 303,367 304,367 304,364 305,364 305,361 306,361 306,359 307,359 307,358 308,358 308,356 309,356 309,354 310,354 310,353 311,353 311,352 312,352 312,349 313,349 313,348 314,348 314,346 315,346 315,345 316,345 316,343 317,343 317,341 318,341 318,338 319,338 319,337 320,337 320,335 321,335 321,333 322,333 322,332 323,332 323,330 324,330 324,328 325,328 325,326 326,326 326,323 327,323 327,322 328,322 328,320 329,320 329,318 330,318 330,316 331,316 331,314 332,314 332,312 333,312 333,310 334,310 334,307 335,307 335,305 336,305 336,304 337,304 337,301 338,301 338,299 339,299 339,293 340,293 340,286 341,286 341,266 340,266 340,264 339,264 339,263 340,263 340,262 339,262 339,258 338,258 338,255 337,255 337,252 336,252 336,249 335,249 335,247 334,247 334,245 333,245 333,243 332,243 332,242 331,242 331,240 330,240 330,239 329,239 329,237 328,237 328,235 327,235 327,234 326,234 326,232 325,232 325,230 324,230 324,228 323,228 323,226 322,226 322,224 321,224 321,221 320,221 320,219 319,219 319,217 318,217 318,214 317,214 317,212 316,212 316,210 315,210 315,208 314,208 314,207 313,207 313,204 312,204 312,201 311,201 311,199 310,199 310,197 309,197 309,196 308,196 308,195 307,195 307,194 303,194 303,196 302,196 302,197 301,197 301,198 300,198 300,199 299,199 299,200 298,200 298,201 295,201 295,202 293,202 293,203 291,203 291,204 287,204 287,205 282,205 282,206 272,206 272,205 270,205 270,204 269,204 269,203 268,203 268,189 269,189 269,187 270,187 270,184 271,184 271,182 272,182 272,181 273,181 273,180 274,180 274,179 275,179 275,178 276,178 276,177 277,177 277,176 278,176 278,175 279,175 279,174 281,174 281,172 282,172 282,171 283,171 283,170 284,170 284,169 285,169 285,167 286,167 286,166 287,166 287,165 288,165 288,164 290,164 290,163 291,163 291,162 292,162 292,161 294,161 294,160 295,160 295,159 296,159 296,158 297,158 297,157 298,157 298,156 300,156 300,155 301,155 301,154 302,154 302,153 303,153 303,152 304,152 304,151 305,151 305,150 306,150 306,149 307,149 307,148 309,148 309,147 310,147 310,146 311,146 311,145 313,145 313,144 315,144 315,143 319,143 319,142 323,142 323,141 328,141 328,140 341,140 341,139 343,139 343,138 344,138 344,139 352,139 352,140 356,140 356,141 358,141 358,142 360,142 360,143 362,143 362,144 364,144 364,145 366,145 366,146 369,146 369,147 371,147 371,148 374,148 374,149 376,149 376,150 378,150 378,151 380,151 380,152 382,152 382,153 385,153 385,154 387,154 387,155 389,155 389,156 390,156 390,157 391,157 391,158 393,158 393,159 394,159 394,160 395,160 395,161 396,161 396,162 397,162 397,163 398,163 398,164 399,164 399,165 400,165 400,166 402,166 402,167 404,167 404,168 405,168 405,169 407,169 407,170 408,170 408,171 409,171 409,172 410,172 410,173 411,173 411,174 413,174 413,175 414,175 414,176 415,176 415,177 416,177 416,178 418,178 418,179 419,179 419,180 420,180 420,181 421,181 421,182 422,182 422,183 424,183 424,184 425,184 425,185 426,185 426,186 428,186 428,187 429,187 429,188 430,188 430,189 432,189 432,190 433,190 433,191 435,191 435,192 436,192 436,193 437,193 437,194 438,194 438,195 440,195 440,196 441,196 441,197 443,197 443,198 444,198 444,199 445,199 445,200 446,200 446,201 447,201 447,202 448,202 448,203 449,203 449,204 451,204 451,205 452,205 452,207 453,207 453,208 454,208 454,209 455,209 455,210 456,210 456,211 457,211 457,212 459,212 459,213 460,213 460,214 461,214 461,215 462,215 462,216 463,216 463,217 464,217 464,218 465,218 465,219 467,219 467,220 468,220 468,221 469,221 469,222 470,222 470,223 472,223 472,224 473,224 473,225 474,225 474,226 476,226 476,227 477,227 477,228 479,228 479,229 480,229 480,230 481,230 481,231 482,231 482,232 484,232 484,233 485,233 485,234 487,234 487,235 488,235 488,236 490,236 490,237 491,237 491,238 492,238 492,239 493,239 493,240 494,240 494,241 495,241 495,242 497,242 497,243 499,243 499,244 500,244 500,245 502,245 502,246 505,246 505,247 507,247 507,248 510,248 510,249 515,249 515,250 519,250 519,251 539,251 539,252 543,252 543,253 547,253 547,254 550,254 550,255 554,255 554,256 557,256 557,257 561,257 561,258 562,258 562,259 563,259 563,260 564,260 564,264 565,264 565,272 564,272 564,273 563,273 563,276 562,276 562,277 561,277 561,280 560,280 560,282 559,282 559,284 558,284 558,286 557,286 557,288 556,288 556,289 555,289 555,291 554,291 554,292 553,292 553,293 552,293 552,294 551,294 551,296 550,296 550,297 549,297 549,298 548,298 548,299 547,299 547,301 546,301 546,302 545,302 545,303 544,303 544,305 543,305 543,306 542,306 542,308 541,308 541,309 540,309 540,311 539,311 539,312 538,312 538,314 537,314 537,315 536,315 536,317 535,317 535,318 534,318 534,319 533,319 533,320 532,320 532,321 531,321 531,322 530,322 530,323 529,323 529,324 530,324 530,327 531,327 531,330 532,330 532,331 533,331 533,333 534,333 534,338 535,338 535,341 536,341 536,343 537,343 537,345 538,345 538,348 539,348 539,349 540,349 540,352 541,352 541,355 542,355 542,357 543,357 543,360 544,360 544,363 545,363 545,364 546,364 546,365 547,365 547,367 548,367 548,369 549,369 549,371 550,371 550,373 551,373 551,376 552,376 552,379 553,379 553,380 554,380 554,383 555,383 555,385 556,385 556,388 557,388 557,392 558,392 558,395 559,395 559,398 560,398 560,403 561,403 561,408 562,408 562,413 561,413 561,415 558,415 558,414 557,414 557,413 556,413 556,412 555,412 555,410 554,410 554,409 551,409 551,422 550,422 550,423 549,423 549,424 545,424 545,423 543,423 543,422 542,422 542,421 541,421 541,420 540,420 540,418 539,418 539,417 538,417 538,416 537,416 537,414 536,414 536,413 535,413 535,411 534,411 534,412 533,412 533,415 532,415 532,416 531,416 531,419 530,419 530,420 529,420 529,421 528,421 528,422 527,422 527,423 526,423 526,424 525,424 525,425 524,425 524,426 525,426 525,428 526,428 526,429 527,429 527,432 528,432 528,434 540,434 540,433 554,433 554,434 566,434 566,435 574,435 574,434 575,434 575,435 579,435 579,436 593,436 593,435 594,435 594,437 596,437 596,438 601,438 601,437 602,437 602,436 603,436 603,435 605,435 605,434 606,434 606,433 607,433 607,432 608,432 608,431 610,431 610,430 612,430 612,429 614,429 614,428 616,428 616,427 617,427 617,426 620,426 620,425 621,425 621,424 623,424 623,423 625,423 625,422 628,422 628,421 630,421 630,420 633,420 633,419 634,419 634,418 639,418 639,417 641,417 641,416 644,416 644,415 646,415 646,413 650,413 650,414 653,414 653,413 654,413 654,412 658,412 658,411 661,411 661,410 662,410 662,409 666,409 666,410 667,410 667,411 668,411 668,410 671,410 671,411 674,411 674,412 675,412 675,413 676,413 676,414 677,414 677,413 678,413 678,412 679,412 679,411 680,411 680,410 681,410 681,409 682,409 682,408 683,408 683,407 684,407 684,406 685,406 685,404 686,404 686,403 687,403 687,402 688,402 688,401 689,401 689,400 690,400 690,399 691,399 691,398 692,398 692,397 693,397 693,395 694,395 694,394 696,394 696,393 697,393 697,392 698,392 698,391 699,391 699,390 700,390 700,389 702,389 702,388 703,388 703,387 704,387 704,386 706,386 706,385 707,385 707,384 708,384 708,383 709,383 709,382 710,382 710,381 712,381 712,380 713,380 713,379 714,379 714,378 715,378 715,377 716,377 716,376 717,376 717,375 719,375 719,374 720,374 720,372 721,372 721,371 723,371 723,370 724,370 724,369 725,369 725,368 726,368 726,367 727,367 727,366 728,366 728,365 730,365 730,364 731,364 731,363 732,363 732,362 733,362 733,361 734,361 734,360 735,360 735,359 736,359 736,358 737,358 737,357 738,357 738,356 739,356 739,355 740,355 740,354 741,354 741,353 742,353 742,352 747,352 747,353 748,353 748,352 749,352 749,353 750,353 750,355 749,355 749,358 751,358 751,357 755,357 755,359 754,359 754,363 753,363 753,364 751,364 751,366 750,366 750,367 749,367 749,368 748,368 748,369 747,369 747,370 746,370 746,371 745,371 745,372 744,372 744,373 743,373 743,374 742,374 742,375 741,375 741,376 740,376 740,377 739,377 739,378 738,378 738,380 737,380 737,381 736,381 736,382 735,382 735,383 734,383 734,384 733,384 733,385 732,385 732,386 731,386 731,387 730,387 730,388 729,388 729,389 728,389 728,390 727,390 727,391 726,391 726,392 725,392 725,393 724,393 724,394 722,394 722,395 721,395 721,396 720,396 720,397 719,397 719,398 718,398 718,399 716,399 716,400 715,400 715,401 714,401 714,402 713,402 713,403 711,403 711,404 710,404 710,405 709,405 709,406 708,406 708,407 707,407 707,408 706,408 706,409 705,409 705,410 704,410 704,412 703,412 703,413 702,413 702,414 701,414 701,415 700,415 700,416 699,416 699,417 698,417 698,418 697,418 697,419 696,419 696,420 695,420 695,421 694,421 694,422 693,422 693,423 692,423 692,424 691,424 691,425 690,425 690,426 688,426 688,427 687,427 687,428 686,428 686,429 685,429 685,430 684,430 684,431 683,431 683,432 682,432 682,442 681,442 681,455 680,455 680,457 679,457 679,486 678,486 678,492 677,492 677,499 676,499 676,508 675,508 675,519 674,519 674,531 675,531 675,538 674,538 674,539 675,539 675,541 674,541 674,542 673,542 673,544 674,544 674,578 675,578 675,588 673,588 673,593 672,593 672,610 671,610 671,619 670,619 670,625 669,625 669,628 668,628 668,635 669,635 669,638 668,638 668,642 667,642 667,647 666,647 666,652 665,652 665,658 664,658 664,661 663,661 663,663 662,663 662,670 661,670 661,673 660,673 660,678 659,678 659,681 658,681 658,684 657,684 657,685 656,685 656,687 655,687 655,688 654,688 654,689 652,689 652,690 651,690 651,691 650,691 650,693 649,693 649,694 644,694 644,695 641,695 641,694 638,694 638,693 636,693 636,692 634,692 634,691 631,691 631,690 630,690 630,689 628,689 628,688 627,688 627,687 626,687 626,686 624,686 624,685 622,685 622,684 621,684 621,683 619,683 619,682 618,682 618,681 617,681 617,680 616,680 616,679 614,679 614,678 612,678 612,677 611,677 611,676 610,676 610,675 609,675 609,674 606,674 606,673 605,673 605,672 603,672 603,671 602,671 602,670 601,670 601,669 600,669 600,668 598,668 598,667 596,667 596,666 595,666 595,665 593,665 593,664 592,664 592,663 590,663 590,662 588,662 588,661 587,661 587,660 z M 516,256 516,255 511,255 511,254 507,254 507,253 504,253 504,252 502,252 502,251 499,251 499,250 497,250 497,249 496,249 496,248 494,248 494,247 492,247 492,246 489,246 489,245 488,245 488,244 487,244 487,243 486,243 486,242 483,242 483,240 482,240 482,239 481,239 481,238 480,238 480,237 480,236 478,236 478,235 477,235 477,234 476,234 476,233 474,233 474,232 473,232 473,231 471,231 471,230 470,230 470,229 469,229 469,228 468,228 468,227 467,227 467,226 465,226 465,225 464,225 464,224 462,224 462,223 461,223 461,222 460,222 460,221 459,221 459,220 458,220 458,219 457,219 457,218 456,218 456,217 455,217 455,216 453,216 453,215 452,215 452,214 451,214 451,213 450,213 450,212 448,212 448,211 446,211 446,210 445,210 445,209 444,209 444,208 442,208 442,207 441,207 441,206 440,206 440,205 439,205 439,201 436,201 436,200 434,200 434,199 433,199 433,198 432,198 432,197 431,197 431,196 430,196 430,195 429,195 428,195 428,194 427,194 427,193 426,193 426,192 425,192 425,191 424,191 424,190 422,190 422,189 421,189 421,188 420,188 419,188 419,187 418,187 418,186 417,186 417,185 416,185 416,184 415,184 415,183 413,183 413,182 412,182 412,181 411,181 411,180 410,180 410,179 409,179 409,178 408,178 408,177 407,177 407,176 405,176 405,175 404,175 404,174 402,174 402,173 401,173 401,172 399,172 399,171 398,171 398,170 397,170 397,169 395,169 395,168 394,168 394,167 393,167 393,166 392,166 392,165 391,165 391,164 390,164 390,163 389,163 388,163 388,162 387,162 387,161 386,161 386,160 384,160 384,159 382,159 382,158 380,158 380,157 378,157 378,156 376,156 376,155 373,155 373,154 371,154 371,153 369,153 368,153 368,152 367,152 366,152 366,151 365,151 363,151 363,150 362,150 362,149 360,149 360,148 356,148 356,147 354,147 354,146 351,146 351,145 346,145 346,144 344,144 343,144 343,145 342,145 335,145 335,146 331,146 331,147 322,147 322,148 318,148 318,149 316,149 316,151 313,151 313,152 311,152 311,153 310,153 310,154 309,154 309,155 307,155 307,156 306,156 306,157 305,157 305,158 304,158 304,159 303,159 303,160 302,160 302,161 301,161 301,162 300,162 300,163 299,163 299,164 298,164 298,165 297,165 297,166 296,166 296,167 295,167 295,168 294,168 294,169 293,169 293,170 292,170 292,171 291,171 291,172 290,172 290,173 289,173 289,174 288,174 288,175 287,175 287,176 286,176 286,177 285,177 285,178 284,178 284,179 282,179 282,180 281,180 281,181 280,181 280,182 279,182 279,183 278,183 278,184 277,184 277,185 276,185 276,187 275,187 275,189 274,189 274,192 273,192 273,200 274,200 274,201 279,201 279,200 285,200 285,199 288,199 288,198 290,198 290,197 292,197 292,196 294,196 294,195 295,195 295,194 296,194 296,193 297,193 297,192 298,192 298,191 299,191 299,190 301,190 301,189 310,189 310,190 311,190 311,191 313,191 313,192 314,192 314,194 315,194 315,196 316,196 316,198 317,198 317,202 318,202 318,203 319,203 319,204 320,204 320,206 321,206 321,208 322,208 322,210 323,210 323,212 324,212 324,214 325,214 325,218 326,218 326,221 327,221 327,222 328,222 328,224 329,224 329,227 330,227 330,228 331,228 331,229 332,229 332,231 333,231 333,233 334,233 334,234 335,234 335,236 336,236 336,239 337,239 337,240 338,240 338,243 339,243 339,244 340,244 340,246 341,246 341,249 342,249 342,252 343,252 343,255 344,255 344,260 345,260 345,264 346,264 346,285 346,289 345,289 345,292 345,295 344,295 344,298 344,301 343,301 343,305 342,305 342,308 341,308 341,311 340,311 340,313 339,313 339,315 338,315 338,317 337,317 337,319 336,319 336,321 335,321 335,323 334,323 334,325 333,325 333,327 332,327 332,328 331,328 331,331 330,331 330,333 329,333 329,335 328,335 328,337 327,337 327,339 326,339 326,341 325,341 325,343 324,343 324,345 323,345 323,347 322,347 322,349 321,349 321,351 320,351 320,352 319,352 319,354 318,354 318,356 317,356 317,358 316,358 316,359 315,359 315,361 314,361 314,363 313,363 313,365 312,365 312,366 311,366 311,367 310,367 310,369 309,369 309,372 313,372 313,373 314,373 314,372 326,372 326,373 328,373 328,372 333,372 340,372 340,373 342,373 342,372 350,372 350,371 354,371 354,372 365,372 366,372 366,371 367,371 370,371 370,370 371,370 371,369 376,369 376,368 378,368 378,367 381,367 386,367 386,366 389,366 390,366 390,365 391,365 391,366 399,366 399,365 405,365 405,364 409,364 412,364 412,363 414,363 414,362 423,362 423,361 424,361 424,359 426,359 426,360 429,360 429,359 431,359 431,358 435,358 435,357 438,357 438,356 441,356 441,355 444,355 444,354 448,354 448,353 450,353 450,352 455,352 455,351 457,351 457,350 459,350 459,349 460,349 460,348 463,348 463,347 465,347 465,346 470,346 470,345 473,345 473,344 475,344 475,343 478,343 478,342 480,342 480,341 485,341 485,340 488,340 488,339 489,339 489,338 493,338 493,337 495,337 495,336 497,336 497,335 498,335 498,333 500,333 500,334 503,334 503,333 504,333 504,332 506,332 506,331 508,331 508,330 509,330 509,329 511,329 511,328 512,328 512,327 514,327 514,326 515,326 515,325 517,325 517,324 519,324 519,322 521,322 521,321 522,321 522,320 524,320 524,319 526,319 526,318 527,318 527,317 528,317 528,316 529,316 529,315 530,315 530,314 531,314 531,313 532,313 532,311 533,311 533,309 534,309 534,308 535,308 535,306 536,306 536,305 537,305 537,303 538,303 538,302 539,302 539,300 540,300 540,299 541,299 541,298 542,298 542,297 543,297 543,295 544,295 544,294 545,294 545,293 546,293 546,292 547,292 547,290 548,290 548,289 549,289 549,288 550,288 550,286 551,286 551,285 552,285 552,284 553,284 553,282 554,282 554,280 555,280 555,277 556,277 556,274 557,274 557,273 558,273 558,271 559,271 559,264 558,264 558,263 553,263 553,261 551,261 551,260 548,260 548,261 544,261 544,259 542,259 542,258 537,258 537,257 531,257 531,256 z M 529,788 529,789 528,789 528,790 526,790 526,791 525,791 525,792 526,792 526,794 527,794 527,796 528,796 528,797 529,797 529,798 530,798 530,799 531,799 532,799 532,800 533,800 535,800 535,801 537,801 540,801 540,802 542,802 542,801 544,801 546,801 546,802 548,802 548,801 557,801 557,802 562,802 562,803 565,803 565,804 566,804 566,805 568,805 569,805 569,806 570,806 576,806 576,805 579,805 585,805 585,804 590,804 590,803 591,803 591,804 593,804 593,803 596,803 596,802 600,802 600,801 604,801 604,800 607,800 607,799 609,799 609,798 611,798 611,796 612,796 612,795 613,795 613,794 614,794 614,793 615,793 615,792 616,792 616,790 617,790 617,787 616,787 616,785 615,785 615,783 614,783 614,782 611,782 611,783 607,783 607,781 605,781 605,780 604,780 604,779 603,779 603,778 601,778 601,777 600,777 600,776 599,776 599,775 597,775 597,774 596,774 596,773 595,773 595,772 593,772 593,771 591,771 591,770 590,770 590,769 588,769 588,768 587,768 587,767 579,767 579,768 575,768 575,769 570,769 570,770 564,770 564,771 562,771 562,772 559,772 557,772 557,773 555,773 555,774 552,774 552,775 550,775 550,776 548,776 548,777 546,777 546,778 544,778 544,779 543,779 543,780 541,780 541,781 539,781 539,782 538,782 538,783 537,783 537,784 535,784 535,785 533,785 533,786 532,786 532,787 531,787 531,788 z M 270,704 270,705 266,705 266,704 264,704 264,703 252,703 252,704 245,704 245,705 240,705 240,706 228,706 228,707 226,707 226,709 225,709 225,708 187,708 167,708 167,707 157,707 157,708 152,708 152,709 149,709 149,710 146,710 146,711 144,711 144,712 142,712 142,713 139,713 139,714 137,714 137,716 134,716 134,717 133,717 133,718 132,718 132,719 131,719 131,721 130,721 130,722 129,722 129,723 128,723 128,724 127,724 127,725 126,725 126,727 125,727 125,729 124,729 124,730 123,730 123,732 122,732 122,735 121,735 121,737 120,737 120,739 119,739 119,743 120,743 120,744 121,744 121,745 122,745 122,746 123,746 123,747 124,747 124,748 125,748 125,749 126,749 126,750 127,750 127,752 129,752 129,753 130,753 130,754 132,754 132,756 133,756 133,758 135,758 135,759 134,759 134,760 133,760 133,762 134,762 134,766 135,766 135,769 136,769 136,770 137,770 137,771 139,771 139,772 142,772 142,771 144,771 144,770 145,770 145,767 146,767 146,762 147,762 147,761 148,761 148,759 152,759 152,760 162,760 167,760 167,761 175,761 175,762 182,762 182,763 185,763 185,764 189,764 189,765 192,765 192,764 193,764 193,763 196,763 196,765 199,765 199,766 217,766 217,767 223,767 223,766 235,766 235,767 245,767 245,766 251,766 251,765 258,765 258,764 264,764 264,763 267,763 267,764 268,764 268,763 273,763 273,764 275,764 275,766 276,766 276,772 277,772 277,773 278,773 278,774 279,774 279,775 280,775 280,776 281,776 281,777 292,777 292,776 294,776 294,775 295,775 295,772 296,772 296,765 297,765 297,763 298,763 298,761 300,761 300,760 301,760 301,759 303,759 303,758 311,758 311,759 312,759 312,764 313,764 313,765 314,765 314,767 315,767 315,768 316,768 316,769 317,769 317,770 319,770 319,771 320,771 320,770 322,770 322,771 324,771 324,770 326,770 326,766 327,766 327,762 328,762 328,757 329,757 329,755 330,755 330,753 331,753 331,752 332,752 332,751 333,751 333,750 334,750 334,749 335,749 335,748 336,748 336,747 337,747 337,745 338,745 338,744 339,744 339,743 341,743 341,742 342,742 342,741 343,741 343,740 346,740 346,739 348,739 348,738 350,738 350,737 351,737 351,736 352,736 352,735 353,735 353,734 354,734 354,733 355,733 355,731 356,731 356,730 357,730 357,729 358,729 358,728 359,728 359,726 360,726 360,725 361,725 361,724 362,724 362,721 363,721 363,718 364,718 364,713 363,713 363,706 362,706 362,704 361,704 361,702 360,702 360,707 359,707 359,709 358,709 358,710 357,710 357,711 356,711 356,712 352,712 352,713 347,713 347,712 346,712 346,713 343,713 343,712 341,712 341,711 339,711 339,710 338,710 338,709 337,709 337,700 338,700 338,699 339,699 339,697 340,697 340,696 342,696 342,695 349,695 352,695 352,696 354,696 355,696 355,695 354,695 354,694 353,694 353,693 351,693 351,692 349,692 349,691 347,691 347,690 343,690 343,689 336,689 332,689 332,690 319,690 314,690 314,691 309,691 309,692 305,692 305,693 299,693 299,694 295,694 295,695 292,695 292,696 290,696 290,697 289,697 289,698 287,698 287,699 285,699 285,700 281,700 281,701 279,701 279,700 275,700 275,701 273,701 273,702 272,702 272,703 271,703 271,704 z M 434,494 435,494 435,496 436,496 436,498 437,498 437,500 438,500 438,502 439,502 439,504 440,504 440,506 441,506 441,507 442,507 442,509 443,509 443,511 444,511 444,513 445,513 445,516 446,516 446,518 447,518 447,519 448,519 448,521 449,521 449,524 450,524 450,525 451,525 451,528 452,528 452,530 453,530 453,532 454,532 454,535 455,535 455,538 456,538 456,540 457,540 457,542 458,542 458,544 459,544 459,547 460,547 460,549 461,549 461,551 462,551 462,554 463,554 463,556 464,556 464,559 465,559 465,563 466,563 466,566 467,566 467,568 468,568 468,573 469,573 469,577 470,577 470,578 471,578 471,586 471,589 470,589 470,590 469,590 469,596 468,596 468,597 465,597 465,596 464,596 464,595 463,595 463,594 460,594 460,600 461,600 461,610 460,610 460,619 459,619 459,622 458,622 458,627 457,627 457,630 456,630 456,634 455,634 455,638 454,638 454,641 453,641 453,642 450,642 450,641 449,641 449,640 448,640 448,635 447,635 447,630 446,630 446,629 445,629 445,628 444,628 444,627 443,627 443,626 442,626 442,623 441,623 441,620 440,620 440,615 439,615 439,612 438,612 438,606 437,606 437,601 437,583 436,583 436,579 435,579 435,576 434,576 434,572 433,572 433,569 432,569 432,567 431,567 431,565 430,565 430,562 429,562 429,559 428,559 428,556 427,556 427,555 426,555 426,552 425,552 425,549 424,549 424,547 423,547 423,545 422,545 422,543 421,543 421,542 420,542 420,538 419,538 419,537 418,537 418,536 417,536 417,535 416,535 416,533 415,533 415,532 414,532 414,529 413,529 413,526 412,526 412,525 411,525 411,524 410,524 410,521 409,521 409,519 408,519 408,517 407,517 407,515 406,515 406,512 405,512 405,510 404,510 404,508 403,508 403,507 402,507 402,504 401,504 401,502 400,502 400,500 399,500 399,497 398,497 398,495 397,495 397,493 396,493 396,491 395,491 395,488 394,488 394,486 393,486 393,483 392,483 392,478 390,478 390,477 388,477 388,474 389,474 389,472 388,472 388,473 387,473 387,474 385,474 385,475 384,475 384,476 383,476 383,478 382,478 382,479 381,479 381,481 380,481 380,482 379,482 379,483 378,483 378,484 377,484 377,485 376,485 376,486 375,486 375,487 374,487 374,489 373,489 373,490 372,490 372,491 370,491 370,492 369,492 369,493 368,493 368,494 367,494 367,495 366,495 366,496 365,496 365,497 364,497 364,498 363,498 363,499 362,499 362,500 361,500 361,501 360,501 360,502 359,502 359,503 358,503 358,504 357,504 357,505 356,505 356,507 355,507 355,508 354,508 354,509 353,509 353,511 352,511 352,513 351,513 351,514 350,514 350,516 349,516 349,518 348,518 348,519 347,519 347,521 346,521 346,523 345,523 345,524 344,524 344,526 343,526 343,528 342,528 342,530 341,530 341,532 340,532 340,534 339,534 339,537 338,537 338,541 337,541 337,546 336,546 336,549 335,549 335,553 334,553 334,556 333,556 333,558 332,558 332,561 331,561 331,563 330,563 330,565 329,565 329,568 328,568 328,570 327,570 327,573 326,573 326,574 325,574 325,577 324,577 324,579 323,579 323,581 322,581 322,583 321,583 321,584 320,584 320,587 319,587 319,589 318,589 318,592 317,592 317,594 316,594 316,597 315,597 315,600 314,600 314,603 313,603 313,606 312,606 312,609 311,609 311,612 310,612 310,615 309,615 309,618 308,618 308,622 307,622 307,626 306,626 306,631 305,631 305,635 305,640 304,640 304,643 303,643 303,645 302,645 302,649 301,649 301,655 300,655 300,657 299,657 299,659 298,659 298,661 297,661 297,662 296,662 296,663 295,663 295,664 294,664 294,665 293,665 293,667 292,667 292,668 291,668 291,669 290,669 290,671 289,671 289,672 288,672 288,674 287,674 287,678 286,678 286,682 285,682 285,683 284,683 284,684 283,684 283,685 282,685 282,687 281,687 281,688 280,688 280,691 279,691 279,693 278,693 278,695 282,695 282,694 284,694 284,693 285,693 285,692 288,692 288,691 289,691 289,690 292,690 292,689 296,689 296,688 302,688 302,687 306,687 306,686 312,686 312,685 329,685 329,684 345,684 345,685 350,685 350,686 352,686 352,687 354,687 354,688 356,688 356,689 357,689 357,690 358,690 358,691 360,691 360,692 361,692 361,693 362,693 362,695 363,695 363,696 364,696 364,698 365,698 365,699 366,699 366,701 367,701 367,703 368,703 368,705 369,705 369,706 370,706 370,717 369,717 369,722 368,722 368,724 367,724 367,726 366,726 366,728 365,728 365,731 364,731 364,733 362,733 362,735 361,735 361,736 360,736 360,737 358,737 358,738 357,738 357,739 356,739 356,740 355,740 355,741 354,741 354,742 353,742 353,744 352,744 352,745 350,745 350,746 349,746 349,747 348,747 348,748 347,748 347,749 343,749 343,750 342,750 342,751 340,751 340,754 339,754 339,758 338,758 338,759 336,759 336,760 335,760 335,761 334,761 334,762 333,762 333,765 335,765 335,764 336,764 336,763 337,763 337,761 341,761 341,762 341,763 340,763 340,764 340,766 342,766 342,765 343,765 343,764 344,764 344,761 349,761 349,760 350,760 350,762 353,762 353,761 354,761 354,759 354,758 356,758 356,757 358,757 358,756 360,756 360,757 361,757 361,758 364,758 364,757 365,757 365,756 366,756 366,755 367,755 367,753 368,753 368,752 369,752 369,751 373,751 373,750 374,750 374,749 379,749 379,748 381,748 381,747 385,747 385,746 386,746 386,745 389,745 389,746 388,746 388,748 387,748 387,749 386,749 386,750 385,750 385,751 383,751 383,752 382,752 382,753 380,753 380,754 379,754 379,755 378,755 378,756 376,756 376,757 375,757 375,758 374,758 374,759 372,759 372,760 370,760 370,761 369,761 369,762 366,762 366,763 365,763 365,764 361,764 361,765 359,765 359,766 357,766 357,767 355,767 355,768 354,768 354,769 352,769 352,770 349,770 349,771 348,771 348,772 343,772 343,773 342,773 342,774 336,774 336,775 335,775 335,776 329,776 329,777 326,777 326,778 322,778 322,779 320,779 320,780 318,780 318,779 317,779 317,780 313,780 313,781 312,781 312,782 308,782 308,783 302,783 302,784 288,784 281,784 281,783 274,783 274,782 248,782 248,781 235,781 235,780 228,780 228,779 226,779 226,778 225,778 225,774 227,774 227,773 228,773 228,772 226,772 226,771 223,771 223,772 222,772 222,773 221,773 221,774 220,774 218,774 218,776 217,776 217,777 216,777 216,782 217,782 217,783 218,783 218,785 219,785 219,787 220,787 220,788 222,788 222,789 223,789 223,790 224,790 224,791 225,791 225,792 226,792 226,793 227,793 227,794 228,794 228,795 229,795 229,796 231,796 231,797 232,797 232,798 233,798 233,799 234,799 234,800 235,800 235,801 236,801 236,802 237,802 237,803 238,803 238,804 239,804 239,805 240,805 240,806 241,806 241,807 242,807 242,808 244,808 244,809 245,809 245,810 247,810 247,811 249,811 249,812 251,812 251,813 259,813 259,815 263,815 263,816 273,816 273,817 280,817 280,818 288,818 288,819 295,819 295,820 304,820 304,821 316,821 316,822 322,822 322,823 325,823 325,824 329,824 329,825 333,825 333,826 337,826 337,827 341,827 341,828 349,828 349,829 359,829 359,830 366,830 366,831 404,831 406,831 406,830 408,830 431,830 431,829 437,829 437,828 443,828 443,827 445,827 445,826 452,826 452,825 454,825 454,824 456,824 456,823 457,823 457,822 462,822 462,821 465,821 465,820 468,820 468,819 470,819 470,818 472,818 472,817 474,817 474,816 477,816 477,815 479,815 479,814 482,814 482,813 483,813 483,812 487,812 487,811 490,811 490,810 492,810 492,808 493,808 493,807 494,807 494,808 496,808 496,807 498,807 498,805 499,805 499,803 500,803 500,802 504,802 504,801 506,801 506,800 507,800 507,799 508,799 508,796 509,796 509,795 510,795 510,794 511,794 511,793 513,793 513,792 515,792 515,791 517,791 517,790 518,790 518,789 519,789 519,788 521,788 521,787 522,787 522,786 524,786 524,785 525,785 525,783 527,783 527,782 529,782 529,781 531,781 531,780 532,780 532,779 534,779 534,778 535,778 535,777 536,777 536,776 538,776 538,775 540,775 540,774 542,774 542,773 543,773 543,772 546,772 546,771 548,771 548,770 550,770 550,769 552,769 552,768 555,768 555,767 558,767 558,766 562,766 562,765 563,765 563,764 572,764 572,763 576,763 576,762 594,762 594,763 596,763 596,764 598,764 598,763 599,763 599,754 600,754 600,750 599,750 599,748 598,748 598,746 597,746 597,745 596,745 596,744 595,744 595,743 594,743 594,742 592,742 592,741 590,741 590,740 586,740 586,741 584,741 584,742 583,742 583,743 581,743 581,744 578,744 578,743 577,743 577,739 576,739 576,736 575,736 575,734 574,734 574,730 573,730 573,727 572,727 572,723 571,723 571,720 570,720 570,716 569,716 569,713 568,713 568,709 567,709 567,706 566,706 566,703 565,703 565,699 564,699 564,693 563,693 563,688 562,688 562,682 561,682 561,676 560,676 560,670 559,670 559,665 558,665 558,662 557,662 557,656 556,656 556,650 555,650 555,644 554,644 554,634 553,634 553,627 552,627 552,624 551,624 551,620 550,620 550,608 549,608 549,603 548,603 548,594 547,594 547,588 546,588 546,574 545,574 545,571 544,571 544,562 543,562 543,556 542,556 542,550 541,550 541,547 540,547 540,544 539,544 539,542 538,542 538,540 537,540 537,539 536,539 536,536 535,536 535,534 534,534 534,531 533,531 533,528 532,528 532,526 531,526 531,524 530,524 530,522 529,522 529,520 528,520 528,517 527,517 527,516 526,516 526,512 525,512 525,510 524,510 524,508 523,508 523,506 522,506 522,503 521,503 521,502 520,502 520,499 519,499 519,495 518,495 518,492 517,492 517,489 516,489 516,487 515,487 515,484 514,484 514,481 513,481 513,477 512,477 512,473 511,473 511,469 510,469 510,465 509,465 509,462 508,462 508,457 507,457 507,455 506,455 506,448 505,448 505,442 504,442 504,443 502,443 502,444 501,444 501,445 499,445 499,446 498,446 498,447 497,447 497,448 496,448 496,449 494,449 494,450 492,450 492,451 491,451 491,452 489,452 489,453 487,453 487,454 484,454 484,455 481,455 481,456 479,456 479,457 480,457 480,460 481,460 481,480 480,480 480,483 479,483 479,484 478,484 478,485 472,485 472,484 471,484 471,483 470,483 470,482 469,482 469,481 468,481 468,480 467,480 467,479 466,479 466,478 465,478 465,477 464,477 464,476 462,476 462,475 461,475 461,473 460,473 460,472 458,472 458,470 457,470 457,469 456,469 456,468 453,468 453,467 452,467 452,466 450,466 450,465 448,465 448,464 445,464 445,463 438,463 438,462 434,462 434,466 433,466 433,467 432,467 432,468 430,468 430,469 429,469 429,470 428,470 428,472 427,472 427,477 428,477 428,480 429,480 429,482 430,482 430,485 431,485 431,487 432,487 432,490 433,490 433,491 434,491 z M 376,405 375,405 375,404 374,404 374,403 368,403 368,404 366,404 366,405 364,405 364,406 363,406 363,407 362,407 362,409 361,409 361,419 360,419 360,425 361,425 361,428 362,428 362,429 363,429 363,431 365,431 365,432 366,432 366,433 367,433 367,434 369,434 369,435 372,435 372,436 374,436 381,436 381,437 383,437 383,436 384,436 384,433 384,430 383,430 383,428 383,427 382,427 382,426 382,424 381,424 381,422 380,422 380,419 379,419 379,415 378,415 378,412 378,411 377,411 377,410 377,409 376,409 376,408 z M 433,379 432,379 432,378 431,378 431,377 429,377 429,376 426,376 426,377 426,378 425,378 425,379 425,382 425,383 424,383 424,384 424,388 423,388 423,391 422,391 422,393 421,393 421,397 423,397 423,396 424,396 424,395 426,395 426,394 429,394 429,393 431,393 431,392 434,392 434,390 435,390 435,388 434,388 434,382 433,382 z M 621,676 623,676 623,677 624,677 624,678 625,678 625,679 627,679 627,680 628,680 628,681 630,681 630,682 632,682 632,683 634,683 634,684 636,684 636,685 639,685 639,686 641,686 644,686 644,685 646,685 648,685 648,684 649,684 649,682 650,682 650,680 651,680 651,676 652,676 652,673 653,673 653,671 653,670 654,670 654,669 654,665 655,665 655,662 656,662 656,659 656,658 657,658 657,657 657,655 658,655 658,653 658,651 659,651 659,645 659,644 660,644 660,643 660,640 660,639 661,639 661,638 661,634 662,634 662,630 662,628 663,628 663,625 664,625 664,620 664,618 665,618 665,615 665,614 665,598 666,598 666,589 666,575 667,575 667,556 667,522 668,522 668,516 669,516 669,508 670,508 670,502 671,502 671,497 672,497 672,487 673,487 673,479 674,479 674,454 675,454 675,440 676,440 676,424 675,424 675,421 674,421 674,419 673,419 673,418 671,418 671,417 663,417 663,418 657,418 657,419 653,419 653,420 649,420 649,421 645,421 645,422 642,422 642,423 639,423 639,424 635,424 635,425 633,425 633,426 631,426 631,427 628,427 628,428 626,428 626,429 624,429 624,430 622,430 622,431 621,431 621,432 619,432 619,433 618,433 618,434 616,434 616,435 615,435 615,436 614,436 614,437 612,437 612,438 610,438 610,439 608,439 608,440 607,440 607,441 606,441 606,442 605,442 605,443 603,443 603,444 595,444 595,443 580,443 580,442 569,442 569,441 544,441 544,440 533,440 533,441 534,441 534,445 535,445 535,448 536,448 536,449 537,449 537,451 538,451 538,453 539,453 539,455 540,455 540,456 541,456 541,458 542,458 542,460 543,460 543,463 544,463 544,465 545,465 545,466 546,466 546,468 547,468 547,469 548,469 548,472 549,472 549,475 550,475 550,476 551,476 551,479 552,479 552,481 553,481 553,483 554,483 554,486 555,486 555,487 556,487 556,490 557,490 557,493 558,493 558,497 559,497 559,500 560,500 560,502 561,502 561,505 562,505 562,508 563,508 563,510 564,510 564,514 565,514 565,516 567,516 567,517 566,517 566,526 567,526 567,530 568,530 568,538 569,538 569,546 570,546 570,547 571,547 571,561 569,561 569,564 568,564 568,570 567,570 567,573 566,573 566,575 565,575 565,576 562,576 562,577 558,577 558,576 557,576 557,575 556,575 556,573 555,573 555,572 554,572 554,573 553,573 553,577 552,577 552,579 553,579 553,588 554,588 554,598 555,598 555,605 556,605 556,610 557,610 557,612 558,612 558,614 559,614 559,616 560,616 560,617 561,617 561,618 562,618 562,619 563,619 563,620 564,620 564,621 565,621 565,622 566,622 566,623 567,623 567,625 568,625 568,627 569,627 569,629 570,629 570,631 571,631 571,634 572,634 572,635 573,635 573,636 574,636 574,638 575,638 575,639 576,639 576,640 577,640 577,641 578,641 578,643 579,643 579,644 580,644 580,645 581,645 581,646 582,646 582,647 583,647 583,649 584,649 584,650 585,650 585,651 586,651 586,652 587,652 587,653 588,653 588,654 590,654 590,655 591,655 591,656 592,656 592,657 593,657 593,658 595,658 595,659 596,659 596,660 598,660 598,661 599,661 599,662 601,662 601,663 602,663 602,664 604,664 604,665 605,665 605,666 607,666 607,667 609,667 609,668 610,668 610,669 612,669 612,670 613,670 613,671 615,671 615,672 616,672 616,673 618,673 618,674 619,674 619,675 621,675 z M 441,458 448,458 448,457 453,457 453,456 458,456 458,455 462,455 462,454 464,454 468,454 468,453 472,453 472,452 473,452 473,451 478,451 478,450 481,450 481,449 482,449 482,448 485,448 485,447 488,447 488,446 489,446 489,445 490,445 490,444 492,444 492,443 493,443 493,442 495,442 495,441 497,441 497,440 498,440 498,439 499,439 499,438 500,438 500,437 502,437 502,436 504,436 504,435 505,435 505,434 506,434 506,433 507,433 507,432 508,432 508,431 509,431 509,430 511,430 511,429 512,429 512,428 513,428 513,427 514,427 514,426 516,426 516,425 517,425 517,424 518,424 518,423 519,423 519,422 520,422 520,421 521,421 521,420 522,420 522,419 523,419 523,417 524,417 524,416 525,416 525,415 526,415 526,413 527,413 527,410 528,410 528,408 529,408 529,405 530,405 530,402 531,402 531,400 530,400 530,399 531,399 531,392 529,392 529,394 528,394 528,395 525,395 525,394 524,394 524,392 523,392 523,391 522,391 522,389 521,389 521,388 520,388 520,387 519,387 519,384 520,384 520,383 524,383 524,384 525,384 525,385 526,385 526,386 527,386 527,388 528,388 528,390 529,390 529,379 530,379 530,378 531,378 531,374 530,374 530,370 529,370 529,368 528,368 528,365 526,365 526,364 523,364 523,365 521,365 521,366 520,366 520,367 519,367 519,368 516,368 516,369 515,369 515,370 514,370 514,371 513,371 513,372 512,372 512,373 510,373 510,374 508,374 508,375 506,375 506,376 503,376 503,377 500,377 500,378 499,378 499,379 498,379 498,380 494,380 494,379 493,379 493,378 490,378 490,377 489,377 489,373 490,373 490,372 491,372 491,371 493,371 493,370 495,370 495,369 496,369 496,368 498,368 498,367 499,367 499,366 502,366 502,365 504,365 504,364 505,364 505,363 506,363 506,362 508,362 508,361 509,361 509,360 510,360 510,359 511,359 511,357 510,357 510,356 508,356 508,355 507,355 507,354 506,354 506,353 503,353 503,352 502,352 502,351 501,351 501,350 500,350 500,349 499,349 499,348 495,348 495,350 496,350 496,352 497,352 497,353 498,353 498,355 499,355 499,364 498,364 498,365 494,365 494,364 491,364 491,363 489,363 489,362 487,362 487,361 484,361 484,360 482,360 482,359 481,359 481,358 479,358 479,357 477,357 477,356 476,356 476,355 474,355 474,354 473,354 473,353 472,353 472,352 467,352 467,353 463,353 463,354 460,354 460,355 458,355 458,356 454,356 454,357 453,357 453,358 452,358 452,359 451,359 451,360 450,360 450,365 449,365 449,368 448,368 448,370 447,370 447,372 446,372 446,376 445,376 445,377 444,377 444,380 443,380 443,382 442,382 442,384 441,384 441,388 443,388 444,388 444,387 445,387 446,387 446,388 447,388 447,390 448,390 448,392 449,392 449,393 450,393 450,396 448,396 448,397 447,397 447,398 445,398 445,399 444,399 444,400 442,400 442,401 439,401 439,402 437,402 437,403 436,403 436,404 434,404 434,405 432,405 432,406 430,406 430,407 429,407 429,408 428,408 428,409 426,409 426,410 423,410 423,411 422,411 422,412 420,412 420,413 417,413 416,413 416,412 415,412 415,411 414,411 414,410 413,410 413,409 412,409 412,407 411,407 411,406 410,406 410,408 409,408 409,414 408,414 408,419 409,419 409,420 410,420 410,422 411,422 411,425 414,425 414,426 415,426 415,427 416,427 416,430 417,430 417,432 418,432 418,435 417,435 417,436 415,436 415,437 414,437 414,438 415,438 415,441 416,441 416,444 417,444 417,445 418,445 418,446 419,446 419,447 420,447 420,448 421,448 421,449 422,449 422,450 424,450 424,451 426,451 426,452 428,452 428,453 429,453 429,454 430,454 430,455 432,455 432,456 437,456 437,457 441,457 z M 717,391 717,390 718,390 718,389 719,389 719,388 720,388 720,387 721,387 721,386 722,386 722,385 722,384 723,384 723,383 724,383 724,382 725,382 725,381 726,381 726,380 727,380 727,379 728,379 728,378 729,378 729,377 730,377 730,376 731,376 731,375 733,375 733,374 734,374 734,373 735,373 735,372 736,372 736,371 737,371 737,370 738,370 738,369 739,369 739,368 740,368 740,367 741,367 741,366 742,366 742,365 744,365 744,364 745,364 745,363 745,362 746,362 746,361 745,361 745,360 744,360 743,360 743,361 742,361 741,361 741,363 740,363 740,364 739,364 739,365 738,365 738,366 737,366 736,366 736,367 735,367 735,369 734,369 734,370 732,370 732,371 731,371 731,372 730,372 730,373 729,373 729,374 728,374 728,375 727,375 727,376 725,376 725,377 724,377 724,378 723,378 723,379 722,379 722,380 721,380 721,381 720,381 720,382 719,382 719,383 718,383 718,384 717,384 717,385 716,385 716,386 715,386 715,387 714,387 714,388 713,388 713,389 712,389 712,390 711,390 711,391 709,391 709,392 708,392 708,393 707,393 707,394 706,394 706,395 705,395 705,396 704,396 704,397 703,397 703,398 702,398 702,399 701,399 701,400 700,400 700,401 698,401 698,403 697,403 697,404 696,404 696,405 695,405 695,406 694,406 694,407 693,407 693,408 692,408 692,409 691,409 691,410 690,410 690,411 689,411 689,412 688,412 688,413 687,413 687,414 686,414 686,415 685,415 685,416 684,416 684,417 683,417 683,418 682,418 682,419 681,419 681,421 681,425 682,425 682,424 683,424 683,423 684,423 684,422 685,422 685,421 686,421 686,420 687,420 687,419 688,419 688,418 689,418 689,417 690,417 690,416 691,416 691,415 692,415 692,414 693,414 693,413 694,413 694,412 695,412 695,411 696,411 696,410 697,410 697,409 698,409 698,408 699,408 699,407 700,407 700,406 701,406 701,405 702,405 702,404 703,404 703,403 704,403 704,402 705,402 705,401 706,401 706,400 707,400 707,399 708,399 708,398 710,398 710,397 711,397 711,396 712,396 712,395 714,395 714,393 715,393 715,392 716,392 716,391 z M 354,702 353,702 353,701 346,701 346,700 345,700 345,701 343,701 343,703 342,703 342,706 343,706 344,706 344,707 345,707 348,707 353,707 353,706 354,706 354,704 355,704 355,703 354,703 z M 471,475 472,475 472,476 473,476 473,478 474,478 474,479 475,479 475,478 476,478 476,463 475,463 475,460 474,460 474,458 471,458 471,459 465,459 465,460 461,460 461,461 456,461 456,462 457,462 457,463 459,463 459,464 460,464 460,465 461,465 461,466 462,466 462,467 464,467 464,468 465,468 465,469 466,469 466,470 467,470 467,471 468,471 468,472 469,472 469,473 470,473 470,474 471,474 z M 558,568 558,564 557,564 557,562 555,562 555,563 555,568 z M 357,697 357,696 356,696 356,697 z" fill="#000000" fill-opacity="1.0" id="x000000_r0_g0_b0_a1.0_shape1"/>
    <path d="M 709,166 712,166 712,167 713,167 713,168 714,168 714,169 718,169 718,168 720,168 720,167 721,167 721,166 722,166 722,165 724,165 724,164 726,164 726,163 727,163 727,162 728,162 733,162 733,163 735,163 735,164 736,164 736,165 737,165 737,169 737,171 738,171 738,173 738,176 739,176 739,178 742,178 742,179 745,179 745,180 748,180 748,181 750,181 750,182 751,182 751,184 752,184 752,191 751,191 751,192 750,192 750,193 749,193 749,194 748,194 748,195 747,195 747,196 746,196 746,197 745,197 745,198 744,198 744,200 744,212 743,212 743,213 742,213 742,214 741,214 741,215 740,215 740,216 736,216 736,217 735,217 735,215 733,215 733,214 731,214 731,213 730,213 730,212 729,212 729,211 727,211 727,210 725,210 725,208 724,208 724,207 722,207 722,206 720,206 720,205 717,205 717,204 713,204 713,205 712,205 712,206 711,206 707,206 707,207 706,207 706,208 705,208 705,209 704,209 704,210 702,210 702,211 694,211 694,210 693,210 693,200 694,200 694,196 695,196 695,195 696,195 696,193 697,193 697,192 698,192 698,190 699,190 699,188 700,188 700,187 701,187 701,185 702,185 702,184 703,184 703,183 704,183 704,180 703,180 703,177 702,177 702,173 701,173 701,171 700,171 700,169 699,169 699,166 700,166 700,165 703,165 703,164 708,164 708,165 709,165 z M 708,173 708,172 707,172 707,174 708,174 708,177 709,177 709,186 708,186 708,187 707,187 707,188 706,188 706,190 705,190 705,191 704,191 704,193 703,193 703,195 702,195 702,196 701,196 701,197 700,197 700,199 699,199 699,203 698,203 698,204 702,204 702,203 703,203 703,202 705,202 705,201 706,201 706,200 709,200 709,199 722,199 722,200 723,200 723,201 725,201 725,202 727,202 727,203 729,203 729,204 730,204 730,205 731,205 731,206 732,206 732,207 733,207 733,208 734,208 734,209 736,209 736,210 737,210 737,209 738,209 738,206 738,200 739,200 739,198 739,195 740,195 740,194 741,194 741,193 742,193 742,192 743,192 743,191 744,191 744,190 745,190 745,189 746,189 746,187 747,187 747,186 746,186 745,186 745,185 744,185 742,185 742,184 740,184 736,184 736,183 735,183 735,182 734,182 734,180 733,180 733,178 732,178 732,177 731,177 731,174 732,174 732,169 730,169 730,168 728,168 728,169 727,169 727,170 725,170 725,171 724,171 724,172 723,172 723,173 720,173 720,174 710,174 710,173 z" fill="#000000" fill-opacity="1.0" id="x000000_r0_g0_b0_a1.0_shape2"/>
    <path d="M 827,445 827,446 826,446 826,447 821,447 821,446 820,446 820,445 819,445 819,444 818,444 818,443 818,442 817,442 817,441 814,441 812,441 812,442 811,442 811,443 810,443 810,444 809,444 809,445 808,445 808,446 807,446 807,447 806,447 806,448 805,448 805,449 802,449 802,448 801,448 801,447 801,446 800,446 800,445 800,444 800,441 799,441 799,439 798,439 798,438 797,438 797,430 796,430 796,429 795,429 795,428 793,428 793,427 790,427 790,426 789,426 789,425 788,425 788,424 787,424 787,423 786,423 786,422 785,422 785,421 784,421 784,415 785,415 785,414 786,414 786,413 787,413 787,412 789,412 789,411 792,411 792,410 794,410 794,409 799,409 799,408 803,408 803,407 805,407 805,406 807,406 807,405 809,405 809,401 807,401 807,400 809,400 809,398 810,398 810,396 811,396 811,394 812,394 812,391 813,391 813,389 814,389 814,388 815,388 815,386 816,386 816,384 817,384 817,383 820,383 820,384 821,384 821,386 822,386 822,387 823,387 823,389 824,389 824,391 825,391 825,393 826,393 826,395 827,395 827,397 828,397 828,401 829,401 829,407 831,407 831,408 833,408 833,409 836,409 836,410 838,410 838,411 839,411 839,412 840,412 840,413 841,413 841,414 842,414 842,418 843,418 843,419 844,419 844,422 843,422 843,423 842,423 842,424 841,424 841,425 840,425 840,426 839,426 839,427 838,427 838,428 836,428 836,429 834,429 834,430 832,430 832,431 831,431 831,434 830,434 830,440 829,440 829,444 828,444 828,445 z M 824,409 824,403 823,403 823,400 822,400 822,397 821,397 821,396 820,396 820,395 820,393 819,393 819,392 818,392 818,394 817,394 817,397 816,397 816,400 815,400 815,402 815,404 815,405 814,405 814,406 814,408 813,408 813,409 812,409 812,410 811,410 811,411 810,411 808,411 808,412 805,412 805,413 802,413 802,414 800,414 797,414 797,415 794,415 794,416 792,416 792,417 790,417 790,419 791,419 791,420 792,420 792,421 793,421 793,422 795,422 796,422 796,423 797,423 798,423 798,424 799,424 799,425 800,425 800,426 801,426 801,427 802,427 802,429 803,429 803,432 804,432 804,436 805,436 805,440 806,440 806,439 807,439 807,438 808,438 808,437 809,437 809,436 820,436 820,437 821,437 821,439 822,439 822,440 823,440 823,441 824,441 824,437 825,437 825,431 826,431 826,428 827,428 827,427 828,427 828,426 829,426 829,425 831,425 831,424 833,424 833,423 835,423 835,422 836,422 836,420 837,420 837,418 836,418 836,417 834,417 834,418 833,418 833,417 831,417 831,414 829,414 829,413 828,413 828,412 826,412 826,411 825,411 825,409 z" fill="#000000" fill-opacity="1.0" id="x000000_r0_g0_b0_a1.0_shape3"/>
    <path d="M 632,295 632,294 634,294 634,296 635,296 635,300 636,300 636,308 637,308 637,309 638,309 638,311 638,312 639,312 639,313 639,314 640,314 640,315 642,315 642,316 643,316 643,317 645,317 645,318 648,318 648,319 651,319 652,319 652,320 653,320 654,320 654,321 655,321 655,326 654,326 654,327 653,327 653,328 652,328 652,329 651,329 651,330 649,330 649,331 648,331 648,332 647,332 647,333 646,333 646,334 645,334 645,335 644,335 644,336 643,336 643,343 642,343 642,349 641,349 641,352 640,352 640,353 635,353 635,352 634,352 634,351 633,351 633,350 632,350 632,349 631,349 631,348 630,348 630,347 629,347 629,345 628,345 628,344 627,344 625,344 625,345 624,345 624,346 623,346 623,347 622,347 622,349 621,349 621,351 620,351 620,353 619,353 619,354 618,354 618,356 613,356 613,355 612,355 612,354 611,354 611,351 610,351 610,349 609,349 609,339 608,339 608,336 607,336 607,333 606,333 606,332 605,332 605,331 603,331 603,330 602,330 602,329 601,329 601,328 598,328 598,327 597,327 597,324 598,324 598,323 601,323 601,322 604,322 604,321 606,321 606,320 608,320 608,319 609,319 609,318 610,318 610,317 611,317 611,316 612,316 612,315 613,315 613,314 614,314 614,313 615,313 615,312 616,312 616,311 617,311 617,310 618,310 618,309 619,309 619,307 620,307 620,303 622,303 622,302 623,302 623,301 624,301 624,299 625,299 625,298 626,298 626,297 627,297 627,296 628,296 628,295 z M 641,330 642,330 642,329 643,329 643,328 644,328 644,327 645,327 645,326 646,326 646,325 647,325 647,324 645,324 645,323 643,323 642,323 642,322 641,322 640,322 640,321 639,321 639,320 638,320 638,319 636,319 636,318 635,318 635,317 634,317 634,316 633,316 633,315 632,315 632,313 631,313 631,310 630,310 630,308 630,306 629,306 629,308 629,309 629,310 628,310 627,310 627,311 626,311 625,311 624,311 624,312 623,312 623,313 622,313 622,314 621,314 621,315 620,315 620,316 619,316 619,317 618,317 618,318 617,318 617,319 616,319 616,320 615,320 615,321 614,321 614,322 613,322 613,323 612,323 612,324 611,324 611,325 610,325 609,325 609,326 608,326 608,327 609,327 609,328 610,328 610,329 611,329 611,330 612,330 612,331 612,332 612,333 613,333 613,334 613,336 614,336 614,338 614,340 615,340 615,343 615,345 614,345 614,346 615,346 615,347 615,348 616,348 616,347 616,346 617,346 617,345 618,345 618,343 619,343 619,342 620,342 620,341 620,340 621,340 621,339 622,339 622,338 623,338 623,337 627,337 627,338 629,338 629,339 630,339 630,340 632,340 632,341 633,341 633,343 634,343 634,344 635,344 635,345 636,345 636,346 637,346 637,340 638,340 638,335 638,333 639,333 639,332 640,332 640,331 641,331 z" fill="#000000" fill-opacity="1.0" id="x000000_r0_g0_b0_a1.0_shape4"/>
    <path d="M 320,714 320,715 318,715 318,716 317,716 317,717 309,717 303,717 303,716 302,716 302,714 301,714 301,713 300,713 300,710 300,707 301,707 301,705 302,705 302,704 303,704 303,703 304,703 304,702 305,702 305,701 306,701 313,701 313,700 315,700 315,701 319,701 319,702 320,702 320,703 321,703 321,704 322,704 322,712 321,712 321,714 z M 308,706 308,707 307,707 307,708 306,708 306,711 307,711 307,712 313,712 315,712 315,711 316,711 316,710 317,710 317,707 316,707 316,706 315,706 z" fill="#000000" fill-opacity="1.0" id="x000000_r0_g0_b0_a1.0_shape5"/>
    <path d="M 749,332 748,332 748,333 747,333 747,334 742,334 742,335 740,335 740,336 737,336 737,337 735,337 735,338 734,338 734,339 733,339 733,341 732,341 732,342 729,342 729,341 728,341 728,336 729,336 729,334 730,334 730,333 732,333 732,332 734,332 734,331 737,331 737,330 740,330 740,329 744,329 744,328 748,328 748,329 749,329 z" fill="#000000" fill-opacity="1.0" id="x000000_r0_g0_b0_a1.0_shape6"/>
    <path d="M 812,324 812,325 804,325 804,324 803,324 803,321 804,321 804,320 809,320 809,319 824,319 824,320 825,320 825,323 824,323 824,324 z" fill="#000000" fill-opacity="1.0" id="x000000_r0_g0_b0_a1.0_shape7"/>
    <path d="M 817,308 817,309 818,309 818,312 817,312 817,313 807,313 807,315 804,315 804,314 798,314 798,313 797,313 797,310 798,310 798,309 804,309 804,308 z" fill="#000000" fill-opacity="1.0" id="x000000_r0_g0_b0_a1.0_shape8"/>
    <path d="M 771,292 772,292 772,291 773,291 773,290 774,290 774,289 775,289 775,288 776,288 776,287 777,287 777,286 778,286 778,285 778,284 779,284 779,283 783,283 783,284 784,284 784,286 784,287 783,287 783,288 783,289 782,289 782,290 781,290 781,291 780,291 780,292 779,292 779,293 778,293 778,294 777,294 777,295 776,295 776,296 776,297 775,297 775,298 774,298 774,299 773,299 771,299 771,298 770,298 770,294 771,294 z" fill="#000000" fill-opacity="1.0" id="x000000_r0_g0_b0_a1.0_shape9"/>
    <path d="M 818,330 818,331 819,331 819,332 820,332 820,333 821,333 821,334 822,334 822,338 821,338 821,339 819,339 818,339 818,338 817,338 817,337 816,337 816,336 815,336 815,335 814,335 810,335 810,334 805,334 805,333 804,333 804,332 804,330 805,330 805,329 814,329 814,330 z" fill="#000000" fill-opacity="1.0" id="x000000_r0_g0_b0_a1.0_shape10"/>
    <path d="M 749,321 749,322 751,322 751,323 752,323 752,326 751,326 751,327 749,327 746,327 746,326 740,326 737,326 737,327 735,327 733,327 733,326 732,326 732,325 732,323 733,323 733,322 734,322 734,321 737,321 z" fill="#000000" fill-opacity="1.0" id="x000000_r0_g0_b0_a1.0_shape11"/>
    <path d="M 791,302 792,302 792,301 793,301 793,300 794,300 794,299 796,299 796,298 797,298 797,297 799,297 799,296 800,296 800,295 802,295 802,294 804,294 806,294 806,295 807,295 807,298 806,298 806,299 805,299 805,300 803,300 803,301 802,301 802,302 800,302 800,303 798,303 798,304 797,304 797,305 796,305 796,306 794,306 792,306 792,305 791,305 z" fill="#000000" fill-opacity="1.0" id="x000000_r0_g0_b0_a1.0_shape12"/>
    <path d="M 784,292 785,292 785,291 786,291 786,289 787,289 787,288 788,288 788,287 789,287 789,286 790,286 792,286 792,287 793,287 793,288 793,290 792,290 792,292 791,292 791,294 790,294 790,295 789,295 789,296 789,297 788,297 788,298 787,298 787,299 786,299 786,301 785,301 785,302 782,302 782,301 781,301 781,297 782,297 782,295 783,295 783,294 784,294 z" fill="#000000" fill-opacity="1.0" id="x000000_r0_g0_b0_a1.0_shape13"/>
    <path d="M 370,422 369,422 369,421 368,421 367,421 367,420 366,420 365,420 365,419 364,419 364,418 363,418 363,417 363,415 364,415 364,414 367,414 367,415 370,415 370,416 372,416 372,417 373,417 373,418 374,418 375,418 375,419 376,419 376,421 377,421 377,422 378,422 378,425 378,426 375,426 375,425 373,425 372,425 372,424 371,424 371,423 370,423 z" fill="#000000" fill-opacity="1.0" id="x000000_r0_g0_b0_a1.0_shape14"/>
    <path d="M 779,365 779,369 778,369 778,370 775,370 775,369 774,369 774,368 773,368 773,366 773,365 772,365 772,364 772,363 771,363 771,362 771,361 769,361 769,359 769,355 772,355 774,355 774,356 775,356 775,358 776,358 776,360 777,360 777,362 778,362 778,365 z" fill="#000000" fill-opacity="1.0" id="x000000_r0_g0_b0_a1.0_shape15"/>
    <path d="M 472,421 472,422 474,422 474,421 475,421 475,419 476,419 476,418 477,418 477,417 480,417 480,418 481,418 481,422 480,422 480,424 479,424 479,425 478,425 478,426 477,426 477,427 475,427 475,428 470,428 470,427 469,427 469,426 468,426 468,422 469,422 469,421 z" fill="#000000" fill-opacity="1.0" id="x000000_r0_g0_b0_a1.0_shape16"/>
    <path d="M 814,341 814,342 815,342 815,343 816,343 816,344 817,344 817,347 816,347 816,348 813,348 813,347 812,347 812,346 811,346 810,346 810,345 809,345 806,345 805,345 805,343 804,343 804,342 803,342 803,340 803,338 804,338 804,337 807,337 807,338 809,338 809,339 811,339 811,340 813,340 813,341 z" fill="#000000" fill-opacity="1.0" id="x000000_r0_g0_b0_a1.0_shape17"/>
    <path d="M 502,395 501,395 501,392 502,392 502,391 505,391 505,392 506,392 506,393 507,393 507,394 508,394 508,395 509,395 509,397 510,397 510,399 511,399 511,401 512,401 512,404 512,405 511,405 511,406 508,406 508,405 507,405 507,404 506,404 506,402 505,402 505,400 504,400 504,398 503,398 503,396 502,396 z" fill="#000000" fill-opacity="1.0" id="x000000_r0_g0_b0_a1.0_shape18"/>
    <path d="M 796,349 795,349 795,345 796,345 796,344 799,344 799,345 800,345 800,346 802,346 802,347 804,347 804,348 806,348 806,349 807,349 807,350 808,350 808,352 808,355 807,355 807,356 804,356 804,355 803,355 803,353 801,353 801,352 799,352 799,351 798,351 798,350 797,350 796,350 z" fill="#000000" fill-opacity="1.0" id="x000000_r0_g0_b0_a1.0_shape19"/>
    <path d="M 520,397 520,400 519,400 519,401 515,401 515,400 514,400 514,398 513,398 513,396 512,396 512,395 511,395 511,393 510,393 510,388 511,388 511,387 512,387 514,387 514,388 515,388 515,390 516,390 516,392 517,392 517,393 518,393 518,395 519,395 519,397 z" fill="#000000" fill-opacity="1.0" id="x000000_r0_g0_b0_a1.0_shape20"/>
    <path d="M 743,343 743,344 744,344 744,347 743,347 743,348 742,348 742,349 741,349 741,350 740,350 740,351 739,351 739,352 738,352 738,354 736,354 736,355 734,355 733,355 733,354 732,354 732,350 733,350 733,349 734,349 734,348 735,348 735,347 736,347 736,346 737,346 737,345 738,345 738,344 739,344 739,343 z" fill="#000000" fill-opacity="1.0" id="x000000_r0_g0_b0_a1.0_shape21"/>
    <path d="M 784,351 785,351 785,350 789,350 789,351 790,351 790,353 791,353 791,355 792,355 792,356 793,356 793,357 793,358 794,358 794,359 794,362 793,362 793,363 790,363 790,362 789,362 789,361 788,361 788,359 787,359 787,357 786,357 786,356 785,356 785,354 784,354 784,352 z" fill="#000000" fill-opacity="1.0" id="x000000_r0_g0_b0_a1.0_shape22"/>
    <path d="M 761,360 762,360 762,364 761,364 761,365 758,365 758,364 757,364 757,363 756,363 756,351 757,351 757,350 760,350 760,351 761,351 z" fill="#000000" fill-opacity="1.0" id="x000000_r0_g0_b0_a1.0_shape23"/>
    <path d="M 752,297 752,298 753,298 753,300 754,300 754,311 753,311 753,312 750,312 750,311 749,311 749,308 749,302 748,302 748,298 749,298 749,297 z" fill="#000000" fill-opacity="1.0" id="x000000_r0_g0_b0_a1.0_shape24"/>
    <path d="M 332,731 332,730 326,730 326,729 325,729 325,726 326,726 326,725 327,725 329,725 329,724 331,724 334,724 334,725 336,725 336,726 337,726 337,729 336,729 336,730 334,730 334,731 z" fill="#000000" fill-opacity="1.0" id="x000000_r0_g0_b0_a1.0_shape25"/>
    <path d="M 762,306 759,306 759,305 758,305 758,294 759,294 759,293 762,293 762,294 763,294 763,305 762,305 z" fill="#000000" fill-opacity="1.0" id="x000000_r0_g0_b0_a1.0_shape26"/>
    <path d="M 431,429 430,429 430,428 429,428 429,427 428,427 428,426 428,424 427,424 427,423 426,423 426,422 426,420 427,420 427,419 428,419 431,419 431,420 432,420 432,422 433,422 433,424 434,424 434,426 434,428 433,428 433,429 z" fill="#000000" fill-opacity="1.0" id="x000000_r0_g0_b0_a1.0_shape27"/>
    <path d="M 425,423 425,424 426,424 426,427 427,427 427,429 428,429 428,432 427,432 427,433 423,433 423,432 422,432 422,429 421,429 421,424 422,424 422,423 z" fill="#000000" fill-opacity="1.0" id="x000000_r0_g0_b0_a1.0_shape28"/>
  </g>
</svg>
