<?xml version="1.0" encoding="UTF-8" standalone="no"?>
<!-- Created with Inkscape (http://www.inkscape.org/) -->

<svg
   width="210mm"
   height="297mm"
   viewBox="0 0 210 297"
   version="1.1"
   id="svg1"
   xml:space="preserve"
   inkscape:version="1.4 (86a8ad7, 2024-10-11)"
   sodipodi:docname="绘图.svg"
   xmlns:inkscape="http://www.inkscape.org/namespaces/inkscape"
   xmlns:sodipodi="http://sodipodi.sourceforge.net/DTD/sodipodi-0.dtd"
   xmlns="http://www.w3.org/2000/svg"
   xmlns:svg="http://www.w3.org/2000/svg"><sodipodi:namedview
     id="namedview1"
     pagecolor="#ffffff"
     bordercolor="#000000"
     borderopacity="0.25"
     inkscape:showpageshadow="2"
     inkscape:pageopacity="0.0"
     inkscape:pagecheckerboard="0"
     inkscape:deskcolor="#d1d1d1"
     inkscape:document-units="mm"
     inkscape:zoom="2.1776209"
     inkscape:cx="298.49089"
     inkscape:cy="135.23933"
     inkscape:window-width="1920"
     inkscape:window-height="1017"
     inkscape:window-x="1912"
     inkscape:window-y="-8"
     inkscape:window-maximized="1"
     inkscape:current-layer="layer1" /><defs
     id="defs1"><linearGradient
       id="swatch1"
       inkscape:swatch="solid"><stop
         style="stop-color:#000000;stop-opacity:1;"
         offset="0"
         id="stop1" /></linearGradient></defs><g
     inkscape:label="图层 1"
     inkscape:groupmode="layer"
     id="layer1"><path
       style="fill:#9c1613;fill-opacity:1;fill-rule:nonzero;stroke-width:10;stroke-dasharray:none"
       d="m 22.263551,16.370258 c 5.659433,-1.683798 4.443355,-1.543481 6.594876,-1.683798 2.15152,-0.140316 3.320825,-0.187088 4.77076,0.327405 1.449938,0.514494 5.051396,1.824115 5.612662,2.478925 0.561265,0.654811 1.075758,1.028988 1.075758,1.262849 0,0.233861 -0.374176,0.374177 -0.701582,0.467722 -0.327406,0.09354 -1.964431,-0.8419 -1.964431,-0.8419 0,0 -1.496708,-0.841898 -2.15152,-1.122532 -0.654809,-0.280633 -2.38538,-0.701582 -4.396584,-0.608038 -2.011203,0.09354 -3.648228,-0.04677 -4.911077,0.327405 -1.262848,0.374178 -2.572469,1.028988 -3.180507,1.216077 -0.608038,0.187088 -1.449937,0.795127 -1.449937,0 0,-0.795127 0.701582,-1.824115 0.701582,-1.824115 z"
       id="path3" /><path
       style="fill:#9c1613;fill-opacity:1;fill-rule:nonzero;stroke-width:10;stroke-dasharray:none"
       d="m 57.80769,17.318903 c 4.868016,-1.451044 4.633976,-1.872314 8.331795,-2.199969 3.697819,-0.327655 5.804173,0.04681 7.442449,0.936157 1.638273,0.889349 2.57443,1.029772 3.416972,1.825506 0.842542,0.795733 2.199968,0.65531 2.012738,-0.280847 -0.187232,-0.936157 -0.09362,-1.263812 -1.872316,-1.872314 -1.778698,-0.608502 -2.57443,-1.263812 -3.978666,-1.73189 -1.404234,-0.468079 -3.838242,-1.497851 -5.710558,-1.451043 -1.872313,0.04681 -4.961631,0.280847 -6.833944,1.07658 -1.872313,0.795733 -3.04251,1.217004 -3.651012,2.293584 -0.608502,1.076581 0.842542,1.404236 0.842542,1.404236 z"
       id="path4" /><path
       style="fill:#9c1613;fill-opacity:1;fill-rule:nonzero;stroke-width:10;stroke-dasharray:none"
       d="m 43.344065,32.15699 c -0.608502,1.076581 -0.748927,2.059545 -0.280847,3.136124 0.468079,1.076582 0.655309,1.685084 0.889349,1.825506 0.23404,0.140425 1.170196,0.70212 1.451044,0.795735 0.280847,0.09361 1.248224,0.131963 1.810893,0.08231 0.562668,-0.04965 1.836946,-0.628864 2.201026,-0.976394 0.36408,-0.347531 1.224632,-1.373574 1.390124,-1.737651 0.165488,-0.36408 0.546118,-1.059143 0.546118,-1.059143 0,0 0.529569,0.761259 0.761257,0.943297 0.231687,0.182042 1.638358,1.191533 1.952791,1.357025 0.314431,0.165491 1.241179,0.463375 1.919692,0.496472 0.678511,0.0331 0.976395,-0.0331 1.472867,-0.165492 0.496472,-0.132392 1.456915,-1.004382 1.924159,-1.259242 0.467243,-0.25486 0.892013,-1.061918 0.892013,-1.316781 0,-0.25486 -0.307956,-0.446005 -0.382291,-0.446005 -0.07433,0 -0.722106,0.584057 -0.849537,0.711485 -0.127429,0.127432 -1.104395,0.722106 -1.284923,0.807059 -0.180525,0.08496 -1.518544,0.41415 -1.847739,0.382291 -0.329194,-0.03186 -1.507926,-0.467244 -1.72031,-0.647771 -0.212384,-0.180526 -0.764582,-0.647769 -0.987584,-0.870773 -0.223004,-0.223004 -0.615913,-0.626534 -0.817679,-0.849535 -0.201766,-0.223004 -0.764582,-1.136256 -0.764582,-1.136256 l -0.923869,1.083159 c 0,0 -0.647772,0.892011 -0.838917,1.093777 -0.191146,0.201766 -0.881394,1.104398 -1.168112,1.253064 -0.286718,0.14867 -1.030063,0.66901 -1.29554,0.711489 -0.26548,0.04248 -0.456626,0.06371 -0.955728,0.01061 -0.499102,-0.0531 -1.125635,-0.201764 -1.295543,-0.318577 -0.169907,-0.116811 -0.446005,-0.414147 -0.552199,-0.647769 -0.10619,-0.233625 -0.254859,-0.361053 -0.350432,-0.732727 -0.09557,-0.37167 -0.169908,-0.499102 -0.191146,-0.892011 -0.02125,-0.392911 -0.02125,-0.414149 -0.04248,-0.732723 -0.02125,-0.318577 0.0531,-0.456626 -0.06371,-0.67963 -0.116814,-0.223002 -0.14867,-0.286719 -0.318577,-0.265481 -0.169908,0.02125 -0.279588,0.04455 -0.279588,0.04455 z"
       id="path5" /><path
       style="fill:none;fill-opacity:1;fill-rule:nonzero;stroke:#000000;stroke-width:2;stroke-dasharray:none;stroke-opacity:1"
       d="m 26.671629,16.880018 c -0.600712,1.982351 -1.381638,3.724416 -1.501781,5.286269 -0.120142,1.561852 -0.961139,4.144915 -0.540641,5.526555 0.420499,1.381638 0.540641,2.643132 1.321568,3.484131 0.780925,0.840997 0.660783,1.081281 2.102493,1.321567 1.441709,0.240284 1.293724,0.410103 2.883418,0.360426 1.922281,-0.06007 1.742067,0.180216 3.303919,-0.540641 1.488714,-0.6871 1.802137,-0.901068 2.643134,-1.742065 0.840999,-0.840996 1.681996,-1.321567 2.042422,-2.342779 0.360429,-1.02121 0.660784,-1.02121 0.720855,-2.46292 0.06007,-1.44171 0.240286,-1.561852 0.300357,-3.003562 0.06007,-1.44171 -0.300357,-2.763277 -0.420499,-3.784488"
       id="path6"
       sodipodi:nodetypes="cssssssssssc" /><path
       style="fill:none;fill-opacity:1;fill-rule:nonzero;stroke:#000000;stroke-width:2;stroke-dasharray:none;stroke-opacity:1"
       d="m 65.048698,16.504171 c -1.355183,0.919587 -1.935972,0.871188 -2.419966,2.081171 -0.483995,1.209983 -0.725991,1.45198 -0.725991,2.807161 0,1.355182 0.193599,3.000759 0.532392,4.017145 0.338797,1.016385 0.822791,2.952359 2.419967,4.743133 1.597178,1.790777 2.85556,1.935975 4.452739,2.081173 1.597178,0.145196 4.355938,-0.145198 5.081929,-0.532394 0.72599,-0.387194 2.22637,-1.742374 2.710362,-2.419967 0.483994,-0.67759 1.40358,-2.177968 1.45198,-3.387952 0.0484,-1.209983 -0.919585,-4.017144 -1.597178,-4.646336 -0.67759,-0.629191 -2.03277,-2.807161 -3.000759,-3.291154 -0.967986,-0.483993 -1.500378,-1.355181 -3.387952,-1.597178 -1.887575,-0.241996 -2.903958,-0.580792 -3.775146,-0.435594 -0.871189,0.145198 -1.742377,0.580792 -1.742377,0.580792 z"
       id="path7" /><path
       style="fill:#9c1613;fill-opacity:1;fill-rule:nonzero;stroke:none;stroke-width:2;stroke-dasharray:none;stroke-opacity:1"
       d="m 25.860189,25.516532 c 3.264742,-0.859142 5.670341,-1.804199 8.591426,-1.460542 2.921085,0.343657 4.03797,0.343657 4.03797,0.343657 l 0.08591,0.08591 v -5.326683 l -4.123883,-2.147856 -6.185826,-0.171829 z"
       id="path8" /><path
       style="fill:#9c1613;fill-opacity:1;fill-rule:nonzero;stroke:none;stroke-width:2;stroke-dasharray:none;stroke-opacity:1"
       d="m 63.318802,23.798247 c 13.746281,0.08591 13.574453,-0.08591 13.574453,-0.08591 l -2.147856,-4.037969 -5.412599,-2.921085 -4.381627,1.116885 -1.374627,1.374628 z"
       id="path9" /><ellipse
       style="fill:#9c1613;fill-opacity:1;fill-rule:nonzero;stroke:#000000;stroke-width:1.71686;stroke-dasharray:none;stroke-opacity:1"
       id="path10"
       cx="31.748293"
       cy="17.91312"
       rx="1.0327972"
       ry="0.77550155" /><ellipse
       style="fill:#9c1613;fill-opacity:1;fill-rule:nonzero;stroke:#000000;stroke-width:2;stroke-dasharray:none;stroke-opacity:1"
       id="path11"
       cx="70.804764"
       cy="18.225164"
       rx="1.0023841"
       ry="0.91125822" /></g></svg>
