<?xml version="1.0" encoding="utf-8" ?>
<svg xmlns="http://www.w3.org/2000/svg" xmlns:ev="http://www.w3.org/2001/xml-events" xmlns:xlink="http://www.w3.org/1999/xlink" baseProfile="full" height="960px" version="1.1" viewBox="0 0 960 960" width="960px">
  <defs/>
  <g id="xff0000_r255_g0_b0_a1.0">
    <path d="M 520,5 520,6 534,6 534,7 537,7 537,8 544,8 544,9 548,9 548,10 554,10 554,11 556,11 556,12 562,12 564,12 564,13 568,13 568,14 575,14 575,15 577,15 577,16 582,16 584,16 584,17 587,17 587,18 595,18 595,19 598,19 598,20 602,20 602,21 605,21 605,22 611,22 611,23 612,23 612,24 616,24 616,25 618,25 618,26 623,26 623,27 624,27 624,28 629,28 629,29 630,29 630,30 634,30 634,31 636,31 636,32 640,32 640,33 642,33 642,34 646,34 646,35 647,35 647,36 650,36 650,37 652,37 652,38 656,38 656,40 660,40 660,42 664,42 664,43 666,43 666,44 669,44 669,45 670,45 670,46 672,46 672,47 675,47 675,48 679,48 679,49 680,49 680,50 684,50 684,51 685,51 685,52 688,52 688,53 689,53 689,54 692,54 692,55 694,55 694,56 696,56 696,57 698,57 698,58 701,58 701,59 702,59 702,60 707,60 707,61 708,61 708,62 711,62 711,63 712,63 712,64 715,64 715,65 716,65 716,66 718,66 718,67 719,67 719,68 721,68 721,69 722,69 722,70 724,70 724,71 725,71 725,72 728,72 728,74 730,74 730,75 732,75 732,76 734,76 734,77 735,77 735,78 736,78 736,79 738,79 738,80 741,80 741,81 742,81 742,82 744,82 744,84 747,84 747,85 748,85 748,87 749,87 749,88 752,88 752,90 754,90 754,92 756,92 756,94 758,94 758,96 760,96 760,98 761,98 762,98 762,100 763,100 764,100 764,102 765,102 765,103 766,103 766,104 767,104 767,105 768,105 768,108 770,108 770,110 771,110 771,112 772,112 772,114 773,114 773,115 774,115 774,117 775,117 775,118 776,118 776,120 777,120 777,121 778,121 778,124 780,124 780,126 781,126 781,127 782,127 782,128 783,128 783,129 784,129 784,130 785,130 785,131 786,131 786,132 787,132 787,133 788,133 788,135 789,135 789,136 790,136 790,138 792,138 792,140 794,140 794,142 796,142 796,143 797,143 797,144 800,144 800,146 803,146 803,147 804,147 804,148 808,148 808,150 812,150 812,151 814,151 814,152 820,152 820,153 822,153 822,154 825,154 825,155 826,155 826,156 828,156 828,158 830,158 830,160 832,160 832,162 834,162 834,164 836,164 836,166 837,166 837,167 838,167 838,169 839,169 839,170 840,170 840,172 842,172 842,176 844,176 844,179 845,179 845,180 846,180 846,181 847,181 847,182 848,182 848,184 850,184 850,185 851,185 851,186 853,186 853,187 854,187 854,188 856,188 856,189 858,189 858,190 864,190 864,191 865,191 865,192 866,192 866,193 867,193 867,194 868,194 868,198 869,198 869,199 870,199 870,202 871,202 871,204 872,204 872,206 873,206 873,208 874,208 874,211 875,211 875,212 876,212 876,215 877,215 877,216 878,216 878,219 879,219 879,220 880,220 880,223 881,223 881,224 882,224 882,226 883,226 883,227 884,227 884,228 885,228 885,229 886,229 886,232 888,232 888,234 890,234 890,236 891,236 891,237 892,237 892,240 894,240 894,243 895,243 895,244 896,244 896,246 897,246 897,247 898,247 898,249 899,249 899,250 900,250 900,252 901,252 901,253 902,253 902,255 903,255 903,256 904,256 904,259 905,259 905,260 906,260 906,262 907,262 907,264 908,264 908,266 909,266 909,268 910,268 910,270 911,270 911,272 912,272 912,275 913,275 913,276 914,276 914,279 915,279 915,281 916,281 916,284 917,284 917,285 918,285 918,290 919,290 919,291 920,291 920,296 921,296 921,297 922,297 922,299 923,299 923,300 924,300 924,303 925,303 925,304 926,304 926,308 927,308 927,309 928,309 928,313 929,313 929,314 930,314 930,320 932,320 932,326 933,326 933,328 934,328 934,335 935,335 935,336 936,336 936,341 937,341 937,342 938,342 938,346 939,346 939,349 940,349 940,354 941,354 941,356 942,356 942,360 943,360 943,362 944,362 944,368 945,368 945,370 946,370 946,376 947,376 947,377 948,377 948,382 949,382 949,384 950,384 950,391 951,391 951,394 952,394 952,404 953,404 953,408 954,408 954,420 955,420 955,424 956,424 956,447 957,447 957,448 958,448 958,472 958,508 959,508 959,511 958,511 958,525 957,525 957,528 956,528 956,531 955,531 955,532 954,532 954,534 953,534 953,535 952,535 952,538 950,538 950,539 949,539 949,540 946,540 946,542 944,542 944,544 934,544 934,545 933,545 933,546 932,546 932,548 931,548 931,549 930,549 930,551 929,551 929,553 928,553 928,555 929,555 929,557 930,557 930,560 939,560 939,561 940,561 940,563 941,563 941,564 942,564 942,568 941,568 941,569 940,569 940,571 939,571 939,572 938,572 938,574 936,574 936,576 935,576 935,577 934,577 934,580 932,580 932,593 933,593 933,594 934,594 934,597 935,597 935,598 936,598 936,612 935,612 935,617 934,617 934,622 933,622 933,624 932,624 932,628 931,628 931,630 930,630 930,634 929,634 929,635 928,635 928,640 927,640 927,641 926,641 926,644 925,644 925,646 924,646 924,650 923,650 923,651 922,651 922,655 921,655 921,656 920,656 920,660 919,660 919,661 918,661 918,664 917,664 917,666 916,666 916,670 914,670 914,674 913,674 913,676 912,676 912,680 911,680 911,681 910,681 910,684 909,684 909,685 908,685 908,689 907,689 907,690 906,690 906,694 905,694 905,695 904,695 904,698 902,698 902,700 900,700 900,704 898,704 898,706 897,706 897,707 896,707 896,710 894,710 894,714 893,714 893,715 892,715 892,718 891,718 891,719 890,719 890,722 889,722 889,724 888,724 888,726 887,726 887,727 886,727 886,730 885,730 885,731 884,731 884,734 882,734 882,736 881,736 881,737 880,737 880,740 878,740 878,742 877,742 877,744 876,744 876,746 874,746 874,748 873,748 873,749 872,749 872,752 870,752 870,755 869,755 869,756 868,756 868,758 866,758 866,761 865,761 865,762 864,762 864,763 863,763 863,764 862,764 862,767 861,767 861,768 860,768 860,770 858,770 858,772 856,772 856,774 854,774 854,776 852,776 852,779 851,779 851,780 848,780 848,783 847,783 847,784 846,784 846,785 845,785 845,786 844,786 844,788 842,788 842,790 840,790 840,792 838,792 838,794 836,794 836,796 834,796 834,798 832,798 832,800 830,800 830,802 828,802 828,804 827,804 827,806 825,806 825,807 824,807 824,808 823,808 823,809 822,809 822,810 821,810 821,812 819,812 819,813 818,813 818,814 816,814 816,816 814,816 814,818 813,818 813,819 812,819 812,821 810,821 810,822 808,822 808,824 806,824 806,826 804,826 804,828 802,828 802,830 800,830 800,832 798,832 798,834 796,834 796,836 794,836 794,838 792,838 792,840 790,840 790,842 788,842 788,844 786,844 786,846 784,846 784,848 782,848 782,850 780,850 780,851 779,851 779,852 777,852 777,853 776,853 776,854 774,854 774,855 773,855 773,856 771,856 771,857 770,857 770,858 768,858 768,860 764,860 764,862 762,862 762,863 761,863 761,864 758,864 758,866 756,866 756,867 755,867 755,868 752,868 752,870 748,870 748,872 746,872 746,873 744,873 744,874 742,874 742,875 741,875 741,876 738,876 738,878 736,878 736,879 734,879 734,880 731,880 731,881 730,881 730,882 728,882 728,883 727,883 727,884 724,884 724,885 723,885 723,886 720,886 720,888 717,888 717,889 716,889 716,890 713,890 713,891 712,891 712,892 709,892 709,893 708,893 708,894 705,894 705,895 704,895 704,896 702,896 702,897 700,897 700,898 698,898 698,899 697,899 697,900 694,900 694,901 693,901 693,902 690,902 690,903 688,903 688,904 686,904 686,905 684,905 684,906 681,906 681,907 680,907 680,908 677,908 677,909 676,909 676,910 673,910 673,911 672,911 672,912 668,912 668,913 667,913 667,914 664,914 664,915 662,915 662,916 659,916 659,917 658,917 658,918 654,918 654,919 652,919 652,920 649,920 649,921 648,921 648,922 644,922 644,923 643,923 643,924 639,924 639,925 638,925 638,926 634,926 634,927 633,927 633,928 629,928 629,929 623,929 623,930 622,930 622,929 617,929 617,928 614,928 614,926 612,926 612,924 608,924 608,925 607,925 607,926 605,926 605,927 603,927 603,928 598,928 598,929 594,929 594,930 584,930 584,932 582,932 582,940 580,940 580,942 577,942 577,943 576,943 576,944 573,944 573,945 571,945 571,946 566,946 566,947 565,947 565,948 555,948 555,949 550,949 550,950 529,950 529,951 517,951 517,952 495,952 448,952 448,951 434,951 434,950 413,950 413,949 409,949 409,948 400,948 400,947 397,947 397,946 387,946 387,945 384,945 384,944 378,944 378,943 376,943 376,942 372,942 372,941 371,941 371,940 368,940 368,939 367,939 367,938 365,938 365,937 364,937 364,936 363,936 363,935 362,935 362,934 360,934 360,932 359,932 359,931 358,931 358,928 357,928 357,927 356,927 356,925 355,925 355,924 353,924 353,923 352,923 352,920 349,920 349,919 348,919 348,918 344,918 344,916 341,916 341,915 330,915 330,916 328,916 328,918 326,918 326,923 325,923 325,924 324,924 324,925 322,925 322,926 318,926 318,925 316,925 316,924 314,924 314,922 304,922 304,921 302,921 302,920 296,920 296,919 295,919 295,918 292,918 292,917 290,917 290,916 286,916 286,915 285,915 285,914 280,914 280,913 279,913 279,912 275,912 275,911 274,911 274,910 270,910 270,908 267,908 267,907 266,907 266,906 263,906 263,905 262,905 262,904 259,904 259,903 258,903 258,902 256,902 256,901 255,901 255,900 252,900 252,899 250,899 250,898 248,898 248,896 244,896 244,894 241,894 241,893 240,893 240,892 238,892 238,890 236,890 236,889 235,889 235,888 232,888 232,886 229,886 229,885 228,885 228,884 226,884 226,882 224,882 224,881 223,881 223,880 220,880 220,879 219,879 219,878 217,878 217,877 216,877 216,876 214,876 214,875 213,875 213,874 212,874 212,873 211,873 211,872 208,872 208,870 206,870 206,869 205,869 205,868 203,868 203,867 202,867 202,866 201,866 201,865 200,865 200,864 198,864 198,863 197,863 197,862 196,862 196,861 195,861 195,860 192,860 192,858 190,858 190,857 189,857 189,856 187,856 187,855 186,855 186,854 185,854 185,853 184,853 184,852 182,852 182,850 180,850 180,848 177,848 177,847 176,847 176,846 175,846 175,845 174,845 174,844 173,844 173,843 172,843 172,842 170,842 170,840 168,840 168,838 166,838 166,836 164,836 164,834 162,834 162,832 160,832 160,830 158,830 158,829 157,829 157,828 156,828 156,827 155,827 155,826 153,826 153,824 152,824 152,823 151,823 151,822 149,822 149,821 148,821 148,820 147,820 147,819 146,819 146,818 144,818 144,816 142,816 142,815 141,815 141,814 140,814 140,813 139,813 139,812 138,812 138,811 137,811 137,810 135,810 135,809 134,809 134,807 133,807 133,806 131,806 131,805 130,805 130,804 129,804 129,803 128,803 128,801 127,801 127,800 126,800 126,799 125,799 125,798 124,798 124,796 122,796 122,794 120,794 120,791 119,791 119,790 118,790 118,788 116,788 116,786 114,786 114,784 113,784 113,783 112,783 112,780 111,780 111,779 110,779 110,777 109,777 109,776 108,776 108,774 106,774 106,772 104,772 104,770 103,770 103,769 102,769 102,768 100,768 100,765 99,765 99,764 98,764 98,763 97,763 97,762 96,762 96,760 94,760 94,758 93,758 93,757 92,757 92,755 91,755 91,754 90,754 90,752 89,752 89,751 88,751 88,749 87,749 87,748 86,748 86,746 85,746 85,745 84,745 84,743 83,743 83,742 82,742 82,740 81,740 81,739 80,739 80,736 78,736 78,733 77,733 77,732 76,732 76,730 75,730 75,729 74,729 74,725 73,725 73,724 72,724 72,722 71,722 71,720 70,720 70,718 68,718 68,716 67,716 67,715 66,715 66,712 65,712 65,711 64,711 64,709 63,709 63,708 62,708 62,706 61,706 61,705 60,705 60,703 59,703 59,702 58,702 58,698 56,698 56,695 55,695 55,694 54,694 54,691 53,691 53,690 52,690 52,687 51,687 51,686 50,686 50,684 49,684 49,683 48,683 48,680 46,680 46,675 45,675 45,673 44,673 44,668 43,668 43,667 42,667 42,662 41,662 41,660 40,660 40,652 39,652 39,650 38,650 38,646 37,646 37,645 36,645 36,643 35,643 35,642 34,642 34,640 33,640 33,638 32,638 32,634 31,634 31,632 30,632 30,630 28,630 28,618 27,618 27,612 26,612 26,608 27,608 27,600 26,600 26,585 25,585 25,584 24,584 24,576 22,576 22,570 21,570 21,568 20,568 20,560 19,560 19,559 20,559 20,546 19,546 19,545 18,545 18,544 17,544 17,543 16,543 16,540 15,540 15,538 13,538 13,537 12,537 12,532 11,532 11,530 10,530 10,524 9,524 9,522 8,522 8,516 7,516 7,512 6,512 6,502 5,502 5,496 4,496 4,459 5,459 5,453 6,453 6,440 7,440 7,438 8,438 8,432 9,432 9,424 10,424 10,405 11,405 11,400 12,400 12,385 13,385 13,384 14,384 14,374 15,374 15,371 16,371 16,363 17,363 17,360 18,360 18,353 19,353 19,352 20,352 20,347 21,347 21,345 22,345 22,341 23,341 23,339 24,339 24,334 25,334 25,332 26,332 26,328 27,328 27,327 28,327 28,323 29,323 29,322 30,322 30,320 31,320 31,318 32,318 32,315 33,315 33,314 34,314 34,312 35,312 35,310 36,310 36,306 37,306 37,304 38,304 38,300 39,300 39,298 40,298 40,295 41,295 41,294 42,294 42,290 43,290 43,288 44,288 44,286 45,286 45,284 46,284 46,282 47,282 47,280 48,280 48,276 50,276 50,272 51,272 51,271 52,271 52,268 53,268 53,267 54,267 54,264 55,264 55,262 56,262 56,260 57,260 57,259 58,259 58,256 59,256 59,255 60,255 60,252 61,252 61,250 62,250 62,248 64,248 64,246 66,246 66,244 67,244 67,243 68,243 68,240 69,240 69,239 70,239 70,236 71,236 71,235 72,235 72,232 73,232 73,231 74,231 74,229 75,229 75,228 76,228 76,226 77,226 77,225 78,225 78,224 79,224 79,222 80,222 80,219 81,219 81,218 82,218 82,216 83,216 83,215 84,215 84,213 85,213 85,212 86,212 86,210 87,210 87,209 88,209 88,208 89,208 89,206 90,206 90,204 92,204 92,201 93,201 93,200 94,200 94,198 96,198 96,196 98,196 98,194 99,194 99,193 100,193 100,191 101,191 101,190 102,190 102,188 104,188 104,186 106,186 106,184 107,184 107,183 108,183 108,182 109,182 109,181 110,181 110,180 111,180 111,179 112,179 112,177 113,177 113,176 114,176 114,175 115,175 115,174 116,174 116,173 117,173 117,172 118,172 118,171 119,171 119,170 120,170 120,169 121,169 121,168 122,168 122,166 124,166 124,164 126,164 126,162 128,162 128,160 130,160 130,158 132,158 132,156 134,156 134,154 136,154 136,152 138,152 138,150 139,150 139,148 141,148 141,146 144,146 144,144 146,144 146,142 148,142 148,140 149,140 149,139 150,139 150,138 151,138 151,137 152,137 152,136 153,136 153,135 154,135 154,134 155,134 155,132 157,132 157,131 158,131 158,130 159,130 159,129 160,129 160,128 161,128 161,127 162,127 162,126 163,126 163,125 164,125 164,124 165,124 165,123 166,123 166,122 167,122 167,121 168,121 168,120 169,120 169,119 170,119 170,118 172,118 172,116 174,116 174,114 176,114 176,112 178,112 178,111 179,111 179,110 180,110 180,109 181,109 181,108 183,108 183,107 184,107 184,106 186,106 186,104 188,104 188,103 189,103 189,102 190,102 190,101 191,101 191,100 193,100 193,99 194,99 194,98 196,98 196,96 198,96 198,94 201,94 201,93 202,93 202,92 204,92 204,91 205,91 205,90 207,90 207,89 208,89 208,88 210,88 210,87 211,87 211,86 212,86 212,85 213,85 213,84 216,84 216,82 218,82 218,81 219,81 219,80 222,80 222,79 223,79 223,78 224,78 224,77 225,77 225,76 228,76 228,74 230,74 230,73 232,73 232,72 234,72 234,71 235,71 235,70 237,70 237,69 238,69 238,68 240,68 240,67 241,67 241,66 244,66 244,65 245,65 245,64 249,64 249,63 250,63 250,62 252,62 252,61 253,61 253,60 256,60 256,58 262,58 262,59 263,59 263,60 265,60 265,61 266,61 266,62 267,62 267,63 268,63 268,64 269,64 269,65 270,65 270,66 271,66 271,67 272,67 272,68 273,68 273,69 274,69 274,70 276,70 276,72 284,72 284,70 285,70 285,69 286,69 286,68 288,68 288,50 289,50 289,48 292,48 292,46 294,46 294,45 296,45 296,44 298,44 298,43 299,43 299,42 302,42 302,41 303,41 303,40 305,40 305,39 306,39 306,38 310,38 310,36 314,36 314,35 315,35 315,34 318,34 318,33 320,33 320,32 323,32 323,31 325,31 325,30 328,30 328,29 330,29 330,28 334,28 334,27 335,27 335,26 340,26 340,25 341,25 341,24 346,24 346,23 348,23 348,22 352,22 352,21 354,21 354,20 360,20 360,19 361,19 361,18 367,18 367,17 368,17 368,16 376,16 376,15 378,15 378,14 384,14 384,13 388,13 388,12 394,12 394,11 398,11 398,10 411,10 411,9 416,9 416,8 424,8 424,7 432,7 432,6 444,6 444,5 454,5 454,4 457,4 457,5 466,5 466,6 481,6 481,5 z M 303,448 303,449 301,449 301,450 298,450 298,451 297,451 297,452 294,452 294,453 293,453 293,454 290,454 290,455 288,455 288,456 285,456 285,457 284,457 284,458 282,458 282,459 281,459 281,460 278,460 278,462 276,462 276,463 275,463 275,464 273,464 273,465 272,465 272,467 271,467 271,468 270,468 270,469 269,469 269,470 268,470 268,471 267,471 267,472 266,472 266,481 267,481 267,482 268,482 268,484 270,484 270,486 272,486 272,488 282,488 282,489 284,489 284,490 286,490 286,492 288,492 288,494 290,494 290,493 291,493 291,492 292,492 292,490 294,490 294,487 295,487 295,486 296,486 296,484 297,484 297,483 298,483 298,480 300,480 300,478 301,478 301,477 302,477 302,476 303,476 303,475 304,475 304,472 306,472 306,470 307,470 307,469 308,469 308,467 309,467 309,466 310,466 310,464 312,464 312,462 314,462 314,460 315,460 315,459 316,459 316,457 317,457 317,456 318,456 318,455 319,455 319,454 320,454 320,452 322,452 322,450 323,450 323,448 324,448 324,447 325,447 325,446 326,446 326,444 328,444 328,442 329,442 329,441 330,441 330,439 331,439 331,438 326,438 326,440 323,440 323,441 322,441 322,442 320,442 320,443 318,443 318,444 314,444 314,445 312,445 312,446 308,446 308,447 307,447 307,448 z M 155,435 154,435 154,432 153,432 153,430 152,430 152,420 151,420 151,419 152,419 152,409 153,409 153,407 154,407 154,403 155,403 155,402 156,402 156,400 158,400 158,399 160,399 160,398 167,398 181,398 192,398 192,397 196,397 196,396 202,396 202,395 204,395 204,394 211,394 211,393 213,393 213,392 219,392 219,391 222,391 222,390 228,390 228,389 232,389 232,388 238,388 238,387 240,387 240,386 244,386 244,385 247,385 247,384 251,384 251,385 252,385 252,386 254,386 254,387 255,387 255,388 256,388 256,390 258,390 258,396 256,396 256,398 254,398 254,399 253,399 253,400 244,400 244,402 237,402 237,403 235,403 235,404 230,404 230,405 229,405 229,406 224,406 224,407 221,407 221,408 214,408 214,409 211,409 211,410 207,410 203,410 203,411 200,411 200,412 192,412 192,413 189,413 189,414 180,414 173,414 173,416 172,416 172,418 173,418 173,420 174,420 174,422 176,422 176,425 177,425 177,426 178,426 178,428 180,428 180,429 181,429 181,430 182,430 182,431 183,431 183,432 185,432 185,433 186,433 186,434 188,434 188,435 189,435 189,436 191,436 191,437 192,437 192,438 196,438 196,440 200,440 200,441 202,441 202,442 206,442 206,443 208,443 208,444 211,444 211,445 213,445 213,446 227,446 282,446 282,445 283,445 283,444 288,444 288,443 290,443 290,442 294,442 294,441 296,441 296,440 299,440 299,439 300,439 300,438 304,438 304,437 306,437 306,436 309,436 309,435 310,435 310,434 314,434 314,433 315,433 315,432 318,432 318,431 320,431 320,430 322,430 322,428 324,428 324,427 326,427 326,426 328,426 328,425 329,425 329,424 332,424 332,422 335,422 335,421 336,421 336,420 338,420 338,418 340,418 340,416 344,416 344,414 346,414 346,413 347,413 347,412 348,412 348,411 349,411 349,410 351,410 351,409 352,409 352,408 353,408 353,407 354,407 354,406 356,406 356,404 358,404 358,402 360,402 360,400 363,400 363,399 364,399 364,398 365,398 365,397 366,397 366,396 368,396 368,394 370,394 370,392 372,392 372,390 374,390 374,389 375,389 375,388 376,388 376,387 377,387 377,386 379,386 379,385 380,385 380,384 382,384 382,383 384,383 384,382 385,382 385,381 386,381 386,380 387,380 387,379 388,379 388,378 389,378 389,377 390,377 390,375 391,375 391,374 393,374 393,373 394,373 394,372 395,372 395,371 396,371 396,370 397,370 397,369 398,369 398,368 400,368 400,367 402,367 402,366 404,366 404,364 412,364 412,366 413,366 413,367 414,367 414,369 415,369 415,371 414,371 414,374 412,374 412,376 410,376 410,377 409,377 409,378 406,378 406,379 405,379 405,380 404,380 404,381 403,381 403,382 401,382 401,383 400,383 400,384 398,384 398,386 396,386 396,387 395,387 395,388 393,388 393,389 392,389 392,390 390,390 390,392 389,392 389,393 388,393 388,394 387,394 387,395 386,395 386,396 385,396 385,397 384,397 384,399 383,399 383,400 380,400 380,402 378,402 378,404 376,404 376,406 374,406 374,408 372,408 372,410 371,410 371,412 369,412 369,413 368,413 368,415 367,415 367,416 365,416 365,417 364,417 364,420 362,420 362,422 360,422 360,424 358,424 358,425 357,425 357,426 356,426 356,429 355,429 355,430 354,430 354,431 353,431 353,432 352,432 352,434 350,434 350,436 348,436 348,439 347,439 347,440 346,440 346,442 344,442 344,444 342,444 342,447 341,447 341,448 340,448 340,450 338,450 338,452 337,452 337,453 336,453 336,455 335,455 335,456 334,456 334,458 333,458 333,459 332,459 332,460 331,460 331,462 330,462 330,464 329,464 329,465 328,465 328,468 326,468 326,470 325,470 325,472 324,472 324,474 322,474 322,476 321,476 321,477 320,477 320,480 319,480 319,481 318,481 318,484 316,484 316,487 315,487 315,488 314,488 314,491 313,491 313,492 312,492 312,495 311,495 311,496 310,496 310,498 309,498 309,500 308,500 308,502 307,502 307,503 306,503 306,506 305,506 305,507 304,507 304,510 303,510 303,512 302,512 302,515 301,515 301,516 300,516 300,519 299,519 299,520 298,520 298,524 297,524 297,526 296,526 296,529 295,529 295,530 294,530 294,534 293,534 293,536 292,536 292,539 291,539 291,540 290,540 290,544 289,544 289,546 288,546 288,551 287,551 287,552 286,552 286,558 285,558 285,560 284,560 284,565 283,565 283,566 282,566 282,573 281,573 281,576 280,576 280,581 279,581 279,584 278,584 278,590 277,590 277,592 276,592 276,600 275,600 275,604 274,604 274,616 273,616 273,621 272,621 272,672 273,672 273,679 274,679 274,692 275,692 275,696 276,696 276,704 277,704 277,706 278,706 278,712 279,712 279,714 280,714 280,720 281,720 281,722 282,722 282,728 283,728 283,729 284,729 284,732 286,732 286,735 287,735 287,736 288,736 288,738 289,738 289,739 290,739 290,741 291,741 291,742 292,742 292,744 297,744 297,742 298,742 298,737 299,737 299,736 300,736 300,731 301,731 301,730 302,730 302,726 303,726 303,725 304,725 304,720 306,720 306,716 307,716 307,715 308,715 308,712 309,712 309,711 310,711 310,708 311,708 311,707 312,707 312,704 313,704 313,703 314,703 314,700 315,700 315,699 316,699 316,696 318,696 318,693 319,693 319,692 320,692 320,689 321,689 321,688 322,688 322,680 321,680 321,679 320,679 320,674 319,674 319,672 318,672 318,664 317,664 317,656 316,656 316,640 317,640 317,630 318,630 318,616 319,616 319,614 320,614 320,609 321,609 321,608 322,608 322,606 323,606 323,605 324,605 324,602 325,602 325,601 326,601 326,599 327,599 327,598 330,598 330,597 334,597 334,598 336,598 336,600 337,600 337,606 336,606 336,614 335,614 335,618 334,618 334,632 333,632 333,641 334,641 334,664 335,664 335,667 336,667 336,673 337,673 337,674 338,674 338,678 339,678 339,680 340,680 340,682 341,682 341,683 342,683 342,686 344,686 344,688 346,688 346,690 347,690 347,691 348,691 348,692 349,692 349,693 350,693 350,694 352,694 352,695 354,695 354,688 353,688 353,676 354,676 354,646 355,646 355,640 356,640 356,630 357,630 357,627 358,627 358,620 359,620 359,618 360,618 360,613 361,613 361,611 362,611 362,605 363,605 363,603 364,603 364,598 365,598 365,597 366,597 366,592 367,592 367,591 368,591 368,586 370,586 370,582 371,582 371,580 372,580 372,576 373,576 373,575 374,575 374,572 375,572 375,570 376,570 376,567 377,567 377,566 378,566 378,564 379,564 379,562 380,562 380,560 381,560 381,558 382,558 382,557 383,557 383,556 384,556 384,553 385,553 385,551 386,551 386,544 387,544 387,541 386,541 386,536 387,536 387,532 388,532 388,524 389,524 389,523 390,523 390,518 391,518 391,517 392,517 392,512 393,512 393,511 394,511 394,507 395,507 395,506 396,506 396,502 397,502 397,501 398,501 398,498 399,498 399,497 400,497 400,493 401,493 401,492 402,492 402,490 403,490 403,488 404,488 404,486 406,486 406,484 408,484 408,480 410,480 410,475 411,475 411,470 410,470 410,468 408,468 408,467 406,467 406,466 403,466 403,465 402,465 402,464 394,464 394,463 389,463 389,462 377,462 377,461 375,461 375,460 370,460 370,459 368,459 368,458 365,458 365,457 364,457 364,456 360,456 360,454 358,454 358,453 357,453 357,452 356,452 356,446 396,446 396,445 398,445 398,444 408,444 408,443 411,443 411,442 422,442 422,441 425,441 425,440 432,440 432,438 438,438 438,437 440,437 440,436 446,436 446,435 448,435 448,434 456,434 456,433 460,433 460,432 470,432 470,431 478,431 478,432 480,432 480,440 482,440 482,442 484,442 484,440 485,440 485,437 486,437 486,428 488,428 488,426 489,426 489,425 490,425 490,422 491,422 491,421 492,421 492,420 494,420 494,419 495,419 495,418 498,418 498,417 500,417 500,416 505,416 505,415 506,415 506,414 508,414 508,413 509,413 509,412 512,412 512,411 514,411 514,410 516,410 516,409 517,409 517,408 521,408 521,407 522,407 522,406 524,406 524,405 525,405 525,404 528,404 528,403 529,403 529,402 532,402 532,400 535,400 535,399 536,399 536,398 538,398 538,397 539,397 539,396 542,396 542,395 544,395 544,394 546,394 546,393 547,393 547,392 549,392 549,391 550,391 550,390 552,390 552,389 553,389 553,388 556,388 556,386 558,386 558,385 559,385 559,384 561,384 561,383 562,383 562,382 564,382 564,380 566,380 566,379 567,379 567,378 569,378 569,377 570,377 570,376 572,376 572,374 574,374 574,373 575,373 575,372 576,372 576,371 577,371 577,370 578,370 578,369 579,369 579,368 580,368 580,367 581,367 581,366 583,366 583,365 584,365 584,363 586,363 586,362 587,362 587,361 588,361 588,360 590,360 590,358 592,358 592,356 594,356 594,355 595,355 595,354 596,354 596,353 597,353 597,352 600,352 600,350 602,350 602,348 604,348 604,346 606,346 606,344 608,344 608,342 610,342 610,340 612,340 612,338 614,338 614,336 616,336 616,334 618,334 618,332 620,332 620,329 621,329 621,328 623,328 623,327 624,327 624,325 625,325 625,324 626,324 626,322 628,322 628,320 629,320 629,319 630,319 630,317 631,317 631,316 632,316 632,314 634,314 634,312 635,312 635,310 636,310 636,308 638,308 638,305 639,305 639,304 640,304 640,302 642,302 642,301 644,301 644,300 648,300 648,302 650,302 650,312 649,312 649,314 648,314 648,320 647,320 647,322 646,322 646,327 645,327 645,329 644,329 644,333 643,333 643,335 642,335 642,338 641,338 641,340 640,340 640,344 639,344 639,346 638,346 638,348 637,348 637,350 636,350 636,352 635,352 635,354 634,354 634,357 633,357 633,358 632,358 632,362 631,362 631,363 630,363 630,366 628,366 628,369 627,369 627,370 626,370 626,372 624,372 624,374 623,374 623,375 622,375 622,377 621,377 621,378 620,378 620,380 619,380 619,381 618,381 618,384 616,384 616,386 615,386 615,387 614,387 614,389 613,389 613,390 612,390 612,391 611,391 611,392 610,392 610,394 608,394 608,396 607,396 607,397 606,397 606,398 605,398 605,399 604,399 604,401 603,401 603,402 602,402 602,404 600,404 600,406 598,406 598,408 596,408 596,410 594,410 594,412 592,412 592,415 591,415 591,416 588,416 588,418 586,418 586,419 585,419 585,420 583,420 583,421 582,421 582,422 581,422 581,423 580,423 580,424 578,424 578,426 576,426 576,427 575,427 575,428 572,428 572,429 571,429 571,430 570,430 570,431 568,431 568,432 566,432 566,433 565,433 565,434 562,434 562,436 559,436 559,437 558,437 558,438 556,438 556,439 554,439 554,440 552,440 552,441 551,441 551,442 548,442 548,444 544,444 544,446 541,446 541,447 540,447 540,448 537,448 537,449 536,449 536,450 534,450 534,451 532,451 532,452 528,452 528,454 524,454 524,456 521,456 521,457 520,457 520,458 518,458 518,459 517,459 517,460 515,460 515,461 514,461 514,462 513,462 513,463 512,463 512,478 514,478 514,479 515,479 515,480 518,480 518,482 519,482 519,483 520,483 520,486 522,486 522,496 518,496 518,503 519,503 519,505 520,505 520,512 521,512 521,514 522,514 522,519 523,519 523,520 524,520 524,524 525,524 525,526 526,526 526,530 527,530 527,532 528,532 528,535 529,535 529,536 530,536 530,538 531,538 531,540 532,540 532,543 533,543 533,544 534,544 534,547 535,547 535,548 536,548 536,550 537,550 537,552 538,552 538,554 539,554 539,555 540,555 540,557 541,557 541,558 542,558 542,560 543,560 543,561 544,561 544,564 545,564 545,565 546,565 546,568 548,568 548,570 549,570 549,571 550,571 550,573 551,573 551,574 552,574 552,576 553,576 553,577 554,577 554,579 555,579 555,580 556,580 556,582 557,582 557,583 558,583 558,584 559,584 559,586 560,586 560,588 562,588 562,590 563,590 563,591 564,591 564,593 565,593 565,594 566,594 566,596 568,596 568,598 569,598 569,599 570,599 570,601 571,601 571,602 572,602 572,604 574,604 574,606 575,606 575,607 576,607 576,609 577,609 577,610 578,610 578,611 579,611 579,612 580,612 580,613 581,613 581,614 582,614 582,615 583,615 583,616 585,616 585,617 586,617 586,618 588,618 588,617 590,617 590,616 591,616 591,612 592,612 592,611 591,611 591,608 592,608 592,589 592,552 594,552 594,549 595,549 595,518 596,518 596,508 597,508 597,505 598,505 598,500 599,500 599,497 600,497 600,491 601,491 601,490 602,490 602,485 603,485 603,483 604,483 604,478 605,478 605,476 606,476 606,474 607,474 607,472 608,472 608,470 610,470 610,468 612,468 612,467 616,467 616,468 618,468 618,470 619,470 619,472 620,472 620,475 619,475 619,476 618,476 618,488 617,488 617,490 616,490 616,499 615,499 615,502 614,502 614,508 613,508 613,512 612,512 612,519 611,519 611,523 610,523 610,541 609,541 609,544 608,544 608,572 609,572 609,573 608,573 608,578 609,578 609,579 610,579 610,578 611,578 611,577 612,577 612,576 614,576 614,574 616,574 616,572 618,572 618,570 620,570 620,568 622,568 622,566 624,566 624,564 625,564 625,563 626,563 626,562 627,562 627,561 628,561 628,560 629,560 629,559 630,559 630,557 631,557 631,556 632,556 632,554 634,554 634,552 635,552 635,551 636,551 636,549 637,549 637,548 638,548 638,547 639,547 639,546 640,546 640,544 642,544 642,541 643,541 643,540 644,540 644,539 645,539 645,538 646,538 646,536 647,536 647,535 648,535 648,532 650,532 650,529 651,529 651,528 652,528 652,526 653,526 653,524 654,524 654,522 656,522 656,519 657,519 657,518 658,518 658,516 660,516 660,513 661,513 661,512 662,512 662,510 663,510 663,509 664,509 664,506 666,506 666,502 668,502 668,499 669,499 669,498 670,498 670,496 671,496 671,494 672,494 672,491 673,491 673,490 674,490 674,487 675,487 675,485 676,485 676,482 677,482 677,481 678,481 678,476 679,476 679,474 680,474 680,469 681,469 681,466 682,466 682,461 683,461 683,460 684,460 684,457 685,457 685,456 686,456 686,454 687,454 687,453 688,453 688,451 689,451 689,450 690,450 690,448 691,448 691,444 690,444 690,438 689,438 689,433 690,433 690,432 689,432 689,430 688,430 688,424 689,424 689,416 690,416 690,412 691,412 691,411 695,411 695,412 698,412 698,414 700,414 700,416 702,416 702,429 703,429 703,440 702,440 702,454 701,454 701,459 700,459 700,464 699,464 699,467 698,467 698,472 697,472 697,474 696,474 696,480 694,480 694,484 693,484 693,486 692,486 692,490 691,490 691,491 690,491 690,494 689,494 689,496 688,496 688,501 689,501 689,502 692,502 692,503 694,503 694,504 698,504 698,505 700,505 700,506 706,506 706,507 708,507 708,508 712,508 712,509 714,509 714,510 717,510 717,511 718,511 718,512 722,512 722,514 725,514 725,515 726,515 726,516 729,516 729,517 730,517 730,518 732,518 732,520 734,520 734,521 735,521 735,522 736,522 736,523 737,523 737,524 739,524 739,525 740,525 740,526 741,526 741,527 742,527 742,528 744,528 744,530 746,530 746,532 748,532 748,534 749,534 749,535 750,535 750,536 751,536 751,537 752,537 752,539 753,539 753,540 755,540 755,541 756,541 756,544 758,544 758,546 760,546 760,548 761,548 761,549 762,549 762,551 763,551 763,552 764,552 764,554 765,554 765,556 766,556 766,559 767,559 767,560 768,560 768,565 767,565 767,567 766,567 766,568 763,568 763,567 760,567 760,566 757,566 757,565 756,565 756,564 755,564 755,563 754,563 754,562 752,562 752,560 750,560 750,559 749,559 749,558 748,558 748,557 747,557 747,556 745,556 745,555 744,555 744,554 742,554 742,553 741,553 741,552 739,552 739,551 738,551 738,550 736,550 736,549 735,549 735,548 732,548 732,546 730,546 730,545 729,545 729,544 726,544 726,542 724,542 724,541 723,541 723,540 720,540 720,539 719,539 719,538 716,538 716,537 715,537 715,536 712,536 712,535 711,535 711,534 708,534 708,533 705,533 705,535 706,535 706,539 707,539 707,541 708,541 708,546 710,546 710,550 711,550 711,552 712,552 712,556 713,556 713,557 714,557 714,561 715,561 715,562 716,562 716,565 717,565 717,566 718,566 718,570 719,570 719,571 720,571 720,574 721,574 721,576 722,576 722,578 723,578 723,580 724,580 724,582 725,582 725,584 726,584 726,586 727,586 727,587 728,587 728,590 729,590 729,592 730,592 730,594 731,594 731,595 732,595 732,597 733,597 733,598 734,598 734,600 735,600 735,602 736,602 736,604 738,604 738,607 739,607 739,608 740,608 740,610 742,610 742,613 743,613 743,614 744,614 744,616 746,616 746,619 747,619 747,620 748,620 748,621 749,621 749,622 750,622 750,624 752,624 752,627 753,627 753,628 754,628 754,630 756,630 756,632 757,632 757,633 758,633 758,635 759,635 759,636 760,636 760,638 762,638 762,640 764,640 764,642 765,642 765,643 766,643 766,644 768,644 768,646 769,646 769,647 770,647 770,648 771,648 771,649 772,649 772,650 774,650 774,651 775,651 775,652 777,652 777,653 778,653 778,652 780,652 780,650 782,650 782,647 783,647 783,646 784,646 784,644 785,644 785,643 786,643 786,640 787,640 787,638 788,638 788,634 789,634 789,632 790,632 790,628 791,628 791,626 792,626 792,621 793,621 793,618 794,618 794,613 795,613 795,610 796,610 796,605 797,605 797,602 798,602 798,595 799,595 799,592 800,592 800,582 801,582 801,578 802,578 802,568 803,568 803,564 804,564 804,550 805,550 805,546 806,546 806,513 807,513 807,512 810,512 810,494 809,494 809,492 808,492 808,488 807,488 807,484 806,484 806,468 807,468 807,467 808,467 808,466 810,466 810,467 811,467 811,468 813,468 813,470 814,470 814,472 815,472 815,474 816,474 816,483 817,483 817,485 818,485 818,488 819,488 819,508 820,508 820,528 822,528 822,536 823,536 823,544 822,544 822,557 821,557 821,560 820,560 820,568 819,568 819,571 818,571 818,576 817,576 817,581 816,581 816,588 815,588 815,600 814,600 814,608 813,608 813,614 812,614 812,624 811,624 811,627 810,627 810,634 809,634 809,636 808,636 808,640 807,640 807,643 806,643 806,648 805,648 805,650 804,650 804,656 803,656 803,657 802,657 802,662 801,662 801,664 800,664 800,673 799,673 799,676 798,676 798,681 797,681 797,683 796,683 796,688 795,688 795,689 794,689 794,693 793,693 793,694 792,694 792,698 791,698 791,699 790,699 790,703 789,703 789,704 788,704 788,707 787,707 787,708 786,708 786,711 785,711 785,713 784,713 784,716 783,716 783,717 782,717 782,720 781,720 781,722 780,722 780,724 779,724 779,725 778,725 778,728 777,728 777,730 776,730 776,732 775,732 775,733 774,733 774,736 772,736 772,739 771,739 771,740 770,740 770,742 769,742 769,743 768,743 768,746 767,746 767,747 766,747 766,749 765,749 765,750 764,750 764,752 763,752 763,754 762,754 762,756 761,756 761,757 760,757 760,760 758,760 758,762 756,762 756,765 755,765 755,766 754,766 754,768 752,768 752,770 751,770 751,771 750,771 750,773 749,773 749,774 748,774 748,776 746,776 746,778 744,778 744,780 742,780 742,782 741,782 741,783 740,783 740,785 739,785 739,786 737,786 737,787 736,787 736,788 735,788 735,789 734,789 734,791 733,791 733,792 732,792 732,794 730,794 730,796 728,796 728,798 726,798 726,800 724,800 724,802 722,802 722,804 720,804 720,806 719,806 719,807 718,807 718,808 716,808 716,810 715,810 715,811 714,811 714,813 713,813 713,815 714,815 714,816 717,816 717,815 718,815 718,814 722,814 722,813 724,813 724,812 726,812 726,811 728,811 728,810 731,810 731,809 732,809 732,808 734,808 734,807 736,807 736,806 738,806 738,804 741,804 741,803 742,803 742,802 744,802 744,800 747,800 747,799 748,799 748,797 750,797 750,796 752,796 752,794 754,794 754,793 755,793 755,792 756,792 756,791 757,791 757,790 760,790 760,788 762,788 762,786 764,786 764,784 766,784 766,783 768,783 768,781 769,781 769,780 770,780 770,778 772,778 772,777 773,777 773,776 774,776 774,774 776,774 776,772 778,772 778,770 780,770 780,768 782,768 782,767 783,767 783,766 784,766 784,764 785,764 785,763 786,763 786,761 787,761 787,760 788,760 788,758 790,758 790,756 791,756 791,754 792,754 792,753 793,753 793,752 794,752 794,750 796,750 796,748 798,748 798,746 800,746 800,744 804,744 804,746 805,746 805,754 804,754 804,758 803,758 803,759 802,759 802,762 800,762 800,764 799,764 799,765 798,765 798,768 796,768 796,770 795,770 795,771 794,771 794,772 793,772 793,773 792,773 792,775 791,775 791,776 790,776 790,778 788,778 788,780 787,780 787,781 786,781 786,782 785,782 785,783 784,783 784,786 782,786 782,788 781,788 781,789 780,789 780,790 781,790 781,791 782,791 782,792 785,792 785,791 786,791 786,790 788,790 788,789 789,789 789,788 792,788 792,786 794,786 794,784 796,784 796,782 797,782 797,781 798,781 798,780 799,780 799,779 800,779 800,777 801,777 801,776 802,776 802,774 803,774 803,773 804,773 804,772 805,772 805,771 806,771 806,770 807,770 807,769 808,769 808,768 809,768 809,767 810,767 810,765 811,765 811,764 813,764 813,763 814,763 814,762 815,762 815,761 816,761 816,758 818,758 818,756 820,756 820,754 821,754 821,753 822,753 822,752 824,752 824,749 825,749 825,748 826,748 826,747 827,747 827,746 828,746 828,744 830,744 830,742 832,742 832,740 833,740 833,739 834,739 834,738 835,738 835,737 836,737 836,735 837,735 837,734 838,734 838,732 840,732 840,730 841,730 841,729 842,729 842,727 843,727 843,726 844,726 844,724 846,724 846,722 848,722 848,720 849,720 849,719 850,719 850,716 852,716 852,714 853,714 853,713 854,713 854,710 855,710 855,708 856,708 856,706 857,706 857,704 858,704 858,702 874,702 874,700 875,700 875,698 876,698 876,690 878,690 878,685 879,685 879,683 880,683 880,678 881,678 881,676 882,676 882,671 883,671 883,669 884,669 884,665 885,665 885,664 886,664 886,658 887,658 887,645 888,645 888,640 889,640 889,639 890,639 890,635 891,635 891,634 892,634 892,631 893,631 893,630 894,630 894,627 895,627 895,625 896,625 896,620 897,620 897,618 898,618 898,613 899,613 899,610 900,610 900,605 901,605 901,602 902,602 902,596 903,596 903,594 904,594 904,585 905,585 905,581 906,581 906,574 907,574 907,571 908,571 908,567 909,567 909,565 910,565 910,560 911,560 911,557 912,557 912,549 913,549 913,544 914,544 914,464 913,464 913,461 912,461 912,454 911,454 911,453 910,453 910,450 909,450 909,448 908,448 908,443 907,443 907,442 906,442 906,438 905,438 905,436 904,436 904,429 903,429 903,428 902,428 902,412 903,412 903,411 904,411 904,409 905,409 905,408 907,408 907,407 908,407 908,402 907,402 907,401 906,401 906,390 905,390 905,386 904,386 904,379 903,379 903,376 902,376 902,370 901,370 901,366 900,366 900,360 899,360 899,358 898,358 898,352 896,352 896,346 895,346 895,345 894,345 894,340 893,340 893,338 892,338 892,333 891,333 891,331 890,331 890,326 888,326 888,322 887,322 887,320 886,320 886,317 885,317 885,316 884,316 884,314 883,314 883,312 882,312 882,308 880,308 880,304 879,304 879,303 878,303 878,300 877,300 877,298 876,298 876,295 875,295 875,294 874,294 874,292 873,292 873,290 872,290 872,288 871,288 871,287 870,287 870,284 869,284 869,282 868,282 868,280 867,280 867,279 866,279 866,276 865,276 865,275 864,275 864,272 862,272 862,270 861,270 861,269 860,269 860,266 859,266 859,265 858,265 858,263 857,263 857,262 856,262 856,260 855,260 855,259 854,259 854,257 853,257 853,256 852,256 852,254 851,254 851,253 850,253 850,252 849,252 849,250 848,250 848,248 846,248 846,247 844,247 844,246 833,246 833,245 830,245 830,244 826,244 826,243 824,243 824,242 820,242 820,240 816,240 816,239 814,239 814,262 813,262 813,264 812,264 812,269 811,269 811,270 810,270 810,274 809,274 809,276 808,276 808,278 807,278 807,280 806,280 806,282 804,282 804,284 802,284 802,285 801,285 801,286 800,286 800,287 798,287 798,288 795,288 795,289 794,289 794,290 788,290 788,289 787,289 787,288 785,288 785,286 784,286 784,284 783,284 783,283 782,283 782,282 780,282 780,281 778,281 778,282 776,282 776,283 775,283 775,284 774,284 774,285 773,285 773,286 772,286 772,287 771,287 771,288 770,288 770,289 769,289 769,290 766,290 766,291 763,291 763,290 760,290 760,289 759,289 759,288 757,288 757,287 756,287 756,284 754,284 754,282 753,282 753,281 752,281 752,278 751,278 751,277 750,277 750,274 749,274 749,272 748,272 748,266 747,266 747,264 746,264 746,252 745,252 745,249 746,249 746,240 747,240 747,238 748,238 748,233 747,233 747,234 746,234 746,236 744,236 744,237 742,237 742,239 741,239 741,240 738,240 738,241 737,241 737,242 736,242 736,243 734,243 734,244 730,244 730,245 729,245 729,246 701,246 701,245 700,245 700,244 697,244 697,243 696,243 696,242 693,242 693,241 692,241 692,240 690,240 690,239 688,239 688,237 687,237 687,236 686,236 686,228 688,228 688,226 689,226 689,224 691,224 691,223 692,223 692,221 693,221 693,220 695,220 695,219 696,219 696,218 698,218 698,216 700,216 700,215 701,215 701,214 702,214 702,213 703,213 703,212 702,212 702,211 697,211 697,212 694,212 694,213 690,213 690,214 680,214 680,205 681,205 681,203 682,203 682,199 683,199 683,198 684,198 684,196 685,196 685,195 686,195 686,192 688,192 688,189 689,189 689,188 690,188 690,187 691,187 691,186 693,186 693,185 694,185 694,184 695,184 695,183 696,183 696,182 698,182 698,181 699,181 699,180 701,180 701,179 702,179 702,178 704,178 704,176 708,176 708,175 710,175 710,174 718,174 718,173 719,173 719,172 718,172 718,170 716,170 716,169 715,169 715,168 714,168 714,166 712,166 712,164 710,164 710,162 709,162 709,160 708,160 708,157 707,157 707,156 706,156 706,154 705,154 705,153 704,153 704,148 703,148 703,146 702,146 702,142 701,142 701,139 700,139 700,123 701,123 701,121 702,121 702,119 703,119 703,118 704,118 704,117 707,117 707,118 709,118 709,119 710,119 710,120 712,120 712,121 713,121 713,122 717,122 717,120 716,120 716,117 715,117 715,116 714,116 714,114 712,114 712,112 710,112 710,111 709,111 709,110 708,110 708,109 707,109 707,108 704,108 704,106 700,106 700,104 697,104 697,103 696,103 696,102 694,102 694,101 692,101 692,100 691,100 691,99 690,99 690,98 688,98 688,97 687,97 687,96 685,96 685,95 684,95 684,94 681,94 681,93 680,93 680,92 678,92 678,91 677,91 677,90 674,90 674,89 672,89 672,88 670,88 670,87 669,87 669,86 666,86 666,85 665,85 665,84 662,84 662,83 661,83 661,82 658,82 658,80 656,80 656,79 654,79 654,78 651,78 651,77 650,77 650,76 646,76 646,74 643,74 643,73 642,73 642,72 638,72 638,71 637,71 637,70 633,70 633,69 632,69 632,68 628,68 628,67 627,67 627,66 622,66 622,64 619,64 619,63 618,63 618,62 614,62 614,61 613,61 613,60 610,60 610,59 608,59 608,58 603,58 603,57 600,57 600,56 594,56 594,55 591,55 591,54 585,54 585,53 583,53 583,52 578,52 578,51 576,51 576,50 566,50 566,49 562,49 562,48 531,48 531,47 524,47 524,46 493,46 493,45 469,45 469,46 443,46 443,47 437,47 437,48 426,48 426,49 424,49 424,50 412,50 412,51 410,51 410,52 402,52 402,53 398,53 398,54 390,54 390,55 388,55 388,56 380,56 380,57 378,57 378,58 372,58 372,59 371,59 371,60 366,60 366,61 364,61 364,62 360,62 360,63 358,63 358,64 352,64 352,65 351,65 351,66 346,66 346,67 344,67 344,68 340,68 340,69 338,69 338,70 333,70 333,71 332,71 332,72 328,72 328,73 326,73 326,74 322,74 322,75 321,75 321,76 317,76 317,77 315,77 315,78 312,78 312,79 311,79 311,80 307,80 307,81 304,81 304,82 302,82 302,83 300,83 300,84 297,84 297,85 296,85 296,86 292,86 292,88 288,88 288,89 287,89 287,90 284,90 284,91 282,91 282,92 280,92 280,93 278,93 278,94 276,94 276,95 275,95 275,96 272,96 272,97 271,97 271,98 268,98 268,99 267,99 267,100 264,100 264,102 262,102 262,103 260,103 260,104 258,104 258,105 257,105 257,106 254,106 254,107 253,107 253,108 251,108 251,109 250,109 250,110 248,110 248,111 247,111 247,112 245,112 245,113 244,113 244,114 241,114 241,115 240,115 240,116 238,116 238,118 235,118 235,119 234,119 234,120 232,120 232,122 229,122 229,123 228,123 228,124 227,124 227,125 226,125 226,126 224,126 224,128 221,128 221,129 220,129 220,130 219,130 219,131 218,131 218,132 216,132 216,134 214,134 214,136 211,136 211,137 210,137 210,138 209,138 209,139 208,139 208,140 207,140 207,141 206,141 206,142 204,142 204,144 202,144 202,146 200,146 200,148 198,148 198,150 196,150 196,152 194,152 194,154 192,154 192,156 188,156 188,158 186,158 186,160 184,160 184,162 182,162 182,164 180,164 180,166 178,166 178,168 176,168 176,170 175,170 175,171 174,171 174,172 172,172 172,174 171,174 171,175 170,175 170,176 168,176 168,178 166,178 166,180 164,180 164,182 163,182 163,183 162,183 162,184 160,184 160,187 159,187 159,188 157,188 157,189 156,189 156,191 155,191 155,192 153,192 153,193 152,193 152,195 151,195 151,196 150,196 150,197 149,197 149,198 148,198 148,199 147,199 147,200 146,200 146,201 145,201 145,202 144,202 144,204 142,204 142,206 140,206 140,208 138,208 138,210 136,210 136,212 134,212 134,214 133,214 133,215 132,215 132,216 131,216 131,217 130,217 130,218 129,218 129,219 128,219 128,220 124,220 124,219 123,219 123,220 120,220 120,222 118,222 118,224 117,224 117,225 116,225 116,234 115,234 115,235 114,235 114,236 113,236 113,237 112,237 112,241 111,241 111,242 110,242 110,244 108,244 108,246 106,246 106,249 105,249 105,250 104,250 104,252 103,252 103,253 102,253 102,254 101,254 101,256 100,256 100,258 99,258 99,260 98,260 98,262 97,262 97,263 96,263 96,266 95,266 95,268 94,268 94,270 93,270 93,272 92,272 92,275 91,275 91,276 90,276 90,280 89,280 89,281 88,281 88,284 87,284 87,286 86,286 86,290 85,290 85,291 84,291 84,293 83,293 83,294 82,294 82,298 80,298 80,303 79,303 79,304 78,304 78,308 77,308 77,310 76,310 76,313 75,313 75,314 74,314 74,320 73,320 73,326 72,326 72,336 71,336 71,339 70,339 70,344 69,344 69,346 68,346 68,351 67,351 67,353 66,353 66,358 65,358 65,360 64,360 64,368 63,368 63,371 62,371 62,378 61,378 61,380 60,380 60,386 59,386 59,388 58,388 58,394 57,394 57,396 56,396 56,400 55,400 55,403 54,403 54,408 53,408 53,414 52,414 52,425 51,425 51,432 50,432 50,464 49,464 49,465 50,465 50,473 51,473 51,474 52,474 52,476 54,476 54,477 56,477 56,476 58,476 58,474 60,474 60,472 62,472 62,470 63,470 63,469 64,469 64,468 65,468 65,467 66,467 66,466 68,466 68,464 74,464 74,466 76,466 76,468 77,468 77,469 78,469 78,471 79,471 79,472 80,472 80,474 81,474 81,476 82,476 82,477 83,477 83,478 84,478 84,481 85,481 85,482 86,482 86,486 88,486 88,492 89,492 89,494 90,494 90,506 89,506 89,510 88,510 88,514 86,514 86,518 85,518 85,519 84,519 84,522 83,522 83,525 82,525 82,526 84,526 84,525 86,525 86,524 87,524 87,523 88,523 88,522 90,522 90,521 91,521 91,520 94,520 94,519 95,519 95,518 99,518 99,517 101,517 101,516 105,516 105,515 106,515 106,514 114,514 114,513 116,513 116,512 130,512 130,514 135,514 135,515 136,515 136,516 139,516 139,517 140,517 140,518 142,518 142,520 144,520 144,522 146,522 146,528 145,528 145,531 144,531 144,536 142,536 142,540 140,540 140,543 139,543 139,544 138,544 138,546 136,546 136,548 135,548 135,549 136,549 136,550 142,550 142,551 144,551 144,552 148,552 148,554 150,554 150,555 152,555 152,565 151,565 151,566 150,566 150,568 148,568 148,570 147,570 147,571 146,571 146,572 145,572 145,573 144,573 144,575 143,575 143,576 140,576 140,578 138,578 138,579 137,579 137,580 134,580 134,582 130,582 130,583 128,583 128,584 117,584 117,585 112,585 112,586 111,586 111,587 112,587 112,589 113,589 113,590 114,590 114,592 116,592 116,595 117,595 117,596 118,596 118,598 119,598 119,600 120,600 120,605 121,605 121,608 122,608 122,614 120,614 120,617 119,617 119,618 118,618 118,620 117,620 117,622 116,622 116,625 115,625 115,626 114,626 114,628 112,628 112,631 111,631 111,632 110,632 110,639 109,639 109,640 108,640 108,642 107,642 107,646 106,646 106,656 104,656 104,658 102,658 102,659 101,659 101,660 90,660 90,658 88,658 88,657 86,657 86,656 85,656 85,658 86,658 86,662 88,662 88,665 89,665 89,666 90,666 90,669 91,669 91,670 92,670 92,673 93,673 93,674 94,674 94,676 95,676 95,677 96,677 96,680 97,680 97,681 98,681 98,684 100,684 100,687 101,687 101,688 102,688 102,690 103,690 103,692 104,692 104,694 106,694 106,697 107,697 107,698 108,698 108,700 109,700 109,701 110,701 110,704 112,704 112,707 113,707 113,708 114,708 114,710 116,710 116,713 117,713 117,714 118,714 118,716 119,716 119,717 120,717 120,719 121,719 121,720 122,720 122,722 123,722 123,723 124,723 124,725 125,725 125,726 126,726 126,728 127,728 127,729 128,729 128,731 129,731 129,732 130,732 130,733 131,733 131,734 132,734 132,736 133,736 133,737 134,737 134,740 136,740 136,742 138,742 138,744 139,744 139,745 140,745 140,748 142,748 142,750 144,750 144,753 145,753 145,754 146,754 146,755 147,755 147,756 148,756 148,758 150,758 150,761 151,761 151,762 152,762 152,763 153,763 153,764 154,764 154,766 156,766 156,768 158,768 158,770 159,770 159,771 160,771 160,772 162,772 162,774 163,774 163,775 164,775 164,777 165,777 165,778 166,778 166,780 168,780 168,782 170,782 170,784 172,784 172,786 174,786 174,788 176,788 176,790 178,790 178,791 179,791 179,792 181,792 181,793 182,793 182,794 184,794 184,796 187,796 187,797 188,797 188,798 190,798 190,800 193,800 193,801 194,801 194,800 196,800 196,798 197,798 197,797 198,797 198,795 199,795 199,794 200,794 200,792 202,792 202,789 203,789 203,788 204,788 204,786 206,786 206,784 207,784 207,783 208,783 208,780 210,780 210,778 211,778 211,776 212,776 212,774 214,774 214,772 215,772 215,771 216,771 216,768 218,768 218,765 219,765 219,764 220,764 220,762 222,762 222,759 223,759 223,758 224,758 224,756 225,756 225,755 226,755 226,752 228,752 228,750 229,750 229,748 230,748 230,746 231,746 231,745 232,745 232,742 234,742 234,737 235,737 235,736 236,736 236,730 235,730 235,729 230,729 230,730 226,730 226,731 224,731 224,732 219,732 219,733 218,733 218,734 214,734 214,735 212,735 212,736 203,736 203,737 197,737 197,736 192,736 192,734 190,734 190,731 189,731 189,729 190,729 190,724 191,724 191,722 192,722 192,720 193,720 193,719 194,719 194,716 195,716 195,715 196,715 196,713 197,713 197,712 198,712 198,710 200,710 200,707 201,707 201,706 202,706 202,704 204,704 204,701 205,701 205,700 206,700 206,698 207,698 207,697 208,697 208,694 209,694 209,692 210,692 210,690 211,690 211,689 212,689 212,687 213,687 213,686 214,686 214,683 215,683 215,682 216,682 216,678 218,678 218,675 219,675 219,674 220,674 220,672 221,672 221,670 222,670 222,668 223,668 223,666 224,666 224,663 225,663 225,662 226,662 226,659 227,659 227,658 228,658 228,654 229,654 229,653 230,653 230,650 231,650 231,649 232,649 232,646 233,646 233,644 234,644 234,642 235,642 235,640 236,640 236,638 237,638 237,636 238,636 238,634 240,634 240,630 241,630 241,629 242,629 242,623 243,623 243,622 240,622 240,624 238,624 238,626 236,626 236,627 235,627 235,628 234,628 234,629 233,629 233,630 232,630 232,631 231,631 231,632 228,632 228,633 227,633 227,634 216,634 216,633 214,633 214,632 212,632 212,630 210,630 210,628 209,628 209,627 208,627 208,619 209,619 209,618 210,618 210,615 211,615 211,614 212,614 212,612 213,612 213,611 214,611 214,610 215,610 215,609 216,609 216,608 218,608 218,606 217,606 217,605 216,605 216,604 214,604 214,602 212,602 212,600 209,600 209,599 208,599 208,597 207,597 207,596 206,596 206,595 204,595 204,592 202,592 202,590 201,590 201,589 200,589 200,586 199,586 199,585 198,585 198,560 199,560 199,559 200,559 200,556 202,556 202,555 203,555 203,554 204,554 204,553 205,553 205,552 207,552 207,551 208,551 208,550 212,550 212,549 216,549 216,550 225,550 225,551 226,551 226,552 228,552 228,554 231,554 231,555 232,555 232,556 240,556 240,554 242,554 242,550 243,550 243,548 244,548 244,544 245,544 245,543 246,543 246,542 250,542 250,541 251,541 251,540 255,540 255,539 256,539 256,538 259,538 259,537 260,537 260,536 262,536 262,535 264,535 264,534 268,534 268,532 273,532 273,531 274,531 274,530 276,530 276,524 275,524 275,523 274,523 274,522 267,522 267,521 266,521 266,522 256,522 256,521 250,521 250,520 240,520 240,519 236,519 236,518 232,518 232,517 231,517 231,516 228,516 228,514 226,514 226,512 225,512 225,511 224,511 224,507 225,507 225,504 226,504 226,498 225,498 225,497 222,497 222,498 219,498 219,499 218,499 218,500 216,500 216,501 214,501 214,502 209,502 209,503 208,503 208,502 201,502 201,501 200,501 200,500 197,500 197,499 196,499 196,498 194,498 194,497 193,497 193,496 192,496 192,494 190,494 190,492 188,492 188,490 186,490 186,488 185,488 185,487 184,487 184,485 183,485 183,484 182,484 182,482 180,482 180,479 179,479 179,477 180,477 180,474 182,474 182,473 183,473 183,472 186,472 186,470 187,470 187,469 186,469 186,468 184,468 184,466 182,466 182,465 181,465 181,464 179,464 179,463 178,463 178,460 176,460 176,454 178,454 178,452 179,452 179,451 178,451 178,446 176,446 176,444 163,444 163,443 161,443 161,442 159,442 159,441 158,441 158,439 157,439 157,438 156,438 156,436 155,436 z M 330,715 329,715 329,716 328,716 328,719 327,719 327,720 326,720 326,724 325,724 325,726 324,726 324,729 323,729 323,731 322,731 322,736 321,736 321,739 320,739 320,748 319,748 319,752 318,752 318,777 319,777 319,781 320,781 320,788 321,788 321,790 322,790 322,798 323,798 323,800 324,800 324,803 325,803 325,804 326,804 326,806 327,806 327,807 328,807 328,809 329,809 329,810 330,810 330,812 331,812 331,813 332,813 332,816 334,816 334,818 335,818 335,819 336,819 336,820 337,820 337,821 338,821 338,822 339,822 339,823 340,823 340,824 341,824 341,825 342,825 342,826 343,826 343,827 344,827 344,828 345,828 345,829 346,829 346,831 347,831 347,832 348,832 348,833 349,833 349,834 350,834 350,835 351,835 351,836 352,836 352,837 353,837 353,838 355,838 355,839 356,839 356,840 357,840 357,841 358,841 358,842 359,842 359,843 360,843 360,844 361,844 361,845 362,845 362,846 363,846 363,847 364,847 364,848 366,848 366,849 366,850 368,850 368,852 371,852 371,853 372,853 372,854 373,854 373,855 374,855 374,856 376,856 376,858 378,858 378,859 379,859 379,860 381,860 381,861 382,861 382,862 383,862 383,863 384,863 384,864 386,864 386,866 388,866 388,867 389,867 389,868 391,868 391,869 392,869 392,870 394,870 394,872 396,872 396,873 398,873 398,874 400,874 400,876 402,876 402,877 403,877 403,878 404,878 404,879 405,879 405,880 407,880 407,881 408,881 408,883 409,883 409,884 410,884 410,885 411,885 411,886 412,886 412,887 413,887 413,888 415,888 415,889 416,889 416,891 417,891 417,892 420,892 420,894 422,894 422,896 424,896 424,897 426,897 426,898 428,898 428,900 431,900 431,901 432,901 432,902 435,902 435,903 436,903 436,904 440,904 440,905 442,905 442,906 446,906 446,908 450,908 451,908 451,909 452,909 454,909 454,910 457,910 463,910 463,911 466,911 466,912 475,912 475,913 480,913 480,914 489,914 520,914 520,913 524,913 524,912 535,912 535,911 537,911 537,910 547,910 547,909 550,909 550,908 557,908 557,907 561,907 561,906 568,906 568,905 570,905 570,904 579,904 579,903 582,903 582,902 588,902 588,901 592,901 592,900 597,900 597,899 600,899 600,898 606,898 606,897 608,897 608,896 613,896 613,895 615,895 615,894 620,894 620,893 621,893 621,892 626,892 626,891 627,891 627,890 632,890 632,889 633,889 633,888 637,888 637,887 638,887 638,886 642,886 642,885 644,885 644,884 646,884 646,883 648,883 648,882 651,882 651,881 652,881 652,880 656,880 656,878 660,878 660,876 664,876 664,875 665,875 665,874 668,874 668,873 669,873 669,872 672,872 672,871 673,871 673,870 676,870 676,869 677,869 677,868 680,868 680,866 683,866 683,865 684,865 684,864 687,864 687,863 688,863 688,862 690,862 690,861 691,861 691,860 694,860 694,859 695,859 695,858 698,858 698,856 702,856 702,854 705,854 705,853 706,853 706,852 709,852 709,851 710,851 710,850 713,850 713,849 714,849 714,848 716,848 716,846 720,846 720,844 723,844 723,843 724,843 724,842 726,842 726,841 727,841 727,840 729,840 729,839 730,839 730,838 732,838 732,836 734,836 734,835 735,835 735,834 736,834 736,833 737,833 737,832 740,832 740,830 742,830 742,828 744,828 744,826 746,826 746,824 747,824 747,822 748,822 748,821 749,821 749,820 750,820 750,817 751,817 751,815 750,815 750,816 747,816 747,817 746,817 746,818 745,818 745,819 744,819 744,820 742,820 742,821 741,821 741,822 738,822 738,823 736,823 736,824 733,824 733,825 732,825 732,826 728,826 728,827 727,827 727,828 724,828 724,829 722,829 722,830 717,830 717,831 716,831 716,832 709,832 709,833 707,833 707,834 696,834 696,835 680,835 680,836 679,836 679,835 671,835 671,834 666,834 666,832 664,832 664,831 663,831 663,826 664,826 664,824 665,824 665,822 667,822 667,821 668,821 668,820 672,820 672,819 673,819 673,818 676,818 676,817 677,817 677,816 681,816 681,815 682,815 682,814 684,814 684,813 686,813 686,812 688,812 688,811 689,811 689,810 692,810 692,808 696,808 696,806 698,806 698,805 699,805 699,804 701,804 701,803 702,803 702,802 704,802 704,800 706,800 706,798 708,798 708,796 710,796 710,793 711,793 711,792 712,792 712,791 713,791 713,790 714,790 714,789 715,789 715,788 716,788 716,786 718,786 718,784 720,784 720,781 721,781 721,780 723,780 723,779 724,779 724,777 725,777 725,776 726,776 726,774 727,774 727,773 728,773 728,772 729,772 729,771 730,771 730,768 732,768 732,765 733,765 733,764 734,764 734,762 736,762 736,759 737,759 737,758 738,758 738,756 739,756 739,755 740,755 740,752 741,752 741,751 742,751 742,748 744,748 744,745 745,745 745,744 746,744 746,741 747,741 747,740 748,740 748,737 749,737 749,736 750,736 750,733 751,733 751,732 752,732 752,728 753,728 753,726 754,726 754,724 755,724 755,723 756,723 756,720 757,720 757,719 758,719 758,709 757,709 757,706 756,706 756,702 755,702 755,700 754,700 754,696 753,696 753,695 752,695 752,692 751,692 751,691 750,691 750,688 748,688 748,686 746,686 746,683 745,683 745,682 744,682 744,680 742,680 742,677 741,677 741,676 740,676 740,675 739,675 739,674 738,674 738,673 737,673 737,672 736,672 736,670 734,670 734,668 733,668 733,667 732,667 732,666 731,666 731,665 730,665 730,664 729,664 729,663 728,663 728,662 727,662 727,661 726,661 726,660 725,660 725,659 724,659 724,658 722,658 722,656 720,656 720,655 719,655 719,654 717,654 717,653 716,653 716,652 714,652 714,651 713,651 713,650 710,650 710,648 707,648 707,647 706,647 706,646 704,646 704,645 702,645 702,644 699,644 699,643 698,643 698,642 696,642 696,641 694,641 694,640 689,640 689,639 688,639 688,638 685,638 685,637 682,637 682,636 678,636 678,635 675,635 675,634 648,634 648,635 646,635 646,636 642,636 642,637 640,637 640,638 637,638 637,639 636,639 636,640 634,640 634,641 628,641 628,640 625,640 625,639 624,639 624,637 623,637 623,636 622,636 622,634 620,634 620,622 621,622 621,620 622,620 622,618 623,618 623,617 624,617 624,616 625,616 625,615 626,615 626,614 628,614 628,612 630,612 630,611 631,611 631,610 633,610 633,609 634,609 634,608 637,608 637,607 638,607 638,606 640,606 640,605 641,605 641,604 644,604 644,603 646,603 646,602 650,602 650,601 652,601 652,600 656,600 656,599 660,599 660,598 685,598 685,599 688,599 688,600 693,600 693,601 695,601 695,602 699,602 699,603 701,603 701,604 708,604 708,605 711,605 711,600 710,600 710,598 709,598 709,597 708,597 708,596 707,596 707,594 706,594 706,592 705,592 705,591 704,591 704,588 703,588 703,587 702,587 702,584 700,584 700,581 699,581 699,580 698,580 698,577 697,577 697,576 696,576 696,572 695,572 695,571 694,571 694,568 693,568 693,566 692,566 692,563 691,563 691,561 690,561 690,558 689,558 689,556 688,556 688,552 687,552 687,551 686,551 686,547 685,547 685,546 684,546 684,542 683,542 683,540 682,540 682,536 681,536 681,535 680,535 680,532 679,532 679,530 678,530 678,528 673,528 673,529 672,529 672,531 671,531 671,532 670,532 670,534 668,534 668,536 667,536 667,537 666,537 666,539 665,539 665,540 664,540 664,542 663,542 663,543 662,543 662,546 661,546 661,547 660,547 660,549 659,549 659,550 658,550 658,552 657,552 657,553 656,553 656,556 654,556 654,558 653,558 653,559 652,559 652,561 651,561 651,562 650,562 650,563 649,563 649,564 648,564 648,566 646,566 646,568 645,568 645,569 644,569 644,571 643,571 643,572 641,572 641,573 640,573 640,576 638,576 638,577 637,577 637,578 636,578 636,579 635,579 635,580 634,580 634,582 632,582 632,584 630,584 630,585 629,585 629,586 628,586 628,587 627,587 627,588 626,588 626,589 625,589 625,590 624,590 624,591 623,591 623,592 622,592 622,593 621,593 621,594 620,594 620,595 619,595 619,596 618,596 618,597 617,597 617,598 615,598 615,599 614,599 614,601 613,601 613,602 612,602 612,603 611,603 611,604 610,604 610,605 609,605 609,606 608,606 608,608 606,608 606,630 605,630 605,633 604,633 604,636 602,636 602,637 600,637 600,638 598,638 598,637 595,637 595,636 590,636 590,634 587,634 587,633 586,633 586,632 584,632 584,631 583,631 583,630 580,630 580,628 578,628 578,627 577,627 577,626 576,626 576,625 575,625 575,624 573,624 573,623 572,623 572,622 571,622 571,621 570,621 570,619 569,619 569,618 567,618 567,617 566,617 566,615 565,615 565,614 564,614 564,613 563,613 563,612 562,612 562,611 561,611 561,610 560,610 560,608 558,608 558,606 556,606 556,604 554,604 554,602 553,602 553,601 552,601 552,599 551,599 551,598 550,598 550,596 548,596 548,594 547,594 547,593 546,593 546,592 545,592 545,591 544,591 544,588 542,588 542,586 541,586 541,585 540,585 540,583 539,583 539,582 538,582 538,580 537,580 537,579 536,579 536,576 534,576 534,574 533,574 533,573 532,573 532,571 531,571 531,570 530,570 530,568 529,568 529,567 528,567 528,565 527,565 527,564 526,564 526,562 525,562 525,560 524,560 524,558 523,558 523,556 522,556 522,553 521,553 521,552 520,552 520,548 518,548 518,544 517,544 517,543 516,543 516,540 515,540 515,538 514,538 514,535 513,535 513,534 512,534 512,531 511,531 511,528 510,528 510,526 509,526 509,524 508,524 508,522 507,522 507,520 506,520 506,516 505,516 505,515 504,515 504,510 503,510 503,509 502,509 502,506 500,506 500,502 499,502 499,501 498,501 498,498 496,498 496,495 494,495 494,494 459,494 459,495 456,495 456,496 453,496 453,497 452,497 452,498 451,498 451,499 450,499 450,500 448,500 448,502 446,502 446,504 444,504 444,506 442,506 442,508 440,508 440,510 438,510 438,512 437,512 437,513 436,513 436,516 434,516 434,518 433,518 433,519 432,519 432,521 431,521 431,522 430,522 430,524 429,524 429,525 428,525 428,527 427,527 427,528 426,528 426,531 425,531 425,532 424,532 424,534 422,534 422,536 421,536 421,537 420,537 420,539 419,539 419,540 418,540 418,542 416,542 416,544 414,544 414,546 412,546 412,548 411,548 411,549 410,549 410,550 409,550 409,551 408,551 408,552 407,552 407,553 406,553 406,555 405,555 405,556 404,556 404,557 403,557 403,558 402,558 402,560 400,560 400,562 399,562 399,563 398,563 398,564 397,564 397,565 396,565 396,567 395,567 395,568 394,568 394,570 392,570 392,572 391,572 391,573 390,573 390,575 389,575 389,576 388,576 388,578 387,578 387,579 386,579 386,580 385,580 385,581 384,581 384,584 390,584 390,582 393,582 393,581 394,581 394,580 396,580 396,579 397,579 397,578 399,578 399,577 400,577 400,576 402,576 402,575 404,575 404,574 406,574 406,572 410,572 410,570 414,570 414,569 415,569 415,568 418,568 418,567 420,567 420,566 424,566 424,565 425,565 425,564 428,564 428,563 430,563 430,562 435,562 435,561 436,561 436,560 440,560 440,559 441,559 441,558 446,558 446,557 448,557 448,556 475,556 485,556 485,557 486,557 486,558 490,558 490,559 491,559 491,560 493,560 494,560 494,561 495,561 495,562 497,562 497,563 498,563 498,564 499,564 499,565 500,565 500,566 501,566 501,567 502,567 502,568 504,568 504,570 506,570 506,572 507,572 507,573 508,573 508,574 509,574 509,575 510,575 510,576 511,576 511,577 512,577 512,580 514,580 514,584 516,584 516,587 517,587 517,588 518,588 518,592 519,592 519,597 520,597 520,601 519,601 519,603 518,603 518,606 517,606 517,607 516,607 516,608 515,608 515,609 514,609 514,610 512,610 512,612 502,612 502,611 500,611 500,610 496,610 496,608 493,608 493,607 492,607 492,606 490,606 490,604 488,604 488,603 487,603 487,602 485,602 485,601 484,601 484,600 483,600 483,599 482,599 482,598 480,598 480,597 479,597 479,596 476,596 476,595 474,595 474,594 470,594 470,593 468,593 468,592 442,592 442,593 439,593 439,594 432,594 432,595 430,595 430,596 426,596 426,597 425,597 425,598 422,598 422,600 419,600 419,601 418,601 418,602 416,602 416,603 415,603 415,604 412,604 412,606 410,606 410,608 407,608 407,609 406,609 406,610 404,610 404,612 400,612 400,613 399,613 399,614 395,614 395,615 394,615 394,616 390,616 390,618 386,618 386,619 384,619 384,620 381,620 381,621 380,621 380,623 379,623 379,624 378,624 378,627 377,627 377,628 376,628 376,632 374,632 374,638 373,638 373,640 372,640 372,710 373,710 373,711 374,711 374,714 375,714 375,715 376,715 376,717 377,717 377,718 378,718 378,721 379,721 379,724 378,724 378,727 376,727 376,728 372,728 372,729 371,729 371,728 361,728 361,727 359,727 359,726 356,726 356,725 355,725 355,724 352,724 352,722 350,722 350,721 349,721 349,720 347,720 347,719 346,719 346,718 345,718 345,717 344,717 344,715 343,715 343,714 342,714 342,713 341,713 341,712 340,712 340,711 339,711 339,710 337,710 337,709 336,709 336,708 335,708 335,709 334,709 334,710 332,710 332,711 331,711 331,712 330,712 z M 320,880 320,878 321,878 321,877 322,877 322,876 323,876 323,874 324,874 324,872 324,842 323,842 323,841 322,841 322,840 321,840 321,839 320,839 320,837 319,837 319,836 318,836 318,834 316,834 316,832 315,832 315,831 314,831 314,830 310,830 310,842 309,842 309,864 309,874 310,874 310,879 312,879 312,880 z M 494,468 492,468 492,466 490,466 490,465 488,465 488,466 481,466 481,467 480,467 480,468 477,468 470,468 470,469 466,469 466,470 462,470 462,472 461,472 461,474 460,474 460,478 468,478 468,477 470,477 470,476 480,476 486,476 486,475 488,475 488,476 494,476 z M 441,483 441,482 442,482 442,481 443,481 443,479 444,479 444,474 445,474 445,473 446,473 446,472 445,472 445,471 444,471 444,470 428,470 428,472 426,472 426,474 425,474 425,475 424,475 424,478 422,478 422,480 421,480 421,482 420,482 420,484 419,484 419,485 418,485 418,487 417,487 417,488 416,488 416,490 415,490 415,492 414,492 414,496 415,496 415,495 416,495 416,494 419,494 419,493 420,493 420,492 422,492 422,491 424,491 424,490 427,490 427,489 428,489 428,488 431,488 431,487 432,487 432,486 436,486 436,485 437,485 437,484 440,484 440,483 z M 52,563 53,563 53,566 54,566 54,569 55,569 55,570 56,570 56,572 56,574 57,574 57,576 58,576 58,578 59,578 59,579 62,579 62,580 64,580 64,579 67,579 68,579 68,578 69,578 72,578 72,577 74,577 74,574 73,574 73,573 72,573 72,570 70,570 70,569 70,568 69,568 69,567 68,567 68,565 67,565 67,564 66,564 66,563 66,560 65,560 65,556 65,555 66,555 66,554 66,550 67,550 67,549 68,549 68,547 68,546 69,546 69,545 70,545 70,542 69,542 69,543 68,543 68,544 66,544 66,546 64,546 64,548 63,548 63,549 62,549 62,550 60,550 60,552 58,552 58,553 58,554 56,554 56,555 55,555 55,556 54,556 52,556 52,557 51,557 51,558 50,558 50,559 51,559 51,560 52,560 z M 292,848 292,841 293,841 293,838 294,838 294,831 295,831 295,828 296,828 296,825 296,819 297,819 297,817 297,816 298,816 298,815 298,800 297,800 297,788 296,788 296,775 296,773 295,773 295,772 294,772 294,770 292,770 292,768 289,768 289,766 288,766 288,764 287,764 286,764 286,762 285,762 285,761 284,761 284,760 284,759 283,759 283,758 282,758 282,756 280,756 280,753 279,753 279,752 278,752 278,750 277,750 277,748 276,748 276,746 274,746 274,743 273,743 273,742 272,742 272,740 270,740 270,737 269,737 269,736 265,736 265,737 264,737 264,740 262,740 262,743 261,743 261,744 260,744 260,748 259,748 259,751 258,751 258,756 257,756 257,759 256,759 256,764 255,764 255,766 254,766 254,771 253,771 253,773 252,773 252,778 251,778 251,779 250,779 250,784 249,784 249,786 248,786 248,792 247,792 247,794 246,794 246,800 245,800 245,802 244,802 244,808 243,808 243,811 242,811 242,818 241,818 241,821 240,821 240,835 241,835 241,836 242,836 242,838 244,838 244,840 246,840 246,842 248,842 248,844 250,844 250,845 252,845 252,847 253,847 253,848 256,848 256,850 259,850 259,851 260,851 260,852 262,852 262,853 264,853 264,854 266,854 266,856 269,856 269,857 270,857 270,858 272,858 272,859 274,859 274,860 277,860 277,861 278,861 278,862 280,862 280,863 282,863 282,864 288,864 288,863 289,863 289,859 290,859 290,850 291,850 291,848 z M 421,508 417,508 417,509 416,509 416,510 412,510 412,511 411,511 411,512 408,512 408,513 407,513 407,514 406,514 406,517 405,517 405,518 404,518 404,522 403,522 403,524 402,524 402,528 401,528 401,529 400,529 400,531 400,536 399,536 399,537 398,537 398,538 399,538 399,541 400,541 400,540 402,540 402,538 403,538 403,537 404,537 404,535 405,535 405,534 406,534 406,533 407,533 407,532 408,532 408,530 410,530 410,528 411,528 411,527 412,527 412,525 413,525 413,524 415,524 415,522 416,522 416,520 418,520 418,518 418,517 419,517 419,516 420,516 420,514 421,514 421,513 422,513 422,511 422,510 423,510 423,509 423,508 424,508 424,507 424,506 423,506 423,507 421,507 z M 780,204 784,204 784,206 786,206 786,207 788,207 788,208 790,208 790,204 790,202 789,202 789,200 789,197 788,197 788,194 789,194 789,192 790,192 790,190 791,190 791,189 792,189 792,188 794,188 794,187 796,187 796,186 799,186 799,185 800,185 800,182 790,182 790,181 789,181 789,180 788,180 786,180 786,178 784,178 784,176 782,176 782,173 781,173 781,171 780,171 780,168 779,168 779,166 778,166 778,164 777,164 777,166 776,166 776,171 775,171 775,172 774,172 774,176 773,176 773,177 772,177 772,180 770,180 770,181 768,181 768,182 759,182 755,182 755,183 756,183 756,184 757,184 757,185 758,185 758,187 759,187 759,188 760,188 760,189 761,189 761,190 762,190 762,192 763,192 763,194 764,194 764,202 763,202 763,204 762,204 762,206 762,209 761,209 761,211 762,211 762,210 763,210 763,209 764,209 764,208 765,208 765,207 766,207 766,206 768,206 768,205 769,205 769,204 772,204 774,204 774,202 779,202 779,203 780,203 z M 230,790 228,790 228,791 227,791 227,792 226,792 226,794 224,794 224,796 223,796 223,797 222,797 222,798 221,798 221,800 220,800 220,802 219,802 218,802 218,804 217,804 216,804 216,806 214,806 214,808 213,808 213,809 212,809 212,810 211,810 211,811 210,811 210,812 209,812 209,813 208,813 208,815 207,815 207,816 206,816 205,816 205,817 204,817 204,818 206,818 206,819 206,820 208,820 208,821 209,821 209,822 212,822 212,824 215,824 215,825 216,825 216,826 217,826 220,826 220,824 220,823 221,823 221,822 222,822 222,817 223,817 223,816 224,816 224,813 224,812 225,812 225,811 225,810 226,810 226,809 226,808 227,808 227,807 227,806 228,806 228,805 228,802 229,802 229,800 230,800 z" fill="#ff0000" fill-opacity="1.0" id="xff0000_r255_g0_b0_a1.0_shape1"/>
    <path d="M 537,240 532,240 532,239 530,239 530,238 526,238 526,237 525,237 525,236 523,236 523,235 522,235 522,234 519,234 519,233 518,233 518,232 517,232 517,231 516,231 516,230 514,230 514,228 512,228 512,226 511,226 511,225 510,225 510,224 508,224 508,222 506,222 506,220 504,220 504,218 503,218 503,217 502,217 502,216 502,215 501,215 501,214 500,214 500,212 499,212 498,212 498,210 496,210 496,208 494,208 494,205 493,205 493,204 492,204 492,202 491,202 491,201 490,201 490,197 489,197 489,196 488,196 488,192 487,192 487,189 486,189 486,180 486,148 487,148 487,144 488,144 488,140 489,140 489,138 490,138 490,132 491,132 491,130 492,130 492,126 493,126 493,124 494,124 494,120 495,120 495,119 496,119 496,116 497,116 497,115 498,115 498,112 499,112 499,110 500,110 500,108 501,108 501,107 502,107 502,104 504,104 504,102 505,102 505,101 506,101 506,98 508,98 508,96 509,96 509,94 510,94 510,93 511,93 511,92 512,92 512,90 514,90 514,88 516,88 516,86 518,86 518,84 520,84 520,82 522,82 522,80 524,80 524,79 525,79 525,78 526,78 526,77 527,77 527,76 530,76 530,74 532,74 532,73 533,73 533,72 535,72 535,71 536,71 536,70 538,70 538,69 540,69 540,68 544,68 544,67 545,67 545,66 546,66 550,66 550,65 552,65 552,64 565,64 565,63 576,63 576,64 591,64 591,65 592,65 592,66 596,66 596,67 598,67 598,68 602,68 602,70 605,70 605,71 606,71 606,72 608,72 608,73 609,73 609,74 612,74 612,76 614,76 614,77 616,77 616,79 617,79 617,80 620,80 620,82 622,82 622,84 624,84 624,86 626,86 626,88 627,88 627,90 628,90 628,91 629,91 629,92 630,92 630,95 631,95 631,96 632,96 632,99 633,99 633,102 632,102 632,104 630,104 630,107 629,107 629,109 628,109 628,114 629,114 629,116 630,116 630,118 632,118 632,119 633,119 633,120 640,120 640,121 641,121 641,122 642,122 642,127 643,127 643,128 644,128 644,146 644,171 643,171 643,173 642,173 642,179 641,179 641,181 640,181 640,184 639,184 639,186 638,186 638,188 637,188 637,189 636,189 636,192 634,192 634,195 633,195 633,196 632,196 632,198 630,198 630,200 629,200 629,201 628,201 628,203 627,203 627,204 626,204 626,205 625,205 625,206 624,206 624,208 622,208 622,210 620,210 620,212 618,212 618,214 616,214 616,216 615,216 615,217 614,217 614,218 612,218 612,220 610,220 610,222 609,222 609,223 608,223 608,224 606,224 606,226 604,226 604,228 602,228 602,229 601,229 601,230 598,230 598,232 596,232 596,233 595,233 595,234 593,234 593,235 592,235 592,236 589,236 589,237 588,237 588,238 585,238 584,238 584,239 583,239 583,240 579,240 579,241 576,241 576,242 574,242 572,242 572,243 570,243 568,243 568,244 565,244 552,244 552,243 547,243 547,242 539,242 539,241 537,241 z M 608,157 609,157 609,152 610,152 610,139 609,139 609,134 608,134 608,127 607,127 607,126 606,126 606,122 605,122 605,121 604,121 604,117 603,117 603,116 602,116 602,113 601,113 601,112 600,112 600,110 599,110 599,109 598,109 598,108 597,108 597,107 596,107 596,104 593,104 593,103 592,103 592,101 591,101 591,100 589,100 589,99 588,99 588,98 585,98 585,97 580,97 580,98 574,98 574,97 570,97 570,96 567,96 566,96 566,95 565,95 564,95 564,94 563,94 562,94 562,93 561,93 556,93 556,94 554,94 554,95 552,95 552,96 550,96 550,98 549,98 549,100 548,100 548,101 547,101 547,102 546,102 546,105 545,105 545,106 544,106 544,108 542,108 542,110 541,110 541,111 540,111 540,112 539,112 539,114 538,114 538,116 536,116 536,119 535,119 535,120 534,120 534,122 533,122 533,123 532,123 532,125 531,125 531,126 530,126 530,128 529,128 529,130 528,130 528,135 527,135 527,136 526,136 526,156 527,156 527,160 526,160 526,165 526,167 525,167 525,168 524,168 524,172 522,172 522,175 521,175 521,176 520,176 520,178 519,178 519,179 518,179 518,183 518,192 519,192 519,195 520,195 520,201 521,201 521,202 522,202 522,204 524,204 524,205 526,205 526,206 536,206 536,205 538,205 538,204 562,204 570,204 570,203 571,203 571,202 575,202 575,201 576,201 576,200 578,200 578,199 580,199 580,198 581,198 581,197 582,197 582,196 584,196 584,194 586,194 586,192 588,192 588,190 590,190 590,189 591,189 591,188 592,188 592,187 593,187 593,186 594,186 594,184 596,184 596,182 597,182 597,181 598,181 598,179 599,179 599,178 600,178 600,176 602,176 602,172 604,172 604,169 605,169 605,168 606,168 606,164 607,164 607,162 608,162 z" fill="#ff0000" fill-opacity="1.0" id="xff0000_r255_g0_b0_a1.0_shape2"/>
    <path d="M 436,80 436,81 438,81 438,82 439,82 439,83 440,83 440,84 441,84 441,85 442,85 442,87 443,87 443,88 444,88 444,89 444,90 445,90 445,91 445,92 446,92 446,93 446,96 447,96 447,98 448,98 448,100 450,100 450,102 452,102 452,104 453,104 453,106 454,106 454,108 455,108 456,108 456,111 457,111 457,112 458,112 458,114 458,116 459,116 459,117 460,117 460,122 461,122 461,125 462,125 462,131 462,138 462,154 461,154 461,160 460,160 460,169 459,169 459,172 458,172 458,179 457,179 457,180 456,180 456,184 455,184 455,186 454,186 454,191 453,191 453,192 452,192 452,196 451,196 451,198 450,198 450,200 449,200 449,202 448,202 448,206 447,206 447,208 446,208 446,210 445,210 445,211 444,211 444,214 443,214 443,215 442,215 442,218 440,218 440,221 439,221 439,222 438,222 438,224 437,224 437,225 436,225 436,227 435,227 435,228 434,228 434,229 433,229 433,230 432,230 432,232 431,232 431,234 430,234 430,236 428,236 428,239 427,239 427,240 426,240 426,242 424,242 424,244 422,244 422,246 420,246 420,248 418,248 418,250 416,250 416,251 415,251 415,252 413,252 413,253 412,253 412,254 411,254 410,254 410,256 409,256 407,256 407,257 406,257 406,258 404,258 404,259 404,260 401,260 401,261 400,261 400,262 397,262 397,263 396,263 396,264 392,264 392,265 390,265 390,266 386,266 386,267 384,267 384,268 380,268 380,269 378,269 378,270 371,270 371,271 367,271 367,272 362,272 362,271 358,271 358,270 352,270 352,269 350,269 350,268 346,268 346,266 342,266 342,265 341,265 341,264 338,264 338,262 336,262 336,261 335,261 335,260 333,260 333,259 332,259 332,258 331,258 331,257 330,257 330,256 328,256 328,253 327,253 327,252 326,252 326,250 324,250 324,248 323,248 323,247 322,247 322,244 320,244 320,241 319,241 319,240 318,240 318,237 317,237 317,235 316,235 316,231 316,230 315,230 315,229 315,228 314,228 314,227 314,224 313,224 313,222 313,217 312,217 312,208 312,194 312,192 313,192 313,189 313,184 314,184 314,181 314,177 315,177 315,175 316,175 316,169 317,169 317,168 318,168 318,164 318,163 319,163 319,162 320,162 320,158 321,158 321,156 322,156 322,152 323,152 323,151 324,151 324,148 325,148 325,146 326,146 326,142 327,142 327,141 328,141 328,138 329,138 329,137 330,137 330,134 331,134 331,133 332,133 332,130 333,130 333,129 334,129 334,128 335,128 335,126 336,126 336,122 338,122 338,119 339,119 339,118 340,118 340,116 341,116 341,115 342,115 342,113 343,113 343,112 344,112 344,110 346,110 346,108 348,108 348,106 350,106 350,104 352,104 352,102 353,102 353,101 354,101 354,100 356,100 356,99 357,99 357,98 358,98 358,96 360,96 360,94 362,94 362,93 363,93 363,92 364,92 364,91 365,91 365,90 366,90 366,89 367,89 367,88 369,88 369,87 370,87 370,86 372,86 372,85 373,85 373,84 375,84 375,83 376,83 376,82 379,82 379,81 380,81 380,80 384,80 384,79 385,79 385,78 391,78 391,77 393,77 393,76 407,76 421,76 421,77 424,77 424,78 427,78 428,78 428,80 z M 408,213 409,213 409,212 412,212 412,210 414,210 414,209 416,209 416,208 420,208 420,206 421,206 421,204 422,204 422,198 422,192 421,192 421,190 420,190 420,186 421,186 421,184 422,184 422,182 423,182 423,181 424,181 424,177 425,177 425,176 426,176 426,168 427,168 427,165 428,165 428,138 427,138 427,135 426,135 426,129 425,129 425,128 424,128 424,123 423,123 423,120 422,120 422,117 421,117 421,116 420,116 420,113 419,113 419,112 418,112 418,110 416,110 416,108 414,108 414,107 412,107 412,106 411,106 411,105 410,105 410,104 396,104 396,105 395,105 395,106 392,106 392,108 390,108 390,109 389,109 389,110 388,110 388,111 387,111 387,112 385,112 385,113 384,113 384,115 383,115 383,116 381,116 381,117 380,117 380,119 379,119 379,120 378,120 378,122 376,122 376,124 375,124 375,125 374,125 374,128 372,128 372,131 371,131 371,132 370,132 370,134 369,134 369,135 368,135 368,139 367,139 367,140 366,140 366,142 365,142 365,143 364,143 364,144 363,144 363,146 362,146 362,148 361,148 361,150 360,150 360,152 359,152 359,153 358,153 358,156 357,156 357,158 356,158 356,161 355,161 355,162 354,162 354,166 353,166 353,167 352,167 352,172 351,172 351,174 350,174 350,181 349,181 349,184 348,184 348,196 347,196 347,200 348,200 348,212 349,212 349,214 350,214 350,220 351,220 351,221 352,221 352,226 354,226 354,228 356,228 356,230 358,230 358,232 360,232 360,233 361,233 361,234 366,234 366,235 370,235 370,234 376,234 376,232 378,232 378,230 380,230 380,228 382,228 382,226 384,226 384,225 386,225 386,224 389,224 389,223 390,223 390,222 394,222 394,221 395,221 395,220 398,220 398,218 402,218 402,217 403,217 403,216 406,216 406,214 408,214 z" fill="#ff0000" fill-opacity="1.0" id="xff0000_r255_g0_b0_a1.0_shape3"/>
    <path d="M 251,118 251,117 252,117 252,116 254,116 254,114 256,114 256,113 257,113 257,112 259,112 259,111 260,111 260,110 262,110 262,109 263,109 263,108 265,108 265,107 266,107 266,106 268,106 268,105 269,105 269,104 272,104 278,104 293,104 293,105 294,105 294,106 296,106 296,109 297,109 297,111 298,111 298,112 297,112 297,114 296,114 296,119 295,119 295,120 294,120 294,124 293,124 293,126 292,126 292,130 291,130 291,132 290,132 290,136 289,136 289,137 288,137 288,142 287,142 287,144 286,144 286,148 284,148 284,150 284,152 283,152 283,154 282,154 282,158 281,158 281,160 280,160 280,162 280,165 279,165 279,166 278,166 278,170 277,170 277,171 276,171 276,172 276,176 275,176 275,178 274,178 274,180 274,181 273,181 273,182 272,182 272,187 271,187 271,188 270,188 270,191 270,192 269,192 269,193 269,194 268,194 268,195 268,198 267,198 267,200 266,200 266,204 265,204 265,205 264,205 264,208 264,210 263,210 263,211 262,211 262,215 261,215 261,217 260,217 260,220 259,220 259,222 258,222 258,226 257,226 257,228 256,228 256,232 255,232 255,233 254,233 254,234 253,234 253,235 252,235 252,236 251,236 251,237 249,237 249,238 246,238 246,239 245,239 245,240 243,240 243,241 242,241 242,242 240,242 240,244 238,244 238,246 237,246 237,248 236,248 236,252 237,252 237,254 238,254 238,255 240,255 240,256 245,256 245,257 246,257 246,258 247,258 247,260 248,260 248,264 247,264 247,266 246,266 246,271 245,271 245,272 244,272 244,277 243,277 243,278 242,278 242,282 241,282 241,284 240,284 240,289 239,289 239,290 238,290 238,295 237,295 237,296 236,296 236,300 234,300 234,302 233,302 233,303 232,303 232,304 230,304 230,305 228,305 228,306 226,306 226,307 224,307 224,308 205,308 205,307 204,307 204,306 202,306 202,305 200,305 200,304 198,304 198,303 197,303 197,302 196,302 196,300 194,300 194,298 192,298 192,294 191,294 191,288 192,288 192,283 193,283 193,282 194,282 194,277 195,277 195,276 196,276 196,272 197,272 197,270 198,270 198,266 199,266 199,264 200,264 200,261 201,261 201,259 202,259 202,255 203,255 203,253 204,253 204,249 205,249 205,247 206,247 206,242 207,242 207,240 208,240 208,236 209,236 209,234 210,234 210,230 211,230 211,229 212,229 212,225 213,225 213,223 214,223 214,219 215,219 215,218 216,218 216,213 217,213 217,212 218,212 218,208 219,208 219,207 220,207 220,202 221,202 221,201 222,201 222,198 223,198 223,196 224,196 224,192 225,192 225,190 226,190 226,186 227,186 227,184 228,184 228,181 229,181 229,179 230,179 230,176 231,176 231,174 232,174 232,169 233,169 233,168 224,168 221,168 221,167 220,167 220,166 218,166 218,164 216,164 216,162 214,162 214,158 213,158 213,157 212,157 212,149 213,149 213,148 214,148 214,144 214,143 215,143 215,142 216,142 216,140 217,140 218,140 218,138 220,138 220,137 221,137 221,136 223,136 223,135 224,135 224,134 226,134 226,133 227,133 227,132 229,132 229,131 230,131 230,130 232,130 232,129 234,129 234,128 236,128 236,126 239,126 239,125 240,125 240,124 242,124 242,122 245,122 245,121 246,121 246,120 248,120 248,119 249,119 249,118 z" fill="#ff0000" fill-opacity="1.0" id="xff0000_r255_g0_b0_a1.0_shape4"/>
    <path d="M 631,747 631,752 632,752 632,771 631,771 631,781 630,781 630,792 629,792 629,794 628,794 628,801 628,803 627,803 627,806 626,806 626,812 625,812 625,814 624,814 624,816 624,820 623,820 623,822 622,822 622,824 621,824 621,826 620,826 620,828 619,828 619,830 618,830 618,834 616,834 616,838 614,838 614,842 613,842 613,843 612,843 612,846 611,846 611,847 610,847 610,848 609,848 609,851 608,851 608,852 607,852 607,853 606,853 606,854 606,855 605,855 605,856 604,856 604,857 603,857 603,858 602,858 602,859 602,860 600,860 600,861 600,863 599,863 599,864 597,864 597,865 596,865 596,867 595,867 595,868 593,868 593,869 592,869 592,870 590,870 590,872 588,872 588,874 587,874 586,874 586,875 585,875 584,875 584,876 583,876 582,876 582,878 581,878 579,878 579,879 578,879 578,880 574,880 574,881 572,881 572,882 570,882 570,883 568,883 568,884 562,884 562,885 555,885 549,885 549,886 545,886 534,886 534,885 532,885 532,884 527,884 527,883 524,883 524,882 522,882 522,881 521,881 521,880 518,880 518,879 516,879 516,878 514,878 514,876 511,876 511,875 510,875 510,873 509,873 509,872 507,872 507,871 506,871 506,869 505,869 505,868 504,868 504,867 503,867 503,866 502,866 502,864 500,864 500,862 498,862 498,860 496,860 496,858 495,858 495,857 494,857 494,855 493,855 493,854 492,854 492,852 490,852 490,850 490,849 489,849 489,848 488,848 488,844 487,844 487,843 486,843 486,840 485,840 485,838 484,838 484,834 483,834 483,833 482,833 482,828 481,828 481,826 480,826 480,821 479,821 479,820 478,820 478,817 477,817 477,816 476,816 476,809 475,809 475,807 474,807 474,804 474,795 473,795 473,789 473,788 472,788 472,787 472,728 473,728 473,724 474,724 474,719 475,719 475,711 476,711 476,704 478,704 478,700 479,700 479,699 480,699 480,694 481,694 481,692 482,692 482,690 484,690 484,688 500,688 500,689 502,689 502,690 509,690 509,691 512,691 512,692 518,692 518,693 520,693 520,694 527,694 527,695 528,695 528,696 535,696 535,697 537,697 537,698 544,698 544,699 546,699 546,700 552,700 552,701 554,701 554,702 560,702 560,703 563,703 563,704 570,704 570,705 572,705 572,706 578,706 578,707 580,707 580,708 586,708 586,709 589,709 589,710 596,710 596,711 598,711 598,712 603,712 603,713 606,713 606,714 608,714 608,715 609,715 609,716 612,716 612,718 614,718 614,720 616,720 616,722 618,722 618,723 619,723 619,724 620,724 620,726 621,726 621,727 622,727 622,728 623,728 623,729 624,729 624,732 626,732 626,735 627,735 627,736 628,736 628,737 629,737 629,738 630,738 630,747 z M 511,722 511,723 510,723 510,724 508,724 508,726 506,726 506,727 505,727 505,728 504,728 504,729 503,729 503,730 501,730 501,731 500,731 500,732 499,732 499,733 498,733 498,734 497,734 497,735 496,735 496,736 495,736 495,737 494,737 494,739 494,740 493,740 493,741 492,741 492,744 490,744 490,748 489,748 489,750 488,750 488,758 487,758 487,761 486,761 486,768 486,781 487,781 487,784 488,784 488,802 489,802 489,804 490,804 490,810 491,810 491,812 492,812 492,816 493,816 493,818 494,818 494,824 495,824 495,826 496,826 496,830 497,830 497,832 498,832 498,834 499,834 499,835 500,835 500,838 502,838 502,840 503,840 503,841 504,841 504,843 505,843 505,844 506,844 506,846 508,846 508,849 509,849 509,850 510,850 510,852 512,852 512,854 514,854 514,856 516,856 516,858 518,858 518,859 519,859 519,860 521,860 521,861 522,861 522,862 524,862 524,863 525,863 525,864 528,864 528,866 531,866 531,867 532,867 532,868 534,868 534,869 536,869 536,870 564,870 564,869 566,869 566,868 570,868 570,867 571,867 571,866 574,866 574,865 576,865 576,864 578,864 578,862 580,862 580,861 581,861 581,860 582,860 582,859 583,859 583,858 585,858 585,857 586,857 586,856 587,856 587,855 588,855 588,853 589,853 589,852 590,852 590,851 591,851 591,850 592,850 592,848 593,848 593,847 594,847 594,845 595,845 595,844 596,844 596,842 597,842 597,840 598,840 598,838 600,838 600,835 601,835 601,834 602,834 602,832 603,832 603,831 604,831 604,828 605,828 605,826 606,826 606,824 607,824 607,822 608,822 608,818 609,818 609,816 610,816 610,812 611,812 611,810 612,810 612,805 613,805 613,803 614,803 614,797 615,797 615,794 616,794 616,789 617,789 617,785 618,785 618,760 617,760 617,757 616,757 616,750 615,750 615,748 614,748 614,743 613,743 613,742 612,742 612,740 610,740 610,737 609,737 609,736 608,736 608,735 607,735 607,734 605,734 605,733 604,733 604,732 602,732 602,731 601,731 601,730 598,730 598,729 596,729 596,728 594,728 594,727 593,727 593,726 588,726 588,724 584,724 584,723 582,723 582,722 577,722 577,721 576,721 576,720 570,720 570,719 568,719 568,718 562,718 562,717 560,717 560,716 528,716 528,717 526,717 526,718 520,718 520,719 519,719 519,720 515,720 515,721 514,721 514,722 z" fill="#ff0000" fill-opacity="1.0" id="xff0000_r255_g0_b0_a1.0_shape5"/>
    <path d="M 140,389 140,390 138,390 138,389 136,389 136,388 133,388 133,387 132,387 132,386 128,386 128,385 126,385 126,384 122,384 122,379 122,376 123,376 123,375 124,375 124,372 125,372 125,371 126,371 126,370 128,370 128,368 131,368 131,367 132,367 132,366 134,366 134,365 136,365 136,364 138,364 138,362 141,362 141,361 142,361 142,360 146,360 146,359 148,359 148,358 151,358 151,357 152,357 152,356 155,356 155,355 156,355 156,354 158,354 159,354 159,353 160,353 160,352 164,352 164,351 166,351 166,350 169,350 169,349 170,349 170,348 175,348 175,347 176,347 176,346 181,346 181,345 182,345 182,344 186,344 186,343 189,343 189,342 194,342 194,341 196,341 196,340 199,340 199,339 200,339 200,338 201,338 204,338 204,337 206,337 206,336 211,336 211,335 212,335 212,334 217,334 217,333 218,333 218,332 224,332 224,331 225,331 225,330 230,330 230,329 232,329 232,328 236,328 236,327 237,327 237,326 243,326 243,325 245,325 245,324 250,324 250,323 252,323 252,322 256,322 256,321 259,321 259,320 264,320 264,319 265,319 265,318 270,318 270,317 272,317 272,316 275,316 275,315 277,315 277,314 281,314 281,313 283,313 283,312 288,312 288,310 295,310 295,309 297,309 297,308 302,308 302,307 304,307 304,306 311,306 311,305 312,305 312,304 319,304 319,303 320,303 320,302 328,302 328,301 329,301 329,300 331,300 336,300 336,299 338,299 338,298 344,298 344,297 346,297 346,296 348,296 352,296 352,295 354,295 354,294 360,294 360,293 362,293 362,292 365,292 368,292 368,291 370,291 370,290 376,290 376,289 378,289 378,288 384,288 384,287 386,287 386,286 394,286 394,285 400,285 400,284 404,284 404,283 406,283 406,282 410,282 413,282 413,281 416,281 416,280 421,280 421,279 424,279 424,278 429,278 440,278 440,277 442,277 442,276 452,276 452,275 454,275 454,274 464,274 464,273 468,273 468,272 485,272 485,273 486,273 486,274 488,274 488,276 489,276 489,278 488,278 488,279 486,279 486,280 482,280 482,281 480,281 480,282 472,282 472,283 469,283 469,284 462,284 462,285 459,285 459,286 454,286 454,287 452,287 452,288 446,288 446,289 444,289 444,290 438,290 438,291 436,291 436,292 430,292 430,293 428,293 428,294 423,294 423,295 421,295 421,296 416,296 416,297 415,297 415,298 409,298 409,299 407,299 407,300 402,300 402,301 400,301 400,302 394,302 394,303 392,303 392,304 386,304 386,305 384,305 384,306 378,306 378,307 377,307 377,308 372,308 372,309 370,309 370,310 365,310 365,311 363,311 363,312 358,312 358,314 353,314 353,315 352,315 352,316 348,316 348,317 347,317 347,318 344,318 344,319 342,319 342,320 336,320 336,322 331,322 331,323 330,323 330,324 326,324 326,325 324,325 324,326 318,326 318,327 317,327 317,328 312,328 312,329 311,329 311,330 306,330 306,331 304,331 304,332 301,332 301,333 299,333 299,334 296,334 296,335 294,335 294,336 289,336 289,337 288,337 288,338 284,338 284,339 282,339 282,340 278,340 278,341 277,341 277,342 273,342 273,343 272,343 272,344 265,344 265,345 264,345 264,346 259,346 259,347 256,347 256,348 253,348 253,349 251,349 251,350 248,350 248,351 246,351 246,352 241,352 241,353 240,353 240,354 235,354 235,355 234,355 234,356 230,356 230,357 228,357 228,358 224,358 224,359 223,359 223,360 219,360 219,361 218,361 218,362 214,362 214,363 212,363 212,364 208,364 208,365 207,365 207,366 203,366 203,367 202,367 202,368 197,368 197,369 195,369 195,370 192,370 192,371 190,371 190,372 186,372 186,373 185,373 185,374 182,374 182,375 180,375 180,376 176,376 176,378 172,378 172,379 171,379 171,380 168,380 168,381 166,381 166,382 160,382 160,380 157,380 157,379 156,379 156,376 155,376 155,368 154,368 154,367 153,367 153,368 151,368 151,369 150,369 150,371 149,371 149,372 148,372 148,381 147,381 147,383 146,383 146,385 145,385 145,386 144,386 144,388 143,388 143,389 z" fill="#ff0000" fill-opacity="1.0" id="xff0000_r255_g0_b0_a1.0_shape6"/>
    <path d="M 392,352 388,352 388,353 386,353 386,354 382,354 382,356 378,356 378,358 377,358 374,358 374,359 372,359 372,360 368,360 368,361 367,361 367,362 366,362 363,362 363,363 362,363 362,364 358,364 358,365 356,365 356,366 353,366 352,366 352,368 351,368 347,368 347,369 346,369 346,370 345,370 342,370 342,371 341,371 341,372 337,372 337,373 336,373 336,374 331,374 330,374 330,375 329,375 328,375 328,376 327,376 324,376 324,377 322,377 322,378 317,378 317,379 316,379 316,380 315,380 312,380 312,381 311,381 311,382 307,382 307,383 306,383 306,384 305,384 305,385 296,385 296,384 294,384 294,382 293,382 293,380 292,380 292,376 293,376 293,375 294,375 294,373 295,373 295,372 298,372 298,371 299,371 299,370 300,370 300,368 309,368 312,368 312,367 313,367 313,366 316,366 316,365 318,365 318,364 320,364 324,364 324,363 325,363 325,362 330,362 330,361 331,361 331,360 332,360 336,360 336,359 337,359 337,358 340,358 340,357 341,357 341,356 344,356 344,355 346,355 346,354 349,354 349,353 350,353 350,352 354,352 354,350 358,350 358,348 362,348 362,346 366,346 366,345 367,345 367,344 370,344 370,343 371,343 371,342 374,342 374,340 378,340 378,338 382,338 382,337 383,337 383,336 386,336 386,335 388,335 388,334 390,334 390,333 391,333 391,332 394,332 394,331 395,331 395,330 398,330 398,329 400,329 400,328 402,328 402,327 403,327 403,326 406,326 406,325 407,325 407,324 410,324 410,323 411,323 411,322 414,322 414,321 416,321 416,320 419,320 419,319 420,319 420,318 424,318 424,317 425,317 425,316 428,316 428,314 432,314 432,312 436,312 436,310 440,310 440,309 441,309 441,308 444,308 444,307 445,307 445,306 448,306 448,305 449,305 449,304 454,304 454,302 458,302 458,301 461,301 461,300 465,300 465,299 467,299 467,298 472,298 472,296 476,296 476,295 480,295 480,294 485,294 485,293 487,293 487,292 492,292 492,291 495,291 495,290 501,290 501,289 502,289 502,288 508,288 508,287 512,287 512,286 516,286 516,285 518,285 518,284 524,284 524,283 528,283 528,282 534,282 534,281 536,281 536,280 544,280 544,279 547,279 547,278 556,278 556,277 560,277 560,276 581,276 586,276 626,276 626,277 632,277 632,278 640,278 640,279 648,279 648,280 656,280 656,281 658,281 658,282 661,282 661,283 678,283 678,284 682,284 682,286 684,286 684,290 683,290 683,291 682,291 682,293 681,293 681,294 679,294 679,295 678,295 678,296 669,296 669,295 668,295 668,294 666,294 666,292 664,292 664,291 656,291 656,292 640,292 640,291 635,291 635,290 629,290 616,290 616,289 606,289 606,290 586,290 579,290 579,291 574,291 574,292 560,292 560,293 557,293 557,294 550,294 550,295 547,295 547,296 540,296 540,297 538,297 538,298 531,298 531,299 528,299 528,300 522,300 522,301 520,301 520,302 513,302 513,303 512,303 512,304 507,304 507,305 505,305 505,306 501,306 501,307 499,307 499,308 495,308 495,309 493,309 493,310 488,310 488,311 486,311 486,312 482,312 482,313 480,313 480,314 477,314 477,315 475,315 475,316 470,316 470,318 466,318 466,319 464,319 464,320 460,320 460,321 459,321 459,322 456,322 456,323 454,323 454,324 451,324 451,325 450,325 450,326 446,326 446,327 445,327 445,328 442,328 442,329 441,329 441,330 437,330 437,331 436,331 436,332 432,332 432,333 431,333 431,334 428,334 428,335 427,335 427,336 424,336 424,337 422,337 422,338 418,338 418,339 416,339 416,340 414,340 414,341 413,341 413,342 410,342 410,343 409,343 409,344 406,344 406,345 404,345 404,346 401,346 401,347 400,347 400,348 397,348 397,349 396,349 396,350 394,350 394,351 392,351 z" fill="#ff0000" fill-opacity="1.0" id="xff0000_r255_g0_b0_a1.0_shape7"/>
    <path d="M 798,322 798,323 800,323 800,324 801,324 801,325 802,325 802,326 805,326 805,327 806,327 806,328 808,328 809,328 809,329 810,329 810,330 812,330 812,331 814,331 814,332 816,332 816,333 818,333 818,334 820,334 820,335 821,335 821,336 824,336 824,338 828,338 828,339 828,340 831,340 831,341 832,341 832,342 834,342 834,344 836,344 836,345 837,345 837,346 839,346 839,347 840,347 840,348 841,348 841,349 842,349 842,350 844,350 844,352 847,352 847,353 848,353 848,354 850,354 850,356 852,356 852,357 853,357 853,358 856,358 856,360 858,360 858,361 859,361 859,362 860,362 860,363 861,363 861,364 863,364 863,365 864,365 864,367 866,367 866,368 868,368 868,370 870,370 870,372 872,372 872,374 874,374 874,376 876,376 876,378 877,378 877,379 878,379 878,380 879,380 879,381 880,381 880,382 881,382 881,383 882,383 882,384 884,384 884,386 886,386 886,388 888,388 888,390 890,390 890,392 891,392 892,392 892,394 893,394 894,394 894,396 896,396 896,398 897,398 897,400 899,400 899,401 900,401 900,409 899,409 899,410 898,410 898,411 897,411 897,412 888,412 888,410 886,410 886,408 884,408 884,406 882,406 882,404 880,404 880,402 879,402 879,401 878,401 878,400 876,400 876,398 874,398 874,396 872,396 872,394 870,394 870,392 868,392 868,390 866,390 866,388 864,388 864,386 863,386 863,385 862,385 862,384 860,384 860,382 858,382 858,380 856,380 856,378 854,378 854,377 853,377 853,376 851,376 851,375 850,375 850,374 849,374 849,373 848,373 848,372 846,372 846,370 844,370 844,369 843,369 843,368 841,368 841,367 840,367 840,366 839,366 839,365 838,365 838,364 836,364 836,363 835,363 835,362 833,362 833,361 832,361 832,360 830,360 830,358 827,358 827,357 826,357 826,356 824,356 824,354 821,354 821,353 820,353 820,352 818,352 818,350 815,350 815,349 814,349 814,348 812,348 812,346 810,346 810,345 808,345 808,344 806,344 806,342 804,342 804,341 803,341 803,340 800,340 800,338 797,338 797,337 796,337 796,336 793,336 793,335 792,335 792,334 790,334 790,333 789,333 789,332 785,332 785,331 784,331 784,330 780,330 780,329 779,329 779,328 776,328 776,327 774,327 774,326 772,326 772,325 771,325 771,324 768,324 768,323 766,323 766,322 765,322 765,321 764,321 764,320 763,320 763,319 762,319 762,318 760,318 760,317 757,317 757,316 750,316 750,315 749,315 749,314 746,314 746,312 743,312 743,311 742,311 742,310 740,310 740,308 738,308 738,307 736,307 736,305 735,305 735,304 732,304 732,303 731,303 731,302 727,302 727,301 724,301 724,300 714,300 714,299 712,299 712,298 704,298 704,297 703,297 703,296 700,296 700,295 699,295 699,294 698,294 698,292 699,292 699,291 700,291 700,290 716,290 716,291 721,291 721,292 728,292 728,293 730,293 730,294 734,294 734,296 736,296 736,297 737,297 737,298 739,298 739,299 741,299 741,300 743,300 743,299 747,299 747,300 755,300 755,301 756,301 756,302 760,302 760,304 763,304 763,305 764,305 764,306 766,306 766,307 768,307 768,308 772,308 772,310 776,310 776,312 780,312 780,313 781,313 781,314 784,314 784,315 785,315 785,316 788,316 788,317 790,317 790,318 792,318 792,320 795,320 795,321 796,321 796,322 z" fill="#ff0000" fill-opacity="1.0" id="xff0000_r255_g0_b0_a1.0_shape8"/>
    <path d="M 666,714 664,714 664,716 656,716 656,714 654,714 654,713 653,713 653,712 652,712 652,711 650,711 650,703 650,695 651,695 651,693 652,693 652,688 653,688 653,687 654,687 654,684 655,684 655,682 656,682 656,678 658,678 658,675 659,675 659,674 661,674 661,673 664,673 664,674 666,674 666,676 668,676 668,688 667,688 667,700 667,704 668,704 668,709 667,709 667,712 666,712 z" fill="#ff0000" fill-opacity="1.0" id="xff0000_r255_g0_b0_a1.0_shape9"/>
    <path d="M 397,662 397,664 396,664 396,666 395,666 395,668 394,668 394,675 393,675 393,676 392,676 392,678 390,678 390,680 389,680 385,680 384,680 384,679 383,679 382,679 382,678 381,678 380,678 380,677 379,677 379,676 378,676 378,675 378,665 379,665 379,664 380,664 380,662 382,662 382,657 383,657 383,656 384,656 384,650 385,650 385,648 386,648 386,645 387,645 387,644 388,644 388,639 389,639 389,638 396,638 396,640 398,640 398,662 z" fill="#ff0000" fill-opacity="1.0" id="xff0000_r255_g0_b0_a1.0_shape10"/>
    <path d="M 714,727 714,726 712,726 712,698 714,698 714,696 716,696 716,692 718,692 718,691 718,690 719,690 719,689 720,689 720,688 721,688 722,688 722,687 723,687 726,687 726,688 728,688 728,722 727,722 727,724 726,724 726,725 725,725 725,726 724,726 724,727 723,727 723,728 715,728 715,727 z" fill="#ff0000" fill-opacity="1.0" id="xff0000_r255_g0_b0_a1.0_shape11"/>
    <path d="M 417,644 418,644 418,641 419,641 419,640 420,640 420,639 425,639 425,640 428,640 428,642 429,642 429,644 430,644 430,645 429,645 429,649 428,649 428,654 427,654 427,656 426,656 426,668 425,668 425,670 424,670 424,674 423,674 423,675 422,675 422,678 420,678 420,680 411,680 411,678 410,678 410,676 409,676 409,674 408,674 408,666 409,666 409,664 410,664 410,660 411,660 411,658 412,658 412,654 413,654 413,653 414,653 414,651 415,651 415,650 416,650 416,646 417,646 z" fill="#ff0000" fill-opacity="1.0" id="xff0000_r255_g0_b0_a1.0_shape12"/>
    <path d="M 687,691 688,691 688,681 689,681 689,680 691,680 691,679 696,679 696,680 697,680 697,681 698,681 698,682 699,682 699,683 700,683 700,698 699,698 699,711 699,714 698,714 698,716 696,716 696,719 686,719 686,718 684,718 684,717 683,717 683,716 682,716 682,708 683,708 683,707 684,707 684,704 685,704 685,702 686,702 686,699 686,693 687,693 z" fill="#ff0000" fill-opacity="1.0" id="xff0000_r255_g0_b0_a1.0_shape13"/>
    <path d="M 439,666 440,666 440,664 441,664 441,662 442,662 442,650 444,650 444,648 448,648 448,649 450,649 450,650 452,650 452,651 453,651 453,652 454,652 454,655 455,655 455,662 455,669 454,669 454,676 453,676 453,678 452,678 452,680 451,680 451,681 450,681 450,683 449,683 449,684 446,684 446,685 444,685 444,686 441,686 441,685 440,685 440,684 439,684 439,683 438,683 438,680 438,678 437,678 437,676 436,676 436,675 437,675 437,670 438,670 438,667 439,667 z" fill="#ff0000" fill-opacity="1.0" id="xff0000_r255_g0_b0_a1.0_shape14"/>
    <path d="M 270,380 271,380 271,379 272,379 272,378 277,378 277,377 279,377 279,378 282,378 282,377 283,377 283,378 287,378 287,379 288,379 288,380 290,380 290,383 291,383 291,386 290,386 290,390 288,390 288,392 268,392 268,382 269,382 269,381 270,381 z" fill="#ff0000" fill-opacity="1.0" id="xff0000_r255_g0_b0_a1.0_shape15"/>
  </g>
</svg>
