<?xml version="1.0" encoding="utf-8" ?>
<svg xmlns="http://www.w3.org/2000/svg" xmlns:ev="http://www.w3.org/2001/xml-events" xmlns:xlink="http://www.w3.org/1999/xlink" baseProfile="full" height="1500px" version="1.1" viewBox="0 0 1500 1500" width="1500px">
  <defs/>
  <g id="xff0000_r255_g0_b0_a1.0">
    <path d="M 871,444 872,444 872,445 873,445 873,447 874,447 874,449 875,449 875,450 876,450 876,451 877,451 877,452 878,452 878,454 879,454 879,456 880,456 880,457 881,457 881,458 882,458 882,460 883,460 883,462 884,462 884,463 885,463 885,465 886,465 886,466 887,466 887,468 888,468 888,471 889,471 889,472 890,472 890,474 891,474 891,476 892,476 892,477 893,477 893,478 894,478 894,480 895,480 895,484 896,484 896,486 897,486 897,490 898,490 898,491 899,491 899,493 900,493 900,497 901,497 901,501 902,501 902,505 903,505 903,508 904,508 904,511 905,511 905,514 906,514 906,516 907,516 907,518 908,518 908,520 909,520 909,527 910,527 910,530 911,530 911,531 912,531 912,533 913,533 913,537 914,537 914,540 915,540 915,548 916,548 916,552 917,552 917,555 918,555 918,558 919,558 919,561 920,561 920,565 921,565 921,572 922,572 922,578 923,578 923,581 924,581 924,585 925,585 925,591 926,591 926,599 927,599 927,603 928,603 928,609 929,609 929,612 930,612 930,620 931,620 931,624 932,624 932,631 933,631 933,638 934,638 934,641 935,641 935,648 936,648 936,651 937,651 937,658 938,658 938,670 939,670 939,674 940,674 940,681 941,681 941,688 942,688 942,711 948,711 948,712 950,712 950,713 952,713 952,714 954,714 954,715 958,715 958,716 960,716 960,717 961,717 961,718 962,718 962,719 963,719 963,721 964,721 964,726 963,726 963,728 962,728 962,729 961,729 961,732 959,732 959,733 958,733 958,734 957,734 957,735 955,735 955,736 947,736 947,737 941,737 941,774 941,813 940,813 940,856 940,867 941,867 941,877 941,916 940,916 940,931 939,931 939,946 938,946 938,964 939,964 939,966 940,966 940,970 940,981 939,981 939,996 938,996 938,1007 937,1007 937,1055 936,1055 936,1072 937,1072 937,1105 936,1105 936,1108 935,1108 935,1112 934,1112 934,1116 933,1116 933,1122 932,1122 932,1126 931,1126 931,1130 930,1130 930,1134 929,1134 929,1137 928,1137 928,1141 927,1141 927,1144 926,1144 926,1147 925,1147 925,1150 924,1150 924,1152 923,1152 923,1154 922,1154 922,1156 921,1156 921,1159 920,1159 920,1161 919,1161 919,1162 918,1162 918,1164 917,1164 917,1165 916,1165 916,1166 914,1166 914,1167 909,1167 909,1166 907,1166 907,1165 906,1165 906,1164 905,1164 905,1162 904,1162 904,1157 905,1157 905,1155 906,1155 906,1154 907,1154 907,1151 908,1151 908,1149 909,1149 909,1147 910,1147 910,1145 911,1145 911,1142 912,1142 912,1139 913,1139 913,1136 914,1136 914,1132 915,1132 915,1129 916,1129 916,1125 917,1125 917,1121 918,1121 918,1114 919,1114 919,1111 920,1111 920,1107 921,1107 921,1103 922,1103 922,1073 921,1073 921,1035 920,1035 920,1026 915,1026 915,1027 914,1027 914,1028 913,1028 913,1031 912,1031 912,1047 911,1047 911,1054 910,1054 910,1057 909,1057 909,1061 908,1061 908,1065 907,1065 907,1068 906,1068 906,1071 905,1071 905,1075 904,1075 904,1077 903,1077 903,1082 902,1082 902,1085 901,1085 901,1089 900,1089 900,1093 899,1093 899,1101 898,1101 898,1104 897,1104 897,1107 896,1107 896,1110 895,1110 895,1112 894,1112 894,1116 893,1116 893,1119 892,1119 892,1122 891,1122 891,1124 890,1124 890,1126 889,1126 889,1128 888,1128 888,1129 887,1129 887,1130 886,1130 886,1133 885,1133 885,1135 884,1135 884,1136 883,1136 883,1138 882,1138 882,1140 881,1140 881,1141 880,1141 880,1143 879,1143 879,1144 878,1144 878,1147 877,1147 877,1149 876,1149 876,1150 875,1150 875,1151 874,1151 874,1152 873,1152 873,1154 872,1154 872,1155 871,1155 871,1156 870,1156 870,1157 869,1157 869,1158 868,1158 868,1159 867,1159 867,1160 865,1160 865,1161 864,1161 864,1162 863,1162 863,1163 862,1163 862,1164 861,1164 861,1165 860,1165 860,1166 859,1166 859,1167 858,1167 858,1168 857,1168 857,1169 856,1169 856,1170 855,1170 855,1171 854,1171 854,1172 852,1172 852,1173 851,1173 851,1174 849,1174 849,1175 847,1175 847,1176 844,1176 844,1177 834,1177 834,1176 832,1176 832,1175 830,1175 830,1174 829,1174 829,1173 827,1173 827,1172 826,1172 826,1171 824,1171 824,1170 822,1170 822,1169 821,1169 821,1168 820,1168 820,1167 818,1167 818,1166 816,1166 816,1165 815,1165 815,1164 814,1164 814,1162 813,1162 813,1161 811,1161 811,1160 810,1160 810,1159 809,1159 809,1158 808,1158 808,1157 807,1157 807,1155 806,1155 806,1154 805,1154 805,1153 804,1153 804,1152 803,1152 803,1151 802,1151 802,1150 801,1150 801,1149 800,1149 800,1148 799,1148 799,1147 798,1147 798,1146 797,1146 797,1144 796,1144 796,1142 795,1142 795,1141 794,1141 794,1139 793,1139 793,1137 792,1137 792,1135 791,1135 791,1134 790,1134 790,1132 789,1132 789,1130 788,1130 788,1129 787,1129 787,1127 786,1127 786,1125 785,1125 785,1124 784,1124 784,1122 783,1122 783,1121 782,1121 782,1119 781,1119 781,1117 780,1117 780,1116 779,1116 779,1114 778,1114 778,1112 777,1112 777,1111 776,1111 776,1109 775,1109 775,1108 774,1108 774,1106 773,1106 773,1105 772,1105 772,1103 771,1103 771,1099 770,1099 770,1097 769,1097 769,1095 768,1095 768,1093 767,1093 767,1090 766,1090 766,1087 765,1087 765,1084 764,1084 764,1080 763,1080 763,1076 762,1076 762,1072 761,1072 761,1069 760,1069 760,1065 759,1065 759,1062 758,1062 758,1059 757,1059 757,1052 756,1052 756,1048 755,1048 755,1025 754,1025 754,1018 753,1018 753,1010 752,1010 752,1011 751,1011 751,1012 750,1012 750,1013 749,1013 749,1015 748,1015 748,1016 747,1016 747,1017 745,1017 745,1018 744,1018 744,1019 742,1019 742,1020 741,1020 741,1021 740,1021 740,1022 739,1022 739,1023 737,1023 737,1024 736,1024 736,1025 734,1025 734,1026 731,1026 731,1027 727,1027 727,1028 725,1028 725,1029 724,1029 724,1030 722,1030 722,1031 719,1031 719,1032 716,1032 716,1033 713,1033 713,1034 711,1034 711,1035 709,1035 709,1036 708,1036 708,1037 707,1037 707,1038 705,1038 705,1039 702,1039 702,1040 699,1040 699,1041 690,1041 690,1042 688,1042 688,1043 689,1043 689,1045 690,1045 690,1046 691,1046 691,1047 692,1047 692,1048 693,1048 693,1049 694,1049 694,1051 696,1051 696,1052 697,1052 697,1053 698,1053 698,1055 699,1055 699,1057 700,1057 700,1058 701,1058 701,1060 702,1060 702,1063 703,1063 703,1066 704,1066 704,1069 705,1069 705,1073 706,1073 706,1076 707,1076 707,1077 708,1077 708,1079 709,1079 709,1083 710,1083 710,1087 711,1087 711,1090 712,1090 712,1094 713,1094 713,1098 714,1098 714,1102 715,1102 715,1105 716,1105 716,1109 717,1109 717,1113 718,1113 718,1116 719,1116 719,1120 720,1120 720,1123 721,1123 721,1126 722,1126 722,1127 723,1127 723,1129 724,1129 724,1131 725,1131 725,1134 726,1134 726,1138 727,1138 727,1139 728,1139 728,1141 729,1141 729,1145 730,1145 730,1148 731,1148 731,1151 732,1151 732,1152 733,1152 733,1154 734,1154 734,1157 735,1157 735,1159 736,1159 736,1160 737,1160 737,1162 738,1162 738,1165 739,1165 739,1166 740,1166 740,1168 741,1168 741,1171 742,1171 742,1172 743,1172 743,1174 744,1174 744,1175 745,1175 745,1177 746,1177 746,1178 747,1178 747,1179 748,1179 748,1181 749,1181 749,1182 750,1182 750,1183 751,1183 751,1185 754,1185 754,1186 756,1186 756,1187 757,1187 757,1188 758,1188 758,1190 759,1190 759,1198 758,1198 758,1200 757,1200 757,1201 756,1201 756,1202 754,1202 754,1203 749,1203 749,1202 738,1202 738,1200 736,1200 736,1199 734,1199 734,1198 732,1198 732,1197 730,1197 730,1196 728,1196 728,1195 726,1195 726,1194 725,1194 725,1193 724,1193 724,1192 723,1192 723,1191 722,1191 722,1189 721,1189 721,1188 720,1188 720,1187 719,1187 719,1186 718,1186 718,1185 717,1185 717,1183 716,1183 716,1180 715,1180 715,1179 714,1179 714,1177 713,1177 713,1173 712,1173 712,1172 711,1172 711,1170 710,1170 710,1169 709,1169 709,1167 708,1167 708,1163 707,1163 707,1162 706,1162 706,1160 705,1160 705,1157 704,1157 704,1153 703,1153 703,1151 702,1151 702,1150 701,1150 701,1148 700,1148 700,1144 699,1144 699,1141 698,1141 698,1138 697,1138 697,1136 696,1136 696,1134 695,1134 695,1132 694,1132 694,1129 693,1129 693,1125 692,1125 692,1122 691,1122 691,1115 690,1115 690,1112 689,1112 689,1105 688,1105 688,1098 687,1098 687,1095 686,1095 686,1090 685,1090 685,1085 684,1085 684,1081 683,1081 683,1073 682,1073 682,1070 681,1070 681,1069 680,1069 680,1065 679,1065 679,1063 678,1063 678,1062 677,1062 677,1061 676,1061 676,1060 675,1060 675,1058 674,1058 674,1057 673,1057 673,1056 672,1056 672,1055 671,1055 671,1054 670,1054 670,1053 669,1053 669,1052 667,1052 667,1051 666,1051 666,1050 664,1050 664,1049 662,1049 662,1048 661,1048 661,1047 656,1047 656,1046 647,1046 647,1047 636,1047 636,1048 629,1048 629,1049 622,1049 622,1050 611,1050 611,1051 607,1051 607,1052 604,1052 604,1053 598,1053 598,1054 594,1054 594,1055 593,1055 593,1056 591,1056 591,1057 588,1057 588,1058 586,1058 586,1059 584,1059 584,1060 582,1060 582,1061 580,1061 580,1062 578,1062 578,1063 577,1063 577,1064 575,1064 575,1065 574,1065 574,1066 573,1066 573,1067 572,1067 572,1068 571,1068 571,1069 569,1069 569,1070 567,1070 567,1071 566,1071 566,1072 565,1072 565,1073 564,1073 564,1074 563,1074 563,1075 562,1075 562,1076 561,1076 561,1077 560,1077 560,1079 559,1079 559,1080 558,1080 558,1081 557,1081 557,1082 556,1082 556,1083 555,1083 555,1084 554,1084 554,1085 553,1085 553,1086 552,1086 552,1088 551,1088 551,1089 550,1089 550,1091 549,1091 549,1092 548,1092 548,1093 547,1093 547,1094 546,1094 546,1096 545,1096 545,1098 544,1098 544,1099 543,1099 543,1100 542,1100 542,1101 541,1101 541,1103 540,1103 540,1105 539,1105 539,1106 538,1106 538,1107 537,1107 537,1109 536,1109 536,1110 535,1110 535,1112 534,1112 534,1113 533,1113 533,1115 532,1115 532,1117 531,1117 531,1118 530,1118 530,1120 529,1120 529,1121 528,1121 528,1123 527,1123 527,1124 526,1124 526,1125 525,1125 525,1127 524,1127 524,1129 523,1129 523,1131 522,1131 522,1132 521,1132 521,1134 520,1134 520,1137 519,1137 519,1139 518,1139 518,1140 517,1140 517,1141 515,1141 515,1142 510,1142 510,1141 508,1141 508,1140 507,1140 507,1139 506,1139 506,1138 505,1138 505,1137 504,1137 504,1136 503,1136 503,1135 502,1135 502,1133 501,1133 501,1128 502,1128 502,1125 503,1125 503,1122 504,1122 504,1119 506,1119 506,1117 507,1117 507,1113 508,1113 508,1110 509,1110 509,1106 510,1106 510,1104 511,1104 511,1103 512,1103 512,1100 513,1100 513,1098 514,1098 514,1097 515,1097 515,1095 516,1095 516,1094 517,1094 517,1092 518,1092 518,1090 519,1090 519,1089 520,1089 520,1088 521,1088 521,1087 522,1087 522,1086 523,1086 523,1084 524,1084 524,1081 526,1081 526,1080 522,1080 522,1081 518,1081 518,1082 514,1082 514,1083 505,1083 505,1082 504,1082 504,1083 503,1083 503,1090 502,1090 502,1093 503,1093 503,1095 504,1095 504,1100 503,1100 503,1102 502,1102 502,1103 501,1103 501,1104 499,1104 499,1105 494,1105 494,1104 492,1104 492,1103 491,1103 491,1102 490,1102 490,1101 489,1101 489,1099 488,1099 488,1097 487,1097 487,1088 488,1088 488,1081 489,1081 489,1079 487,1079 487,1080 469,1080 469,1087 466,1087 466,1090 464,1090 464,1092 465,1092 465,1097 464,1097 464,1099 463,1099 463,1100 462,1100 462,1101 460,1101 460,1102 455,1102 455,1101 452,1101 452,1100 450,1100 450,1099 449,1099 449,1098 447,1098 447,1097 445,1097 445,1096 444,1096 444,1095 443,1095 443,1094 442,1094 442,1093 441,1093 441,1091 440,1091 440,1089 439,1089 439,1087 438,1087 438,1082 439,1082 439,1078 442,1078 442,1075 441,1075 441,1074 437,1074 437,1073 433,1073 433,1072 431,1072 431,1071 430,1071 430,1070 428,1070 428,1069 427,1069 427,1068 425,1068 425,1067 424,1067 424,1066 423,1066 423,1065 422,1065 422,1064 421,1064 421,1062 420,1062 420,1061 419,1061 419,1059 418,1059 418,1055 416,1055 416,1053 415,1053 415,1052 414,1052 414,1050 413,1050 413,1045 414,1045 414,1043 415,1043 415,1042 416,1042 416,1041 417,1041 417,1040 418,1040 418,1039 420,1039 420,1038 422,1038 422,1037 424,1037 424,1036 427,1036 427,1035 429,1035 429,1034 431,1034 431,1033 434,1033 434,1032 437,1032 437,1031 440,1031 440,1030 448,1030 448,1029 454,1029 454,1028 457,1028 457,1015 456,1015 456,1013 455,1013 455,1008 456,1008 456,1003 457,1003 457,995 458,995 458,987 459,987 459,979 460,979 460,975 461,975 461,968 462,968 462,964 463,964 463,961 464,961 464,954 465,954 465,950 466,950 466,946 467,946 467,944 468,944 468,934 469,934 469,930 470,930 470,926 471,926 471,919 472,919 472,915 473,915 473,913 474,913 474,911 475,911 475,909 476,909 476,908 477,908 477,902 478,902 478,900 479,900 479,893 480,893 480,889 481,889 481,886 482,886 482,883 483,883 483,881 484,881 484,880 485,880 485,879 486,879 486,878 487,878 487,876 486,876 486,874 485,874 485,872 484,872 484,868 483,868 483,867 482,867 482,865 481,865 481,863 480,863 480,861 479,861 479,858 478,858 478,855 477,855 477,852 476,852 476,848 475,848 475,845 474,845 474,843 473,843 473,840 472,840 472,836 471,836 471,826 469,826 469,823 460,823 460,826 457,826 457,852 460,852 460,864 461,864 461,865 462,865 462,867 463,867 463,871 464,871 464,876 463,876 463,878 462,878 462,879 461,879 461,880 459,880 459,881 454,881 454,880 452,880 452,879 451,879 451,878 450,878 450,877 449,877 449,876 448,876 448,875 447,875 447,874 446,874 446,872 445,872 445,869 444,869 444,867 443,867 443,865 442,865 442,864 441,864 441,863 440,863 440,861 439,861 439,856 438,856 438,854 437,854 437,853 436,853 436,851 435,851 435,845 434,845 434,842 433,842 433,841 432,841 432,839 431,839 431,836 430,836 430,832 429,832 429,829 428,829 428,826 427,826 427,823 426,823 426,820 425,820 425,816 424,816 424,813 423,813 423,809 422,809 422,803 421,803 421,800 420,800 420,796 419,796 419,793 418,793 418,790 417,790 417,787 416,787 416,783 415,783 415,776 414,776 414,770 413,770 413,763 412,763 412,756 411,756 411,748 410,748 410,722 409,722 409,723 407,723 407,724 406,724 406,725 405,725 405,726 404,726 404,727 402,727 402,728 399,728 399,729 398,729 398,730 396,730 396,731 394,731 394,732 393,732 393,733 391,733 391,734 387,734 387,735 383,735 383,736 380,736 380,737 377,737 377,738 373,738 373,739 371,739 371,740 370,740 370,741 368,741 368,742 366,742 366,743 364,743 364,744 363,744 363,745 362,745 362,746 360,746 360,747 358,747 358,748 357,748 357,749 355,749 355,750 349,750 349,749 347,749 347,748 346,748 346,747 345,747 345,745 344,745 344,740 345,740 345,738 346,738 346,737 347,737 347,735 348,735 348,734 349,734 349,733 350,733 350,731 351,731 351,729 352,729 352,728 353,728 353,727 354,727 354,724 356,724 356,723 357,723 357,718 359,718 359,717 360,717 360,715 361,715 361,714 362,714 362,713 363,713 363,706 366,706 366,700 369,700 369,697 370,697 370,696 371,696 371,695 372,695 372,692 373,692 373,689 374,689 374,687 375,687 375,685 376,685 376,682 377,682 377,680 378,680 378,677 379,677 379,674 380,674 380,672 381,672 381,670 382,670 382,666 383,666 383,662 384,662 384,660 385,660 385,659 386,659 386,656 387,656 387,653 388,653 388,649 389,649 389,647 390,647 390,644 391,644 391,640 392,640 392,637 393,637 393,635 394,635 394,634 395,634 395,630 396,630 396,628 397,628 397,627 398,627 398,621 401,621 401,615 404,615 404,609 405,609 405,607 406,607 406,603 407,603 407,595 409,595 409,592 410,592 410,589 411,589 411,585 412,585 412,581 413,581 413,577 414,577 414,574 415,574 415,570 416,570 416,562 418,562 418,560 419,560 419,556 420,556 420,552 421,552 421,548 422,548 422,544 423,544 423,537 424,537 424,534 425,534 425,532 426,532 426,530 427,530 427,527 428,527 428,524 429,524 429,522 430,522 430,521 431,521 431,513 428,513 428,510 425,510 425,506 424,506 424,505 423,505 423,504 422,504 422,503 421,503 421,501 420,501 420,499 419,499 419,498 418,498 418,496 417,496 417,495 416,495 416,493 415,493 415,492 414,492 414,490 413,490 413,488 412,488 412,487 411,487 411,486 410,486 410,483 409,483 409,482 408,482 408,480 407,480 407,479 406,479 406,477 405,477 405,475 404,475 404,473 403,473 403,471 402,471 402,469 401,469 401,468 400,468 400,467 399,467 399,465 398,465 398,462 397,462 397,461 396,461 396,460 395,460 395,456 394,456 394,455 393,455 393,454 392,454 392,452 391,452 391,450 390,450 390,448 389,448 389,446 388,446 388,443 387,443 387,441 386,441 386,440 385,440 385,438 384,438 384,436 383,436 383,435 382,435 382,434 381,434 381,432 380,432 380,430 379,430 379,428 378,428 378,426 377,426 377,424 376,424 376,420 375,420 375,417 374,417 374,415 373,415 373,413 372,413 372,406 371,406 371,404 370,404 369,404 369,401 372,401 372,395 375,395 375,392 378,392 378,390 379,390 379,389 380,389 380,387 381,387 381,386 382,386 382,385 384,385 384,381 387,381 387,378 390,378 390,381 392,381 392,387 393,387 393,389 394,389 394,390 395,390 395,394 396,394 396,396 397,396 397,398 398,398 398,400 399,400 399,401 400,401 400,402 401,402 401,404 402,404 402,407 403,407 403,408 404,408 404,410 405,410 405,411 406,411 406,413 407,413 407,414 408,414 408,416 409,416 409,417 410,417 410,419 411,419 411,422 412,422 412,423 413,423 413,425 414,425 414,428 415,428 415,430 416,430 416,431 417,431 417,432 418,432 418,434 419,434 419,438 420,438 420,439 421,439 421,440 422,440 422,441 423,441 423,443 424,443 424,444 425,444 425,446 426,446 426,448 427,448 427,449 428,449 428,451 429,451 429,453 430,453 430,454 431,454 431,456 432,456 432,457 433,457 433,458 434,458 434,459 435,459 435,460 436,460 436,461 437,461 437,463 438,463 438,464 439,464 439,466 440,466 440,467 441,467 441,468 442,468 442,469 444,469 444,470 445,470 445,471 446,471 446,473 447,473 447,474 448,474 448,475 449,475 449,476 450,476 450,477 452,477 452,475 453,475 453,474 454,474 454,472 455,472 455,469 456,469 456,467 457,467 457,466 458,466 458,464 459,464 459,463 460,463 460,461 461,461 461,460 462,460 462,458 463,458 463,457 464,457 464,455 465,455 465,454 466,454 466,451 468,451 468,450 469,450 469,448 470,448 470,446 471,446 471,445 472,445 472,444 473,444 473,443 474,443 474,442 475,442 475,439 476,439 476,438 477,438 477,436 478,436 478,435 479,435 479,433 480,433 480,432 481,432 481,431 482,431 482,430 483,430 483,429 484,429 484,427 485,427 485,425 486,425 486,424 487,424 487,423 488,423 488,422 489,422 489,421 490,421 490,420 491,420 491,419 492,419 492,417 493,417 493,416 494,416 494,415 495,415 495,414 496,414 496,413 497,413 497,412 498,412 498,411 499,411 499,410 500,410 500,409 501,409 501,407 502,407 502,406 503,406 503,405 505,405 505,404 506,404 506,403 507,403 507,402 508,402 508,401 509,401 509,399 510,399 510,398 511,398 511,397 513,397 513,395 514,395 514,394 515,394 515,393 516,393 516,391 517,391 517,390 518,390 518,389 520,389 520,388 521,388 521,387 522,387 522,385 523,385 523,384 524,384 524,382 525,382 525,381 526,381 526,380 528,380 528,379 529,379 529,378 530,378 530,377 531,377 531,376 532,376 532,375 533,375 533,374 534,374 534,373 535,373 535,372 536,372 536,371 537,371 537,370 538,370 538,369 540,369 540,367 541,367 541,366 542,366 542,365 543,365 543,364 544,364 544,363 545,363 545,362 546,362 546,361 547,361 547,360 549,360 549,358 550,358 550,357 551,357 551,356 553,356 553,355 554,355 554,354 556,354 556,352 557,352 557,351 558,351 558,350 560,350 560,349 562,349 562,348 563,348 563,347 564,347 564,346 565,346 565,345 566,345 566,344 568,344 568,343 569,343 569,341 570,341 570,340 571,340 571,339 573,339 573,338 575,338 575,337 576,337 576,309 575,309 575,302 574,302 574,299 573,299 573,296 572,296 572,285 571,285 571,264 570,264 570,243 571,243 571,241 572,241 572,240 573,240 573,239 575,239 575,238 580,238 580,239 582,239 582,240 583,240 583,241 584,241 584,242 585,242 585,244 586,244 586,267 587,267 587,270 588,270 588,273 589,273 589,275 590,275 590,283 591,283 591,310 592,310 592,313 593,313 593,317 594,317 594,322 594,324 595,324 595,325 596,325 596,324 597,324 597,323 598,323 598,322 600,322 600,321 602,321 602,320 604,320 604,319 607,319 607,318 608,318 608,317 610,317 610,316 614,316 614,315 616,315 616,314 618,314 618,313 622,313 622,312 624,312 624,311 626,311 626,310 629,310 629,309 634,309 634,308 636,308 636,307 637,307 637,306 639,306 639,305 638,305 638,299 638,258 637,258 637,254 636,254 636,251 635,251 635,245 634,245 634,244 633,244 633,242 632,242 632,239 631,239 631,237 630,237 630,235 629,235 629,231 628,231 628,228 627,228 627,223 628,223 628,221 629,221 629,220 630,220 630,219 632,219 632,218 637,218 637,219 639,219 639,220 640,220 640,221 641,221 641,223 642,223 642,226 643,226 643,228 644,228 644,232 645,232 645,234 646,234 646,237 647,237 647,238 648,238 648,240 649,240 649,243 650,243 650,249 651,249 651,253 652,253 652,257 653,257 653,290 653,299 655,299 655,298 659,298 659,297 663,297 663,296 666,296 666,295 670,295 670,294 673,294 673,293 676,293 676,292 683,292 683,291 687,291 687,290 688,290 688,289 690,289 690,288 692,288 697,288 697,287 701,287 701,286 705,286 705,285 709,285 709,284 713,284 713,283 720,283 720,282 724,282 724,281 730,281 735,281 735,280 742,280 755,280 755,279 759,279 759,278 771,278 771,277 782,277 782,276 814,276 814,267 815,267 815,253 816,253 816,249 817,249 817,242 818,242 818,239 819,239 819,233 820,233 820,226 822,226 822,223 823,223 823,216 826,216 826,213 827,213 827,211 828,211 828,210 829,210 829,209 831,209 831,208 836,208 836,209 838,209 838,210 839,210 839,211 840,211 840,213 841,213 841,218 840,218 840,222 839,222 839,225 838,225 838,227 837,227 837,228 836,228 836,232 835,232 835,235 834,235 834,241 833,241 833,244 832,244 832,251 831,251 831,254 830,254 830,269 829,269 829,272 832,272 832,274 833,274 833,275 835,275 835,276 836,276 836,277 837,277 837,278 838,278 838,279 839,279 839,280 840,280 840,282 842,282 842,283 843,283 843,284 847,284 847,290 850,290 850,293 852,293 852,300 853,300 853,310 855,310 855,309 872,309 872,310 874,310 874,311 876,311 876,312 878,312 878,313 880,313 880,314 881,314 881,315 882,315 882,316 883,316 883,317 885,317 885,318 886,318 886,319 887,319 887,320 888,320 888,321 889,321 889,323 890,323 890,325 891,325 891,326 892,326 892,328 893,328 893,329 894,329 894,331 895,331 895,334 896,334 896,336 897,336 897,338 898,338 898,342 899,342 899,341 902,341 902,340 903,340 903,339 905,339 905,338 909,338 909,337 918,337 918,338 920,338 920,339 921,339 921,340 923,340 923,341 925,341 925,342 927,342 927,343 929,343 929,344 931,344 931,345 932,345 932,346 933,346 933,347 935,347 935,348 937,348 937,349 938,349 938,350 939,350 939,351 940,351 940,352 941,352 941,353 942,353 942,354 944,354 944,355 945,355 945,356 946,356 946,358 947,358 947,359 948,359 948,361 949,361 949,362 950,362 950,363 951,363 951,365 952,365 952,369 953,369 953,376 955,376 955,375 958,375 958,374 961,374 961,373 965,373 965,372 974,372 974,373 977,373 977,374 980,374 980,375 984,375 984,376 986,376 986,377 988,377 988,378 990,378 990,379 991,379 991,380 993,380 993,379 994,379 994,378 995,378 995,376 996,376 996,375 997,375 997,373 998,373 998,372 999,372 999,369 1000,369 1000,367 1001,367 1001,366 1002,366 1002,364 1003,364 1003,363 1004,363 1004,360 1005,360 1005,358 1006,358 1006,357 1007,357 1007,355 1008,355 1008,352 1009,352 1009,350 1010,350 1010,349 1011,349 1011,347 1012,347 1012,346 1013,346 1013,344 1014,344 1014,342 1015,342 1015,340 1016,340 1016,338 1017,338 1017,336 1018,336 1018,334 1019,334 1019,333 1020,333 1020,331 1021,331 1021,330 1022,330 1022,328 1023,328 1023,326 1024,326 1024,325 1025,325 1025,323 1026,323 1026,320 1027,320 1027,318 1028,318 1028,317 1029,317 1029,313 1030,313 1030,311 1031,311 1031,309 1032,309 1032,303 1033,303 1033,301 1034,301 1034,300 1035,300 1035,298 1036,298 1036,297 1037,297 1037,296 1039,296 1039,295 1044,295 1044,296 1046,296 1046,297 1047,297 1047,298 1048,298 1048,300 1049,300 1049,308 1047,308 1047,311 1046,311 1046,316 1044,316 1044,318 1043,318 1043,322 1042,322 1042,324 1041,324 1041,325 1040,325 1040,331 1038,331 1038,333 1037,333 1037,337 1034,337 1034,343 1031,343 1031,349 1028,349 1028,354 1025,354 1025,360 1022,360 1022,366 1019,366 1019,369 1017,369 1017,375 1014,375 1014,378 1012,378 1012,379 1011,379 1011,381 1010,381 1010,382 1009,382 1009,383 1008,383 1008,387 1005,387 1005,389 1004,389 1004,390 1008,390 1008,389 1029,389 1029,390 1033,390 1033,391 1041,391 1041,392 1045,392 1045,393 1047,393 1047,394 1049,394 1049,395 1052,395 1052,387 1057,387 1057,384 1058,384 1058,382 1059,382 1059,381 1060,381 1060,379 1061,379 1061,377 1062,377 1062,376 1063,376 1063,375 1064,375 1064,373 1065,373 1065,371 1066,371 1066,370 1067,370 1067,367 1068,367 1068,365 1069,365 1069,364 1070,364 1070,361 1071,361 1071,358 1072,358 1072,356 1073,356 1073,355 1074,355 1074,354 1076,354 1076,353 1078,353 1078,351 1080,351 1080,349 1081,349 1081,345 1082,345 1082,338 1083,338 1083,336 1084,336 1084,334 1087,334 1087,333 1092,333 1092,334 1094,334 1094,335 1095,335 1095,336 1096,336 1096,338 1097,338 1097,339 1099,339 1099,340 1100,340 1100,341 1101,341 1101,343 1102,343 1102,348 1101,348 1101,349 1104,349 1104,351 1101,351 1101,357 1100,357 1100,366 1099,366 1099,375 1097,375 1097,381 1096,381 1096,384 1095,384 1095,388 1094,388 1094,390 1093,390 1093,394 1092,394 1092,396 1091,396 1091,398 1090,398 1090,400 1089,400 1089,402 1088,402 1088,404 1087,404 1087,406 1086,406 1086,407 1085,407 1085,408 1084,408 1084,410 1083,410 1083,412 1082,412 1082,413 1081,413 1081,416 1080,416 1080,419 1079,419 1079,422 1078,422 1078,424 1077,424 1077,433 1076,433 1076,437 1075,437 1075,441 1074,441 1074,445 1073,445 1073,452 1072,452 1072,460 1071,460 1071,472 1072,472 1072,474 1073,474 1073,479 1074,479 1074,494 1075,494 1075,498 1076,498 1076,502 1077,502 1077,504 1078,504 1078,513 1079,513 1079,517 1080,517 1080,518 1081,518 1081,525 1082,525 1082,531 1083,531 1083,536 1084,536 1084,542 1085,542 1085,549 1086,549 1086,551 1087,551 1087,560 1088,560 1088,563 1089,563 1089,575 1090,575 1090,583 1091,583 1091,594 1092,594 1092,603 1093,603 1093,617 1094,617 1094,618 1095,618 1095,620 1096,620 1096,627 1097,627 1097,630 1098,630 1098,638 1099,638 1099,650 1100,650 1100,658 1101,658 1101,666 1102,666 1102,679 1103,679 1103,690 1104,690 1104,702 1105,702 1105,710 1106,710 1106,718 1107,718 1107,730 1108,730 1108,737 1109,737 1109,753 1110,753 1110,761 1111,761 1111,777 1112,777 1112,792 1113,792 1113,800 1114,800 1114,812 1115,812 1115,816 1116,816 1116,823 1117,823 1117,831 1118,831 1118,835 1119,835 1119,845 1120,845 1120,848 1121,848 1121,850 1122,850 1122,860 1123,860 1123,863 1124,863 1124,870 1125,870 1125,878 1126,878 1126,882 1127,882 1127,885 1128,885 1128,890 1129,890 1129,894 1130,894 1130,897 1131,897 1131,900 1132,900 1132,908 1133,908 1133,912 1134,912 1134,915 1135,915 1135,922 1136,922 1136,926 1137,926 1137,930 1138,930 1138,934 1139,934 1139,942 1140,942 1140,950 1141,950 1141,954 1142,954 1142,957 1143,957 1143,961 1144,961 1144,967 1145,967 1145,971 1146,971 1146,975 1147,975 1147,977 1148,977 1148,978 1149,978 1149,980 1150,980 1150,981 1151,981 1151,987 1152,987 1152,988 1153,988 1153,990 1154,990 1154,994 1155,994 1155,996 1158,996 1158,1001 1159,1001 1159,1003 1160,1003 1160,1004 1161,1004 1161,1006 1162,1006 1162,1011 1161,1011 1161,1015 1160,1015 1160,1017 1159,1017 1159,1018 1158,1018 1158,1019 1157,1019 1157,1020 1156,1020 1156,1021 1154,1021 1154,1022 1150,1022 1150,1023 1141,1023 1141,1022 1139,1022 1139,1021 1138,1021 1138,1020 1137,1020 1137,1019 1136,1019 1136,1018 1135,1018 1135,1017 1134,1017 1134,1016 1133,1016 1133,1014 1132,1014 1132,1012 1131,1012 1131,1010 1130,1010 1130,1008 1129,1008 1129,1007 1128,1007 1128,1005 1127,1005 1127,1004 1126,1004 1126,1003 1123,1003 1123,1002 1121,1002 1121,1001 1120,1001 1120,1000 1119,1000 1119,998 1118,998 1118,996 1117,996 1117,994 1116,994 1116,992 1115,992 1115,989 1114,989 1114,987 1113,987 1113,985 1112,985 1112,981 1111,981 1111,977 1110,977 1110,973 1109,973 1109,969 1108,969 1108,965 1107,965 1107,962 1106,962 1106,959 1105,959 1105,955 1104,955 1104,952 1103,952 1103,946 1102,946 1102,942 1101,942 1101,938 1100,938 1100,935 1099,935 1099,927 1098,927 1098,920 1097,920 1097,912 1096,912 1096,904 1095,904 1095,893 1094,893 1094,877 1093,877 1093,861 1092,861 1092,850 1091,850 1091,847 1090,847 1090,824 1089,824 1089,813 1088,813 1088,811 1087,811 1087,791 1086,791 1086,783 1085,783 1085,776 1084,776 1084,761 1083,761 1083,749 1082,749 1082,744 1081,744 1081,734 1080,734 1080,726 1079,726 1079,718 1078,718 1078,703 1077,703 1077,695 1076,695 1076,687 1075,687 1075,679 1074,679 1074,672 1073,672 1073,668 1072,668 1072,661 1071,661 1071,654 1070,654 1070,647 1069,647 1069,639 1068,639 1068,632 1067,632 1067,624 1066,624 1066,617 1066,612 1065,612 1065,607 1065,600 1064,600 1064,593 1064,592 1063,592 1063,591 1063,585 1062,585 1062,578 1061,578 1061,570 1060,570 1060,562 1059,562 1059,554 1058,554 1058,546 1057,546 1057,542 1056,542 1056,535 1055,535 1055,531 1054,531 1054,527 1053,527 1053,520 1052,520 1052,517 1051,517 1051,513 1050,513 1050,505 1049,505 1049,501 1048,501 1048,497 1047,497 1047,490 1046,490 1046,486 1045,486 1045,483 1044,483 1044,480 1044,479 1043,479 1043,478 1043,471 1042,471 1042,456 1042,454 1043,454 1043,451 1043,447 1044,447 1044,443 1045,443 1045,442 1044,442 1035,442 1035,443 1032,443 1028,443 1028,444 1025,444 1023,444 1023,443 1020,443 1019,443 1019,442 1018,442 1014,442 1014,440 1013,440 1013,439 1008,439 1008,436 1005,436 1005,434 1002,434 1002,431 999,431 999,426 998,426 998,425 993,425 993,426 991,426 991,427 989,427 989,428 987,428 985,428 985,429 980,429 980,430 981,430 981,434 982,434 982,437 983,437 983,440 984,440 984,443 985,443 985,450 986,450 986,453 987,453 987,456 988,456 988,460 989,460 989,468 990,468 990,469 991,469 991,470 992,470 992,472 993,472 993,479 994,479 994,487 995,487 995,495 996,495 996,503 997,503 997,527 998,527 998,542 999,542 999,553 1000,553 1000,565 1001,565 1001,576 1002,576 1002,587 1003,587 1003,594 1004,594 1004,602 1005,602 1005,613 1006,613 1006,621 1007,621 1007,628 1008,628 1008,636 1009,636 1009,643 1010,643 1010,651 1011,651 1011,654 1012,654 1012,662 1013,662 1013,689 1014,689 1014,705 1015,705 1015,721 1016,721 1016,731 1017,731 1017,733 1018,733 1018,756 1019,756 1019,771 1020,771 1020,806 1021,806 1021,814 1022,814 1022,821 1023,821 1023,829 1024,829 1024,836 1025,836 1025,837 1026,837 1026,839 1027,839 1027,857 1028,857 1028,864 1029,864 1029,875 1030,875 1030,883 1031,883 1031,895 1032,895 1032,926 1033,926 1033,929 1034,929 1034,933 1035,933 1035,941 1036,941 1036,948 1037,948 1037,954 1038,954 1038,956 1039,956 1039,958 1040,958 1040,961 1041,961 1041,963 1042,963 1042,965 1043,965 1043,966 1044,966 1044,968 1045,968 1045,970 1046,970 1046,971 1049,971 1049,972 1051,972 1051,973 1053,973 1053,974 1057,974 1057,970 1055,970 1055,959 1054,959 1054,952 1053,952 1053,941 1052,941 1052,938 1051,938 1051,923 1050,923 1050,914 1050,900 1051,900 1051,898 1052,898 1052,897 1053,897 1053,896 1055,896 1055,895 1060,895 1060,896 1062,896 1062,897 1063,897 1063,898 1064,898 1064,900 1065,900 1065,908 1066,908 1066,912 1067,912 1067,916 1068,916 1068,919 1069,919 1069,921 1070,921 1070,923 1071,923 1071,926 1072,926 1072,929 1073,929 1073,932 1074,932 1074,935 1075,935 1075,938 1076,938 1076,941 1077,941 1077,945 1078,945 1078,947 1079,947 1079,949 1080,949 1080,951 1081,951 1081,955 1082,955 1082,958 1083,958 1083,960 1084,960 1084,964 1085,964 1085,966 1086,966 1086,968 1087,968 1087,971 1088,971 1088,974 1089,974 1089,977 1090,977 1090,979 1091,979 1091,981 1092,981 1092,983 1093,983 1093,985 1094,985 1094,987 1095,987 1095,989 1096,989 1096,990 1097,990 1097,991 1098,991 1098,993 1099,993 1099,995 1100,995 1100,996 1102,996 1102,997 1104,997 1104,998 1105,998 1105,999 1109,999 1109,1000 1111,1000 1111,1001 1113,1001 1113,1002 1116,1002 1116,1003 1118,1003 1118,1004 1119,1004 1119,1005 1120,1005 1120,1006 1122,1006 1122,1007 1123,1007 1123,1008 1125,1008 1125,1009 1126,1009 1126,1010 1127,1010 1127,1012 1128,1012 1128,1014 1129,1014 1129,1015 1130,1015 1130,1017 1131,1017 1131,1018 1132,1018 1132,1019 1133,1019 1133,1020 1134,1020 1134,1021 1135,1021 1135,1023 1136,1023 1136,1026 1137,1026 1137,1031 1136,1031 1136,1033 1135,1033 1135,1034 1134,1034 1134,1035 1132,1035 1132,1036 1131,1036 1131,1038 1130,1038 1130,1040 1129,1040 1129,1041 1128,1041 1128,1042 1126,1042 1126,1043 1121,1043 1121,1042 1119,1042 1119,1041 1118,1041 1118,1040 1117,1040 1117,1038 1116,1038 1116,1037 1115,1037 1115,1036 1114,1036 1114,1035 1113,1035 1113,1034 1112,1034 1112,1033 1111,1033 1111,1032 1109,1032 1109,1031 1108,1031 1108,1030 1106,1030 1106,1029 1105,1029 1105,1028 1103,1028 1103,1027 1101,1027 1101,1026 1099,1026 1099,1025 1097,1025 1097,1024 1095,1024 1095,1023 1093,1023 1093,1022 1092,1022 1092,1021 1088,1021 1088,1020 1086,1020 1086,1019 1084,1019 1084,1018 1082,1018 1082,1017 1079,1017 1079,1016 1078,1016 1078,1018 1077,1018 1077,1023 1076,1023 1076,1025 1075,1025 1075,1026 1074,1026 1074,1028 1073,1028 1073,1030 1072,1030 1072,1034 1071,1034 1071,1036 1070,1036 1070,1037 1069,1037 1069,1040 1068,1040 1068,1044 1067,1044 1067,1047 1066,1047 1066,1054 1065,1054 1065,1058 1064,1058 1064,1062 1063,1062 1063,1069 1062,1069 1062,1073 1061,1073 1061,1084 1060,1084 1060,1092 1059,1092 1059,1104 1058,1104 1058,1107 1057,1107 1057,1109 1056,1109 1056,1110 1055,1110 1055,1111 1053,1111 1053,1112 1048,1112 1048,1111 1046,1111 1046,1113 1043,1113 1043,1099 1044,1099 1044,1091 1045,1091 1045,1083 1046,1083 1046,1072 1047,1072 1047,1068 1048,1068 1048,1061 1049,1061 1049,1057 1050,1057 1050,1053 1051,1053 1051,1045 1052,1045 1052,1042 1053,1042 1053,1039 1054,1039 1054,1035 1055,1035 1055,1031 1056,1031 1056,1029 1057,1029 1057,1028 1058,1028 1058,1025 1059,1025 1059,1023 1060,1023 1060,1021 1061,1021 1061,1019 1062,1019 1062,1015 1063,1015 1063,1013 1064,1013 1064,1011 1065,1011 1065,1010 1062,1010 1062,1009 1060,1009 1060,1008 1055,1008 1055,1007 1053,1007 1053,1006 1050,1006 1050,1005 1048,1005 1048,1004 1046,1004 1046,1003 1043,1003 1043,1002 1040,1002 1040,1001 1036,1001 1036,1000 1033,1000 1033,999 1031,999 1031,998 1030,998 1030,997 1029,997 1029,996 1026,996 1026,997 1025,997 1025,998 1024,998 1024,999 1023,999 1023,1003 1022,1003 1022,1014 1021,1014 1021,1056 1022,1056 1022,1075 1023,1075 1023,1086 1024,1086 1024,1097 1025,1097 1025,1102 1024,1102 1024,1104 1023,1104 1023,1105 1022,1105 1022,1107 1014,1107 1014,1106 1013,1106 1013,1105 1012,1105 1012,1104 1011,1104 1011,1102 1010,1102 1010,1099 1009,1099 1009,1088 1008,1088 1008,1077 1007,1077 1007,1057 1006,1057 1006,1012 1007,1012 1007,1002 1008,1002 1008,994 1009,994 1009,990 1008,990 1008,987 1007,987 1007,980 1006,980 1006,969 1005,969 1005,948 1006,948 1006,946 1007,946 1007,945 1008,945 1008,901 1007,901 1007,893 1006,893 1006,877 1005,877 1005,866 1004,866 1004,859 1003,859 1003,852 1002,852 1002,845 1001,845 1001,841 1000,841 1000,833 999,833 999,821 998,821 998,789 997,789 997,776 996,776 996,758 995,758 995,747 994,747 994,741 995,741 995,738 993,738 993,712 990,712 990,676 989,676 989,665 988,665 988,662 987,662 987,650 986,650 986,642 985,642 985,639 984,639 984,632 984,631 983,631 983,630 983,624 982,624 982,613 982,609 981,609 981,606 981,602 980,602 980,598 979,598 979,594 978,594 978,590 977,590 977,588 977,583 976,583 976,576 975,576 975,572 974,572 974,565 973,565 973,561 972,561 972,557 971,557 971,550 970,550 970,546 969,546 969,543 968,543 968,536 967,536 967,532 966,532 966,528 965,528 965,521 964,521 964,517 963,517 963,514 962,514 962,510 961,510 961,507 960,507 960,504 959,504 959,500 958,500 958,497 957,497 957,493 956,493 956,490 955,490 955,487 954,487 954,483 953,483 953,480 952,480 952,477 951,477 951,473 950,473 950,466 949,466 949,465 948,465 948,463 947,463 947,456 946,456 946,453 945,453 945,451 944,451 944,449 943,449 943,447 942,447 942,444 941,444 941,441 940,441 940,438 939,438 939,435 938,435 938,432 937,432 937,431 936,431 936,429 935,429 935,425 934,425 934,421 933,421 933,418 932,418 932,416 931,416 931,414 930,414 930,412 929,412 929,411 928,411 928,409 927,409 927,407 926,407 926,404 925,404 925,405 916,405 916,404 912,404 912,403 909,403 909,402 907,402 907,401 905,401 905,400 903,400 903,399 902,399 902,398 901,398 901,397 900,397 900,396 899,396 899,395 898,395 898,394 897,394 897,393 896,393 896,392 895,392 895,391 894,391 894,389 893,389 893,388 892,388 892,387 891,387 891,385 890,385 890,383 889,383 889,379 888,379 888,375 887,375 887,372 885,372 885,373 884,373 884,374 882,374 882,375 866,375 866,374 864,374 864,373 862,373 862,372 860,372 860,371 859,371 859,370 858,370 858,369 856,369 856,368 854,368 854,367 853,367 853,366 852,366 852,365 851,365 851,364 849,364 849,363 847,363 847,362 846,362 846,361 845,361 845,360 844,360 844,359 842,359 842,358 840,358 840,357 839,357 839,356 838,356 838,354 837,354 837,351 836,351 836,349 835,349 835,340 836,340 836,336 837,336 837,332 838,332 838,330 839,330 839,329 840,329 840,328 838,328 838,329 835,329 835,330 831,330 831,331 821,331 821,332 812,332 812,331 808,331 808,330 806,330 806,329 805,329 805,328 804,328 804,327 802,327 802,326 801,326 801,325 800,325 800,323 798,323 798,322 797,322 797,321 796,321 796,319 795,319 795,317 794,317 794,313 793,313 793,304 794,304 794,299 763,299 763,300 756,300 756,301 748,301 748,302 745,302 745,303 742,303 742,304 738,304 738,305 731,305 731,306 728,306 728,307 724,307 724,309 723,309 723,310 722,310 722,311 721,311 721,312 720,312 720,313 719,313 719,314 718,314 718,315 717,315 717,316 716,316 716,317 715,317 715,318 714,318 714,319 713,319 713,320 712,320 712,321 711,321 711,322 710,322 710,323 708,323 708,324 707,324 707,325 705,325 705,326 704,326 704,327 703,327 703,328 702,328 702,329 701,329 701,330 700,330 700,331 699,331 699,332 698,332 698,333 697,333 697,334 696,334 696,335 695,335 695,336 694,336 694,337 693,337 693,338 691,338 691,339 690,339 690,341 689,341 689,343 688,343 688,344 687,344 687,345 685,345 685,347 684,347 684,349 683,349 683,351 682,351 682,352 681,352 681,354 680,354 680,356 679,356 679,358 678,358 678,360 677,360 677,362 676,362 676,364 675,364 675,367 674,367 674,369 673,369 673,373 672,373 672,376 671,376 671,379 670,379 670,383 669,383 669,387 668,387 668,391 667,391 667,394 666,394 666,401 665,401 665,404 664,404 664,412 663,412 663,443 664,443 664,442 666,442 666,441 670,441 670,440 674,440 674,439 690,439 690,440 697,440 697,441 699,441 699,442 701,442 701,443 703,443 703,444 705,444 705,445 706,445 706,446 707,446 707,447 709,447 709,448 711,448 711,449 712,449 712,450 713,450 713,451 714,451 714,452 717,452 717,453 719,453 719,454 720,454 720,455 722,455 722,456 723,456 723,457 724,457 724,458 725,458 725,459 726,459 726,460 728,460 728,461 730,461 730,462 731,462 731,463 732,463 732,464 733,464 733,465 734,465 734,466 735,466 735,467 736,467 736,469 737,469 737,470 738,470 738,472 739,472 739,473 740,473 740,474 741,474 741,476 742,476 742,477 743,477 743,478 744,478 744,479 745,479 745,480 746,480 746,481 747,481 747,482 748,482 748,483 749,483 749,485 750,485 750,488 751,488 751,489 752,489 752,490 753,490 753,492 754,492 754,494 755,494 755,495 756,495 756,497 757,497 757,500 758,500 758,501 759,501 759,502 760,502 760,504 761,504 761,507 762,507 762,509 763,509 763,511 764,511 764,514 765,514 765,516 766,516 766,517 767,517 767,519 768,519 768,522 769,522 769,523 770,523 770,524 771,524 771,526 772,526 772,528 773,528 773,530 774,530 774,531 775,531 775,533 776,533 776,534 777,534 777,535 778,535 778,536 779,536 779,537 780,537 780,539 781,539 781,540 782,540 782,541 783,541 783,542 784,542 784,544 785,544 785,547 786,547 786,548 787,548 787,549 788,549 788,551 789,551 789,553 790,553 790,556 791,556 791,557 792,557 792,559 793,559 793,560 794,560 794,561 795,561 795,562 796,562 796,564 797,564 797,565 798,565 798,567 799,567 799,568 800,568 800,570 801,570 801,572 802,572 802,573 803,573 803,575 804,575 804,576 805,576 805,578 806,578 806,579 807,579 807,581 808,581 808,584 809,584 809,585 810,585 810,586 811,586 811,587 815,587 815,588 819,588 819,589 823,589 823,590 826,590 826,588 825,588 825,587 824,587 824,586 823,586 823,585 822,585 822,584 821,584 821,583 820,583 820,581 819,581 819,580 818,580 818,578 817,578 817,576 816,576 816,574 815,574 815,572 814,572 814,570 813,570 813,569 812,569 812,568 811,568 811,566 810,566 810,563 809,563 809,559 808,559 808,549 809,549 809,547 810,547 810,546 811,546 811,545 813,545 813,544 818,544 818,545 820,545 820,546 821,546 821,547 822,547 822,549 823,549 823,554 824,554 824,556 825,556 825,559 826,559 826,560 827,560 827,562 828,562 828,564 829,564 829,565 830,565 830,567 831,567 831,568 832,568 832,570 833,570 833,571 834,571 834,573 835,573 835,574 836,574 836,575 837,575 837,576 838,576 838,577 839,577 839,578 840,578 840,580 841,580 841,581 842,581 842,583 843,583 843,584 844,584 844,586 845,586 845,587 846,587 846,588 847,588 847,589 848,589 848,591 849,591 849,593 850,593 850,594 853,594 853,595 860,595 860,596 864,596 864,597 880,597 880,598 884,598 884,599 899,599 899,598 898,598 898,595 897,595 897,594 896,594 896,592 895,592 895,591 894,591 894,589 893,589 893,586 892,586 892,585 891,585 891,583 890,583 890,582 889,582 889,581 888,581 888,579 887,579 887,578 886,578 886,577 885,577 885,576 884,576 884,574 883,574 883,572 882,572 882,571 881,571 881,570 880,570 880,569 878,569 878,568 877,568 877,567 876,567 876,566 875,566 875,565 874,565 874,564 873,564 873,563 871,563 871,562 869,562 869,561 867,561 867,560 866,560 866,559 865,559 865,557 864,557 864,552 865,552 865,550 866,550 866,549 867,549 867,548 869,548 869,547 877,547 877,548 879,548 879,549 880,549 880,550 882,550 882,551 883,551 883,552 884,552 884,553 885,553 885,554 886,554 886,555 887,555 887,556 888,556 888,557 889,557 889,558 890,558 890,559 891,559 891,560 892,560 892,561 893,561 893,562 894,562 894,564 895,564 895,565 896,565 896,567 897,567 897,568 899,568 899,570 900,570 900,571 903,571 903,568 902,568 902,561 901,561 901,558 900,558 900,557 899,557 899,551 898,551 898,550 897,550 897,548 896,548 896,545 895,545 895,541 894,541 894,539 893,539 893,535 892,535 892,533 891,533 891,529 890,529 890,526 889,526 889,525 888,525 888,523 887,523 887,519 886,519 886,516 885,516 885,513 884,513 884,511 883,511 883,510 882,510 882,508 881,508 881,505 880,505 880,502 879,502 879,501 878,501 878,499 877,499 877,497 876,497 876,495 875,495 875,492 874,492 874,489 873,489 873,488 872,488 872,487 871,487 871,485 870,485 870,482 869,482 869,480 868,480 868,478 867,478 867,476 866,476 866,473 865,473 865,472 864,472 864,471 863,471 863,470 862,470 862,469 861,469 861,467 860,467 860,465 859,465 859,463 858,463 858,461 857,461 857,460 856,460 856,459 855,459 855,457 854,457 854,455 853,455 853,454 852,454 852,453 851,453 851,451 850,451 850,450 849,450 849,449 848,449 848,448 847,448 847,447 846,447 846,446 845,446 845,445 844,445 844,443 843,443 843,441 840,441 840,440 838,440 838,439 837,439 837,438 836,438 836,436 834,436 834,435 833,435 833,434 831,434 831,433 830,433 830,432 828,432 828,431 826,431 826,430 825,430 825,429 824,429 824,428 823,428 823,427 820,427 820,426 818,426 818,425 815,425 815,424 813,424 813,423 811,423 811,422 808,422 808,421 804,421 804,420 800,420 800,419 794,419 794,418 792,418 792,417 791,417 791,416 788,416 788,415 785,415 785,414 782,414 782,413 780,413 780,412 778,412 778,411 774,411 774,410 772,410 772,409 770,409 770,408 768,408 768,407 764,407 764,406 762,406 762,405 761,405 761,404 760,404 760,402 759,402 759,399 758,399 758,397 757,397 757,392 758,392 758,390 759,390 759,389 760,389 760,388 762,388 762,387 771,387 771,388 774,388 774,389 781,389 781,390 784,390 784,391 787,391 787,392 789,392 789,393 790,393 790,394 792,394 792,395 794,395 794,396 797,396 797,397 801,397 801,398 803,398 803,399 807,399 807,400 810,400 810,401 812,401 812,402 814,402 814,403 817,403 817,404 819,404 819,405 820,405 820,406 821,406 821,407 822,407 822,408 824,408 824,409 826,409 826,410 828,410 828,411 829,411 829,412 830,412 830,413 831,413 831,414 832,414 832,415 834,415 834,416 835,416 835,417 838,417 838,418 840,418 840,419 842,419 842,420 844,420 844,421 845,421 845,422 847,422 847,423 848,423 848,424 850,424 850,425 851,425 851,426 852,426 852,427 854,427 854,428 856,428 856,429 857,429 857,430 858,430 858,431 859,431 859,432 860,432 860,433 861,433 861,434 862,434 862,435 864,435 864,436 865,436 865,437 866,437 866,438 867,438 867,439 868,439 868,440 869,440 869,441 870,441 870,442 871,442 z M 612,1019 613,1019 613,1005 612,1005 612,994 611,994 611,990 610,990 610,982 609,982 609,974 608,974 608,969 607,969 607,967 606,967 606,962 605,962 605,960 604,960 604,958 603,958 603,956 602,956 602,953 601,953 601,951 600,951 600,946 599,946 599,943 598,943 598,941 598,938 597,938 597,937 596,937 596,936 594,936 594,935 593,935 593,934 592,934 592,933 588,933 588,932 586,932 586,931 584,931 584,930 583,930 583,929 581,929 581,928 580,928 580,929 577,929 575,929 575,930 574,930 574,932 573,932 573,933 572,933 572,934 570,934 570,935 561,935 561,934 558,934 558,938 557,938 557,946 555,946 555,947 554,947 554,952 552,952 552,954 551,954 551,958 549,958 549,961 548,961 548,964 547,964 547,966 546,966 546,968 545,968 545,970 544,970 544,972 543,972 543,974 542,974 542,976 540,976 540,978 539,978 539,981 537,981 537,982 536,982 536,984 537,984 537,985 538,985 538,986 539,986 539,988 540,988 540,1041 539,1041 539,1043 538,1043 538,1044 537,1044 537,1047 536,1047 536,1052 534,1052 534,1053 533,1053 533,1055 531,1055 531,1056 530,1056 530,1058 528,1058 528,1060 527,1060 527,1061 526,1061 526,1062 524,1062 524,1063 523,1063 523,1064 522,1064 522,1065 530,1065 530,1066 538,1066 538,1065 539,1065 539,1063 541,1063 541,1062 542,1062 542,1060 544,1060 544,1059 545,1059 545,1058 546,1058 546,1057 547,1057 547,1056 548,1056 548,1055 549,1055 549,1054 550,1054 550,1053 551,1053 551,1052 553,1052 553,1051 554,1051 554,1049 558,1049 558,1048 559,1048 559,1046 562,1046 562,1045 564,1045 564,1044 565,1044 565,1043 568,1043 568,1042 570,1042 570,1041 572,1041 572,1040 573,1040 573,1039 575,1039 575,1038 577,1038 577,1037 579,1037 579,1036 581,1036 581,1035 582,1035 582,1034 584,1034 584,1033 587,1033 587,1032 591,1032 591,1031 595,1031 595,1030 603,1030 603,1029 607,1029 607,1028 610,1028 610,1027 612,1027 z M 876,949 874,949 874,950 873,950 873,951 872,951 872,952 870,952 870,953 869,953 869,954 867,954 867,956 866,956 866,957 865,957 865,958 864,958 864,959 863,959 863,960 862,960 862,961 860,961 860,962 859,962 859,964 858,964 858,965 857,965 857,966 855,966 855,967 854,967 854,968 852,968 852,969 851,969 851,970 850,970 850,971 849,971 849,972 848,972 848,973 846,973 846,975 845,975 845,976 844,976 844,977 842,977 842,978 841,978 841,979 840,979 840,980 839,980 839,981 837,981 837,982 835,982 835,983 834,983 834,984 832,984 832,985 831,985 831,986 830,986 830,987 833,987 847,987 861,987 861,985 861,981 860,981 860,976 861,976 861,970 865,970 875,970 875,969 876,969 z M 436,1055 436,1057 437,1057 437,1058 439,1058 439,1059 442,1059 442,1060 446,1060 446,1061 450,1061 450,1062 454,1062 454,1063 457,1063 465,1063 465,1061 466,1061 466,1060 467,1060 467,1059 469,1059 469,1058 475,1058 477,1058 477,1057 480,1057 492,1057 492,1056 497,1056 499,1056 499,1055 502,1055 502,1054 505,1054 505,1053 507,1053 507,1052 509,1052 509,1051 510,1051 510,1049 513,1049 513,1048 515,1048 515,1047 516,1047 516,1046 517,1046 517,1045 518,1045 518,1044 519,1044 519,1043 520,1043 520,1041 521,1041 521,1040 522,1040 522,1039 524,1039 524,1037 525,1037 525,1031 524,1031 524,1021 524,999 523,999 523,1001 522,1001 522,1002 521,1002 521,1003 520,1003 520,1004 519,1004 519,1005 518,1005 518,1006 517,1006 517,1007 516,1007 516,1008 515,1008 515,1009 514,1009 514,1011 513,1011 513,1012 512,1012 512,1013 511,1013 511,1014 510,1014 510,1017 509,1017 509,1019 508,1019 508,1020 507,1020 507,1023 506,1023 506,1026 505,1026 505,1037 504,1037 504,1040 503,1040 503,1043 502,1043 502,1045 501,1045 501,1046 500,1046 500,1048 499,1048 499,1049 498,1049 498,1050 496,1050 496,1051 492,1051 492,1052 487,1052 487,1051 483,1051 483,1050 480,1050 480,1049 476,1049 476,1048 473,1048 473,1047 470,1047 470,1046 466,1046 466,1045 463,1045 463,1044 451,1044 451,1046 439,1046 439,1047 436,1047 436,1048 434,1048 434,1049 432,1049 432,1050 431,1050 431,1052 434,1052 434,1055 z M 525,972 526,972 526,971 527,971 527,969 528,969 528,967 529,967 529,966 530,966 530,965 531,965 531,964 531,963 532,963 532,962 532,961 533,961 533,960 533,958 534,958 534,956 535,956 535,953 536,953 536,951 537,951 537,949 538,949 538,947 538,946 539,946 539,945 539,944 540,944 540,943 540,942 541,942 541,941 541,940 542,940 542,939 542,938 542,936 543,936 543,934 543,933 544,933 544,932 544,929 545,929 545,926 545,917 548,917 548,914 549,914 549,913 550,913 550,912 551,912 551,911 553,911 553,910 561,910 561,911 570,911 570,910 573,910 573,909 578,909 578,910 580,910 580,909 579,909 579,908 578,908 577,908 577,905 576,905 576,904 575,904 575,903 574,903 574,902 573,902 573,901 572,901 572,900 571,900 571,899 570,899 570,897 569,897 569,896 568,896 568,895 566,895 565,895 565,894 564,894 563,894 563,893 562,893 560,893 560,892 558,892 558,891 552,891 546,891 542,891 542,888 540,888 533,888 533,887 531,887 531,886 529,886 529,885 526,885 526,887 525,887 525,888 524,888 524,890 523,890 523,892 522,892 522,893 521,893 521,894 520,894 520,895 519,895 519,896 517,896 517,897 515,897 515,898 513,898 513,899 511,899 511,900 508,900 508,901 507,901 507,909 509,909 509,910 510,910 510,911 511,911 511,913 512,913 512,920 513,920 513,924 514,924 514,928 515,928 515,935 516,935 516,948 516,962 516,984 517,984 517,983 518,983 518,981 519,981 519,980 520,980 520,978 521,978 521,977 522,977 522,976 523,976 523,974 524,974 524,973 525,973 z M 532,647 533,647 533,663 534,663 534,675 535,675 535,687 536,687 536,694 537,694 537,700 538,700 538,704 539,704 539,703 540,703 540,697 541,697 541,693 542,693 542,688 543,688 543,684 544,684 544,682 545,682 545,681 546,681 546,679 547,679 547,662 547,642 548,642 548,635 549,635 549,631 550,631 550,619 551,619 551,611 552,611 552,607 553,607 553,603 554,603 554,596 555,596 555,594 556,594 556,593 557,593 557,589 558,589 558,585 559,585 559,582 560,582 560,578 561,578 561,574 562,574 562,571 563,571 563,569 564,569 564,568 565,568 565,567 567,567 567,566 572,566 572,567 574,567 574,568 577,568 577,577 576,577 576,579 575,579 575,583 574,583 574,587 573,587 573,590 572,590 572,594 571,594 571,598 570,598 570,600 569,600 569,605 568,605 568,608 567,608 567,612 566,612 566,620 565,620 565,625 566,625 566,622 567,622 567,619 568,619 568,616 569,616 569,614 570,614 570,613 571,613 571,610 572,610 572,608 573,608 573,606 574,606 574,605 575,605 575,603 576,603 576,601 577,601 577,598 578,598 578,596 579,596 579,595 580,595 580,593 581,593 581,591 582,591 582,587 583,587 583,585 584,585 584,584 585,584 585,583 586,583 586,581 587,581 587,578 588,578 588,576 589,576 589,575 590,575 590,574 591,574 591,572 592,572 592,570 593,570 593,569 594,569 594,566 595,566 595,564 596,564 596,563 597,563 597,560 598,560 598,558 599,558 599,557 600,557 600,554 601,554 601,552 602,552 602,551 603,551 603,548 604,548 604,546 605,546 605,545 606,545 606,543 607,543 607,542 608,542 608,539 609,539 609,537 610,537 610,536 611,536 611,533 612,533 612,531 613,531 613,530 614,530 614,527 615,527 615,525 616,525 616,524 617,524 617,522 618,522 618,521 619,521 619,518 620,518 620,516 621,516 621,515 622,515 622,513 623,513 623,511 624,511 624,509 625,509 625,507 626,507 626,506 627,506 627,504 628,504 628,502 629,502 629,501 630,501 630,500 632,500 632,499 633,499 633,497 634,497 634,496 635,496 635,495 636,495 636,493 637,493 637,492 638,492 638,490 639,490 639,489 640,489 640,488 641,488 641,487 642,487 642,486 643,486 643,485 644,485 644,484 646,484 646,483 651,483 651,484 653,484 653,485 654,485 654,486 655,486 655,488 656,488 656,493 655,493 655,495 654,495 654,496 653,496 653,497 652,497 652,498 651,498 651,499 650,499 650,502 649,502 649,504 648,504 648,505 647,505 647,507 646,507 646,509 645,509 645,511 644,511 644,512 643,512 643,514 642,514 642,516 641,516 641,518 640,518 640,519 639,519 639,522 638,522 638,524 637,524 637,525 636,525 636,529 635,529 635,531 634,531 634,533 633,533 633,534 632,534 632,536 631,536 631,539 630,539 630,541 629,541 629,542 628,542 628,544 627,544 627,545 626,545 626,548 625,548 625,550 624,550 624,551 623,551 623,554 622,554 622,557 621,557 621,559 620,559 620,560 619,560 619,563 618,563 618,565 617,565 617,566 616,566 616,569 615,569 615,571 614,571 614,572 613,572 613,574 612,574 612,575 611,575 611,578 610,578 610,581 609,581 609,583 608,583 608,584 607,584 607,586 606,586 606,588 605,588 605,589 604,589 604,592 603,592 603,594 602,594 602,595 601,595 601,598 600,598 600,600 599,600 599,601 598,601 598,603 597,603 597,604 596,604 596,607 595,607 595,609 594,609 594,611 593,611 593,612 592,612 592,616 591,616 591,618 590,618 590,619 589,619 589,621 588,621 588,622 587,622 587,625 586,625 586,627 585,627 585,628 584,628 584,631 583,631 583,633 582,633 582,635 581,635 581,636 580,636 580,640 579,640 579,642 578,642 578,643 577,643 577,646 576,646 576,649 575,649 575,652 574,652 574,654 576,654 576,653 578,653 578,652 580,652 580,651 582,651 582,650 584,650 584,649 586,649 586,648 588,648 588,647 591,647 591,646 592,646 592,644 595,644 595,642 599,642 599,641 600,641 600,640 601,640 601,639 603,639 603,636 606,636 606,633 609,633 609,632 610,632 610,631 611,631 611,630 612,630 612,629 613,629 613,628 614,628 614,627 615,627 615,626 616,626 616,625 617,625 617,624 618,624 618,623 619,623 619,622 620,622 620,621 621,621 621,619 622,619 622,617 623,617 623,616 624,616 624,615 626,615 626,613 627,613 627,611 628,611 628,610 629,610 629,609 630,609 630,608 631,608 631,607 632,607 632,606 633,606 633,605 634,605 634,604 635,604 635,603 636,603 636,602 638,602 638,601 643,601 643,602 645,602 645,603 646,603 646,604 647,604 647,605 648,605 648,607 649,607 649,612 648,612 648,615 647,615 647,617 646,617 646,618 645,618 645,620 644,620 644,621 643,621 643,622 642,622 642,624 641,624 641,625 640,625 640,626 638,626 638,628 637,628 637,629 636,629 636,630 635,630 635,631 634,631 634,632 633,632 633,633 632,633 632,634 631,634 631,635 630,635 630,636 629,636 629,637 628,637 628,638 627,638 627,639 626,639 626,640 625,640 625,641 624,641 624,642 622,642 622,643 621,643 621,645 620,645 620,646 619,646 619,647 617,647 617,648 615,648 615,649 614,649 614,650 613,650 613,651 611,651 611,652 610,652 610,653 609,653 609,654 607,654 607,655 606,655 606,656 605,656 605,657 603,657 603,658 601,658 601,659 599,659 599,660 598,660 598,661 596,661 596,662 594,662 594,663 591,663 591,664 589,664 589,665 587,665 587,666 585,666 585,667 584,667 584,668 583,668 583,670 582,670 582,672 581,672 581,673 580,673 580,675 579,675 579,676 578,676 578,677 577,677 577,678 576,678 576,679 574,679 574,680 568,680 568,681 565,681 565,685 564,685 564,689 563,689 563,693 562,693 562,701 561,701 561,704 560,704 560,707 559,707 559,714 558,714 558,716 557,716 557,717 556,717 556,721 555,721 555,724 554,724 554,728 553,728 553,732 552,732 552,736 551,736 551,768 552,768 552,770 553,770 553,790 554,790 554,794 555,794 555,797 556,797 556,800 557,800 557,804 558,804 558,807 559,807 559,809 560,809 560,811 561,811 561,813 562,813 562,814 563,814 563,816 564,816 564,818 565,818 565,820 566,820 566,822 567,822 567,823 568,823 568,825 569,825 569,827 569,829 570,829 570,830 571,830 571,831 572,831 572,832 573,832 573,833 574,833 574,835 575,835 575,839 576,839 576,840 577,840 577,842 578,842 578,843 579,843 579,845 580,845 580,848 581,848 581,849 582,849 582,850 583,850 583,852 584,852 584,854 585,854 585,855 586,855 586,858 587,858 587,860 588,860 588,861 589,861 589,863 590,863 590,866 591,866 591,867 592,867 592,870 593,870 593,872 594,872 594,873 595,873 595,876 596,876 596,878 597,878 597,879 598,879 598,882 599,882 599,884 599,885 601,885 601,887 601,888 603,888 603,889 603,893 606,893 606,897 606,899 609,899 609,903 609,905 612,905 612,911 615,911 615,915 615,916 616,916 616,917 618,917 618,921 619,921 619,923 621,923 621,926 624,926 624,929 625,929 625,930 627,930 627,931 628,931 628,932 629,932 629,934 630,934 630,935 631,935 631,936 632,936 632,937 633,937 633,938 634,938 634,939 636,939 636,940 637,940 637,941 639,941 639,942 641,942 641,943 642,943 642,944 644,944 644,945 645,945 645,946 647,946 647,947 648,947 648,948 650,948 650,949 653,949 653,950 655,950 655,951 656,951 656,952 658,952 658,953 662,953 662,954 669,954 669,955 672,955 672,956 676,956 676,957 679,957 679,958 683,958 683,959 690,959 690,960 698,960 698,961 701,961 701,962 704,962 704,963 708,963 708,964 715,964 715,965 726,965 726,966 730,966 730,967 738,967 738,968 745,968 745,969 748,969 748,970 755,970 755,971 764,971 766,971 766,972 768,972 773,972 773,973 780,973 784,973 784,974 787,974 787,975 794,975 794,976 805,976 805,977 817,977 817,976 820,976 820,975 821,975 821,974 822,974 822,973 824,973 824,972 825,972 825,971 826,971 826,970 827,970 827,969 829,969 829,967 832,967 832,964 835,964 835,961 839,961 839,960 840,960 840,959 841,959 841,958 842,958 842,957 844,957 844,955 847,955 847,952 849,952 849,951 850,951 850,949 852,949 852,946 856,946 856,945 858,945 858,943 859,943 859,942 860,942 860,941 861,941 861,940 863,940 863,939 864,939 864,937 867,937 867,936 868,936 868,935 869,935 869,933 870,933 870,931 871,931 871,930 872,930 872,929 874,929 874,928 875,928 875,927 876,927 876,926 877,926 877,925 878,925 878,924 879,924 879,923 880,923 880,922 881,922 881,921 882,921 882,920 883,920 883,919 884,919 884,918 885,918 885,917 886,917 886,916 887,916 887,915 888,915 888,914 889,914 889,913 890,913 890,912 891,912 891,911 892,911 892,910 893,910 893,909 894,909 894,908 896,908 896,907 898,907 898,906 899,906 899,905 900,905 900,904 901,904 901,903 902,903 902,902 904,902 904,901 906,901 906,900 907,900 907,899 908,899 908,896 911,896 911,893 914,893 914,891 916,891 916,890 917,890 917,888 919,888 919,886 920,886 920,882 922,882 922,880 923,880 923,877 924,877 924,875 925,875 925,874 926,874 926,869 925,869 925,812 926,812 926,776 926,741 922,741 922,742 920,742 920,751 919,751 919,755 918,755 918,762 917,762 917,766 916,766 916,773 915,773 915,783 914,783 914,785 913,785 913,786 912,786 912,788 912,789 911,789 911,790 911,791 910,791 910,792 910,793 909,793 909,794 909,795 908,795 908,796 908,797 907,797 907,798 907,800 906,800 906,802 905,802 905,803 904,803 904,804 903,804 903,805 902,805 902,807 901,807 901,808 900,808 900,809 898,809 898,810 895,810 895,811 892,811 892,812 886,812 886,813 882,813 869,813 869,812 866,812 861,812 861,811 858,811 858,810 857,810 857,809 855,809 855,808 852,808 852,807 850,807 850,806 849,806 849,805 848,805 848,804 847,804 847,803 846,803 846,802 845,802 845,801 844,801 844,800 844,799 843,799 843,798 843,796 842,796 842,794 841,794 841,792 840,792 840,790 839,790 839,788 839,787 838,787 838,786 838,784 837,784 837,781 836,781 836,780 835,780 835,778 834,778 834,774 833,774 833,770 832,770 832,767 831,767 831,760 831,747 826,747 826,748 821,748 821,747 819,747 819,746 818,746 818,745 817,745 817,743 816,743 816,741 814,741 814,740 813,740 813,739 812,739 812,738 810,738 810,737 808,737 808,736 807,736 807,735 806,735 806,733 805,733 805,728 806,728 806,726 807,726 807,725 808,725 808,724 810,724 810,723 815,723 815,724 818,724 818,725 822,725 822,726 836,726 836,725 840,725 840,724 855,724 855,723 867,723 867,722 878,722 878,721 890,721 890,720 902,720 902,719 908,719 908,718 912,718 912,717 918,717 918,716 920,716 920,712 917,712 917,710 915,710 915,709 913,709 913,708 911,708 911,707 910,707 910,706 909,706 909,705 906,705 906,704 905,704 905,708 904,708 904,710 903,710 903,711 902,711 902,712 900,712 900,713 897,713 895,713 895,712 893,712 893,711 892,711 892,710 891,710 891,708 890,708 890,699 889,699 889,692 888,692 888,691 886,691 886,690 884,690 884,689 883,689 883,688 882,688 882,687 881,687 881,686 880,686 880,685 878,685 878,684 877,684 877,683 875,683 875,687 876,687 876,690 877,690 877,697 878,697 878,701 879,701 879,705 880,705 880,710 879,710 879,714 878,714 878,716 877,716 877,717 876,717 876,718 874,718 874,719 869,719 869,718 867,718 867,717 866,717 866,716 865,716 865,714 864,714 864,702 863,702 863,700 862,700 861,700 861,689 860,689 860,678 859,678 859,674 858,674 858,668 855,668 855,665 852,665 852,662 850,662 850,660 849,660 849,669 850,669 850,673 851,673 851,677 852,677 852,681 853,681 853,684 854,684 854,687 855,687 855,690 855,693 856,693 856,695 857,695 857,700 856,700 856,702 855,702 855,703 854,703 854,704 852,704 852,705 847,705 847,704 845,704 845,703 844,703 844,702 843,702 843,700 842,700 842,698 841,698 841,696 840,696 840,690 840,689 839,689 839,688 839,686 838,686 838,684 838,682 837,682 837,678 836,678 836,674 835,674 835,671 834,671 834,664 834,660 833,660 833,658 833,653 832,653 832,650 831,650 831,641 830,641 830,640 829,640 829,638 828,638 828,635 827,635 827,634 826,634 826,633 824,633 824,632 823,632 823,631 822,631 822,630 821,630 821,629 820,629 820,628 819,628 819,627 818,627 818,633 819,633 819,645 820,645 820,661 821,661 821,669 822,669 822,671 823,671 823,678 823,691 822,691 822,693 821,693 821,694 820,694 820,695 818,695 818,696 813,696 813,695 811,695 811,694 810,694 810,693 809,693 809,691 808,691 808,688 807,688 807,678 806,678 806,662 805,662 805,646 804,646 804,634 803,634 803,608 802,608 802,606 801,606 801,605 800,605 800,603 799,603 799,601 798,601 795,601 795,600 791,600 791,599 788,599 788,598 785,598 785,597 782,597 782,596 779,596 779,595 776,595 776,594 774,594 774,593 772,593 772,592 769,592 769,591 767,591 767,590 766,590 766,589 765,589 765,587 764,587 764,580 765,580 765,578 766,578 766,577 767,577 767,576 769,576 769,575 774,575 774,576 777,576 777,577 778,577 778,576 777,576 777,575 776,575 776,573 775,573 775,571 774,571 774,570 773,570 773,569 772,569 772,568 771,568 771,566 770,566 770,564 769,564 769,563 768,563 768,562 767,562 767,560 766,560 766,557 765,557 765,556 764,556 764,555 763,555 763,553 762,553 762,552 761,552 761,550 760,550 760,547 759,547 759,545 758,545 758,544 757,544 757,543 756,543 756,541 755,541 755,539 754,539 754,538 753,538 753,536 752,536 752,533 751,533 751,531 750,531 750,530 749,530 749,529 748,529 748,527 747,527 747,526 746,526 746,524 742,524 742,523 739,523 739,522 736,522 736,521 732,521 732,520 730,520 730,519 729,519 729,518 727,518 727,517 724,517 724,516 722,516 722,515 721,515 721,514 720,514 720,513 718,513 718,512 716,512 716,511 714,511 714,510 712,510 712,509 709,509 709,508 706,508 706,507 704,507 704,506 703,506 703,505 700,505 700,504 697,504 697,503 695,503 695,502 694,502 694,501 690,501 690,500 686,500 686,499 684,499 684,498 681,498 681,497 679,497 679,496 678,496 678,495 675,495 675,494 673,494 673,493 672,493 672,492 671,492 671,491 670,491 670,490 669,490 669,489 668,489 668,488 666,488 666,487 665,487 665,486 664,486 664,485 662,485 662,484 661,484 661,483 660,483 660,481 658,481 658,480 656,480 656,478 655,478 655,477 653,477 653,475 652,475 652,473 651,473 651,470 650,470 650,469 649,469 649,468 648,468 648,466 647,466 647,464 646,464 646,461 645,461 645,457 644,457 644,453 643,453 643,445 642,445 642,440 641,440 641,436 640,436 640,432 639,432 639,408 639,396 640,396 640,384 641,384 641,380 642,380 642,376 643,376 643,373 644,373 644,369 645,369 645,365 646,365 646,362 647,362 647,358 648,358 648,355 649,355 649,351 650,351 650,349 651,349 651,348 652,348 652,347 653,347 653,345 654,345 654,343 655,343 655,342 656,342 656,340 657,340 657,339 658,339 658,337 659,337 659,334 661,334 661,330 662,330 662,329 661,329 661,330 659,330 659,331 651,331 651,332 648,332 648,333 645,333 645,334 641,334 641,335 639,335 639,336 637,336 637,337 634,337 634,338 631,338 631,339 629,339 629,340 627,340 627,341 626,341 626,342 624,342 624,343 623,343 623,344 621,344 621,345 618,345 618,346 617,346 617,347 615,347 615,348 614,348 614,349 612,349 612,350 609,350 609,351 608,351 608,352 607,352 607,353 605,353 605,354 603,354 603,355 601,355 601,356 599,356 599,357 598,357 598,358 596,358 596,359 594,359 594,360 592,360 592,361 590,361 590,362 588,362 588,363 585,363 585,364 582,364 582,365 581,365 581,366 579,366 579,368 578,368 578,369 577,369 577,370 575,370 575,371 573,371 573,373 572,373 572,374 571,374 571,375 569,375 569,376 568,376 568,377 567,377 567,378 566,378 566,379 564,379 564,381 563,381 563,382 562,382 562,383 561,383 561,384 560,384 560,385 559,385 559,386 557,386 557,387 556,387 556,388 555,388 555,389 554,389 554,390 553,390 553,391 552,391 552,392 551,392 551,393 550,393 550,394 549,394 549,395 548,395 548,396 547,396 547,397 546,397 546,398 545,398 545,400 544,400 544,401 543,401 543,402 542,402 542,403 541,403 541,404 540,404 540,405 539,405 539,406 538,406 538,407 537,407 537,408 535,408 535,409 534,409 534,410 533,410 533,411 532,411 532,412 531,412 531,413 530,413 530,414 529,414 529,415 528,415 528,416 527,416 527,417 526,417 526,418 525,418 525,419 524,419 524,420 523,420 523,421 521,421 521,422 520,422 520,423 519,423 519,424 518,424 518,425 517,425 517,426 516,426 516,428 514,428 514,429 513,429 513,431 512,431 512,432 511,432 511,433 510,433 510,434 509,434 509,435 508,435 508,436 507,436 507,438 506,438 506,440 505,440 505,441 504,441 504,443 503,443 503,444 502,444 502,445 501,445 501,447 500,447 500,448 499,448 499,449 498,449 498,450 497,450 497,451 496,451 496,453 495,453 495,455 494,455 494,456 493,456 493,457 492,457 492,458 491,458 491,460 490,460 490,462 489,462 489,463 488,463 488,465 487,465 487,466 486,466 486,467 486,468 485,468 485,469 484,469 484,471 483,471 483,472 482,472 482,473 482,474 481,474 481,475 481,476 480,476 480,477 480,479 479,479 479,481 478,481 478,483 477,483 477,486 476,486 476,488 475,488 475,489 474,489 474,492 473,492 473,496 472,496 472,498 471,498 471,499 470,499 470,501 469,501 469,504 468,504 468,507 467,507 467,509 466,509 466,510 465,510 465,512 464,512 464,514 463,514 463,516 462,516 462,517 461,517 461,518 461,520 460,520 460,522 460,523 459,523 459,524 459,525 458,525 458,526 457,526 457,530 456,530 456,531 455,531 455,533 454,533 454,538 453,538 453,540 452,540 452,541 451,541 451,545 450,545 450,548 449,548 449,552 448,552 448,557 446,557 446,561 445,561 445,568 443,568 443,569 442,569 442,577 441,577 441,581 440,581 440,584 439,584 439,591 438,591 438,598 437,598 437,600 436,600 436,602 435,602 435,606 434,606 434,612 433,612 433,616 432,616 432,619 431,619 431,621 430,621 430,624 429,624 429,626 428,626 428,633 426,633 426,634 425,634 425,642 424,642 424,644 423,644 423,645 422,645 422,646 422,648 421,648 421,652 420,652 420,655 419,655 419,662 418,662 418,665 417,665 417,668 418,668 418,669 419,669 419,668 420,668 420,667 421,667 421,666 422,666 422,665 424,665 424,664 425,664 425,662 428,662 428,661 434,661 434,662 439,662 439,665 442,665 442,679 442,700 439,700 439,730 439,767 440,767 440,770 442,770 442,777 443,777 443,780 444,780 444,781 445,781 445,783 446,783 446,786 447,786 447,787 448,787 448,789 449,789 449,790 450,790 450,791 451,791 451,792 453,792 453,791 454,791 454,790 455,790 455,789 456,789 456,788 458,788 458,787 459,787 459,786 460,786 460,785 466,785 474,785 474,786 476,786 476,787 477,787 477,788 478,788 478,789 479,789 479,790 480,790 480,792 481,792 481,794 482,794 482,795 483,795 483,796 484,796 484,798 485,798 485,802 486,802 486,804 487,804 487,806 488,806 488,808 489,808 489,811 490,811 490,813 491,813 491,815 492,815 492,817 493,817 493,820 494,820 494,823 495,823 495,825 496,825 496,827 497,827 497,829 498,829 498,830 499,830 499,832 500,832 500,833 501,833 501,835 502,835 502,839 503,839 503,841 504,841 504,843 505,843 505,846 506,846 506,847 507,847 507,848 508,848 508,850 509,850 509,853 510,853 510,854 511,854 511,856 512,856 512,857 513,857 513,859 514,859 514,860 515,860 515,861 516,861 516,862 518,862 518,863 519,863 519,864 520,864 520,865 523,865 523,866 525,866 525,867 526,867 526,868 527,868 527,869 528,869 528,870 532,870 532,871 534,871 534,872 539,872 539,873 541,873 541,872 540,872 540,870 539,870 539,869 538,869 538,868 537,868 537,867 536,867 536,865 535,865 535,862 534,862 534,861 533,861 533,859 532,859 532,858 530,858 530,855 529,855 529,853 528,853 528,852 527,852 527,850 526,850 526,846 525,846 525,845 524,845 524,843 523,843 523,841 522,841 522,840 521,840 521,838 520,838 520,834 519,834 519,833 518,833 518,831 517,831 517,828 516,828 516,825 515,825 515,821 514,821 514,815 513,815 513,814 512,814 512,812 511,812 511,811 510,811 510,804 509,804 509,802 508,802 508,800 507,800 507,792 506,792 506,788 504,788 504,781 503,781 503,778 502,778 502,770 501,770 501,766 500,766 500,763 499,763 499,760 498,760 498,748 497,748 497,741 496,741 496,738 495,738 495,731 494,731 494,728 493,728 493,717 492,717 492,709 491,709 491,690 491,676 492,676 492,674 493,674 493,673 494,673 494,672 496,672 496,671 501,671 501,672 503,672 503,673 504,673 504,674 505,674 505,676 506,676 506,708 507,708 507,716 508,716 508,726 509,726 509,729 510,729 510,736 511,736 511,740 512,740 512,747 513,747 513,758 514,758 514,761 515,761 515,765 516,765 516,769 517,769 517,776 518,776 518,780 519,780 519,783 520,783 520,787 521,787 521,790 522,790 522,793 523,793 523,798 524,798 524,800 525,800 525,803 525,807 526,807 526,808 527,808 527,810 528,810 528,813 529,813 529,820 530,820 530,823 531,823 531,826 533,826 533,829 534,829 534,832 536,832 536,836 537,836 537,838 539,838 539,841 540,841 540,845 541,845 541,846 542,846 542,848 543,848 543,849 544,849 544,851 545,851 545,852 546,852 546,854 547,854 547,855 548,855 548,857 549,857 549,858 551,858 551,861 554,861 554,864 557,864 557,867 559,867 559,870 562,870 562,873 565,873 565,875 566,875 566,876 568,876 568,877 569,877 569,878 572,878 572,879 574,879 574,880 575,880 575,881 576,881 576,882 577,882 577,883 578,883 578,885 579,885 579,886 580,886 580,887 581,887 581,889 582,889 582,890 583,890 583,891 586,891 586,890 585,890 585,887 584,887 584,885 583,885 583,883 582,883 582,882 581,882 581,880 580,880 580,877 579,877 579,876 578,876 578,874 577,874 577,871 576,871 576,868 575,868 575,867 574,867 574,865 573,865 573,864 572,864 572,862 571,862 571,859 570,859 570,857 569,857 569,856 568,856 568,855 567,855 567,853 566,853 566,850 565,850 565,849 564,849 564,847 562,847 562,844 561,844 561,841 559,841 559,839 558,839 558,837 557,837 557,836 556,836 556,834 555,834 555,831 554,831 554,830 553,830 553,828 552,828 552,825 551,825 551,823 550,823 550,822 549,822 549,821 548,821 548,819 547,819 547,816 546,816 546,814 545,814 545,812 544,812 544,809 543,809 543,806 542,806 542,802 541,802 541,799 540,799 540,795 539,795 539,791 538,791 538,780 537,780 537,779 536,779 536,777 535,777 535,775 534,775 534,773 533,773 533,771 532,771 532,769 531,769 531,768 530,768 530,766 529,766 529,759 528,759 528,756 527,756 527,749 526,749 526,746 525,746 525,739 524,739 524,735 523,735 523,727 522,727 522,723 521,723 521,708 520,708 520,704 519,704 519,680 520,680 520,676 519,676 519,665 519,664 518,664 518,663 518,648 517,648 517,631 517,623 518,623 518,616 518,607 519,607 519,596 519,595 520,595 520,594 520,579 521,579 521,575 522,575 522,568 523,568 523,566 524,566 524,564 525,564 525,560 526,560 526,556 527,556 527,554 528,554 528,553 529,553 529,550 530,550 530,545 532,545 532,543 533,543 533,541 534,541 534,540 535,540 535,539 537,539 537,538 542,538 542,539 544,539 544,540 545,540 545,541 546,541 546,543 547,543 547,548 546,548 546,552 545,552 545,554 544,554 544,555 543,555 543,558 542,558 542,560 541,560 541,561 540,561 540,565 539,565 539,569 538,569 538,571 537,571 537,576 536,576 536,583 535,583 535,596 534,596 534,608 533,608 533,624 532,624 z M 501,937 500,937 500,929 499,929 499,932 498,932 498,936 497,936 497,939 496,939 496,941 495,941 495,945 494,945 494,949 493,949 493,956 492,956 492,959 491,959 491,963 490,963 490,970 489,970 489,974 488,974 488,981 487,981 487,985 486,985 486,992 485,992 485,999 484,999 484,1006 483,1006 483,1017 482,1017 482,1029 481,1029 481,1032 480,1032 480,1034 481,1034 481,1035 485,1035 485,1036 486,1036 486,1034 489,1034 489,1019 492,1019 492,1017 493,1017 493,1015 494,1015 494,1013 495,1013 495,1008 497,1008 497,1007 498,1007 498,1005 499,1005 499,1004 500,1004 500,1003 501,1003 501,1002 502,1002 502,1001 503,1001 503,998 502,998 502,996 501,996 z M 735,999 735,998 737,998 737,996 738,996 738,995 739,995 739,994 740,994 740,993 741,993 741,992 742,992 742,991 743,991 743,990 744,990 744,989 745,989 745,988 746,988 746,986 747,986 747,984 736,984 724,984 724,983 724,981 703,981 703,978 691,978 691,976 685,976 685,978 684,978 684,986 684,1006 683,1006 683,1008 682,1008 682,1009 681,1009 681,1010 679,1010 679,1011 674,1011 674,1010 672,1010 672,1009 671,1009 671,1008 670,1008 670,1006 669,1006 669,1004 669,977 670,977 670,970 662,970 662,969 660,969 660,968 657,968 657,967 653,967 653,966 651,966 651,965 649,965 649,964 647,964 647,963 645,963 645,962 643,962 643,961 641,961 641,960 640,960 640,959 638,959 638,958 633,958 633,955 630,955 630,953 629,953 629,952 627,952 627,951 626,951 626,950 624,950 624,949 623,949 623,948 622,948 622,947 621,947 621,946 620,946 620,945 618,945 618,946 617,946 617,947 615,947 615,948 616,948 616,949 618,949 618,955 619,955 619,956 620,956 620,958 621,958 621,964 622,964 622,966 623,966 623,973 624,973 624,981 625,981 625,987 627,987 627,1004 628,1004 628,1021 627,1021 627,1023 626,1023 626,1024 625,1024 625,1025 627,1025 627,1024 630,1024 630,1023 633,1023 633,1022 644,1022 644,1021 653,1021 653,1022 680,1022 680,1021 688,1021 688,1000 689,1000 689,993 690,993 690,989 691,989 691,987 692,987 692,986 693,986 693,985 695,985 695,984 700,984 700,985 702,985 702,986 703,986 703,987 704,987 704,989 705,989 705,994 704,994 704,1002 703,1002 703,1017 707,1017 707,1016 711,1016 711,1015 713,1015 713,1014 715,1014 715,1013 716,1013 716,1012 718,1012 718,1011 720,1011 720,1010 721,1010 721,1009 722,1009 722,1008 724,1008 724,1007 725,1007 725,1006 726,1006 726,1005 728,1005 728,1004 730,1004 730,1003 731,1003 731,1002 732,1002 732,1001 733,1001 733,1000 734,1000 734,999 z M 871,657 872,657 872,660 873,660 873,661 874,661 874,662 875,662 875,663 876,663 876,664 877,664 877,665 879,665 879,666 880,666 880,667 881,667 881,668 882,668 882,669 883,669 883,670 884,670 884,671 885,671 885,672 887,672 887,673 888,673 888,672 887,672 887,670 887,664 887,649 886,649 886,648 885,648 885,647 883,647 883,646 882,646 882,645 880,645 880,644 879,644 879,643 878,643 878,642 876,642 876,640 875,640 875,639 873,639 873,637 871,637 z M 938,372 937,372 937,370 936,370 936,369 935,369 934,369 934,365 932,365 932,364 931,364 931,363 929,363 929,361 928,361 928,360 926,360 926,359 924,359 924,358 923,358 923,357 920,357 920,355 918,355 918,354 914,354 914,352 910,352 910,353 909,353 909,354 908,354 907,354 907,355 906,355 906,361 906,363 905,363 905,365 905,375 907,375 908,375 908,381 911,381 911,387 914,387 914,389 917,389 917,390 923,390 923,389 929,389 929,388 930,388 930,387 932,387 932,386 934,386 934,385 936,385 936,384 937,384 937,383 938,383 938,375 z M 949,415 950,415 950,416 951,416 951,418 952,418 952,421 953,421 953,424 954,424 954,425 955,425 955,427 956,427 956,429 957,429 957,431 958,431 958,435 959,435 959,438 960,438 960,442 961,442 961,445 962,445 962,448 963,448 963,451 964,451 964,453 964,455 965,455 965,456 966,456 966,458 967,458 967,461 968,461 968,462 970,462 970,461 972,461 972,460 973,460 973,459 973,458 972,458 972,457 972,455 971,455 971,453 971,451 970,451 970,448 970,445 969,445 969,442 968,442 968,439 967,439 967,435 966,435 966,432 965,432 965,427 966,427 966,425 967,425 967,424 968,424 968,423 966,423 966,422 964,422 964,421 963,421 963,420 962,420 962,419 961,419 961,417 960,417 960,416 957,416 955,416 955,413 954,413 952,413 952,409 952,407 949,407 949,404 946,404 946,398 942,398 941,398 941,399 940,399 940,402 941,402 941,403 942,403 942,404 943,404 943,406 944,406 944,409 945,409 945,410 946,410 946,412 947,412 947,413 949,413 z M 901,982 896,982 896,983 884,983 884,984 877,984 877,989 877,1001 878,1001 878,1003 879,1003 879,1002 881,1002 881,1001 882,1001 882,999 885,999 885,993 888,993 888,987 890,987 902,987 902,984 901,984 z M 882,339 881,339 881,337 879,337 879,334 878,334 878,333 877,333 877,331 876,331 876,329 875,329 875,328 873,328 873,327 872,327 872,326 871,326 871,325 867,325 867,324 860,324 860,325 859,325 859,326 858,326 858,331 856,331 855,331 855,334 853,334 853,336 852,336 852,337 853,337 853,345 854,345 854,349 855,349 855,350 857,350 857,351 859,351 859,352 860,352 860,353 861,353 861,354 864,354 864,356 865,356 865,357 870,357 870,360 877,360 877,359 878,359 878,358 879,358 879,357 880,357 880,355 881,355 881,353 882,353 882,352 883,352 883,343 882,343 z M 909,638 908,638 908,635 907,635 907,628 906,628 906,623 905,623 905,621 904,621 904,618 903,618 903,614 903,612 902,612 902,613 900,613 900,614 897,614 883,614 883,613 879,613 879,612 869,612 867,612 867,613 868,613 868,614 869,614 869,615 870,615 870,616 871,616 871,617 873,617 873,618 875,618 875,619 876,619 876,620 877,620 877,622 878,622 878,623 879,623 879,624 880,624 880,625 881,625 881,626 882,626 882,627 884,627 884,628 885,628 885,629 886,629 886,630 887,630 887,631 888,631 888,632 889,632 889,633 891,633 891,634 892,634 892,635 893,635 893,636 896,636 896,637 897,637 897,638 898,638 898,639 899,639 899,640 900,640 900,641 902,641 902,642 903,642 903,643 904,643 904,644 905,644 905,645 907,645 907,646 908,646 908,647 910,647 910,648 911,648 911,645 910,645 910,641 909,641 z M 858,1104 858,1105 859,1105 859,1106 861,1106 861,1107 863,1107 863,1108 864,1108 864,1109 871,1109 871,1110 874,1110 874,1111 877,1111 877,1112 879,1112 879,1111 879,1110 880,1110 880,1109 880,1107 881,1107 881,1105 882,1105 882,1102 883,1102 883,1100 883,1099 884,1099 884,1098 884,1092 885,1092 885,1088 886,1088 886,1084 887,1084 887,1080 888,1080 888,1074 889,1074 889,1072 890,1072 890,1070 891,1070 891,1066 892,1066 892,1062 893,1062 893,1059 894,1059 894,1057 894,1052 895,1052 895,1049 895,1036 893,1036 893,1022 893,1019 896,1019 896,1017 899,1017 899,1014 889,1014 888,1014 888,1017 885,1017 885,1019 882,1019 882,1020 882,1022 877,1022 877,1023 872,1023 872,1022 870,1022 870,1021 869,1021 869,1020 868,1020 868,1018 867,1018 867,1015 866,1015 866,1013 865,1013 865,1009 864,1009 864,1008 862,1008 862,1007 858,1007 858,1006 855,1006 855,1005 848,1005 848,1004 834,1004 834,1005 822,1005 822,1006 811,1006 811,1007 804,1007 804,1008 797,1008 793,1008 793,1009 790,1009 790,1010 787,1010 787,1011 782,1011 782,1012 780,1012 780,1013 778,1013 778,1014 777,1014 777,1015 776,1015 776,1016 774,1016 774,1017 771,1017 771,1020 772,1020 772,1028 773,1028 773,1032 774,1032 774,1038 775,1038 775,1041 776,1041 776,1048 777,1048 777,1051 778,1051 778,1055 779,1055 779,1059 780,1059 780,1063 781,1063 781,1066 782,1066 782,1070 783,1070 783,1071 784,1071 784,1073 785,1073 785,1076 785,1078 786,1078 786,1080 787,1080 787,1084 788,1084 788,1087 789,1087 789,1088 790,1088 790,1090 791,1090 791,1093 792,1093 792,1094 793,1094 793,1096 794,1096 794,1098 795,1098 795,1100 796,1100 796,1103 797,1103 797,1106 798,1106 798,1107 799,1107 799,1109 800,1109 800,1111 801,1111 801,1112 802,1112 802,1114 803,1114 803,1113 804,1113 804,1112 805,1112 805,1111 806,1111 806,1110 808,1110 808,1109 809,1109 809,1108 810,1108 810,1107 812,1107 812,1106 813,1106 813,1105 814,1105 814,1104 815,1104 815,1103 816,1103 816,1102 818,1102 818,1101 819,1101 819,1100 820,1100 820,1099 821,1099 821,1098 822,1098 822,1096 823,1096 823,1095 824,1095 824,1094 826,1094 826,1092 827,1092 827,1091 828,1091 828,1090 829,1090 829,1087 831,1087 831,1086 832,1086 832,1085 834,1085 834,1084 839,1084 839,1085 841,1085 841,1086 842,1086 842,1087 843,1087 843,1089 844,1089 844,1092 845,1092 845,1093 847,1093 847,1094 848,1094 848,1095 849,1095 849,1097 850,1097 850,1099 851,1099 851,1100 852,1100 852,1101 853,1101 853,1102 855,1102 855,1103 856,1103 856,1104 z M 855,636 856,636 856,635 857,635 857,632 858,632 858,630 859,630 859,629 860,629 860,628 861,628 861,627 860,627 860,626 859,626 859,625 858,625 858,624 857,624 857,623 856,623 856,622 855,622 855,621 854,621 854,619 853,619 853,618 852,618 852,617 851,617 851,616 850,616 850,614 849,614 848,614 848,637 849,637 849,638 850,638 850,639 851,639 851,640 852,640 852,641 853,641 853,642 854,642 854,643 855,643 z M 834,1159 834,1160 836,1160 836,1161 837,1161 837,1162 842,1162 842,1161 844,1161 844,1160 845,1160 845,1159 846,1159 846,1158 847,1158 847,1157 847,1154 849,1154 851,1154 851,1153 852,1153 852,1151 854,1151 854,1150 855,1150 855,1148 856,1148 858,1148 858,1145 859,1145 861,1145 861,1142 863,1142 863,1141 864,1141 864,1138 864,1137 866,1137 866,1136 867,1136 867,1135 864,1135 864,1134 862,1134 862,1133 860,1133 860,1132 858,1132 858,1131 856,1131 856,1130 855,1130 855,1129 853,1129 853,1128 852,1128 852,1127 851,1127 851,1125 850,1125 850,1124 849,1124 849,1123 848,1123 848,1122 847,1122 847,1121 846,1121 846,1120 844,1120 844,1119 843,1119 843,1118 842,1118 842,1117 841,1117 841,1116 839,1116 839,1117 838,1117 838,1118 838,1119 837,1119 837,1120 836,1120 836,1121 835,1121 835,1122 834,1122 834,1123 832,1123 832,1124 830,1124 830,1125 829,1125 829,1126 828,1126 828,1127 827,1127 827,1128 826,1128 826,1129 824,1129 824,1130 822,1130 822,1131 821,1131 821,1132 819,1132 819,1133 817,1133 817,1134 816,1134 816,1135 815,1135 815,1136 814,1136 814,1142 817,1142 817,1143 817,1145 820,1145 820,1146 820,1148 823,1148 823,1151 826,1151 826,1154 829,1154 829,1156 830,1156 830,1157 832,1157 832,1158 833,1158 833,1159 z M 826,606 826,605 823,605 823,610 824,610 824,611 825,611 825,612 826,612 826,613 827,613 827,614 828,614 828,615 829,615 829,617 831,617 831,616 832,616 832,612 833,612 833,610 834,610 834,609 835,609 835,608 837,608 837,606 z M 809,305 808,305 808,308 809,308 809,310 811,310 811,311 812,311 812,312 813,312 813,313 817,313 817,316 830,316 830,315 833,315 833,314 834,314 834,313 835,313 835,311 836,311 836,310 837,310 837,309 838,309 838,303 837,303 837,301 836,301 836,300 834,300 834,299 833,299 833,298 832,298 832,296 829,296 829,293 826,293 826,292 820,292 820,291 818,291 818,292 816,292 816,293 814,293 814,294 813,294 813,295 812,295 812,297 811,297 811,299 810,299 810,300 809,300 z M 701,488 701,489 702,489 702,490 705,490 705,491 709,491 709,492 711,492 712,492 712,493 713,493 714,493 719,493 719,494 721,494 721,493 724,493 725,493 725,491 726,491 726,490 727,490 727,488 726,488 726,487 725,487 725,486 724,486 724,485 724,484 723,484 723,483 723,482 722,482 722,481 721,481 721,480 720,480 720,479 719,479 719,478 719,477 718,477 718,476 718,475 717,475 717,474 716,474 716,472 715,472 714,472 714,471 713,471 713,470 711,470 711,469 710,469 710,468 708,468 708,467 707,467 707,466 704,466 704,465 702,465 702,464 701,464 701,463 700,463 700,462 699,462 699,461 698,461 698,460 697,460 697,459 695,459 694,459 694,458 693,458 688,458 678,458 678,459 674,459 674,460 672,460 672,461 671,461 671,462 670,462 670,463 668,463 668,466 669,466 669,468 670,468 670,469 671,469 671,471 672,471 672,473 673,473 673,474 674,474 674,475 675,475 675,476 676,476 676,477 678,477 678,478 679,478 679,479 680,479 680,480 681,480 681,481 683,481 683,482 685,482 685,483 689,483 689,484 691,484 691,485 692,485 692,486 695,486 695,487 699,487 699,488 z M 1019,426 1020,426 1020,427 1021,427 1021,428 1024,428 1024,429 1026,429 1026,428 1027,428 1034,428 1034,427 1037,427 1037,426 1041,426 1041,425 1043,425 1043,424 1045,424 1045,423 1046,423 1046,422 1047,422 1047,419 1047,416 1046,416 1046,411 1046,409 1044,409 1044,408 1042,408 1042,407 1040,407 1040,406 1032,406 1032,405 1028,405 1028,404 1023,404 1009,404 1009,406 1008,406 1008,407 1007,407 1007,408 1005,408 1005,410 1006,410 1006,411 1007,411 1007,413 1008,413 1008,414 1009,414 1009,416 1010,416 1010,417 1011,417 1011,418 1012,418 1012,419 1013,419 1013,420 1014,420 1014,421 1015,421 1015,422 1016,422 1016,423 1017,423 1017,425 1019,425 z M 907,686 907,687 908,687 908,688 911,688 911,668 908,668 908,665 905,665 905,663 904,663 904,662 902,662 902,670 903,670 903,685 905,685 905,686 z M 967,400 967,403 968,403 968,404 969,404 969,405 970,405 970,406 971,406 971,408 972,408 972,409 973,409 973,410 975,410 976,410 976,411 977,411 978,411 978,412 979,412 979,413 982,413 982,414 984,414 984,413 986,413 986,412 987,412 987,411 988,411 988,400 987,400 987,398 986,398 986,395 984,395 984,393 982,393 982,392 981,392 981,391 980,391 980,390 976,390 976,389 975,389 975,388 972,388 972,387 969,387 966,387 966,388 965,388 965,396 966,396 966,400 z M 925,922 925,914 926,914 926,908 926,902 925,902 925,903 924,903 924,904 923,904 923,905 922,905 922,906 921,906 921,907 920,907 920,908 919,908 919,909 918,909 918,910 917,910 917,911 916,911 916,912 914,912 914,913 913,913 913,914 911,914 911,915 910,915 910,916 909,916 909,917 908,917 908,918 907,918 907,919 906,919 906,920 904,920 904,921 902,921 902,922 902,923 900,923 900,924 899,924 899,926 897,926 897,927 896,927 896,929 895,929 895,930 894,930 894,932 893,932 893,933 892,933 892,936 891,936 891,941 891,949 892,949 892,951 895,951 895,952 897,952 897,953 898,953 898,954 901,954 901,955 904,955 904,956 907,956 907,957 910,957 910,958 912,958 912,959 914,959 914,960 922,960 922,959 922,953 923,953 923,942 923,929 923,926 925,926 z M 1003,390 1003,391 1004,391 1004,390 z M 573,654 573,655 574,655 574,654 z" fill="#ff0000" fill-opacity="1.0" id="xff0000_r255_g0_b0_a1.0_shape1"/>
    <path d="M 668,827 667,827 667,834 666,834 666,838 665,838 665,842 664,842 664,844 663,844 663,845 662,845 662,847 661,847 661,848 660,848 660,849 659,849 659,850 658,850 658,852 657,852 657,853 656,853 656,854 654,854 654,855 652,855 652,856 651,856 651,857 650,857 650,858 649,858 648,858 648,859 647,859 646,859 646,860 645,860 644,860 644,861 643,861 641,861 641,862 638,862 638,863 635,863 633,863 632,863 632,864 631,864 623,864 623,863 621,863 621,862 619,862 619,861 615,861 615,860 613,860 613,859 612,859 612,858 611,858 611,856 610,856 610,855 608,855 608,854 607,854 607,853 606,853 606,851 605,851 605,849 604,849 604,848 603,848 603,847 602,847 602,845 601,845 601,844 600,844 600,842 599,842 599,840 598,840 598,838 597,838 597,834 596,834 596,829 595,829 595,825 595,824 594,824 594,823 594,820 593,820 593,815 592,815 592,813 591,813 591,807 591,802 590,802 590,803 583,803 583,804 577,804 577,806 571,806 565,806 565,803 564,803 564,802 563,802 563,800 561,800 561,799 559,799 559,798 558,798 558,797 557,797 557,795 556,795 556,790 557,790 557,788 558,788 558,787 559,787 559,786 561,786 561,784 562,784 562,783 563,783 563,782 565,782 565,781 568,781 568,780 571,780 571,779 572,779 572,778 574,778 574,777 581,777 581,776 584,776 584,775 586,775 589,775 589,774 593,774 593,773 596,773 596,772 603,772 603,771 608,771 608,770 611,770 611,769 618,769 618,768 621,768 621,767 628,767 628,766 631,766 631,765 635,765 635,764 641,764 641,763 652,763 652,762 656,762 656,761 662,761 663,761 663,760 664,760 666,760 666,759 667,759 667,758 669,758 669,757 674,757 674,758 675,758 675,757 677,757 677,756 679,756 679,755 681,755 681,754 682,754 682,753 684,753 684,752 689,752 689,753 693,753 693,752 694,752 694,751 696,751 696,750 702,750 702,751 704,751 704,752 705,752 705,753 706,753 706,755 707,755 707,760 706,760 706,762 705,762 705,763 704,763 704,764 702,764 702,765 701,765 701,766 700,766 700,767 699,767 699,768 698,768 698,769 697,769 697,770 695,770 695,771 694,771 694,773 692,773 692,774 691,774 691,775 690,775 690,776 688,776 688,777 684,777 684,778 683,778 683,779 681,779 681,780 679,780 679,781 677,781 677,782 674,782 674,783 668,783 668,784 667,784 667,787 668,787 668,791 669,791 669,807 669,816 668,816 668,818 z" fill="#ff0000" fill-opacity="1.0" id="xff0000_r255_g0_b0_a1.0_shape2"/>
    <path d="M 847,873 847,875 849,875 849,876 851,876 851,877 852,877 852,878 853,878 853,879 854,879 854,880 855,880 855,882 856,882 856,883 857,883 857,885 858,885 858,892 859,892 859,899 859,905 858,905 858,907 858,913 857,913 857,920 856,920 856,924 855,924 855,927 854,927 854,930 853,930 853,932 852,932 852,933 851,933 851,934 850,934 850,935 849,935 849,936 847,936 847,937 842,937 842,936 840,936 840,935 839,935 839,934 838,934 838,932 837,932 837,927 838,927 838,925 839,925 839,924 840,924 840,922 841,922 841,919 842,919 842,911 843,911 843,904 844,904 844,894 843,894 843,891 841,891 841,888 840,888 840,887 837,887 837,886 835,886 835,885 829,885 829,886 822,886 822,887 818,887 818,888 815,888 815,889 812,889 812,890 809,890 809,891 802,891 802,892 799,892 799,893 796,893 796,894 789,894 789,895 786,895 786,896 780,896 780,897 776,897 776,899 770,899 770,900 769,900 769,901 767,901 767,902 763,902 763,903 762,903 762,905 758,905 758,906 755,906 755,907 753,907 753,908 752,908 752,909 750,909 750,911 747,911 747,915 748,915 748,917 749,917 749,921 750,921 750,923 751,923 751,924 752,924 752,926 753,926 753,930 754,930 754,931 755,931 755,932 756,932 756,933 757,933 757,935 758,935 758,937 759,937 759,938 761,938 761,939 764,939 764,940 766,940 766,941 767,941 767,942 768,942 768,944 769,944 769,949 768,949 768,951 767,951 767,952 766,952 766,953 764,953 764,954 759,954 759,953 756,953 756,952 753,952 753,951 751,951 751,950 750,950 750,949 749,949 749,948 748,948 748,947 747,947 747,946 746,946 746,944 745,944 745,943 744,943 744,941 743,941 743,940 742,940 742,938 741,938 741,937 740,937 740,935 739,935 739,934 738,934 738,931 737,931 737,929 736,929 736,926 735,926 735,923 734,923 734,922 733,922 733,920 732,920 732,917 731,917 731,909 731,908 732,908 732,907 732,905 733,905 733,903 734,903 734,902 735,902 735,901 736,901 736,900 737,900 737,899 738,899 739,899 739,898 740,898 740,897 742,897 742,896 744,896 744,895 745,895 745,894 747,894 747,893 750,893 750,892 753,892 753,891 754,891 754,890 756,890 756,889 758,889 758,888 761,888 762,888 762,887 763,887 763,886 765,886 765,885 767,885 769,885 769,884 771,884 771,883 774,883 775,883 775,882 776,882 777,882 777,881 778,881 784,881 784,880 787,880 787,879 794,879 794,878 797,878 797,877 800,877 800,876 807,876 807,875 810,875 810,874 813,874 813,873 817,873 817,872 820,872 820,871 827,871 827,870 836,870 836,871 840,871 840,872 842,872 842,873 z" fill="#ff0000" fill-opacity="1.0" id="xff0000_r255_g0_b0_a1.0_shape3"/>
    <path d="M 445,423 446,423 446,424 447,424 447,425 448,425 448,426 449,426 449,427 450,427 451,427 451,428 452,428 452,429 453,429 453,430 454,430 454,431 455,431 456,431 456,432 457,432 457,433 458,433 458,434 458,435 459,435 459,436 459,440 458,440 458,442 457,442 457,443 456,443 456,444 454,444 454,445 449,445 449,444 447,444 447,443 445,443 445,442 442,442 442,439 439,439 439,437 438,437 438,436 437,436 437,435 436,435 436,434 435,434 435,433 433,433 433,432 432,432 432,431 431,431 431,429 430,429 430,428 429,428 429,427 428,427 428,425 427,425 427,423 426,423 426,422 425,422 425,421 424,421 424,419 422,419 422,416 421,416 421,413 420,413 420,409 419,409 419,404 420,404 420,397 420,396 421,396 421,395 421,393 422,393 422,389 423,389 423,385 424,385 424,382 425,382 425,380 425,366 422,366 422,364 420,364 420,363 416,363 416,362 413,362 413,361 411,361 411,360 410,360 410,359 409,359 409,357 408,357 408,352 409,352 409,350 410,350 410,349 411,349 411,348 413,348 413,347 422,347 422,348 425,348 425,349 427,349 427,350 428,350 428,351 429,351 429,352 431,352 431,353 433,353 433,354 434,354 434,355 435,355 435,356 436,356 436,357 437,357 437,358 437,359 438,359 438,360 439,360 439,362 440,362 440,379 440,383 439,383 439,387 438,387 438,390 437,390 437,394 436,394 436,398 435,398 435,405 434,405 434,408 435,408 435,411 436,411 436,412 437,412 437,413 438,413 438,414 439,414 439,416 440,416 440,418 441,418 441,419 442,419 442,421 443,421 443,422 445,422 z" fill="#ff0000" fill-opacity="1.0" id="xff0000_r255_g0_b0_a1.0_shape4"/>
    <path d="M 868,278 867,278 867,259 867,225 868,225 868,223 869,223 869,222 870,222 870,221 872,221 872,220 877,220 877,221 879,221 879,222 880,222 880,223 881,223 881,225 882,225 882,253 882,277 883,277 883,280 884,280 884,285 883,285 883,287 882,287 882,288 881,288 881,289 879,289 879,290 874,290 874,289 872,289 872,288 871,288 871,287 870,287 870,285 869,285 869,282 868,282 z" fill="#ff0000" fill-opacity="1.0" id="xff0000_r255_g0_b0_a1.0_shape5"/>
    <path d="M 576,965 575,965 575,963 574,963 574,958 575,958 575,956 576,956 576,955 577,955 577,954 579,954 579,953 584,953 584,952 588,952 589,952 589,953 590,953 591,953 591,954 592,954 592,955 593,955 593,956 593,957 594,957 594,958 594,962 593,962 593,964 592,964 592,965 591,965 591,966 589,966 589,967 584,967 584,968 579,968 579,967 577,967 577,966 576,966 z" fill="#ff0000" fill-opacity="1.0" id="xff0000_r255_g0_b0_a1.0_shape6"/>
    <path d="M 584,936 584,935 586,935 586,934 591,934 591,935 593,935 593,936 594,936 594,937 595,937 595,939 596,939 596,944 595,944 595,946 594,946 594,947 593,947 593,948 591,948 591,949 586,949 586,948 584,948 584,947 583,947 583,946 582,946 582,944 581,944 581,939 582,939 582,937 583,937 583,936 z" fill="#ff0000" fill-opacity="1.0" id="xff0000_r255_g0_b0_a1.0_shape7"/>
    <path d="M 562,947 561,947 561,942 562,942 562,940 563,940 563,939 564,939 564,938 565,938 566,938 566,937 567,937 571,937 571,938 573,938 573,939 574,939 574,940 575,940 575,942 576,942 576,947 575,947 575,949 574,949 574,950 573,950 573,951 571,951 571,952 566,952 566,951 564,951 564,950 563,950 563,949 562,949 z" fill="#ff0000" fill-opacity="1.0" id="xff0000_r255_g0_b0_a1.0_shape8"/>
    <path d="M 594,969 594,970 593,970 593,969 z" fill="#ff0000" fill-opacity="1.0" id="xff0000_r255_g0_b0_a1.0_shape9"/>
  </g>
</svg>
